/* XPM */
static char *Wall_0501647953497[] = {
/* columns rows colors chars-per-pixel */
"64 64 256 2 ",
"   c black",
".  c #0000A8",
"X  c #00A800",
"o  c #00A8A8",
"O  c #A80000",
"+  c #A800A8",
"@  c #A85400",
"#  c gray66",
"$  c gray33",
"%  c #5454FC",
"&  c #54FC54",
"*  c #54FCFC",
"=  c #FC5454",
"-  c #FC54FC",
";  c #FCFC54",
":  c gray99",
">  c #ECECEC",
",  c gainsboro",
"<  c #D0D0D0",
"1  c #C0C0C0",
"2  c #B4B4B4",
"3  c gray66",
"4  c #989898",
"5  c gray55",
"6  c #7C7C7C",
"7  c gray44",
"8  c #646464",
"9  c gray33",
"0  c #484848",
"q  c gray22",
"w  c #2C2C2C",
"e  c #202020",
"r  c #FC0000",
"t  c #EC0000",
"y  c #E00000",
"u  c #D40000",
"i  c #C80000",
"p  c #BC0000",
"a  c #B00000",
"s  c #A40000",
"d  c #980000",
"f  c #880000",
"g  c #7C0000",
"h  c #700000",
"j  c #640000",
"k  c #580000",
"l  c #4C0000",
"z  c #400000",
"x  c #FCD8D8",
"c  c #FCB8B8",
"v  c #FC9C9C",
"b  c #FC7C7C",
"n  c #FC5C5C",
"m  c #FC4040",
"M  c #FC2020",
"N  c #FC0000",
"B  c #FCA85C",
"V  c #FC9840",
"C  c #FC8820",
"Z  c #FC7800",
"A  c #E46C00",
"S  c #CC6000",
"D  c #B45400",
"F  c #9C4C00",
"G  c #FCFCD8",
"H  c #FCFCB8",
"J  c #FCFC9C",
"K  c #FCFC7C",
"L  c #FCF85C",
"P  c #FCF440",
"I  c #FCF420",
"U  c #FCF400",
"Y  c #E4D800",
"T  c #CCC400",
"R  c #B4AC00",
"E  c #9C9C00",
"W  c #848400",
"Q  c #706C00",
"!  c #585400",
"~  c #404000",
"^  c #D0FC5C",
"/  c #C4FC40",
"(  c #B4FC20",
")  c #A0FC00",
"_  c #90E400",
"`  c #80CC00",
"'  c #74B400",
"]  c #609C00",
"[  c #D8FCD8",
"{  c #BCFCB8",
"}  c #9CFC9C",
"|  c #80FC7C",
" . c #60FC5C",
".. c #40FC40",
"X. c #20FC20",
"o. c #00FC00",
"O. c #00FC00",
"+. c #00EC00",
"@. c #00E000",
"#. c #00D400",
"$. c #04C800",
"%. c #04BC00",
"&. c #04B000",
"*. c #04A400",
"=. c #049800",
"-. c #048800",
";. c #047C00",
":. c #047000",
">. c #046400",
",. c #045800",
"<. c #044C00",
"1. c #044000",
"2. c #D8FCFC",
"3. c #B8FCFC",
"4. c #9CFCFC",
"5. c #7CFCF8",
"6. c #5CFCFC",
"7. c #40FCFC",
"8. c #20FCFC",
"9. c #00FCFC",
"0. c #00E4E4",
"q. c #00CCCC",
"w. c #00B4B4",
"e. c #009C9C",
"r. c #008484",
"t. c #007070",
"y. c #005858",
"u. c #004040",
"i. c #5CBCFC",
"p. c #40B0FC",
"a. c #20A8FC",
"s. c #009CFC",
"d. c #008CE4",
"f. c #007CCC",
"g. c #006CB4",
"h. c #005C9C",
"j. c #D8D8FC",
"k. c #B8BCFC",
"l. c #9C9CFC",
"z. c #7C80FC",
"x. c #5C60FC",
"c. c #4040FC",
"v. c #2024FC",
"b. c #0004FC",
"n. c #0000FC",
"m. c #0000EC",
"M. c #0000E0",
"N. c #0000D4",
"B. c #0000C8",
"V. c #0000BC",
"C. c #0000B0",
"Z. c #0000A4",
"A. c #000098",
"S. c #000088",
"D. c #00007C",
"F. c #000070",
"G. c #000064",
"H. c #000058",
"J. c #00004C",
"K. c #000040",
"L. c #282828",
"P. c #FCE034",
"I. c #FCD424",
"U. c #FCCC18",
"Y. c #FCC008",
"T. c #FCB400",
"R. c #B420FC",
"E. c #A800FC",
"W. c #9800E4",
"Q. c #8000CC",
"!. c #7400B4",
"~. c #60009C",
"^. c #500084",
"/. c #440070",
"(. c #340058",
"). c #280040",
"_. c #FCD8FC",
"`. c #FCB8FC",
"'. c #FC9CFC",
"]. c #FC7CFC",
"[. c #FC5CFC",
"{. c #FC40FC",
"}. c #FC20FC",
"|. c #FC00FC",
" X c #E000E4",
".X c #C800CC",
"XX c #B400B4",
"oX c #9C009C",
"OX c #840084",
"+X c #6C0070",
"@X c #580058",
"#X c #400040",
"$X c #FCE8DC",
"%X c #FCE0D0",
"&X c #FCD8C4",
"*X c #FCD4BC",
"=X c #FCCCB0",
"-X c #FCC4A4",
";X c #FCBC9C",
":X c #FCB890",
">X c #FCB080",
",X c #FCA470",
"<X c #FC9C60",
"1X c #F0945C",
"2X c #E88C58",
"3X c #DC8854",
"4X c #D08050",
"5X c #C87C4C",
"6X c #BC7848",
"7X c #B47044",
"8X c #A86840",
"9X c #A0643C",
"0X c #9C6038",
"qX c #905C34",
"wX c #885830",
"eX c #80502C",
"rX c #744C28",
"tX c #6C4824",
"yX c #5C4020",
"uX c #543C1C",
"iX c #483818",
"pX c #403018",
"aX c #382C14",
"sX c #28200C",
"dX c #600064",
"fX c #006464",
"gX c #006060",
"hX c #00001C",
"jX c #00002C",
"kX c #302410",
"lX c #480048",
"zX c #500050",
"xX c #000034",
"cX c gray11",
"vX c #4C4C4C",
"bX c gray36",
"nX c gray25",
"mX c gray19",
"MX c #343434",
"NX c #D8F4F4",
"BX c #B8E8E8",
"VX c #9CDCDC",
"CX c #74C8C8",
"ZX c #48C0C0",
"AX c #20B4B4",
"SX c #20B0B0",
"DX c #00A4A4",
"FX c #009898",
"GX c #008C8C",
"HX c #008484",
"JX c #007C7C",
"KX c #007878",
"LX c #007474",
"PX c #007070",
"IX c #006C6C",
"UX c #980088",
/* pixels */
"w w w w w w w w w w w w w w w w w w w w w w w w w w w w w w w w w w w w w w w w w w w w w w w w w w w w w w w w w w w w w w w w ",
"$ $ $ $ $ $ $ $ $ $ 0 , T T T T T , , , , , , R R R , e q 5 3 , , , , , T T T 7 5 5 9 e 0 0 0 0 0 0 0 0 0 0 $ $ $ $ $ $ $ $ $ $ ",
"$ $ $ $ $ $ $ $ $ $ 0 , < R R R R 4 3 T T < 1 1 T T 5 e q 5 1 2 5 T 6 T E E E Q $ $ q e q 7 E E E E 6 6 6 7 8 0 0 0 0 0 0 0 0 0 ",
"5 5 5 5 5 5 5 5 e $ 0 , < R R R Q 4 T T E 1 1 1 W R 8 e q 3 , # 5 6 T 6 Q W Q $ 6 $ q e q E T Y E Q 5 2 1 T T T 8 8 T T 5 5 5 5 ",
"< 2 R 2 2 3 5 5 e $ 0 , < E E W Q 4 T E # # 4 5 5 E 9 e q 5 1 5 5 5 # # 8 W Q $ 7 $ q e q E Y R Q 8 6 2 , T Y Y 0 8 T T W 6 < < ",
"# # R R $ 7 6 7 e $ 0 , 1 E W Q 7 6 4 3 4 E 5 7 5 W 9 e q 0 3 T E # 5 5 6 ! $ 7 $ $ q e q E Y Q 8 5 2 Y T 6 E E 0 8 E W Q 0 5 4 ",
"2 4 Q $ 5 5 5 7 e 0 0 , < E Q Q 6 # 4 4 4 E 5 4 7 5 $ e q 0 6 E W R 5 # # 7 8 7 q q q e q W E Q 8 6 T T T 6 Q E 0 7 8 0 0 8 R 6 ",
"2 2 6 5 # 5 7 $ e q 0 , < 5 6 6 4 # 4 < 6 W 4 # 5 5 $ e q 0 7 5 # 5 # 5 5 5 # 7 q q q w q W Q 8 5 5 6 T 6 6 Q Q 0 7 6 5 7 6 W 8 ",
"4 # # 7 7 5 0 0 e w 0 , 1 # 4 6 4 T 4 4 5 4 5 5 # 5 $ e e 0 9 7 7 9 9 q q q q q q q e q q 6 8 5 6 # 3 6 5 3 6 0 7 5 4 5 5 # 6 8 ",
"5 5 5 5 7 $ 0 0 e w 0 , > # 6 4 6 T R 7 5 5 5 # 5 5 $ w e 0 0 q q q q q q q q q e e q q q 6 2 2 5 E 6 4 6 6 4 8 7 4 5 4 5 5 # 5 ",
"7 7 7 7 $ 0 q q e w 0 , , 5 6 4 4 T E 7 # 5 # 5 # 5 $ w e q 0 q w w e e e e e w w q q q q 6 2 6 E 0 5 # Y 6 5 7 5 7 4 8 7 5 8 8 ",
"9 9 0 0 0 e e e e w 0 3 , # 4 6 T R E 7 4 5 5 6 5 7 8 q e q 0 0 0 0 7 3 3 3 3 , , Q q q q 7 2 5 6 8 8 6 E q $ $ 8 0 0 0 0 0 0 0 ",
"e e e e e w w w w q 9 5 , < 5 6 5 E 7 5 5 # 6 5 E 5 $ q e q 0 7 3 I I , , , < < , T Q q q 9 5 7 8 8 $ 0 ! q q q q q q w w w w w ",
"w w w w w w w w w q 9 7 3 < 5 # 5 5 5 # 5 5 4 5 8 8 $ q e w q 3 I T E 5 5 3 5 # E 7 ! e q q q q q q q q q q q w w e e e e e e e ",
"q q q q q q q q q q 9 0 5 < # 5 # 4 7 4 5 6 5 # W $ $ q e w 0 3 T W 6 3 5 Y Y 5 E $ Q q q w w w w w w w w w w q q q q q q q q q ",
"$ 0 q q q q q q q q $ 0 7 1 5 # 4 T E 7 # 5 # 5 Q $ 7 0 e w 0 3 Y W 6 5 T Y 6 5 W $ ! q 0 0 $ $ $ $ e 0 0 0 0 0 0 0 0 0 0 0 0 0 ",
"4 4 4 4 4 4 4 4 4 w e 9 0 1 1 W 5 E W # 7 5 5 5 7 8 $ $ e e 0 Y Y 6 6 # Y Y 7 5 Q $ q q 0 Y R R 8 $ 0 9 6 4 4 4 4 4 4 4 4 4 4 4 ",
"< T R , , T E 7 7 q e 9 0 5 1 Q 8 4 8 5 7 7 # 5 7 5 7 0 e e 0 Y 6 5 6 5 E Q 8 # 5 $ q q q R R W 8 w 0 6 1 T T T , R # # T T T , ",
"T R W R R E Q $ 7 q e $ 0 7 4 8 8 5 5 7 5 9 5 7 $ 7 $ 0 e e 0 6 5 6 5 Y 8 8 8 $ $ $ q e q E W 9 8 e 0 4 T T T 6 Y E 6 # T E W 7 ",
"R W # R E W Q $ 7 q e 0 9 0 4 4 7 5 8 7 7 7 7 $ 7 $ 0 w e e w 3 5 7 5 7 $ q q q q q q e 8 E W 7 9 e 0 4 T T 6 4 E E 6 4 T E W 7 ",
"W # 5 R E Q Q $ $ q e 0 9 0 8 $ $ q q q q q q w e e e e e e w 5 7 q q q e e e e e e e e 8 5 W 5 9 e 0 4 # 6 5 4 E 6 6 # T E W 4 ",
"# 5 # R Q $ $ 5 $ q e 0 9 0 w w w w e e e e e e e e e e e e w q $ q e e e e w w w w w w 5 3 5 3 9 e 0 5 # 4 # 4 # 6 # 6 # E Q 7 ",
"5 # 6 6 $ 7 5 7 $ q e q 9 9 0 q e e e e e e e e 0 0 0 0 0 0 0 5 5 4 E E E E E 6 9 w q 8 1 , 3 1 8 e 0 5 5 # Y 4 5 # 4 # # 6 6 4 ",
"5 T E 6 5 5 5 8 0 q e q 5 T T R E 5 2 2 2 8 q 0 8 E T T T R < > > > T T T T R E W e q 6 , 1 , 3 7 e 0 6 4 # 4 5 # 4 Y 4 6 # 4 # ",
"5 E W # 5 5 5 8 0 q e q T R R E 6 6 6 6 6 q $ 0 E T R 7 4 3 3 4 3 4 E 6 E W E W Q e q 5 , 3 3 1 Y e 0 Y # 4 # 4 Y Y 6 # 4 4 # 4 ",
"4 W 5 5 5 5 7 $ q q e q R E W 8 8 8 8 8 8 e $ 0 4 > 4 4 E 4 T 3 4 4 6 3 W 6 E Q ! e q 5 Y 5 5 3 E e 0 E ! 7 8 Y R W Q ! 7 7 9 7 ",
"8 8 8 8 8 $ 0 q q q e q R W 8 8 4 W E Q 8 e 0 0 4 > Y 3 4 T W 4 T T 3 4 W 3 W 8 ! e q 5 R 7 5 3 Q e 0 ! q q 0 ! ! ! ! 0 0 $ $ $ ",
"$ 0 0 q q q e e e e w q R W 8 4 4 6 W Q 8 e 0 0 4 > T 3 T E 6 4 T W 4 3 4 4 6 8 ~ e q 5 7 5 3 , ! e 0 w w e e e e e e e e q q 0 ",
"e e e e e e w w w 0 0 0 > 8 4 # W 5 W Q 8 e q 0 4 > R 4 T Q 6 3 4 3 4 6 R W 6 8 ~ e q Y > 3 , 3 $ e 0 q q q q w w w e e e e e e ",
"0 8 8 7 5 4 5 5 5 5 0 e > 4 4 # W 5 8 6 8 ~ e 0 4 > R 3 E Q 6 4 6 4 3 4 R W 6 9 ~ e q R > 1 1 3 $ e 0 q q q q q q q q q q q q q ",
"8 5 2 R R 5 # # # # 8 e > # < 5 Q # 5 6 8 ~ e 0 4 > 3 T E Q 6 4 3 3 4 3 R W 5 9 ~ e Q E , 3 3 R $ e 0 Q E E E R R W W 0 0 0 0 $ ",
"8 2 R R W 8 # # # # 0 e > # 4 3 6 5 6 5 8 ~ e 0 6 4 T E Q 7 6 3 4 4 6 4 R W 8 9 ~ e q E , , R E $ e 0 7 E Q E E E R R R W 4 q $ ",
"8 R E W 8 5 # R R 7 8 e > < 3 4 3 W 5 # 8 ~ e q $ 4 E Q 6 6 5 4 3 6 4 6 R W 7 0 q e q E , 3 R Q $ e 0 4 7 7 E E W W Q Q Q 6 q $ ",
"8 R E 7 7 # 7 R W 7 8 e > 4 5 4 3 5 5 6 8 ~ e w $ 3 > 3 T T E 5 6 6 6 6 R W 8 0 w e Q 5 < 1 R ! $ e 0 , # # E Q 7 7 ! 8 7 8 q 0 ",
"8 7 5 3 5 7 5 R Q 7 $ e , 3 3 3 4 # # 6 8 ~ e w $ 5 > 1 T W Q 6 4 4 5 # E W 8 0 e e E 5 < 3 W Q ~ e 0 < # 5 E Q 5 6 4 8 4 8 q 0 ",
"8 3 3 5 3 3 R E Q 7 $ e , 1 6 4 T R 6 5 8 ~ e e 0 7 < 1 W Q 8 6 5 3 4 R E 8 8 q e e 0 5 < 5 Q ! ~ e 0 1 # # E Q 6 5 4 4 # $ q 0 ",
"8 , 4 3 5 5 W Q Q 7 $ e 1 , 5 4 R W 5 # 8 ~ ~ e 0 $ 2 , Q 8 6 5 # 5 W 8 8 8 7 q e q 0 6 3 6 Q ~ ! q 0 3 # 5 E W 7 4 6 7 4 $ q q ",
"8 , 3 3 5 4 Q Q 7 7 $ e 2 , 6 3 5 5 5 5 8 ~ ~ e q $ 5 1 4 6 6 7 7 7 8 8 7 7 9 q e q 0 $ q q ! ! q q 0 7 $ 0 $ $ $ $ $ $ $ $ q q ",
"8 , 2 5 R W 5 7 5 4 $ e 4 , # 6 # # 6 5 8 $ ~ e q $ 0 5 5 7 7 9 9 0 e ~ 0 9 0 e e q 0 $ 0 0 q q q 0 0 e e e e e e e e e e e e q ",
"8 , 2 3 5 4 5 R E 7 $ e 6 , 4 4 # 5 8 5 6 $ ~ e w 0 0 q w w w e e w w w q q q q q q 0 0 0 0 0 0 0 0 0 0 0 0 q q q q q q q q q q ",
"8 , R R 4 5 R E W 7 $ e $ > # 3 5 5 5 # 6 $ ! e w 0 0 0 q q q q q 0 0 0 9 9 8 8 8 7 7 6 6 6 6 6 W W W W 6 6 6 6 6 6 6 6 6 6 q $ ",
"8 R R W 3 4 E Q Q 8 $ e 0 > 4 5 E 6 5 6 6 $ ! e w q 8 E E E E E E E W 6 6 5 4 4 3 3 3 3 3 2 2 T T T R W 1 1 Y R 1 T R W 1 6 q $ ",
"8 R W 6 4 4 5 Q Q 8 e w 0 > # 5 W 8 # 5 8 $ ! e e q Q T T T T T T T T E # 1 # 1 4 1 # 1 1 1 T R W W W 2 2 Y R 1 1 R R R W 8 w 0 ",
"8 R W 6 # 5 5 5 5 $ e w 0 > 5 # 8 8 5 5 8 $ ! e e q Q T R R R R R R R W 3 1 # # 1 T E 4 # 4 R W # 4 T T R 6 5 1 R E R W 6 $ w 0 ",
"8 R W 5 5 # 5 3 5 $ e q 0 , 3 # # # 5 # 8 $ ~ e e q w R R E E E E E E W Q 5 1 # # E E # # 4 1 4 # T R R 6 5 4 # 7 7 R 7 7 $ w q ",
"0 W 6 5 3 5 3 5 8 $ e q 0 < 5 5 # 5 5 5 8 $ q e e q w 5 5 5 E W E W W Q Q 7 # 1 # 5 6 4 1 4 4 # T 6 6 6 4 # # 4 5 5 R 7 7 $ w q ",
"0 5 5 5 5 6 8 $ $ e w q 0 2 3 5 5 # 5 6 8 $ q e e q w 1 , 1 E Q Q Q Q 7 7 5 # 1 5 2 5 4 4 T T 4 5 6 7 5 5 Y R 2 # 5 R 7 7 $ w q ",
"0 6 6 7 8 $ $ $ $ e w q 0 4 4 # 5 5 5 7 8 $ q e e q w 2 , < W 7 7 7 7 6 4 5 E # 2 # 5 2 T 3 5 5 # 5 5 4 2 R W # 4 4 7 7 7 $ e q ",
"0 q e $ $ $ $ $ $ e q 0 0 6 8 8 8 8 8 8 $ $ q e e q w 3 , < 7 6 5 5 R R W 2 5 5 2 4 # 2 3 5 R # R # 4 2 R W 4 # # 4 R R 7 $ e q ",
"$ $ $ w w e e w e w q 0 q q q q q q q q q q q e e w w 5 < 2 5 2 4 2 R R Q 5 2 5 2 4 5 5 Y R Q 4 # 1 4 # 4 4 # 4 5 5 2 6 7 $ e q ",
"0 0 0 0 q q w w w w q 0 q q e e e e e e e e e e e e w 5 4 7 7 7 7 7 W Q Q 5 # 7 6 5 2 Y R Q # 5 # 4 5 5 2 6 5 5 T 4 5 4 7 $ e q ",
"0 6 3 T T T E 5 8 0 0 $ q q w w w w w w w w w w w w q $ 0 q w w w w w w $ 7 7 6 5 R 2 Q Q 6 6 7 8 6 5 5 5 6 6 2 6 8 6 6 8 9 e q ",
"0 3 T Y T T T T R E 3 5 7 8 9 0 q q q q q q q q q q 0 $ 0 0 q q q q q q w 0 $ 9 9 9 9 9 9 9 9 9 9 9 9 9 9 9 9 9 9 9 9 9 $ e w q ",
"0 3 T Y R 5 5 5 4 # 1 R Y Y T T T R R R R R W 7 6 7 8 8 9 9 0 0 0 0 0 q q w w w w w e e w w w w w w e e e e e e e e e e e w q 0 ",
"0 3 1 4 R 4 1 1 2 1 2 1 # 5 5 E E E E E E E E W 5 5 1 3 3 3 3 3 5 0 $ 0 q q q q q q q q q w w w w w w w w w w w w w w w q q 0 0 ",
"0 3 1 1 4 1 2 # # 4 1 # 2 1 2 # 5 5 5 5 5 W W W 5 4 1 , Y Y 5 1 6 q 0 $ 0 0 0 q q q q q q q q q q q q q q q q q q q q q 0 0 0 $ ",
"0 3 2 < 1 2 1 Y R W 2 2 < # < 1 1 T E 4 5 5 5 5 5 2 # 5 Y W 5 6 8 e q $ 0 W R R R 8 0 0 0 $ $ $ Q R E W Q Q ! 0 0 0 0 0 $ $ $ $ ",
"0 3 1 1 # 5 6 R W ! 1 # 1 < # # # < 1 1 # 1 # < # 6 # < # 5 5 8 $ e q 0 0 R W W W 8 , , 2 $ $ E T T T E 6 T # # < T 2 4 6 0 0 $ ",
"0 3 5 7 8 8 8 W ! 7 6 7 8 7 6 7 8 8 8 7 6 5 3 5 6 8 8 8 8 8 8 $ $ q e q 0 8 W W Q 8 2 2 2 8 $ 5 6 6 6 6 6 # # 5 T E 7 # , 4 e $ ",
"0 5 8 0 q q q q q q q q q q q q q q q q q q q q q q q q q q q q q q e w 0 2 W Q 8 4 8 4 5 8 0 5 5 # 5 # T T # # E W 7 5 # $ e $ ",
"0 q e e e e e e e e e e e e e e e e e e e e e e e e e e e e e e e e e w 0 q ~ ! $ 8 8 8 8 8 0 8 8 4 # T T E 6 # W 7 7 5 5 $ e $ ",
"$ 0 q q q w w w w w w w w w w w w w w w w w w w w w w w w w w w w w w w q 0 ~ ~ q e e e e e q 0 $ $ Q ! $ $ $ Q ! $ $ $ $ $ e $ ",
"$ $ $ $ 0 0 0 0 0 0 0 0 q q q q q q q q q q q q q q q q q q q q q q q q q 0 0 0 0 q q q q q q 0 0 e e e e e e e e e e e e e e $ ",
"q q q q q q q q q q q q q q q q q q q q q q q q q q q q q q q q q q q q q q q q q q q q q q q q q q q q q q q q q q q q q q q q "
};
