/* XPM */
static char *Wall_0201647953497[] = {
/* columns rows colors chars-per-pixel */
"64 64 256 2 ",
"   c black",
".  c #0000A8",
"X  c #00A800",
"o  c #00A8A8",
"O  c #A80000",
"+  c #A800A8",
"@  c #A85400",
"#  c gray66",
"$  c gray33",
"%  c #5454FC",
"&  c #54FC54",
"*  c #54FCFC",
"=  c #FC5454",
"-  c #FC54FC",
";  c #FCFC54",
":  c gray99",
">  c #ECECEC",
",  c gainsboro",
"<  c #D0D0D0",
"1  c #C0C0C0",
"2  c #B4B4B4",
"3  c gray66",
"4  c #989898",
"5  c gray55",
"6  c #7C7C7C",
"7  c gray44",
"8  c #646464",
"9  c gray33",
"0  c #484848",
"q  c gray22",
"w  c #2C2C2C",
"e  c #202020",
"r  c #FC0000",
"t  c #EC0000",
"y  c #E00000",
"u  c #D40000",
"i  c #C80000",
"p  c #BC0000",
"a  c #B00000",
"s  c #A40000",
"d  c #980000",
"f  c #880000",
"g  c #7C0000",
"h  c #700000",
"j  c #640000",
"k  c #580000",
"l  c #4C0000",
"z  c #400000",
"x  c #FCD8D8",
"c  c #FCB8B8",
"v  c #FC9C9C",
"b  c #FC7C7C",
"n  c #FC5C5C",
"m  c #FC4040",
"M  c #FC2020",
"N  c #FC0000",
"B  c #FCA85C",
"V  c #FC9840",
"C  c #FC8820",
"Z  c #FC7800",
"A  c #E46C00",
"S  c #CC6000",
"D  c #B45400",
"F  c #9C4C00",
"G  c #FCFCD8",
"H  c #FCFCB8",
"J  c #FCFC9C",
"K  c #FCFC7C",
"L  c #FCF85C",
"P  c #FCF440",
"I  c #FCF420",
"U  c #FCF400",
"Y  c #E4D800",
"T  c #CCC400",
"R  c #B4AC00",
"E  c #9C9C00",
"W  c #848400",
"Q  c #706C00",
"!  c #585400",
"~  c #404000",
"^  c #D0FC5C",
"/  c #C4FC40",
"(  c #B4FC20",
")  c #A0FC00",
"_  c #90E400",
"`  c #80CC00",
"'  c #74B400",
"]  c #609C00",
"[  c #D8FCD8",
"{  c #BCFCB8",
"}  c #9CFC9C",
"|  c #80FC7C",
" . c #60FC5C",
".. c #40FC40",
"X. c #20FC20",
"o. c #00FC00",
"O. c #00FC00",
"+. c #00EC00",
"@. c #00E000",
"#. c #00D400",
"$. c #04C800",
"%. c #04BC00",
"&. c #04B000",
"*. c #04A400",
"=. c #049800",
"-. c #048800",
";. c #047C00",
":. c #047000",
">. c #046400",
",. c #045800",
"<. c #044C00",
"1. c #044000",
"2. c #D8FCFC",
"3. c #B8FCFC",
"4. c #9CFCFC",
"5. c #7CFCF8",
"6. c #5CFCFC",
"7. c #40FCFC",
"8. c #20FCFC",
"9. c #00FCFC",
"0. c #00E4E4",
"q. c #00CCCC",
"w. c #00B4B4",
"e. c #009C9C",
"r. c #008484",
"t. c #007070",
"y. c #005858",
"u. c #004040",
"i. c #5CBCFC",
"p. c #40B0FC",
"a. c #20A8FC",
"s. c #009CFC",
"d. c #008CE4",
"f. c #007CCC",
"g. c #006CB4",
"h. c #005C9C",
"j. c #D8D8FC",
"k. c #B8BCFC",
"l. c #9C9CFC",
"z. c #7C80FC",
"x. c #5C60FC",
"c. c #4040FC",
"v. c #2024FC",
"b. c #0004FC",
"n. c #0000FC",
"m. c #0000EC",
"M. c #0000E0",
"N. c #0000D4",
"B. c #0000C8",
"V. c #0000BC",
"C. c #0000B0",
"Z. c #0000A4",
"A. c #000098",
"S. c #000088",
"D. c #00007C",
"F. c #000070",
"G. c #000064",
"H. c #000058",
"J. c #00004C",
"K. c #000040",
"L. c #282828",
"P. c #FCE034",
"I. c #FCD424",
"U. c #FCCC18",
"Y. c #FCC008",
"T. c #FCB400",
"R. c #B420FC",
"E. c #A800FC",
"W. c #9800E4",
"Q. c #8000CC",
"!. c #7400B4",
"~. c #60009C",
"^. c #500084",
"/. c #440070",
"(. c #340058",
"). c #280040",
"_. c #FCD8FC",
"`. c #FCB8FC",
"'. c #FC9CFC",
"]. c #FC7CFC",
"[. c #FC5CFC",
"{. c #FC40FC",
"}. c #FC20FC",
"|. c #FC00FC",
" X c #E000E4",
".X c #C800CC",
"XX c #B400B4",
"oX c #9C009C",
"OX c #840084",
"+X c #6C0070",
"@X c #580058",
"#X c #400040",
"$X c #FCE8DC",
"%X c #FCE0D0",
"&X c #FCD8C4",
"*X c #FCD4BC",
"=X c #FCCCB0",
"-X c #FCC4A4",
";X c #FCBC9C",
":X c #FCB890",
">X c #FCB080",
",X c #FCA470",
"<X c #FC9C60",
"1X c #F0945C",
"2X c #E88C58",
"3X c #DC8854",
"4X c #D08050",
"5X c #C87C4C",
"6X c #BC7848",
"7X c #B47044",
"8X c #A86840",
"9X c #A0643C",
"0X c #9C6038",
"qX c #905C34",
"wX c #885830",
"eX c #80502C",
"rX c #744C28",
"tX c #6C4824",
"yX c #5C4020",
"uX c #543C1C",
"iX c #483818",
"pX c #403018",
"aX c #382C14",
"sX c #28200C",
"dX c #600064",
"fX c #006464",
"gX c #006060",
"hX c #00001C",
"jX c #00002C",
"kX c #302410",
"lX c #480048",
"zX c #500050",
"xX c #000034",
"cX c gray11",
"vX c #4C4C4C",
"bX c gray36",
"nX c gray25",
"mX c gray19",
"MX c #343434",
"NX c #D8F4F4",
"BX c #B8E8E8",
"VX c #9CDCDC",
"CX c #74C8C8",
"ZX c #48C0C0",
"AX c #20B4B4",
"SX c #20B0B0",
"DX c #00A4A4",
"FX c #009898",
"GX c #008C8C",
"HX c #008484",
"JX c #007C7C",
"KX c #007878",
"LX c #007474",
"PX c #007070",
"IX c #006C6C",
"UX c #980088",
/* pixels */
"pXpXpXpXpXpXpXpXpXpXpXpXpXpXpXpXpXpXpXpXpXpXpXpXpXpXpXpXpXpXpXpXpXpXpXpXpXpXpXpXpXpXpXpXpXpXpXpXpXpXpXpXpXpXpXpXpXpXpXpXpXpXpXpX",
"tXtXtXtXtXtXtXtXtXtXtXtXtXtXtXtXtXtXtXtXtXtXtXtXtXtXtXtXtXtXtXtXtXtXtXtXtXtXtXtXtXtXtXtXtXtXtXtXtXtXtXtXtXtXtXtXtXtXtXtXtXtXtXtX",
"qXqXqXqXqXqXqXqXqXqXqXqXqXqXqXqXqXqXqXqXqXqXqXqXqXqXqXqXqXqXqXqXqXqXqXqXqXqXqXqXqXqXqXqXqXqXqXqXqXqXqXqXqXqXqXqXqXqXqXqXqXqXqXqX",
"uXuXuXuXuXuXuXaXuXsXaXuXuXuXuXuXuXuXuXuXuXuXuXuXuXaXuXsXaXuXuXuXuXaXuXsXaXuXuXuXuXuXuXaXuXsXaXuXuXuXuXuXuXuXuXuXuXuXaXuXsXaXuXuX",
"iXiXtXrXrXrXrXuXqXsXuXqXyXiXiXiXiXrXrXiXtXiXtXiXiXuXqXsXuXqXrXiXrXuXqXsXuXqXyXiXiXiXyXuXqXsXuXqXiXrXiXiXrXiXrXiXrXrXuXqXsXuXqXtX",
"iXiXtXrXrXrXyXuXqXsXuXqXtXiXiXiXuXrXrXiXtXiXtXiXiXuXqXsXuXqXrXiXrXuXqXsXuXqXrXyXiXyXrXuXqXsXuXqXiXrXiXiXrXiXrXiXrXrXuXqXsXuXqXtX",
"iXiXyXrXrXR R R R R R R R R R R R R R R R R R R R R R R R R R R R R R R R R R R R R R R R R R R R R R R R R R R R R E D sXuXqXtX",
"uXiXuXtXrXR C C C C C C C C C C C C C C C C C C C C C Z Z Z Z Z Z Z Z Z Z Z Z Z Z Z Z Z Z Z A A A A A A A A A A A D D uXsXuXqXtX",
"tXiXiXyXrXR C iXiXiXiXiXiXiXiXiXiXiXiXiXiXiXiXiXiXiXiXiXiXiXiXiXiXiXiXiXiXiXiXiXiXiXiXiXyXyXyXyXyXyXyXyXyXyXyXyXyXE D uXsXuXqXuX",
"tXiXuXiXyXR C iX$ $ $ $ $ $ $ $ $ $ $ $ $ $ $ $ $ $ $ $ $ $ 8 8 8 8 8 8 8 8 8 8 8 8 8 8 8 8 8 8 8 7 7 7 7 7 7 7 7 R D uXsXuXqXuX",
"rXuXiXiXuXR C iX$ 4 4 4 4 4 4 4 4 4 4 4 4 4 4 4 4 4 4 4 4 4 4 4 4 4 4 4 4 4 4 4 4 4 4 4 4 4 4 4 4 4 4 4 4 4 4 4 4 R D uXsXuXqXuX",
"rXuXiXiXiXR C iX$ 4 4 4 4 4 4 4 4 4 4 4 4 4 4 4 4 4 4 6 8 0 0 0 0 0 0 0 6 5 4 4 4 4 4 4 4 4 4 4 4 4 4 4 4 4 4 4 4 R D uXsXuXqXiX",
"tXrXiXiXiXR C iX$ 4 4 4 4 4 4 4 4 4 4 4 4 4 4 4 4 4 9 0 0 e e e e e e e e e 0 0 6 4 4 4 4 4 4 4 4 4 4 4 4 4 4 4 4 R D uXsXuXqXiX",
"tXrXuXiXiXR C iX$ 4 4 4 4 4 4 4 4 4 4 4 4 4 4 4 4 9 0 e e q q 9 q q q q q e e e 0 4 4 4 4 4 4 4 4 4 4 4 4 4 4 4 4 R D uXsXuXqXiX",
"yXrXrXiXuXR C iX$ 4 4 4 4 4 4 4 4 4 4 4 4 4 4 4 3X5X7 q q q 9 9 5 6 9 q 0 9 q q e e 4 4 4 4 4 4 4 4 4 4 4 4 4 4 4 R D uXsXuXqXiX",
"uXrXrXrXuXR C iX$ 4 4 4 4 4 4 4 4 4 4 4 4 4 4 4 <X>X>X>X7 5X6X7 6 5 8 w 8 7 8 q w e 0 4 4 4 4 4 4 4 4 4 4 4 4 4 4 R D uXsXuXqXuX",
"iXtXrXrXyXR C iX$ 4 4 4 4 4 4 4 4 4 4 4 4 4 4 3X>X:X:X;X>X7 4X6X9 9 q w 0 9 0 0 w e e 8 4 4 4 4 4 4 4 4 4 4 4 4 4 R D uXsXuXqXuX",
"iXtXrXrXrXR C iX$ 4 4 4 4 4 4 4 4 4 4 4 4 4 4 <X>X:X:X-X>X7 4Xq q q q w q q q q w e e 0 4 4 4 4 4 4 4 4 4 4 4 4 4 R D uXsXuXqXuX",
"iXyXtXrXrXR C iX$ 4 4 4 4 4 4 4 4 4 4 4 4 4 <X>X>X:X-X>X>X>X1Xq q q q w q q q q w e e w 4 4 4 4 4 4 4 4 4 4 4 4 4 R D uXsXuXqXtX",
"iXuXtXrXrXR C iX$ 4 4 4 4 4 4 4 4 4 4 4 4 4 5X8X6X,X-X>X>X>X>X7X0X0XwXeXq q q w e e e w 4 4 4 4 4 4 4 4 4 4 4 4 4 R D uXsXuXqXtX",
"iXiXyXrXrXR C iX8 4 4 4 4 4 4 4 4 4 4 4 4 4 4 aXaXwX6X-X>X>X:X,X1X8X8X8X8XeXq e e e w w 4 4 4 4 4 4 4 4 4 4 4 4 4 R D uXsXuXqXtX",
"iXiXuXrXrXR C iX8 4 4 4 4 4 4 4 4 4 4 4 4 4 :X5X0 6X,X1X>X-X,X1X1X3X1X1X8XqXyXe e e w 0 4 4 4 4 4 4 4 4 4 4 4 4 4 R D uXsXuXqXtX",
"uXiXuXyXuXR C iX8 4 4 4 4 4 4 4 4 4 4 4 4 :X*X>X3X,X>X>X>X,X1X1X2X<XyX8X1XyXyXe e w 0 7 4 4 4 4 4 4 4 4 4 4 4 4 4 T D pXsXuXqXtX",
"uXiXiXuXiXR C iX8 4 4 4 4 4 4 4 4 4 4 4 -X*X-X,X<X3X:X>X,X1X1X2X3X,X4XeX,XyXyXe e w 7 4 4 4 4 4 4 4 4 4 4 4 4 4 4 T D pXsXuXqXtX",
"uXiXiXiXiXR Z iX8 4 4 4 4 4 4 4 4 4 4 4 2X6X6X6X5X<X3X<X<X<X2X3X3X4X8X1X6XyXyXe w 0 4 4 4 4 4 4 4 4 4 4 4 4 4 4 4 T D pXsXuXqXyX",
"tXiXiXiXiXR Z iX8 4 4 4 4 4 4 4 4 4 4 4 4 4 e yX,X3X,X<X<X1X2X3X5X<X,X4XrXyXyXe w 7 4 4 4 4 4 4 4 4 4 4 4 4 4 4 4 T D pXsXuXqXuX",
"tXiXiXiXiXR Z iX8 4 4 4 4 4 4 4 4 4 4 4 4 4 yX0X>X,X1X,X1X2X5X6X8X4XwXrXrXrXyXyX0 4 4 4 4 4 4 4 4 4 4 4 4 4 4 4 4 T D pXsXuXqXuX",
"tXuXiXiXiXR Z iX8 4 4 4 4 4 4 4 4 4 4 4 4 4 :X<X<X>X,X1X1X5X8X8X0X6X3XqXqXrXyXyX7 4 4 4 4 4 4 4 4 4 4 4 4 4 4 4 4 T D pXsXuXqXiX",
"yXuXiXiXiXR Z iX8 4 4 4 4 4 4 4 4 4 4 4 4 4 4X,X1X>X,X<X2X5X8X0X0X7X,X3X6XwXyXyX4 4 4 4 4 4 4 4 4 4 4 4 4 4 4 4 4 T D pXsXuXqXiX",
"uXtXiXiXiXR Z iX8 4 4 4 4 4 4 4 4 4 4 4 4 4 ,X:X,X3X<X3X6X0XqX0X7X,X,X,X1X6X8XrXrX4 4 4 4 4 4 4 4 4 4 4 4 4 4 4 4 Y D pXsXuXqXiX",
"uXtXuXiXiXR Z iX8 4 4 4 4 4 4 4 4 4 4 4 4 4 1X,X3X6X8X0XqXqX0X7X3X,X,X6X6XqXeXrXrX6 5 4 4 4 4 4 4 4 4 4 4 4 4 4 4 Y D pXsXuXqXiX",
"iXyXuXiXtXR Z iX8 4 4 4 4 4 4 4 4 4 4 4 4 4 4 4 4 0XwXwXwX0X7X3X,X6X6XqXqXqXeXeXuXrXrX7 5 4 4 4 4 4 4 4 4 4 4 4 4 Y D pXsXuXqXiX",
"iXuXtXuXtXR Z iX8 4 4 4 4 4 4 4 4 4 4 4 4 4 4 4 4 4 4 7X0X7X7X,X6XqXqX0XqXwXrXuXeXeXrXrXrX7 5 4 4 4 4 4 4 4 4 4 4 Y D pXsXuXqXiX",
"iXuXtXuXtXR Z iX8 4 4 4 4 4 4 4 4 4 4 4 4 4 4 4 4 5 4X7X7X4X,XqXqX0X0X0XrXuXeX9X9X9XqXqXeXwXrX7 5 4 4 4 4 4 4 4 4 Y D pXsXuXqXiX",
"iXiXyXtXyXR Z iX8 4 4 4 4 4 4 4 4 4 4 4 4 4 4 5 5 4X6X4X4X7X0X0X7X7XrXuXeX9X7X7X7X7X7X7X7X0X0XwXrX7 4 4 4 4 4 4 4 Y D pXsXuXqXuX",
"iXiXuXyXuXR Z iX8 4 4 4 4 4 4 4 4 4 4 4 4 4 5 7 4X4X6X4X5X9X7X7XwXuXeX9X7X7X7X7X7X7X7X7X7X7X7X0XwXrX6 4 4 4 4 4 4 Y D pXsXuXqXuX",
"iXiXiXuXiXR Z iX8 4 4 4 4 4 4 4 4 4 4 4 4 5 7 rX4X9X4X4X5X5X7XrXuX0X7X7X7X7X8X0XeX0X0X7X7X7X7X7X0XeXrX6 4 4 4 4 4 Y D pXsXuXqXyX",
"iXiXiXiXiXR Z iX8 4 4 4 4 4 4 4 4 4 4 4 4 7 eXrX4X9X4X4X5X7XrXrX9X7X7X7X7X8X9XeXeX0X0X0X0XwXwXwXwXwXeXrX4 4 4 4 4 Y D pXsXuXqXtX",
"iXiXiXiXiXR Z iX8 4 4 4 4 4 4 4 4 4 4 4 5 eXeXrX4XeX9X4X7XrXrX7X7X7X7X7X7X9XqXrXeX0X0XwX0X0X0XwXwXwXwXrX4 4 4 4 4 Y D pXsXuXqXtX",
"uXiXiXiXiXR Z iX8 4 4 4 4 4 4 4 4 4 4 4 7 qXqXrX0XrX9XrXuX9X7X7X7X7X7X7X8XqXeXyXyX7X7X7X7X7X0X0XwXeXeXyX4 4 4 4 4 Y D pXsXuXqXtX",
"uXiXiXiXiXR Z iX8 4 4 4 4 4 4 4 4 4 4 4 0XqXqXrXeXrX9X9XqX7X7X7X7X7X7X7X9XeXyXyX7X7X4X7X7X7X0X7X0XrXrXiX4 4 4 4 4 Y D pXsXuXqXuX",
"tXuXiXiXiXR Z iX8 4 4 4 4 4 4 4 4 4 4 5 0XqXqXyXrXwX9X9X7X7X7X7X7X7X7X8X8XeXyX7X7X4X7X7X4X0XqX7X0XrXyXiX4 4 4 4 4 Y D pXsXuXqXuX",
"tXuXiXiXiXR Z iX8 4 4 4 4 4 4 4 4 4 4 7 0XqXqXrXrX9X9X6X6X5X5X7X7X7X7X0XeXyXyX7X4X7X7X4X7X0XqX7XwXrXyXiX4 4 4 4 4 Y D pXsXuXqXiX",
"tXyXuXiXuXR Z iX8 4 4 4 4 4 4 4 4 4 4 9X0XqXqXrXwX9X6X6X5X5X6X6X6XrX0XwXyXyX0X0X7X7X7X4X0XqX9X7XwXrXyXiX4 4 4 4 4 Y D pXsXuXqXiX",
"tXtXuXuXuXR Z yX8 4 4 4 4 4 4 4 4 4 5 9X9XqXrXrX9X9X6X6X5X6X6X6XrX0XwXwXyX4 , , 0X4X4X7X9XqX7X7XeXyXiX9 4 4 4 4 4 Y D pXsXuXqXiX",
"yXtXyXuXyXR Z yX8 4 4 4 4 4 4 4 4 4 7 9XqXqXqXrX9X9XqXrXiXiX6X6XrXwXyXyX4 w w 9 , u 4XrX0XqX7X7XrXyXiX7 4 4 4 4 4 Y D pXsXuXqXiX",
"uXtXtXyXtXR Z yX8 4 4 4 4 4 4 4 4 5 0X0XqXqXrXwX9X7X6X6XiXiXrXrXwXyX4 w , w < , , , u rXqX0X7X7XrXyXiX6 4 4 4 4 4 Y D pXsXuXqXiX",
"uXtXtXyXtXR A yX7 4 4 4 4 4 4 4 4 7 8X8X8XqXrX9X9X6X6X5XeX8XwXwXyXg 4 9 w w w w 9 1 O d d qX7X7XrXiXyX4 4 4 4 4 4 Y D pXsXuXqXiX",
"iXtXrXrXrXR A yX7 4 4 4 4 4 4 4 4 0X0X8X8XrXrX9X7X6X6X5XqX8XwXwXg s r , , , w , w 4 O d f f qXwXrXiXyX4 4 4 4 4 4 Y D pXsXuXqXiX",
"iXyXrXrXrXR A yX7 4 4 4 4 4 4 4 4 7X8XqXqXrXeX9X7X6X6X6X8XwXyX0Xd d u 4 w w 9 , 4 6 d f f g h rXiXyXyX4 4 4 4 4 4 Y D pXsXuXqXiX",
"iXuXtXrXrXR A yX7 4 4 4 4 4 4 4 4 7XqX8XqX9XqX9X7X6X6X6XwXyX2X6X5XeXuXu 4 1 1 4 6 d f f g h j rXiXyXyX4 4 4 4 4 4 Y D pXsXuXqXiX",
"iXuXtXrXrXR A yX7 4 4 4 4 4 4 4 3X5X7XqXrX7X0X0XwXwXwX6X2X5X9X2X5X5XeXuXu u O d d f f g h j j l yXyXrX4 4 4 4 4 4 Y D pXsXuXqXuX",
"iXiXyXrXtXR A yX7 4 4 4 4 4 4 4 3X4X5X7X7X7X0X0X0X0X0X2X2X2X9X9X2X6X7X7XuXuXd d f f g h j j l yXyXrXrX4 4 4 4 4 4 Y D pXsXuXqXuX",
"iXiXuXtXtXR A yX7 4 4 4 4 4 4 4 4 3X4X4X3X3X0X0X0X5X5X2X2X5X2X6X2X2X7X0X0XuXuXf f g h j j l yXyXyXrX8X4 4 4 4 4 4 Y D pXsXuXqXyX",
"iXiXuXtXyXR A yX7 4 4 4 4 4 4 4 4 4 3X3X4 3X3X7X7X6X2X2X6X6X5X2X2X2X5X0X0XrXuXf g h j j l yXyXwXwX8X6X4 4 4 4 4 4 Y D pXsXuXqXyX",
"iXiXiXyXyXR A yX7 4 4 4 4 4 4 4 4 4 4 4 4 4 4 5X4X4X4X4X6X8X0X0X5X5X5X0XwXtXuXuXh j l yXyXyXwX8X8X6X4 4 4 4 4 4 4 Y D pXsXuXqXtX",
"iXiXiXuXuXR A yX7 4 4 4 4 4 4 4 4 4 4 4 4 4 4 4 2X2X4X4X4X4X4X4X4X4X4X4X6XwXwXe g e rXwX8X8X6X4 4 4 4 4 4 4 4 4 4 Y D pXsXuXqXtX",
"uXiXiXiXiXR A yX7 4 4 4 4 4 4 4 4 4 4 4 4 4 4 4 4 4 4 4 4 4 4 4 4 4 4 4 4 4 4 4 4 4 4 4 4 4 4 4 4 4 4 4 4 4 4 4 4 Y D pXsXuXqXrX",
"uXiXiXiXiXR A A R R R R R R R R R R R R R T T T T T T T T T T T Y Y Y Y Y Y Y Y Y Y Y Y Y Y Y Y Y Y Y Y Y Y Y Y Y Y D pXsXuXqXrX",
"yXiXiXiXiXR D D D D D D D D D D D D D D D D D D D D D D D D D D D D D D D D D D D D D D D D D D D D D D D D D D D D D pXsXuXqXrX",
"yXuXiXiXiXF uXuXuXuXuXuXpXpXpXpXpXpXpXpXpXpXpXpXpXpXpXpXpXpXpXpXpXpXpXpXpXpXpXaXaXaXaXpXpXpXpXpXpXpXpXpXpXpXpXpXpXpXpXpXsXuXqXrX",
"tXuXiXiXiXuXtXuXuXsXsXuXaXaXaXpXiXpXaXaXaXaXyXyXiXuXuXsXsXuXyXyXyXaXaXsXsXuXaXaXaXaXaXiXiXsXsXiXiXiXiXiXaXaXaXaXaXiXiXsXsXuXqXrX",
"tXyXiXiXiXuXtXuXqXsXuXqXiXiXiXiXyXiXiXiXiXtXrXrXyXuXqXsXuXqXtXyXiXuXqXsXuXqXiXiXiXiXiXuXqXsXuXqXyXiXrXyXiXiXiXiXiXiXuXqXsXuXqXrX",
"yXyXyXyXyXyXyXuXqXsXuXqXyXiXiXiXiXiXiXiXyXyXyXyXyXuXqXsXuXqXyXiXiXuXqXsXuXqXyXiXiXiXyXuXqXsXuXqXyXiXyXyXiXiXiXiXiXiXuXqXsXuXqXyX"
};
