/* XPM */
static char *Wall_0961647953498[] = {
/* columns rows colors chars-per-pixel */
"64 64 256 2 ",
"   c black",
".  c #0000A8",
"X  c #00A800",
"o  c #00A8A8",
"O  c #A80000",
"+  c #A800A8",
"@  c #A85400",
"#  c gray66",
"$  c gray33",
"%  c #5454FC",
"&  c #54FC54",
"*  c #54FCFC",
"=  c #FC5454",
"-  c #FC54FC",
";  c #FCFC54",
":  c gray99",
">  c #ECECEC",
",  c gainsboro",
"<  c #D0D0D0",
"1  c #C0C0C0",
"2  c #B4B4B4",
"3  c gray66",
"4  c #989898",
"5  c gray55",
"6  c #7C7C7C",
"7  c gray44",
"8  c #646464",
"9  c gray33",
"0  c #484848",
"q  c gray22",
"w  c #2C2C2C",
"e  c #202020",
"r  c #FC0000",
"t  c #EC0000",
"y  c #E00000",
"u  c #D40000",
"i  c #C80000",
"p  c #BC0000",
"a  c #B00000",
"s  c #A40000",
"d  c #980000",
"f  c #880000",
"g  c #7C0000",
"h  c #700000",
"j  c #640000",
"k  c #580000",
"l  c #4C0000",
"z  c #400000",
"x  c #FCD8D8",
"c  c #FCB8B8",
"v  c #FC9C9C",
"b  c #FC7C7C",
"n  c #FC5C5C",
"m  c #FC4040",
"M  c #FC2020",
"N  c #FC0000",
"B  c #FCA85C",
"V  c #FC9840",
"C  c #FC8820",
"Z  c #FC7800",
"A  c #E46C00",
"S  c #CC6000",
"D  c #B45400",
"F  c #9C4C00",
"G  c #FCFCD8",
"H  c #FCFCB8",
"J  c #FCFC9C",
"K  c #FCFC7C",
"L  c #FCF85C",
"P  c #FCF440",
"I  c #FCF420",
"U  c #FCF400",
"Y  c #E4D800",
"T  c #CCC400",
"R  c #B4AC00",
"E  c #9C9C00",
"W  c #848400",
"Q  c #706C00",
"!  c #585400",
"~  c #404000",
"^  c #D0FC5C",
"/  c #C4FC40",
"(  c #B4FC20",
")  c #A0FC00",
"_  c #90E400",
"`  c #80CC00",
"'  c #74B400",
"]  c #609C00",
"[  c #D8FCD8",
"{  c #BCFCB8",
"}  c #9CFC9C",
"|  c #80FC7C",
" . c #60FC5C",
".. c #40FC40",
"X. c #20FC20",
"o. c #00FC00",
"O. c #00FC00",
"+. c #00EC00",
"@. c #00E000",
"#. c #00D400",
"$. c #04C800",
"%. c #04BC00",
"&. c #04B000",
"*. c #04A400",
"=. c #049800",
"-. c #048800",
";. c #047C00",
":. c #047000",
">. c #046400",
",. c #045800",
"<. c #044C00",
"1. c #044000",
"2. c #D8FCFC",
"3. c #B8FCFC",
"4. c #9CFCFC",
"5. c #7CFCF8",
"6. c #5CFCFC",
"7. c #40FCFC",
"8. c #20FCFC",
"9. c #00FCFC",
"0. c #00E4E4",
"q. c #00CCCC",
"w. c #00B4B4",
"e. c #009C9C",
"r. c #008484",
"t. c #007070",
"y. c #005858",
"u. c #004040",
"i. c #5CBCFC",
"p. c #40B0FC",
"a. c #20A8FC",
"s. c #009CFC",
"d. c #008CE4",
"f. c #007CCC",
"g. c #006CB4",
"h. c #005C9C",
"j. c #D8D8FC",
"k. c #B8BCFC",
"l. c #9C9CFC",
"z. c #7C80FC",
"x. c #5C60FC",
"c. c #4040FC",
"v. c #2024FC",
"b. c #0004FC",
"n. c #0000FC",
"m. c #0000EC",
"M. c #0000E0",
"N. c #0000D4",
"B. c #0000C8",
"V. c #0000BC",
"C. c #0000B0",
"Z. c #0000A4",
"A. c #000098",
"S. c #000088",
"D. c #00007C",
"F. c #000070",
"G. c #000064",
"H. c #000058",
"J. c #00004C",
"K. c #000040",
"L. c #282828",
"P. c #FCE034",
"I. c #FCD424",
"U. c #FCCC18",
"Y. c #FCC008",
"T. c #FCB400",
"R. c #B420FC",
"E. c #A800FC",
"W. c #9800E4",
"Q. c #8000CC",
"!. c #7400B4",
"~. c #60009C",
"^. c #500084",
"/. c #440070",
"(. c #340058",
"). c #280040",
"_. c #FCD8FC",
"`. c #FCB8FC",
"'. c #FC9CFC",
"]. c #FC7CFC",
"[. c #FC5CFC",
"{. c #FC40FC",
"}. c #FC20FC",
"|. c #FC00FC",
" X c #E000E4",
".X c #C800CC",
"XX c #B400B4",
"oX c #9C009C",
"OX c #840084",
"+X c #6C0070",
"@X c #580058",
"#X c #400040",
"$X c #FCE8DC",
"%X c #FCE0D0",
"&X c #FCD8C4",
"*X c #FCD4BC",
"=X c #FCCCB0",
"-X c #FCC4A4",
";X c #FCBC9C",
":X c #FCB890",
">X c #FCB080",
",X c #FCA470",
"<X c #FC9C60",
"1X c #F0945C",
"2X c #E88C58",
"3X c #DC8854",
"4X c #D08050",
"5X c #C87C4C",
"6X c #BC7848",
"7X c #B47044",
"8X c #A86840",
"9X c #A0643C",
"0X c #9C6038",
"qX c #905C34",
"wX c #885830",
"eX c #80502C",
"rX c #744C28",
"tX c #6C4824",
"yX c #5C4020",
"uX c #543C1C",
"iX c #483818",
"pX c #403018",
"aX c #382C14",
"sX c #28200C",
"dX c #600064",
"fX c #006464",
"gX c #006060",
"hX c #00001C",
"jX c #00002C",
"kX c #302410",
"lX c #480048",
"zX c #500050",
"xX c #000034",
"cX c gray11",
"vX c #4C4C4C",
"bX c gray36",
"nX c gray25",
"mX c gray19",
"MX c #343434",
"NX c #D8F4F4",
"BX c #B8E8E8",
"VX c #9CDCDC",
"CX c #74C8C8",
"ZX c #48C0C0",
"AX c #20B4B4",
"SX c #20B0B0",
"DX c #00A4A4",
"FX c #009898",
"GX c #008C8C",
"HX c #008484",
"JX c #007C7C",
"KX c #007878",
"LX c #007474",
"PX c #007070",
"IX c #006C6C",
"UX c #980088",
/* pixels */
"0 9 0 4 3 2 1 < < < < < < < < < < < < < < < < < < < < < 1 2 3 4 0 9 0 4 3 2 1 < < < < < < < < < < < < < < < < < < < < < 1 2 3 4 ",
"0 9 0 6 1 1 1 1 1 1 1 1 1 1 1 1 2 2 2 2 1 2 1 2 1 2 1 2 1 2 1 5 0 $ 0 6 1 1 1 1 1 1 1 1 1 1 1 1 2 2 2 2 1 2 1 2 1 2 1 2 1 2 1 5 ",
"0 9 0 6 1 1 2 k k k k k k k k k k k k k k k pXpXiXuXuXuXuXuXuXiXpXkXl k k k k k k k k k k k k k k k k k k k k k k k k k 2 1 2 5 ",
"0 9 0 6 2 2 1 k k k k k k k k k k k k l k pXiXuXyXyXyXyXyXuXuXuXuXiXaXkXkXl l l k k k k k k k k k k k k k k k k k k k k 6 3 2 5 ",
"0 9 0 6 2 1 2 k k k k k k k k k k l k uXuXyXyXrXwX9X9X9XqXwXrXrXrXtXuXpXaXkXkXl l k k k k k k k k k k k k k k k k k k k 6 2 3 5 ",
"0 9 0 6 2 1 2 k k k k k k k k k k k yXtXeXeXqX6X1X,X,X3X3X6X6X6X6X6XqXtXpXpXpXkXkXk k k k k k k k k k k k k k k k k k k 6 2 3 5 ",
"0 9 0 6 2 2 1 j j j j j j k k h k rXqXqX6X1X:X-X&X&X&X> $X$X%X$X$X$X>X>X6X9XyXpXpXkXkXk j j k j k j k j k j k j k j k k 6 3 3 5 ",
"0 9 0 6 2 2 2 j j j h j j j h g tX9X3X;X=X*X%X%X%X%X%X%X$X$X$X$X%X%X&X=X;X:X3X9XeXuXaXsXl k j j j j j j j j j j j j j k 6 3 2 5 ",
"0 9 0 6 2 2 3 h j h j h j h j g 9X3X>X=X*X&X&X%X%X%X%X%X$X%X%X%X%X%X*X-X;X:X:X,X4X9XuXsXaXsXk h j h j h j h j h j h j j 6 3 3 5 ",
"0 9 0 6 3 4 2 h h h h h h g g 8X3X;X=X*X*X*X*X&X%X%X%X%X%X%X&X&X=X=X=X*X=X-X;X:X,X4X8XtXsXkXsXl k j h h h h h h h h h j 6 4 3 5 ",
"0 9 0 6 3 5 4 g h g h g g f 0X1X:X=X=X*X*X*X*X*X&X%X%X%X%X&X*X=X=X*X*X*X*X=X-X:X,X3X6X0XtXsXsXsXl k j g h g h g h g h h 7 3 4 5 ",
"0 9 0 6 5 5 5 g g g g g f f 4X>X;X=X=X=X*X*X*X*X*X%X=X%X*X*X=X;X:X:X;X-X=X*X*X*X>X,X3X6X9XeXiXsXsXz k h g g g h g g g h 8 3 4 5 ",
"0 9 0 6 4 5 4 f g f g f f 0X,X-X;X=X=X&X&X&X&X&X=X%X-X%X=X;X>X1X6X6X3X:X;X*X%X%X;X,X5X8X8X0XeXuXaXsXl h g g g g g f g g 7 5 5 5 ",
"0 9 0 8 8 8 8 f f f f d d 4X;X;X-X=X=X&X&X&X&X&X-X&X>X>X,X6XqXrXtXyXrX8X0X8X7X4X;X3X6X0X0X0X8XtXiXaXsXj g g g g f g f g 0 8 8 8 ",
"0 0 q w w w w d f d d d 0X;X;X-X-X=X=X=X=X:X,X=X=X&X;X1XqXtXiXpXpXtXtX0X0XwXrXtXwX0X8XwXrXwX9XeXtXpXsXl j g g f f f g f w w w q ",
"0 0 0 0 0 0 0 f d d d d 4X;X-X-X-X=X-X4X7X9X6X:X&X$X:X6XyXaXpXpXyXqX5X4X7XwXtXyXuXiXiXyXyXtXqXeXtXiXkXsXl h f f f f f f q 0 0 0 ",
"9 9 9 9 9 9 9 d d s d 0X,X;X-X=X=X3X0XrXtXtXqX1X$X$X;X6XuXpXiXuXeXwXrXtXyXpXpXiXiXuXuXiXuXyXrXrXrXtXaXsXsXk g d f d f d nX9 9 9 ",
"< < < < < < < d s s a 4X>X-X=X<X3X0XtXuXuXuXiX6X$X$X;X4XuXiXuXyXyXyXeXaXpXiXaXaXpXpXiXuXiXyXtXtXrXyXaXsXsXsXg f d d d d 5 < < < ",
"2 2 2 1 2 1 2 s d s D 1X;X;X=X:X,X2XwXtXrXtXuX6X$X$X;X4XiXpXaXpXwX<X7XwXrXtXuXiXiXpXpXiXuXiXtXtXtXuXaXsXsXsXh f d s d s 5 2 2 2 ",
"2 2 2 2 1 2 1 d s a 7X,X;X;X=X:X,X5X9XwXyXyXiX6X$X$X;X6XiXaXtX7X,X;X;X;X;X<X9XeXrXtXyXuXuXuXtXtXyXiXaXaXsXsXk f s s s d 6 2 2 2 ",
"2 2 2 1 2 1 2 s s wX4X:X;X;X:X2XwXuXuXeXtXtXrX1X$X$X:X6XeXrX8X>X=X=X;X<X2X4X6X6X6X8X0XqXwXwXeXtXyXiXaXaXsXsXsXg d s d s 6 2 2 2 ",
"1 2 3 2 2 2 2 s a eX3X:X;X;X2XtXrXpXyX4XqX4X>X;X*X=X,X5X9X7X4X1X>X=X;X&X*X*X*X*X*X*X>X1X4X0XeXtXuXiXaXsXsXsXsXh s s s s 5 2 1 1 ",
"3 1 3 3 2 3 2 a wXeX1X:X;X2XwXuXtX7X1X:X;X;X-X=X=X=X1X8X7X>X,X7X6X:X*X&X&X*X=X=X;X>X,X<X3X7XwXtXuXiXaXsXsXsXsXk s s s s 6 1 3 3 ",
"2 2 1 2 2 2 1 s eXeX<X:X>X9XrX9X,X>X:X:X*X*X=X-X:X6XwXtXeXwXqXeXqX,X;X;X;X;X;X>X>X>X,X1X4X8XwXtXiXiXaXsXsXsXsXsXf s s s 6 1 2 2 ",
"1 2 3 2 2 2 2 a tXeX,X;X;X8X6X:X>X:X=X*X*X=X-X>XeXtXuXaXaXpXpXpXpXwX;X-X;X;X>X,X<X1X2X4X7X0XeXyXiXiXaXsXsXsXsXsXg a s a 5 2 1 1 ",
"3 1 3 3 2 3 2 a yXeX,X;X>X3X,X:X=X=X=X*X-X>X7XeXuXpXpXpXaXsXsXaXpXaXyX;X;X>X,X<X2X3X5X6X9XeXtXyXiXiXaXsXsXsXsXsXj s a s 6 1 3 3 ",
"3 3 3 3 3 2 3 a yXeX,X-X:X;X=X=X&X&X*X;X1X9XtXaXsXsXaXaXsXsXsXsXsXsXkXqX,X,X<X1X3X4X7X8XwXtXyXuXiXpXaXsXsXsXsXsXkXa s a 6 3 3 3 ",
"4 3 2 3 2 4 3 a yXeX,X-X-X-X=X&X&X&X=X,X8XyXpXaXsXsXsXsXsXsXsXsXsXsXkXkX9X,X1X2X4X7X7XqXtXyXuXiXpXpXaXkXsXsXsXsXkXd a a 6 3 4 4 ",
"3 4 4 3 4 3 3 p yXeX,X-X=X=X*X&X&X*X:X7XtXaXaXaXsXaXsXsXsXsXsXsXsXsXaXkXpX7X4X3X5X7X0XrXyXuXiXpXpXpXpXkXsXsXsXsXkXf a a 7 4 3 3 ",
"4 5 4 5 4 5 4 a tXeX,X-X=X=X*X&X*X=X1XeXuX7XsXsXaXsXaXaXaXsXsXsXsXsXsXkXkXpX8X6X8X0XwXtXyXuXiXpXpXaXaXaXaXsXsXsXkXf a a 8 3 4 4 ",
"4 4 5 4 5 4 5 p eXeX1X;X=X=X*X&X*X:X6XtXiXtXsXaXpXpXiXpXaXaXaXaXsXsXsXaXkXkXyX9X8X9XwXtXyXuXiXpXpXaXaXaXaXaXiXpXpXg a p 6 4 4 4 ",
"8 8 8 8 8 8 8 p qXeX4X:X=X-X*X*X*X:X8XuXiXiXpXpXiXpXaXsXwXaXsXsXsXsXsXaXaXkXaXwX6X7X0XeXyXuXiXpXpXaXaXaXpXiXpXaXaXpXg a 0 8 8 8 ",
"w w w w w w w p i eX7X>X=X=X*X*X=X>XrXaXtXpXaXaXaXwXuXsXsXaXsXaXsXsXsXaXaXaXaXtX6X3X7XwXtXuXiXpXpXaXaXaXiXpXaXkXkXsXaXp w w w w ",
"0 0 0 0 0 0 0 p p eX8X>X=X=X=X=X=X1XyXaXpXaXiXuXpXsXsXaXaXaXsXsXsXsXaXpXaXaXaXyX9X3X5XqXtXuXiXpXpXaXaXaXaXaXaXpXaXsXaXp q 0 0 0 ",
"9 9 9 9 9 9 9 i p eX0X,X-X=X=X=X-X3XtXaXeXiXuXiXiXuXiXsXpXiXaXsXsXsXsXaXpXaXaXyXqX3X4X0XtXuXiXpXpXaXaXaXaXaXaXpXpXsXkXi nX9 9 9 ",
"0 9 0 4 3 2 1 p i qXeX,X;X-X=X=X-X1XyXaX8XwX,X7XpXsXq 7 5 bXq w q sXsXsXaXaXpXiXqX5X3X9XtXuXiXpXpXaXaXaXaXpXsXpXpXkXkXp 5 2 3 4 ",
"0 9 0 6 1 1 1 i p 0XeX,X;X=X=X=X-X,X8XpX>X1X1XqXsXnXaXaXsXsXsXsXsXsXsXsXaXaXpXyXqX5X3X9XtXuXpXpXaXaXaXaXaXiXsXpXpXkXkXi 5 2 1 5 ",
"0 9 0 6 1 1 2 i i i eX1X:X=X=X=X=X>X0XuX;X=X,XyXsXsXsXsXsXsXsXsXsXsXsXsXsXaXpXuXwX7X4X0XtXuXpXpXaXaXaXaXaXuXaXpXaXkXkXi 6 1 2 5 ",
"0 9 0 6 2 2 1 i i i eX1X:X=X=X=X=X>X6X9X=X&X1XsXsXsXsXsXsXsXsXsXsXsXsXsXsXpXiXiXwX8X7XwXyXiXpXpXaXaXaXaXaXuXsXaXaXsXh i 6 3 2 5 ",
"0 9 0 6 2 1 2 i i 6X2X,X:X=X=X*X*X=X1X4X=X&X3XsXsXsXsXz z z z z z z sXsXpXyXuXyXqX7X9XrXyXiXpXpXaXaXaXaXaXiXpXpXaXsXg i 6 2 3 5 ",
"0 9 0 6 2 2 1 u i 2XqX4X:X=X=X*X*X=X;X;X&X&X6XsXsXz z l z l h d h l z sXuXtXyXyX7X3X6XeXyXiXpXaXaXaXaXaXpXiXiXpXaXkXd i 6 3 3 5 ",
"0 9 0 6 2 2 2 i u 4XeX8X>X=X=X*X*X=X>X-X*X&X6XsXsXz h h k l l k l z z aXeXrXtXwX,X,X1XqXyXiXaXaXaXaXaXaXaXpXpXaXkXh i i 6 3 2 5 ",
"0 9 0 6 2 2 3 u i 5XtXtX,X-X=X*X*X&X,X>X=X=X6XsXz z k l z z 0 7 rXyXrXwXwXtXwX3X;X:X1XqXyXiXaXaXaXaXaXaXsXaXaXkXaXs i u 6 3 3 5 ",
"0 9 0 6 3 4 2 u u 6XtXtX4X>X-X=X*X=X,X>X>X*X>XyXsXtX# 2 7X6X1X=X,X3X7XeXtXtX9X>X=X;X,XqXyXiXaXaXaXaXaXaXsXsXaXh s i u i 6 4 3 5 ",
"0 9 0 6 3 5 4 u u 6XwXrX4X:X=X=X=X&X>X<X,X-X&X,X7X6X>X:X&X;X-X;X,X5XqXtXpXyX0X,X=X;X,XqXyXiXpXaXaXaXaXaXsXaXaXs i u u u 7 3 4 5 ",
"0 9 0 6 5 5 5 u u 6X4X7X5X:X-X=X=X=X=X>X,X=X*X&X=X=X&X&X&X=X;X<X1X9XtXuXiXyXwX4X;X:X3XeXuXiXpXpXpXaXaXaXsXaXp i u u u u 8 3 4 5 ",
"0 9 0 6 4 5 4 y u 6X4X4X3X>X-X=X=X&X&X-X>X-X&X&X&X*X&X&X=X=X=X-X,X5XqXtXyXtXwX4X;X>X6XtXiXpXpXpXaXaXaXaXaXaXu y u y u y 7 5 5 5 ",
"0 9 0 8 8 8 8 u y y 6X1X1X,X>X=X=X=X&X=X=X>X%X%X&X&X&X&X&X&X*X*X-X,X4X0XrXwX7X,X-X,X0XuXpXpXpXpXaXaXaXaXaXg u u u u y u 0 8 8 8 ",
"0 9 0 q w w w y u y 7X6X6X1X>X=X=X=X&X&X*X*X%X%X%X&X&X&X&X%X%X*X*X:X1X5X7X5X,X>X:X5XrXiXpXpXpXaXaXaXaXaXaXf u y u y u y w w w q ",
"0 0 0 0 0 0 0 y y y y 8X8X6X3X;X=X=X*X&X*X&X%X=X*X&X&X%X%X%X%X*X-X;X,X3X3X1X,X,X4XqXyXpXpXpXpXpXpXaXaXaXj O y y y y y y q 0 0 0 ",
"9 9 9 9 9 9 9 y y y y 9X9XrX6X,X-X;X=X=X*X%X%X%X=X*X%X%X%X%X%X*X-X:X1X3X3X3X3X8XrXuXaXaXpXpXpXaXaXaXaXkXg i y y y y y y nX9 9 9 ",
"< < < < < < < y y y t qXrXuX4X2X:X=X;X-X=X&X%X%X%X=X=X*X%X%X&X-X-X:X1X4X6X7X0XtXuXpXaXkXaXpXaXaXaXaXaXl f y y y y y y y 5 < < < ",
"2 2 2 1 2 1 2 t y t y t y N 7X4X,X;X=X;X-X=X&X%X%X%X=X*X*X*X-X=X;X,X3X6X0XrXyXiXpXkXkXaXpXpXaXaXaXaXpXk O t y t y t y t 5 2 2 2 ",
"2 2 2 2 1 2 1 t t y t y t y r 7X4X,X-X=X:X;X-X=X&X&X*X*X=X=X;X>X,X4X8XeXyXiXaXkXkXsXkXaXpXpXaXaXaXaXpXj O y t y t y t y 6 2 2 2 ",
"2 2 2 1 2 1 2 t y t y t y t y 8X7X4X,X=X=X>X;X-X=X=X-X:X>X,X3X6X8XwXtXuXpXkXkXsXkXkXaXpXpXaXaXaXaXpXpXj O t y t y t y t 6 2 2 2 ",
"2 2 1 2 2 2 1 t t t t t t t t r 8X7X4X,X=X=X>X>X:X>X1X4X6X7XqXrXyXuXpXkXkXsXkXkXaXaXpXpXaXaXaXaXpXpXpXyXO t t t t t t t 6 1 2 2 ",
"1 2 3 2 2 2 2 t t r t t t r t t 8X6X7X4X,X>X>X,X4X8XwXtXyXyXuXiXaXkXkXsXsXaXaXpXpXpXpXaXaXaXaXpXpXpXpXtX5Xm t t y t t t 5 2 1 1 ",
"3 1 3 3 2 3 2 t t t t t t t t t t 8X6X7X3X1X<X1X4X9XrXiXpXaXaXkXkXkXaXpXpXpXpXpXpXaXaXaXaXaXpXpXpXpXpXaXv v t t t t t t 6 1 3 3 ",
"3 3 3 3 3 2 3 r t r t r t r t r t 8X7X6X7X6X4X5X5X7XrXuXuXiXiXiXiXiXpXpXpXpXpXaXaXaXaXaXaXpXpXpXpXpXsX%Xc v t r t r t t 6 3 3 3 ",
"4 3 2 3 2 4 3 t r r r t r r r t r r 8X7X6X7X7X7X6X9X9XyXiXpXpXiXiXpXpXpXaXaXaXaXaXaXaXaXpXpXpXpXpXqX%X%X=Xv r t r t r t 6 3 4 4 ",
"3 4 4 3 4 3 3 r t r r r t r r r t r 9X9X7X6X6X7X7X0XqXyXpXiXpXaXaXaXaXaXaXaXaXaXaXaXpXpXpXaXpX7X;X*X&X=X%X5Xt r t r t t 7 4 3 3 ",
"4 5 4 5 4 5 4 5 6 8 7 8 6 7 8 q nXq bX8 8 8 7 8 7 8 6 8 6 7 8 6 7 8 7 8 7 8 7 8 6 8 7 8 6 7 8 q nXq bX8 8 8 7 8 7 8 6 7 8 3 4 4 ",
"4 4 5 4 5 4 5 4 5 4 5 4 5 5 5 0 9 0 6 4 5 4 5 4 4 4 5 4 5 5 3 4 4 4 5 4 5 4 5 4 5 4 5 4 5 5 5 0 9 0 6 4 5 4 5 4 4 4 5 5 3 4 4 4 ",
"8 8 8 8 8 8 8 8 8 8 8 8 8 8 8 0 9 0 8 8 8 8 8 8 8 8 8 8 8 8 8 8 8 8 8 8 8 8 8 8 8 8 8 8 8 8 8 0 9 0 8 8 8 8 8 8 8 8 8 8 8 8 8 8 "
};
