/* XPM */
static char *Wall_0651647953498[] = {
/* columns rows colors chars-per-pixel */
"64 64 256 2 ",
"   c black",
".  c #0000A8",
"X  c #00A800",
"o  c #00A8A8",
"O  c #A80000",
"+  c #A800A8",
"@  c #A85400",
"#  c gray66",
"$  c gray33",
"%  c #5454FC",
"&  c #54FC54",
"*  c #54FCFC",
"=  c #FC5454",
"-  c #FC54FC",
";  c #FCFC54",
":  c gray99",
">  c #ECECEC",
",  c gainsboro",
"<  c #D0D0D0",
"1  c #C0C0C0",
"2  c #B4B4B4",
"3  c gray66",
"4  c #989898",
"5  c gray55",
"6  c #7C7C7C",
"7  c gray44",
"8  c #646464",
"9  c gray33",
"0  c #484848",
"q  c gray22",
"w  c #2C2C2C",
"e  c #202020",
"r  c #FC0000",
"t  c #EC0000",
"y  c #E00000",
"u  c #D40000",
"i  c #C80000",
"p  c #BC0000",
"a  c #B00000",
"s  c #A40000",
"d  c #980000",
"f  c #880000",
"g  c #7C0000",
"h  c #700000",
"j  c #640000",
"k  c #580000",
"l  c #4C0000",
"z  c #400000",
"x  c #FCD8D8",
"c  c #FCB8B8",
"v  c #FC9C9C",
"b  c #FC7C7C",
"n  c #FC5C5C",
"m  c #FC4040",
"M  c #FC2020",
"N  c #FC0000",
"B  c #FCA85C",
"V  c #FC9840",
"C  c #FC8820",
"Z  c #FC7800",
"A  c #E46C00",
"S  c #CC6000",
"D  c #B45400",
"F  c #9C4C00",
"G  c #FCFCD8",
"H  c #FCFCB8",
"J  c #FCFC9C",
"K  c #FCFC7C",
"L  c #FCF85C",
"P  c #FCF440",
"I  c #FCF420",
"U  c #FCF400",
"Y  c #E4D800",
"T  c #CCC400",
"R  c #B4AC00",
"E  c #9C9C00",
"W  c #848400",
"Q  c #706C00",
"!  c #585400",
"~  c #404000",
"^  c #D0FC5C",
"/  c #C4FC40",
"(  c #B4FC20",
")  c #A0FC00",
"_  c #90E400",
"`  c #80CC00",
"'  c #74B400",
"]  c #609C00",
"[  c #D8FCD8",
"{  c #BCFCB8",
"}  c #9CFC9C",
"|  c #80FC7C",
" . c #60FC5C",
".. c #40FC40",
"X. c #20FC20",
"o. c #00FC00",
"O. c #00FC00",
"+. c #00EC00",
"@. c #00E000",
"#. c #00D400",
"$. c #04C800",
"%. c #04BC00",
"&. c #04B000",
"*. c #04A400",
"=. c #049800",
"-. c #048800",
";. c #047C00",
":. c #047000",
">. c #046400",
",. c #045800",
"<. c #044C00",
"1. c #044000",
"2. c #D8FCFC",
"3. c #B8FCFC",
"4. c #9CFCFC",
"5. c #7CFCF8",
"6. c #5CFCFC",
"7. c #40FCFC",
"8. c #20FCFC",
"9. c #00FCFC",
"0. c #00E4E4",
"q. c #00CCCC",
"w. c #00B4B4",
"e. c #009C9C",
"r. c #008484",
"t. c #007070",
"y. c #005858",
"u. c #004040",
"i. c #5CBCFC",
"p. c #40B0FC",
"a. c #20A8FC",
"s. c #009CFC",
"d. c #008CE4",
"f. c #007CCC",
"g. c #006CB4",
"h. c #005C9C",
"j. c #D8D8FC",
"k. c #B8BCFC",
"l. c #9C9CFC",
"z. c #7C80FC",
"x. c #5C60FC",
"c. c #4040FC",
"v. c #2024FC",
"b. c #0004FC",
"n. c #0000FC",
"m. c #0000EC",
"M. c #0000E0",
"N. c #0000D4",
"B. c #0000C8",
"V. c #0000BC",
"C. c #0000B0",
"Z. c #0000A4",
"A. c #000098",
"S. c #000088",
"D. c #00007C",
"F. c #000070",
"G. c #000064",
"H. c #000058",
"J. c #00004C",
"K. c #000040",
"L. c #282828",
"P. c #FCE034",
"I. c #FCD424",
"U. c #FCCC18",
"Y. c #FCC008",
"T. c #FCB400",
"R. c #B420FC",
"E. c #A800FC",
"W. c #9800E4",
"Q. c #8000CC",
"!. c #7400B4",
"~. c #60009C",
"^. c #500084",
"/. c #440070",
"(. c #340058",
"). c #280040",
"_. c #FCD8FC",
"`. c #FCB8FC",
"'. c #FC9CFC",
"]. c #FC7CFC",
"[. c #FC5CFC",
"{. c #FC40FC",
"}. c #FC20FC",
"|. c #FC00FC",
" X c #E000E4",
".X c #C800CC",
"XX c #B400B4",
"oX c #9C009C",
"OX c #840084",
"+X c #6C0070",
"@X c #580058",
"#X c #400040",
"$X c #FCE8DC",
"%X c #FCE0D0",
"&X c #FCD8C4",
"*X c #FCD4BC",
"=X c #FCCCB0",
"-X c #FCC4A4",
";X c #FCBC9C",
":X c #FCB890",
">X c #FCB080",
",X c #FCA470",
"<X c #FC9C60",
"1X c #F0945C",
"2X c #E88C58",
"3X c #DC8854",
"4X c #D08050",
"5X c #C87C4C",
"6X c #BC7848",
"7X c #B47044",
"8X c #A86840",
"9X c #A0643C",
"0X c #9C6038",
"qX c #905C34",
"wX c #885830",
"eX c #80502C",
"rX c #744C28",
"tX c #6C4824",
"yX c #5C4020",
"uX c #543C1C",
"iX c #483818",
"pX c #403018",
"aX c #382C14",
"sX c #28200C",
"dX c #600064",
"fX c #006464",
"gX c #006060",
"hX c #00001C",
"jX c #00002C",
"kX c #302410",
"lX c #480048",
"zX c #500050",
"xX c #000034",
"cX c gray11",
"vX c #4C4C4C",
"bX c gray36",
"nX c gray25",
"mX c gray19",
"MX c #343434",
"NX c #D8F4F4",
"BX c #B8E8E8",
"VX c #9CDCDC",
"CX c #74C8C8",
"ZX c #48C0C0",
"AX c #20B4B4",
"SX c #20B0B0",
"DX c #00A4A4",
"FX c #009898",
"GX c #008C8C",
"HX c #008484",
"JX c #007C7C",
"KX c #007878",
"LX c #007474",
"PX c #007070",
"IX c #006C6C",
"UX c #980088",
/* pixels */
"8 8 8 8 8 8 7 7 7 7 7 7 7 7 8 7 8 7 8 8 8 8 8 8 8 8 8 7 8 8 8 7 7 7 7 7 8 8 8 8 8 8 8 8 8 7 8 8 8 7 7 8 7 8 8 8 8 8 8 8 8 8 7 8 ",
"7 8 7 7 7 8 7 7 7 7 7 7 8 7 8 7 8 8 8 8 7 7 7 7 8 7 8 8 8 7 7 7 7 7 8 8 8 8 8 7 7 7 8 7 8 8 8 7 7 8 7 8 7 7 7 8 7 7 7 7 7 8 7 8 ",
"7 7 7 7 7 7 7 $ $ $ $ $ $ $ $ $ $ $ $ $ $ $ $ $ $ $ $ $ $ $ $ $ $ $ $ $ $ $ $ $ $ $ $ $ $ $ $ $ $ $ $ $ $ $ $ $ 7 7 7 7 7 7 7 7 ",
"7 6 7 7 6 7 7 $ 0 6 2 < < < < < 7 < < < < 7 < < < < 7 < < < < 7 < < < < 7 < < < < 7 < < < < 7 < < < < < 2 6 $ 8 7 7 7 7 6 7 7 6 ",
"6 # 6 7 6 7 7 $ 0 6 2 < 2 2 2 2 8 2 2 2 2 8 2 2 2 2 8 2 2 2 2 8 2 2 2 2 8 1 1 1 1 8 1 1 1 1 8 1 1 1 2 < 2 6 0 8 6 7 6 7 6 7 7 # ",
"# 4 4 6 6 6 6 $ 0 6 2 T T T T T $ T T T T $ T T T T $ T T T T $ T T T T $ T T T T $ T T T T $ T T T T T 2 6 0 8 4 6 4 6 6 6 6 6 ",
"# 4 # 4 6 # 6 $ 0 6 2 T                                                                               T 2 6 0 8 # 4 # 4 6 # 6 # ",
"# 4 # 4 6 # # $ 0 $ 8 7   W W   W E E R R R R w R T T Y Y U U U U   U U U U U U U U U U U     I I I   7 8 $ 0 8 # 4 # 4 6 # # 4 ",
"# 4 4 4 6 # 4 $ 0 6 2 T   W W   W E E R R R R w R T T Y Y U U U U   U U U U U U U U       I I I I I   T 2 6 0 8 4 4 4 4 6 # 4 4 ",
"# 4 # 4 4 # 4 $ 0 6 2 T   W W   W E E R R R R                             U U       I I I I I I I     T 2 6 0 8 # 4 # 4 4 # 4 4 ",
"# 4 # 4 4 4 # $ 0 6 2 T         W E E R R R R         e e e e e e w w w w     I I I I I I I I I   I   T 2 6 0 8 # 4 # 4 4 4 # 4 ",
"4 4 4 4 4 4 # $ 0 6 2 T   Q W                                                 K I I I I I I I   I I   T 2 6 0 8 4 4 4 4 4 4 # 4 ",
"4 4 4 4 4 # 4 $ 0 $ 8 7   Q W   W E E R R R   >X>X>X>X>X>X  e w $ $   $ 0 $ $ w K I I I I I   I I I   7 8 $ 0 8 4 4 4 4 4 # 4 4 ",
"# 4 4 4 4 4 4 $ 0 6 2 T   Q W   W E E R R R   >X>X>X>X>X>X  e w $ $   $ 0 0 $ $ w I K I I   I I I I   T 2 6 0 8 4 4 4 4 4 4 4 4 ",
"4 4 4 4 4 4 # $ 0 6 2 T   Q W   W E E R R   >X>X>X>X>X>X>X  e e $ $   $ $ $ 0 0   w I K   I I I I I   T 2 6 0 8 4 4 4 4 4 4 # 4 ",
"4 4 4 4 4 4 4 $ 0 6 2 T   Q W   W E E R R   >X>X>X>X>X>X>X  e e w w   w w w w   0 w I   I I I I I     T 2 6 0 8 4 4 4 4 4 4 4 4 ",
"# 4 4 4 4 4 # $ 0 6 2 T   Q W   W E E R   >X>X>X>X>X>X>X>X  e e e e   e e e   $ $ w   I I I I I I     T 2 6 0 8 4 4 4 4 4 4 # 4 ",
"4 4 4 4 4 4 4 $ 0 $ 8 7   Q W                                   e e   e e   e w $ w L L I I I I   T   7 8 $ 0 8 4 4 4 4 4 4 4 4 ",
"4 4 4 4 4 4 4 $ 0 6 2 T   Q W   W E E R R       e 4X4X4X4X4X  6X  w   e   e e e w w L I I I I I   L   T 2 6 0 8 4 4 4 4 4 4 4 4 ",
"4 4 # 4 4 # 4 $ 0 6 2 T         W E E R   :X  e 4X4X4X4X4X4X  6X6X          e e e w L I I I I   T I   T 2 6 0 8 # 4 # 4 4 # 4 4 ",
"4 4 4 4 4 4 4 $ 0 6 2 T   Q W   W E E   >X,X  4X4X4X4X4X4X  6X6X6X6X6X  8X  e e e w   L L L I   P U   T 2 6 0 8 4 4 4 4 4 4 4 4 ",
"4 4 4 4 4 4 4 $ 0 6 2 T   Q W   W E   ,X,X,X  4X4X4X4X4X4X  6X6X6X6X  0X0X  e e w Y T   L L   T U U   T 2 6 0 8 4 4 4 4 4 4 4 4 ",
"4 4 4 4 4 4 4 $ 0 $ 8 7   Q W   W E   <X<X<X  4X4X4X4X4X  6X6X6X6X  8X8X8X  e w L Y Y T   L   U U U   7 8 $ 0 8 4 4 4 4 4 4 4 4 ",
"4 4 6 6 4 4 4 $ 0 6 1 T   Q W                 4X4X4X4X4X  6X6X6X              Y Y Y Y Y T             T 1 6 0 8 6 6 6 6 4 4 4 4 ",
"6 4 # # 6 6 4 $ 0 6 1 T   Q W   W W W E   e   4X4X4X4X  7X7X7X  eXeX  8X7X0X  Y Y Y Y Y Y   Y Y Y Y   T 1 6 0 8 # # # # 6 6 4 4 ",
"# 4 4 # # # 6 $ 0 6 1 T   Q W   W W W E       4X4X4X4X  0X0X  rXrX  7X4X4X8X  T Y Y Y Y   Y Y Y Y Y   T 1 6 0 8 4 # 4 # # # 6 4 ",
"4 4 4 4 4 4 # $ 0 6 1 T   Q W   W W W E   4X4X4X4X4X  uXuX  rXrX  7X4X6X7X    R R T Y T   Y Y Y Y Y   T 1 6 0 8 4 4 4 4 4 4 # 6 ",
"4 4 # 4 4 4 # $ 0 $ 8 7   Q W   W W W W                   rXrX  0X8X0X    rX  E E R R   T T Y Y Y Y   7 8 $ 0 8 # 4 # 4 4 4 # # ",
"# 4 # 4 4 4 4 $ 0 6 1 T   Q W   Q Q Q Q   uXuXuXuXuXuX  yXyX  8XeX    rXrX  yX    E E   T T T T Y Y   T 1 6 0 8 # 4 # 4 4 4 4 4 ",
"4 4 4 4 4 4 4 $ 0 6 1 T   Q Q   Q Q Q Q               uXuX  8X    rXrXrX  yXyXyXyX      E R R R T T   T 1 6 0 8 4 4 4 4 4 4 4 4 ",
"4 4 4 4 4 4 4 $ 0 6 1 T   Q Q   ! ! !   ! ! ! ! !   uXuX      rXrXrXrX  yXyXyXyXyXyXyX    W E E R R   T 1 6 0 8 4 4 4 4 4 4 4 4 ",
"4 4 4 4 4 4 4 $ 0 6 1 T   Q Q   ! !   ! ! ! ! !   yXyX  e rXrXrXrXrX  yXyXyXyXyXyXyXyXyXyX    W E E   T 1 6 0 8 4 4 4 4 4 4 4 4 ",
"4 4 # # 4 4 4 $ 0 $ 8 7   Q Q   !   ! ! ! ! !   yXyX  rXrXrXrXrXrX  yXyXyXyXyXyXyXyXyXyXyXyXyX    W   7 8 $ 0 8 # # # # 4 4 4 4 ",
"4 4 4 4 4 4 4 $ 0 6 1 T   Q Q     !   ~ ~ ~   rX    rXrXrXrXrXrX  yXyXyXyXyXyXyXyXyXyXyXyXyXyXyXyXe   %X1 6 0 8 4 4 4 4 4 4 4 4 ",
"4 4 4 4 4 4 4 $ 0 6 1 T   Q Q   ~ ~ !   ~   rXrXrX  rXrXrXrXrX                                        %X1 6 0 8 4 4 4 4 4 4 4 4 ",
"# 4 4 4 4 4 4 $ 0 6 1 T   Q   ~ ~ ~ ~ ~   rXrXrXrXrX  rXrXrX  yXyXyXyXyXyXyX  sXsX  tXtXtXtXtXtXtXtX  %X1 6 0 8 4 4 4 4 4 4 4 4 ",
"# 4 4 4 4 4 4 $ 0 6 1 T                 rXrXrXrXrXrXrX  yX  yXyXyXyXyXyXyXsXsXsXsXsX  tXtXtXtXtXtXtX  %X1 6 0 8 4 4 4 4 4 4 4 4 ",
"4 4 4 4 4 4 4 $ 0 $ 8 7   *.*.*.*.*.*.  rXrXrXrXrXrXrXrX  yXyXyXyXyXyXyX  sXsXsXsX  tX  tXtXtXtXtXtX  7 8 $ 0 8 4 4 4 4 4 4 4 4 ",
"4 4 # 4 4 # 4 $ 0 6 2 3.  *.*.*.*.*.  rXrXrXrXrXrXrXrX  yXyXyXyXyXyXyX  sXsXsXsX  tXtXtX  tXtXtXtX    %X2 6 0 8 # 4 # 4 4 # 4 4 ",
"4 4 4 4 4 4 4 $ 0 6 2 3.  *.*.*.*.*.  rXrXrXrXrXrXrX  yXyXyXyXyXyXyX  sXsXsXsX  tXtXtXtXtX  tXtX  iX  %X2 6 0 8 4 4 4 4 4 4 4 4 ",
"4 4 4 # 4 4 4 $ 0 6 2 3.  *.*.*.*.*.  rXrXrXrXrXrX  yXyXyXyXyXyXyX  sXsXsXsX  tXtXtXtXtXtXtX    iXiX  %X2 6 0 8 4 # 4 # 4 4 4 4 ",
"4 4 4 4 # 4 4 $ 0 6 2 3.    *.*.*.  rXrXrXrXrXrX  yXyXyXyXyXyXyX  sXsXsXsX    tXtXtXtXtXtXtX  iXiXiX  %X2 6 0 8 4 4 4 4 # 4 4 4 ",
"4 4 4 4 4 4 4 $ 0 $ 8 7   &.  *.*.  rXrXrXrXrX  uXyXyXyXyXyXuX  sXsXsXsX  g g   tXtXtXtXtX  iXiXiXiX  7 8 $ 0 8 4 4 4 4 4 4 4 4 ",
"4 4 4 4 4 4 4 $ 0 6 2 3.  &.&.  *.  rXrXrXrX                  sXsXsXsX  g g g g   tXtXtX  iXiXiXiXiX  %X2 6 0 8 4 4 4 4 4 4 4 # ",
"4 # 4 4 4 4 4 $ 0 6 2 3.  *.*.*.  sXrXrXrX  uXuXuXuXuXuXuXuX  sXsXsX  g g g g g g   tX  iXiXiXiXiXiX  %X2 6 0 8 4 4 4 4 4 4 4 4 ",
"4 4 4 4 4 4 4 $ 0 6 2 3.  =.*.*.  sXsXsX  iXiXiXiXiXiXiXiXiX  sXsX  g g g g g g g g   iXiXiXiXiXiX    %X2 6 0 8 4 4 4 4 4 4 4 4 ",
"6 6 4 4 4 4 4 $ 0 6 2 3.  =.=.  pXpXpX  sX  pXpXpXpXpXpXpXpX      g g g g g g g g g g   uXiXiXiX  sX  %X2 6 0 8 4 4 4 4 4 4 4 4 ",
"6 6 6 4 4 4 4 $ 0 $ 8 7   *.*.  pXpX  sXsXsX  pXpXpXpXpXpXpX      g g g g g g g g g g g   iXiX  sXsXsX7 8 $ 0 8 6 4 6 4 4 4 4 4 ",
"4 4 # 4 4 4 4 $ 0 6 2 3.  ;.;.  pX  sXsXsXsXsX  aXaXaXaXaXaX  rXrX  g g g g g g g g g g g     sXsXsX  %X2 6 0 8 # 4 # 4 4 4 4 4 ",
"# 4 # 4 4 4 4 $ 0 6 2 3.  :.      sXsXsXsXsXsXsX  aXaXaXaX  rXrXrXrX  g g g g g g g g g g   sXsXsXsX  %X2 6 0 8 # 4 # 4 4 4 4 4 ",
"# # # 4 4 4 4 $ 0 6 2 3.    :.  sX  sXsXsXsXsXsXsX  aXaX  rXrXrXrX  iX  g g g g g g g g   sXsXsXsXsX  %X2 6 0 8 # 4 # 4 4 4 4 4 ",
"4 4 4 4 4 4 4 $ 0 6 2 3.  >.>.  sXsX  sXsXsXsXsXsXsX    rXrXrXrX  iXiXiX  g g g g g g   sXsXsXsXsXsX  %X2 6 0 8 4 4 4 4 4 4 4 4 ",
"4 4 4 4 4 4 4 $ 0 $ 8 7   ,.,.  sXsXsX  sXsXsXsXsXsX  rXrXrXrX  iXiXiXiXiX  h h h j   sXsXsXsXsXsXsX  7 8 $ 0 8 4 4 4 4 4 4 4 4 ",
"4 # 4 4 4 4 4 $ 0 6 2 3.  <.<.  sXsXsXsX  sXsXsXsX  rXrXrXrX  iXiXiXiXiXiXiX  j j   sXsXsXsXsXsXsXsX  %X2 6 0 8 4 4 4 4 4 4 4 4 ",
"4 4 4 4 4 4 4 $ 0 6 2 3.  ,.,.  sXsXsXsXsX  sXsX  rXrXrXrX  iXiXiXiXiXiXiXiXiX    sXsXsXsXsXsXsXsXsX  %X2 6 0 8 4 4 4 4 4 4 4 4 ",
"4 4 # 4 4 4 4 $ 0 6 2 3.  1.1.  sXsXsXsXsXsX    rXrXrXrX  iXiXiXiXiXiXiXiXiXiX  sXsXsXsXsXsXsXsXsXsX  %X2 6 0 8 # 4 # 4 4 4 4 4 ",
"4 4 6 4 4 4 4 $ 0 6 2 3.  1.1.  sXsXsXsXsXsXsXrXrXrXrX  iXiXiXiXiXiXiXiXiXiX  sXsXsXsXsXsXsXsXsXsXsX  %X2 6 0 8 6 4 6 4 4 4 4 4 ",
"4 4 6 4 4 # 4 $ 0 $ 8 7                                                                               7 8 $ 0 8 6 4 6 4 4 # 4 4 ",
"4 4 6 6 6 4 4 $ 0 6 2 %X%X%X%X%X7 %X%X%X%X7 %X%X%X%X7 %X%X%X%X7 %X%X%X%X7 %X%X%X%X8 %X%X%X%X7 %X%X%X%X%X2 6 0 8 6 6 6 6 6 4 4 4 ",
"6 4 2 # 6 6 4 $ 0 6 2 < 2 2 2 2 8 2 2 2 2 8 2 2 2 2 8 2 2 2 2 8 2 2 2 2 8 1 1 1 1 8 1 1 1 1 8 1 1 1 2 < 2 6 0 8 2 # 2 # 6 6 4 4 ",
"# 6 4 4 2 6 6 $ 0 6 6 6 6 6 6 6 $ 6 6 6 6 $ 6 6 6 6 $ 6 6 6 6 $ 6 6 6 6 $ 6 6 6 6 $ 6 6 6 6 $ 6 6 6 6 6 6 6 0 8 4 4 4 4 2 6 6 4 ",
"4 # 4 4 4 # 6 $ 0 w w w w w w w w w w w w w w w w w w w w w w w w w w w w w w w w w w w w w w w w w w w w w 0 8 4 4 4 4 4 # 6 6 ",
"# # # # # # 6 $ 0 $ $ $ $ $ $ $ $ $ $ $ $ $ $ $ $ $ $ $ $ $ $ $ $ $ $ $ $ $ $ $ $ $ $ $ $ $ $ $ $ $ $ $ $ $ 0 8 # # # # # # 6 6 ",
"6 6 6 6 6 6 7 $ $ 0 0 0 0 0 0 0 0 0 0 0 0 0 0 0 0 0 0 0 0 0 0 0 0 0 0 0 0 0 0 0 0 0 0 0 0 0 0 0 0 0 0 0 0 0 8 8 6 6 6 6 6 6 7 7 "
};
