/* XPM */
static char *Wall_0741647953498[] = {
/* columns rows colors chars-per-pixel */
"64 64 256 2 ",
"   c black",
".  c #0000A8",
"X  c #00A800",
"o  c #00A8A8",
"O  c #A80000",
"+  c #A800A8",
"@  c #A85400",
"#  c gray66",
"$  c gray33",
"%  c #5454FC",
"&  c #54FC54",
"*  c #54FCFC",
"=  c #FC5454",
"-  c #FC54FC",
";  c #FCFC54",
":  c gray99",
">  c #ECECEC",
",  c gainsboro",
"<  c #D0D0D0",
"1  c #C0C0C0",
"2  c #B4B4B4",
"3  c gray66",
"4  c #989898",
"5  c gray55",
"6  c #7C7C7C",
"7  c gray44",
"8  c #646464",
"9  c gray33",
"0  c #484848",
"q  c gray22",
"w  c #2C2C2C",
"e  c #202020",
"r  c #FC0000",
"t  c #EC0000",
"y  c #E00000",
"u  c #D40000",
"i  c #C80000",
"p  c #BC0000",
"a  c #B00000",
"s  c #A40000",
"d  c #980000",
"f  c #880000",
"g  c #7C0000",
"h  c #700000",
"j  c #640000",
"k  c #580000",
"l  c #4C0000",
"z  c #400000",
"x  c #FCD8D8",
"c  c #FCB8B8",
"v  c #FC9C9C",
"b  c #FC7C7C",
"n  c #FC5C5C",
"m  c #FC4040",
"M  c #FC2020",
"N  c #FC0000",
"B  c #FCA85C",
"V  c #FC9840",
"C  c #FC8820",
"Z  c #FC7800",
"A  c #E46C00",
"S  c #CC6000",
"D  c #B45400",
"F  c #9C4C00",
"G  c #FCFCD8",
"H  c #FCFCB8",
"J  c #FCFC9C",
"K  c #FCFC7C",
"L  c #FCF85C",
"P  c #FCF440",
"I  c #FCF420",
"U  c #FCF400",
"Y  c #E4D800",
"T  c #CCC400",
"R  c #B4AC00",
"E  c #9C9C00",
"W  c #848400",
"Q  c #706C00",
"!  c #585400",
"~  c #404000",
"^  c #D0FC5C",
"/  c #C4FC40",
"(  c #B4FC20",
")  c #A0FC00",
"_  c #90E400",
"`  c #80CC00",
"'  c #74B400",
"]  c #609C00",
"[  c #D8FCD8",
"{  c #BCFCB8",
"}  c #9CFC9C",
"|  c #80FC7C",
" . c #60FC5C",
".. c #40FC40",
"X. c #20FC20",
"o. c #00FC00",
"O. c #00FC00",
"+. c #00EC00",
"@. c #00E000",
"#. c #00D400",
"$. c #04C800",
"%. c #04BC00",
"&. c #04B000",
"*. c #04A400",
"=. c #049800",
"-. c #048800",
";. c #047C00",
":. c #047000",
">. c #046400",
",. c #045800",
"<. c #044C00",
"1. c #044000",
"2. c #D8FCFC",
"3. c #B8FCFC",
"4. c #9CFCFC",
"5. c #7CFCF8",
"6. c #5CFCFC",
"7. c #40FCFC",
"8. c #20FCFC",
"9. c #00FCFC",
"0. c #00E4E4",
"q. c #00CCCC",
"w. c #00B4B4",
"e. c #009C9C",
"r. c #008484",
"t. c #007070",
"y. c #005858",
"u. c #004040",
"i. c #5CBCFC",
"p. c #40B0FC",
"a. c #20A8FC",
"s. c #009CFC",
"d. c #008CE4",
"f. c #007CCC",
"g. c #006CB4",
"h. c #005C9C",
"j. c #D8D8FC",
"k. c #B8BCFC",
"l. c #9C9CFC",
"z. c #7C80FC",
"x. c #5C60FC",
"c. c #4040FC",
"v. c #2024FC",
"b. c #0004FC",
"n. c #0000FC",
"m. c #0000EC",
"M. c #0000E0",
"N. c #0000D4",
"B. c #0000C8",
"V. c #0000BC",
"C. c #0000B0",
"Z. c #0000A4",
"A. c #000098",
"S. c #000088",
"D. c #00007C",
"F. c #000070",
"G. c #000064",
"H. c #000058",
"J. c #00004C",
"K. c #000040",
"L. c #282828",
"P. c #FCE034",
"I. c #FCD424",
"U. c #FCCC18",
"Y. c #FCC008",
"T. c #FCB400",
"R. c #B420FC",
"E. c #A800FC",
"W. c #9800E4",
"Q. c #8000CC",
"!. c #7400B4",
"~. c #60009C",
"^. c #500084",
"/. c #440070",
"(. c #340058",
"). c #280040",
"_. c #FCD8FC",
"`. c #FCB8FC",
"'. c #FC9CFC",
"]. c #FC7CFC",
"[. c #FC5CFC",
"{. c #FC40FC",
"}. c #FC20FC",
"|. c #FC00FC",
" X c #E000E4",
".X c #C800CC",
"XX c #B400B4",
"oX c #9C009C",
"OX c #840084",
"+X c #6C0070",
"@X c #580058",
"#X c #400040",
"$X c #FCE8DC",
"%X c #FCE0D0",
"&X c #FCD8C4",
"*X c #FCD4BC",
"=X c #FCCCB0",
"-X c #FCC4A4",
";X c #FCBC9C",
":X c #FCB890",
">X c #FCB080",
",X c #FCA470",
"<X c #FC9C60",
"1X c #F0945C",
"2X c #E88C58",
"3X c #DC8854",
"4X c #D08050",
"5X c #C87C4C",
"6X c #BC7848",
"7X c #B47044",
"8X c #A86840",
"9X c #A0643C",
"0X c #9C6038",
"qX c #905C34",
"wX c #885830",
"eX c #80502C",
"rX c #744C28",
"tX c #6C4824",
"yX c #5C4020",
"uX c #543C1C",
"iX c #483818",
"pX c #403018",
"aX c #382C14",
"sX c #28200C",
"dX c #600064",
"fX c #006464",
"gX c #006060",
"hX c #00001C",
"jX c #00002C",
"kX c #302410",
"lX c #480048",
"zX c #500050",
"xX c #000034",
"cX c gray11",
"vX c #4C4C4C",
"bX c gray36",
"nX c gray25",
"mX c gray19",
"MX c #343434",
"NX c #D8F4F4",
"BX c #B8E8E8",
"VX c #9CDCDC",
"CX c #74C8C8",
"ZX c #48C0C0",
"AX c #20B4B4",
"SX c #20B0B0",
"DX c #00A4A4",
"FX c #009898",
"GX c #008C8C",
"HX c #008484",
"JX c #007C7C",
"KX c #007878",
"LX c #007474",
"PX c #007070",
"IX c #006C6C",
"UX c #980088",
/* pixels */
"q q q q q q q q q q q q q q q q q q q q q q q q q q q q q q q q q q q q q q q q q q q q q q q q q q q q q q q q q q q q q q q q ",
"9 q 9 0 0 0 0 0 9 0 0 0 0 0 0 9 0 q 0 0 0 0 0 0 0 9 9 9 9 9 9 0 0 0 0 0 0 0 0 0 9 9 9 9 9 9 9 0 0 0 0 q q q 0 0 9 9 0 0 0 0 0 q ",
"q s s d d d d d d d d d h 0 0 9 # # 4 4 4 4 4 4 4 4 4 4 4 4 4 4 4 4 4 4 6 0 q 9 t t t t y y y y y y u u u u u i i i i p p p s 0 ",
"0 s f g g d j h d j f h l w 0 9 # 5 8 5 8 5 8 5 8 5 7 5 7 5 8 5 8 5 5 6 $ w 0 q u s i a i a a i h i g i a i f a s g i d i s g w ",
"0 d h k h j h h k h j k l w 0 9 4 5 8 8 6 8 $ 6 6 $ 7 6 6 $ 7 6 $ 6 7 $ vXw 0 9 u s s g j s f h f s g f s s f s g f s k s h j w ",
"0 d k h h k h h h k h z sXw 0 9 4 8 5 6 8 6 $ 6 8 6 $ 6 $ 8 8 6 $ 7 8 $ vXw 0 0 u h s j f s j s h s g s f s j s d g s g s h l w ",
"0 f h k j h k h k j h k sXw 0 9 5 5 8 6 8 8 7 6 $ 8 $ 6 8 $ 7 8 8 $ 6 $ MXw q 0 p h s g s f j s h h s s h s f s s g s k s f l w ",
"0 g k h h k h h k h k z sXw 0 0 5 5 8 6 $ 6 $ 6 $ 6 $ 7 8 $ 8 6 $ 7 8 $ vXw q 0 p d s j f s g f h f g s f s j s g f s g s h z w ",
"0 g h k j z k k z k j k sXw q 9 7 7 $ $ nX8 $ $ 8 $ nX$ 8 $ 8 $ nX8 $ $ MXw q 0 p h h k h h l f l h k f l h l f j l h f h f z w ",
"0 k l l l sXsXsXsXsXsXsXsXw q 0 8 vXvXvXvXvXvXvXvXvXvXvXMXMXMXMXMXMXMXMXMXw q 0 f j j j j j j j j j j k k k k k k k k k z z z w ",
"0 0 w w w w w w w w e e e w q 9 0 w w w w w e e e e e w w e e e e w w w w w 0 9 q w w w w w w w w w w w e e e e e w w w w w w w ",
"9 q q q q 0 0 0 0 q q q q q 0 q 0 0 0 0 0 0 0 q q q 9 0 0 0 q q 0 0 0 0 0 0 9 q 0 9 9 9 9 bX8 8 bX9 9 0 0 nXq nX9 q 9 0 0 0 9 q ",
"t u u u p p p p p p p p p p p s 0 9 0 B B 3X3X3X3X3X3X5X5X5X5X5X5X5X6X6X6X6X6X6X6X6X6X6X6X6X6X6X6X6X6X6X8X0 nX9 t t u u u u u u ",
"a f f a d g a g d f a j a f s z q 0 9 B rX7X5XwX6XtXwX6XwXwX5X0X8XwXwXwX8XwX8XwX8XwX5XtX5XwX0X6X5X0X5X8XpXq 0 q t i g a f a f a ",
"f s f s g f f j s f j f s s h z w 0 0 3X7XrX8XwX8X8XwX8XtX8XrXtXwX8XwX8XwX8XtX8X8XwXtX8XwX8XrXwX8XrX8XrXpXq 0 9 i a g s f g s d ",
"h s s f d j s g f f d j s f h z w q 0 3XrX8XwX0XwXwXtXwXwXrX8XwXtX8XwXwXtXwXwXwX8XyXwXwX8XrX8XrX8X8XrXrXpXw nX0 i g s s s g s g ",
"s f f s f g g f g s d j s j h z w q 0 3XrX8X8XwX8XtXwX8XtXrX8XtXwX8XwXwXwX8XtX8XwXyX8XtX8XrXwXrX8XrX8XrXpXw q 0 i a g s g s d g ",
"h s j s h f g d j s j f s s h z w 0 9 3X7XyX8XwX8XwXtXwXyXwXrXtX8XwXwXyXwX8XtXwXyXwX8XtXwX8XrXwX8XrX8XrXpXe q 0 a g s s k s g f ",
"h a j h l g h d h d h k d h h z w 0 9 7X8XrXwXyXrX0XrXwXtXrXwXyXrX0XrX0XtXwXrXwXwXyX0XrXrXwXuXrX0XrXwXrXpXe nX9 a s g h k h d h ",
"z l l l l l l l l l l l l z z z q 0 9 8XtXtXtXtXtXtXtXtXtXtXtXtXtXyXyXyXyXyXyXyXyXyXyXyXyXyXyXyXyXyXyXpXpXe 0 q s j z j z z j z ",
"w w w e w w w e e e w w w e e w q 0 q 0 q MXw w w w w w MXMXq q MXw w w e e e e e w w w e e e e w w w w w q 0 9 0 w w w w w w w ",
"9 9 0 q q 0 9 q 9 q 0 0 q q q q 0 0 9 0 0 0 nXq nXq nXq nX0 0 0 9 q 9 0 nXq q q nXnX0 0 9 nXq q nX0 0 0 9 0 9 q 9 nXq nX9 0 0 0 ",
"9 # # 4 4 4 4 4 4 4 5 5 5 5 5 5 5 5 5 5 5 5 5 5 5 5 5 6 0 9 9 O O d d d d d d d d d d f f f f f f f f f f f f f f f f f f f g 0 ",
"9 # 8 6 5 8 5 8 5 8 6 8 6 8 6 4 8 6 8 6 8 5 6 vX6 4 $ q q 0 9 O f j d g f h g f h f g f j k g h j h g j h g g h g j h g l g z w ",
"q # 6 8 6 7 6 8 $ 8 6 6 8 7 8 6 8 vX6 $ 6 8 vX8 6 $ 6 q w 0 bXd f g g k g k h j g h k g k h g k g j g j g h g k g g j g j j z w ",
"0 5 vX6 6 $ 8 vX6 vX6 $ 6 8 7 6 vX8 6 $ 8 6 8 vX8 6 $ q w 9 8 d f j g j g k g j g g j g j g h k g j j g g j g h g g j g l j z w ",
"0 5 6 8 6 nX6 vX$ 8 6 8 $ 8 6 8 8 vX8 6 vX6 8 vX6 $ vXq w 9 bXd j g j g h k h g j g k h k h g j h j h j g h g k g j h g j j z w ",
"9 5 $ vX6 nX8 8 6 vX6 vX6 vX6 8 vX8 6 8 vX6 vX8 8 8 6 q w 0 9 d d j g j g h g h j g k g l j j l g l g l g l g g h k l j h j z w ",
"0 4 6 vX$ $ $ vX$ nX$ $ 8 vX8 $ $ 8 $ $ vX$ 7 $ 7 $ $ q w q 9 d g j g j h l j j j j k h j h l g l j g l j h l g l g l g j j z w ",
"0 6 7 vXvXvXvXvXvXvXvXvXvXvXvXvXvXnXnXnXnXnXnXnXnXnXq q w q 9 g k k k k k k k k k k k k k k l l l l l l l l l l l l z l j l z w ",
"0 0 q w w w w w w w w w w w w w w w w w q q q w w w w w w 0 0 0 w w w w w w w w e e e e e w q q q w e e e w w w w w w w w w w w ",
"9 9 9 9 9 0 0 q 0 q q q 0 9 8 8 9 9 9 0 0 0 nXnXq q nXq q nX9 0 0 0 9 q 9 0 9 0 nXq nXq nX0 9 9 0 0 nXq nX0 0 0 9 q 9 0 0 0 9 q ",
"p p p p p p p p p p s 0 q 9 3X3X3X3X3X3X3X3X6X6X6X6X6X6X6X6X6X6X6X6X6X6X6X6X6X8X0 9 9 i t u u u u u u u u u p p p p p p p p p p ",
"s a s a d i a a i s z q 0 q 3X8XtX8XrX8X8XtX8XwX8X8XrX8XwXtX8X8XtX8X8XrX8XwX8XpXq 0 9 u s g s h s s j s g f g s h s f s g s h s ",
"s g f s d s g s f h z w 0 9 3XtX8XwXwX8XwX8X0XrX8XwXwXrXwXwX8XwXtX8XrXwX8XtX8XpXq 9 9 u s k s h s f j s f s g f f d h d g d f h ",
"f g s d g s g d s h z w 0 q 3XtX8X8XwX0X8XrX8XrX8XwX8XyX8XuXwXwX8XwXrX0X8XwX8XpXq 9 8 u s g s h s f s f s s g s h d f s d g s h ",
"s f g s d s d g f h z q 0 9 3X0XtX8XwX8XwXyX0XwXwXwXrXwX8XtX8XwXtXwX0XrXwX8XwXpXq 9 8 u g s s h s j s s g g s g s f d d f g h f ",
"s f g s g s g d s h z q 0 0 3XtX8XwXyX0X8XrXwXwX8XwX8XrXwXuXtX0XtX8X0XrX8XwX8XpXq 0 9 i s g s s h s f f g s g s h d f s g f s h ",
"h h f d h h d h h h z q 0 0 0XtX8X8XyX8XwXrX8XrX8XtX8XyXwXtX8XwXtX0XrX0X8XtXwXpXw 0 9 i s k s h s s f s f s g s h d h d g s s h ",
"z z l l l l l l l z z w 0 0 8XtXtXtXtXtXtXtXtXtXyXyXyXyXyXyXyXyXyXyXyXyXyXyXpXpXw 0 0 s j j j j j j j j j j j j j j j k k k k z ",
"w w w w w w w w w w w w 0 9 0 w e e e e w w q q q w e e e e e w w w w w w w w w q 0 0 0 w w w w q q 0 q w w e e e w w w w w w w ",
"9 0 9 q 0 q q 0 0 q q q q 0 0 q q q 0 0 0 0 0 9 9 0 0 q q q 9 0 0 0 9 q 0 q 0 q 0 0 9 0 9 q 9 0 9 bX8 9 vX0 0 q 9 0 9 0 9 q 9 q ",
"q O g g d d d d d f f f f f f f f f f f f f f f f f f f f f f g q 9 q t t u u u u u u u u p p p p p p p p p p p p p p p p p s 0 ",
"9 d j j h g k g g j g g j g j h g k g j g h g k g k g g j j g z q 0 9 t s s j s j s k s h s k s f k d f h s f g s g d h f s z w ",
"0 d j l g h k g h g j g k h l g g k g l h g h k g j g j g j g z w 0 0 u f s j f j g k f k d g s k s j s h f h s f g d s j f z w ",
"0 d j l g k h j k g k g h j h g k g h h l j g l g l h k h h j z w q 0 u f s j j f s g k s g k d s k s h h s h s g s h f j s z w ",
"q d j j g h k g h j g g j g l h g k g l h g l g g j g g g j j z w q 0 u s j s f j s k s h d g g k f j s g f d f d g h s f s z w ",
"9 d j l h g k g k g k g k g j g k k g l h j g j h k g k h j g z e q 9 u s j j s j g k s k s k d k s j f h s h g s g d f j h z w ",
"q d j l g k h j h g j g h h h g g k h j l k g l g j g j g j g z e q 9 i h s j f j s k g s g k d h f j s h s h s g d h s j s z w ",
"9 g l l k k k k k k k l l l l l l l l l l l l l l l l l l l l z w 0 9 s j j j j j j j j j k k k k k l l l l l l l l l l l z z w ",
"q 0 w w w w w w w w w w q q q w e e e e w w w e e e e w w e e w w 0 q 0 w w w w w w e e e w MXq MXw e w w w w e e e w w w w w w ",
"9 q 9 q 9 0 9 0 0 0 0 9 8 8 9 0 9 q 9 0 9 0 nXq q q nX0 9 0 0 q 0 0 9 q 9 0 0 0 0 0 0 0 0 vX9 9 9 vX0 0 0 0 q mXe e mXq 0 0 9 0 ",
"u u u u u p p p p p p p p p p p p s 0 9 0 B B 3X3X3X3X3X3X3X3X6X6X6X6X6X6X6X6X6X6X6X6X6X6X6X8X0 q 9 t u u u u u p p p p p p p p ",
"g s k s s j d j s g i g s j s g s z w 0 0 3X8X8X8X8XtX8XuX8XwX8XtX8XtX8XuX8XtX8XtX8XyX8XrXtXpXq 0 9 u s j f s k s h s h s j s h ",
"s g g s g s j d g j s k g j f j f z w 0 0 3XwX8XrX8XtXrXuXwX0XwX8XwXtXuXuXtXwXwXrXwXyX8XtX8XpXMX0 9 u j s k s h s h f s h s f l ",
"s g k g s j d j g s g k s f j d g z w 0 nX3XwXwXrX8XtXwXwX8XyX8XuX8XuXuX8XtX8XtXwXyXwXwXtXrXpXw 0 9 u j s h h s s f h f h j h f ",
"g d k d j j s j s g s k g h j s j z w 0 nX3X8XuXrX8XtX8XuX8XwX0XtX8XuXuXwXtX8XtX8XwXyXrX0XtXpXw 0 9 u s j k s f h h s h s j h s ",
"j s g s j s j f s j s g k f s g f z w 0 nX3XuX8X8XtX8XwXrXwXyXwXuXuXuXuXtXwXwXtXwXrXyXwXrXtXpXw 0 0 u j s f s h s f h h k s h s ",
"j s g g j d d j d j g k s j s j d z w 0 0 3XuX8XrX8XtXwXwXwXuX0XuXuXuX8XwXtX8XwXtX8XyX8XyXwXpXw q 0 u j s k h k s h s h k j s l ",
"g d k s j j f j g g s k s j h f g z w 0 9 5X8XuXrX8XtX8XuXwXtX8XtXuXrXtX8XtXwX8XtXwXrXwXtXwXpXw q 0 i j j k s k s h s h s j s h ",
"l l l l l l l l l l l l l l l l z z w 0 0 8XpXpXpXpXpXuXuXuXuXuXuXuXuXuXuXuXuXuXuXuXuXuXuXpXpXe 0 9 s z z l l l l l l l l l l l ",
"w w w w w w w w w w w w w w w w w w w 0 9 0 q MXMXw w w w w w w w w w w w w w e e e e e w e e e q 0 0 w w w w w w e e e e e w w ",
"q 9 q 9 q q q 0 0 0 0 0 9 9 q 0 0 0 0 9 9 9 9 9 0 0 0 9 0 0 0 9 0 0 q 0 0 0 nXq q nXq q nX0 nXq nX9 0 0 q 9 0 0 0 0 nXq nX0 0 0 ",
"9 9 9 9 9 9 9 9 9 9 9 9 9 9 9 9 9 9 9 9 9 9 9 9 9 9 9 9 9 9 9 9 9 9 9 9 9 9 9 9 9 9 9 9 9 9 9 9 9 9 9 9 9 9 9 9 9 9 9 9 9 9 9 9 "
};
