/* XPM */
static char *Wall_0251647953497[] = {
/* columns rows colors chars-per-pixel */
"64 64 256 2 ",
"   c black",
".  c #0000A8",
"X  c #00A800",
"o  c #00A8A8",
"O  c #A80000",
"+  c #A800A8",
"@  c #A85400",
"#  c gray66",
"$  c gray33",
"%  c #5454FC",
"&  c #54FC54",
"*  c #54FCFC",
"=  c #FC5454",
"-  c #FC54FC",
";  c #FCFC54",
":  c gray99",
">  c #ECECEC",
",  c gainsboro",
"<  c #D0D0D0",
"1  c #C0C0C0",
"2  c #B4B4B4",
"3  c gray66",
"4  c #989898",
"5  c gray55",
"6  c #7C7C7C",
"7  c gray44",
"8  c #646464",
"9  c gray33",
"0  c #484848",
"q  c gray22",
"w  c #2C2C2C",
"e  c #202020",
"r  c #FC0000",
"t  c #EC0000",
"y  c #E00000",
"u  c #D40000",
"i  c #C80000",
"p  c #BC0000",
"a  c #B00000",
"s  c #A40000",
"d  c #980000",
"f  c #880000",
"g  c #7C0000",
"h  c #700000",
"j  c #640000",
"k  c #580000",
"l  c #4C0000",
"z  c #400000",
"x  c #FCD8D8",
"c  c #FCB8B8",
"v  c #FC9C9C",
"b  c #FC7C7C",
"n  c #FC5C5C",
"m  c #FC4040",
"M  c #FC2020",
"N  c #FC0000",
"B  c #FCA85C",
"V  c #FC9840",
"C  c #FC8820",
"Z  c #FC7800",
"A  c #E46C00",
"S  c #CC6000",
"D  c #B45400",
"F  c #9C4C00",
"G  c #FCFCD8",
"H  c #FCFCB8",
"J  c #FCFC9C",
"K  c #FCFC7C",
"L  c #FCF85C",
"P  c #FCF440",
"I  c #FCF420",
"U  c #FCF400",
"Y  c #E4D800",
"T  c #CCC400",
"R  c #B4AC00",
"E  c #9C9C00",
"W  c #848400",
"Q  c #706C00",
"!  c #585400",
"~  c #404000",
"^  c #D0FC5C",
"/  c #C4FC40",
"(  c #B4FC20",
")  c #A0FC00",
"_  c #90E400",
"`  c #80CC00",
"'  c #74B400",
"]  c #609C00",
"[  c #D8FCD8",
"{  c #BCFCB8",
"}  c #9CFC9C",
"|  c #80FC7C",
" . c #60FC5C",
".. c #40FC40",
"X. c #20FC20",
"o. c #00FC00",
"O. c #00FC00",
"+. c #00EC00",
"@. c #00E000",
"#. c #00D400",
"$. c #04C800",
"%. c #04BC00",
"&. c #04B000",
"*. c #04A400",
"=. c #049800",
"-. c #048800",
";. c #047C00",
":. c #047000",
">. c #046400",
",. c #045800",
"<. c #044C00",
"1. c #044000",
"2. c #D8FCFC",
"3. c #B8FCFC",
"4. c #9CFCFC",
"5. c #7CFCF8",
"6. c #5CFCFC",
"7. c #40FCFC",
"8. c #20FCFC",
"9. c #00FCFC",
"0. c #00E4E4",
"q. c #00CCCC",
"w. c #00B4B4",
"e. c #009C9C",
"r. c #008484",
"t. c #007070",
"y. c #005858",
"u. c #004040",
"i. c #5CBCFC",
"p. c #40B0FC",
"a. c #20A8FC",
"s. c #009CFC",
"d. c #008CE4",
"f. c #007CCC",
"g. c #006CB4",
"h. c #005C9C",
"j. c #D8D8FC",
"k. c #B8BCFC",
"l. c #9C9CFC",
"z. c #7C80FC",
"x. c #5C60FC",
"c. c #4040FC",
"v. c #2024FC",
"b. c #0004FC",
"n. c #0000FC",
"m. c #0000EC",
"M. c #0000E0",
"N. c #0000D4",
"B. c #0000C8",
"V. c #0000BC",
"C. c #0000B0",
"Z. c #0000A4",
"A. c #000098",
"S. c #000088",
"D. c #00007C",
"F. c #000070",
"G. c #000064",
"H. c #000058",
"J. c #00004C",
"K. c #000040",
"L. c #282828",
"P. c #FCE034",
"I. c #FCD424",
"U. c #FCCC18",
"Y. c #FCC008",
"T. c #FCB400",
"R. c #B420FC",
"E. c #A800FC",
"W. c #9800E4",
"Q. c #8000CC",
"!. c #7400B4",
"~. c #60009C",
"^. c #500084",
"/. c #440070",
"(. c #340058",
"). c #280040",
"_. c #FCD8FC",
"`. c #FCB8FC",
"'. c #FC9CFC",
"]. c #FC7CFC",
"[. c #FC5CFC",
"{. c #FC40FC",
"}. c #FC20FC",
"|. c #FC00FC",
" X c #E000E4",
".X c #C800CC",
"XX c #B400B4",
"oX c #9C009C",
"OX c #840084",
"+X c #6C0070",
"@X c #580058",
"#X c #400040",
"$X c #FCE8DC",
"%X c #FCE0D0",
"&X c #FCD8C4",
"*X c #FCD4BC",
"=X c #FCCCB0",
"-X c #FCC4A4",
";X c #FCBC9C",
":X c #FCB890",
">X c #FCB080",
",X c #FCA470",
"<X c #FC9C60",
"1X c #F0945C",
"2X c #E88C58",
"3X c #DC8854",
"4X c #D08050",
"5X c #C87C4C",
"6X c #BC7848",
"7X c #B47044",
"8X c #A86840",
"9X c #A0643C",
"0X c #9C6038",
"qX c #905C34",
"wX c #885830",
"eX c #80502C",
"rX c #744C28",
"tX c #6C4824",
"yX c #5C4020",
"uX c #543C1C",
"iX c #483818",
"pX c #403018",
"aX c #382C14",
"sX c #28200C",
"dX c #600064",
"fX c #006464",
"gX c #006060",
"hX c #00001C",
"jX c #00002C",
"kX c #302410",
"lX c #480048",
"zX c #500050",
"xX c #000034",
"cX c gray11",
"vX c #4C4C4C",
"bX c gray36",
"nX c gray25",
"mX c gray19",
"MX c #343434",
"NX c #D8F4F4",
"BX c #B8E8E8",
"VX c #9CDCDC",
"CX c #74C8C8",
"ZX c #48C0C0",
"AX c #20B4B4",
"SX c #20B0B0",
"DX c #00A4A4",
"FX c #009898",
"GX c #008C8C",
"HX c #008484",
"JX c #007C7C",
"KX c #007878",
"LX c #007474",
"PX c #007070",
"IX c #006C6C",
"UX c #980088",
/* pixels */
"                                                                                                                                ",
"  e e e e e e e e e e e e e e e e e e e e e e e e e e e e e e e e e e e e e e e e e e e e e e e e e e e e e e e e e e e e e e   ",
"  e e w w w w w w w w w w w w w w w w w w w w w w w w w w w w w w w w w w w w w w w w w w w w w w w w w w w w w w w w w w w w   ",
"  e   0 0 0 0 0 0 0 0 0 0 0 0 0 0 0 9 0 9 0 9 0 9 bXbXbX8 bX8 8 8 8 bXbX9 9 vXvX9 0 vXvXvXvX0 0 nX0 nXnXnXnXq nXq q MXq MXMXmX  ",
"  e   0 0 8 6 8 0 0 0 8 6 8 0 9 0 8 6 8 0 9 9 bXbXbXbX8 bX8 8 8 bXbXbX9 9 9 vX9 0 vXvXvXvX0 0 nX0 nXnXnXnXq nXq q MXq MXMXmXmX  ",
"  e   0 0 q 8 6 0 0 0 q 8 6 9 0 9 q 8 6 9 9 bXbX8 bX8 8 8 8 8 bXbXbX9 9 9 vX9 0 vXvXvXvX0 0 nX0 nXnXnXnXq nXq q MXq MXMXmXmXmX  ",
"  e   0 0 e q 8 0 9 0 e q 8 0 9 0 e q 8 9 bXbX8 bX8 8 8 8 bXbXbXbX9 9 9 vX9 0 vXvXvXvX0 0 nX0 nXnXnXnXq nXq q 0 9 9 q mXmXmXw   ",
"  e   0 0 0 9 0 9 0 9 0 9 0 9 9 bX9 9 bX8 bX8 8 8 6 w e                                       e w 8 9 0 q q q q 8 9 MXmXmXw mX  ",
"  e   9 0 9 0 9 0 9 0 9 9 9 9 bXbXbXbX8 bX8 8 8 8 8 6 q q q q q q q q q q q w w w w w w w w w q 8 9 0 q q q q e q 0 mXmXw mXw   ",
"  e   0 9 0 9 0 9 9 9 9 bX9 bXbX8 bX8 bX8 8 8 8 8 bX8 6 9 9 9 vX9 vX9 vXvXvXvXvX0 0 0 0 nX0 nX8 9 0 q q q q MXq w w mXw mXw mX  ",
"  e   9 0 9 0 9 9 9 9 bXbXbXbX8 bX8 8 8 8 8 8 8 bX9 8 6 8 9 vX9 vX9 vXvXvXvXvX0 0 0 0 nX0 nX9 8 0 q q q q MXq MXMXmXw mXw mXmX  ",
"  e   0 9 9 bX9 9 9 bXbX8 bX8 bX8 8 8 8 8 8 8 bX9 bX9 8 6 8 9 vX9 vXvXvXvXvX0 0 0 0 nX0 nX9 8 9 q nXq q MXq MXMXmXw mXw mXw mX  ",
"  e   9 9 bX9 9 g bXbX8 bX8 8 8 8 8 8 8 bX8 bX9 bX9 9 9 8 6 8 9 vXvXvXvXvX0 0 0 0 nX0 nX9 8 9 q nXq q MXq MXMXmXw mXw w w mXMX  ",
"  e   9 bXbXbXg g d 8 bX8 8 8 8 8 0 0 bX8 bX9 bX9 9 9 vX9 8 6 vXvXvXvXvX0 0 0 0 nX0 nX0 8 9 q nXq q q q MXMXmXw mX  w w mXmXmX  ",
"  e   bXbXbXg f f f d 8 8 8 8 8 8 7 w 0 bX9 bX9 8 6 8 9 vX9 7 9 vXvXvX0 0 0 0 0 0 nX0 9 8 q nXq q 0 9 9 MXmXw mXe   w mXw mXMX  ",
"  e   bX8 d f f f f f d 8 8 8 8 bX6 0 w 9 bX9 9 q 8 6 vX9 vX9 7 9 vX0 0 0 0 0 0 nX0 9 8 9 nXq q q q 8 9 mXMXmXe e   mXw mXMXmX  ",
"  e   8 d f f f f f f f d 8 8 8 bX6 9 e w 9 9 9 e q 8 9 vX9 vX9 7 9 0 0 0 0 0 nX0 9 8 9 nXq q q q e q 0 MXmXw e e   w mXmXmXMX  ",
"  e   8 8 8 8 8 8 8 8 8 8 bX8 bXbX6 9 0 e w 9 vX9 vX9 vX9 vXvXvX9 7 9 0 0 0 nX0 9 8 9 nXq q q q q q MXMXmXw e w e   w mXmXMXmX  ",
"  e   8 8 8 8 8 8 8 8 8 bX8 bXbXbX6 9 9 0 e w 9 vX9 vX9 vXvXvXvX0 9 7 0 0 0 0 nX8 9 nXq q q q q q MXMXmXw e w w e   mXmXMXmXMX  ",
"  e   8 f f f f f f f g h bXbXbX9 6 9 9 9 w e 0 9 vX9 vXvXvXvX0 0 0 7 9 0 0 nX9 8 nXq q q q q q MXMXMXw e w w w e   mXmXmXMXmX  ",
"  e   8 8 f f f f f g h bXbXbX9 bX6 9 9 vX9   w 0 9 vXvXvXvX0 0 0 0 9 7 9 nX9 8 9 q nXq q q q MXq MXMXw e w w w e   mXmXMXmXMX  ",
"  e   8 8 8 f f g g h bXbXbX9 bX9 6 9 vX9 0 w   w 0 vXvXvX0 0 0 0 0 nX9 7 9 8 9 q nXq q q q MXq MXMXw e w w w w e   mXMXmXMXMX  ",
"  e   8 8 8 bXg g h bXbXbX9 bX9 9 6 vX9 vX9 0 w   w 0 vX0 0 8 7 8 nX0 nX9 7 9 q nXq 0 9 9 MXq MXMXw e w w mXw w e   mXmXMXmXMX  ",
"  e   8 8 bX8 bXh bXbXbX9 bX9 9 9 6 9 vX9 vX9 0 w   w 0 0 0 q 8 7 0 nXnXnXnXq nXq q q 8 9 q MXMXw e w w mXw w w e   mXMXmXMXq   ",
"  e   8 bX8 bXbX9 bXbX9 9 9 9 9 vX6 vX9 vX9 vXvXvXw   0 0 0 e q 8 nXnXnXnXq nXq q q e q 0 q MXmXe e w mXw mXw w e   MXmXMXMXMX  ",
"  e   bX8 bXbXbXbXbX9 9 9 vX9 vX9 6 9 vX9 vXvXvXvXvX  w 0 0 nX0 nXnXnXnXq nXq q q q q q q MXmXw e w mXmXmXw w w e   mXMXmXMXq   ",
"  e   8 bXbXbXbXbX9 9 9 vX9 vX9 vX6 vXvXvXvXvXvXvX0 w   w nX0 nXnXnXnXq nXq q q q q q q MXmXw e w mXmXmXw w w w e   MXmXMXq q   ",
"  e   bXbXbXbXbX9 9 9 vX9 vX9 vX9 6 9 vXvXvXvXvX0 0 0 w   w nXnXnXnXq nXq q q q q q q MXmXw e w mXmXmXw w w w w e   mXMXq q q   ",
"  e   bXbXbXbX9 9 9 vX9 vX9 vX9 vX7 vXvXvXvXvXvX0 0 0 0 w   nXnXnXq nXq q q q q q q MXmXMXe e w mXmXw mXw w w w e   MXmXMXq q   ",
"  e   bXbXbX9 9 9 vX9 vX9 vX9 vX9 7 vXvXvXvXvX0 0 0 0 0 0   w nXq nXq q 0 9 9 q q q q MXmXe w mXmXw mXw w w w w e   mXMXq nXq   ",
"  e   bXbX9 9 9 vX9 vX9 vX9 vX9 vX7 vXvXvXvX0 0 0 0 0 0 0 w   q nXq nXq q 8 9 q q q MXmXe w mXmXmXmXw w w w w mXe   MXq nXq nX  ",
"  e   bX9 9 9 vX9 vX9 vX9 vX9 vXvX7 vXvXvX0 0 0 0 0 0 0 nX0 9 0 q nXq q e q 0 q q MXmXMX0 mXmXmXmXw w w w w mXmXe   mXq q nXq   ",
"  e   9 9 9 vX9 vX9 vX9 vX9 vXvXvX7 vXvX0 0 0 0 0 0 0 nX0 9 8 9 nXq q q q q q q MXmXMXmX9 0 mXmXw mXw w w mXw mXe   MXq nXq nX  ",
"  e   9 9 vX9 vX9 vX9 vX9 vXvXvXvX7 vX0 0 0 0 0 0 0 nX0 9 8 9 nXq q q q q q q q q MXmXMX0 9 0 w mXw w w w w mXMXe   q nXq nXq   ",
"  e   9 9 9 vX9 vX9 vX9 vXvXvXvXvX7 0 0 0 0 0 0 0 nX0 9 8 9 nXq q q q q q q q q MXmXMXmXmX0 9 0 w w w w w mXw mXe   q q nXq nX  ",
"  e   vX9 vX9 vX9 vX9 vXvXvXvXvXvX7 0 0 0 0 0 0 nX0 nX9 8 nXq q q q q q q q q MXmXMXmXmXmXmX0 0 w w w w mXw mXMXe   q nXq nXnX  ",
"  e   9 vX9 vX9 vX9 vXvXvXvXvXvX0 7 0 0 0 0 0 nX0 nX9 8 0 q q q q q q q q q MXmXMXmXmXmXmXmXmX0 0 w w w w mXMXmXe   nXq nXnXnX  ",
"  e   vX9 vX9 vX9 vXvXvXvXvXvX0 0 7 0 0 0 0 nX0 nX9 8 9 q q 0 9 9 q q q q MXmXMXmXmXq 9 0 mXw 0 9 0 w w w mXmXMXe   q nXnXnXnX  ",
"  e   9 vX9 vX9 vXvXvXvXvXvX0 0 0 7 0 0 0 nX0 nX9 8 9 q q q q 8 9 q q q MXmXMXmXMXmXq 9 9 w w w 0 9 0 w mXmXMXmXe   nXnXnXnX0   ",
"  e   vX9 vX9 vXvXvXvXvXvX0 0 0 0 7 0 0 nX0 nX9 8 9 q nXq q e q 0 q q MXw e e MXmXmXe q q w w w w 0 9 0 mXMXmXMXe   nXnXnX0 nX  ",
"  e   9 vX9 vXvXvXvXvXvX0 0 0 0 0 7 0 nX0 nX0 9 8 q nXq q q q q q q MXw e w   e mXmXmXw mXw w w w w 0 9 mXmXMXmXe   nXnX0 nX0   ",
"  e   vX9 vXvXvXvXvXvX0 0 0 0 0 0 7 nX0 nX0 9 8 q nXq q q q q q q q w e w MXe   e mXw mXw w w w w w w 0 9 q mXMXe   nX0 nX0 nX  ",
"  e   9 vXvXvXvXvXvX0 0 0 0 0 0 0 7 0 nX0 9 8 9 nXq q q q q q q q MXe w MXmXMXe   w mXw w w w w w w w 0 8 9 MXMXe   0 nX0 nX0   ",
"  e   vXvXvXvXvXvX0 0 0 0 0 0 0 nX7 nX0 9 8 9 nXq q q q q q q q MXw e MXmXMXmXw   e w w w w w w w w w mX9 8 9 MXw   nX0 nX0 nX  ",
"  e   vXvXvXvXvX0 vX0 0 0 0 0 nX0 7 0 q 8 9 nXq q q q q q q q MXw e w mXMXmXmXmXe   e w w w w w w w mXmXMX9 8 q w   0 nX0 nX0   ",
"  e   vXvXvXvX0 vX0 0 0 0 0 nX0 nX7 q 9 8 nXq q q q q q q q MXw e w mXMXmXmXmXw w e   e w w w w w mXmXMXmXMX8 9 q e nX0 nX0 nX  ",
"  e   vXvXvX0 vX0 0 0 0 0 nX0 nXnX7 9 8 9 q q 0 9 9 q q q MXw e w mXMXmXmXmXw w w w e   e w w w w q 9 0 MXmX9 8 9 w 0 nX0 nX0   ",
"  e   vXvX0 vX0 0 0 0 0 nX0 nX0 nX7 8 9 q q q q 8 9 q q MXq e w MXMXmXmXmXw w w w w w e   w w w mXq 9 9 mXMXMX9 8 q nX0 nX0 0   ",
"  e   vX0 8 6 8 0 0 0 nX0 nX0 nXnX7 9 q q q q e q 0 q MXq w e MXMXmXmXmXw mXw w w w w w   e w mXmXe MXMXMXMXMXq 9 q nXnX0 nX0   ",
"  e   0 vXq 8 6 0 0 nX0 nX0 nXnXq 7 q nXq q q q q q MXq w e w MXmXMXmXmXmXw w w w w w w e   e mXmXmXmXMXmXMXq nXq nXnX0 nX0 0   ",
"  e   vX0 e q 8 0 nX0 nX0 nXnXq nXq nXq q q q q q MXq w e w MXmXMXmXmXmXw mXw w w w w w w e   e mXmXMXmXMXMXq q nXnXnXnX0 nX0   ",
"  e   0 0 0 0 0 nX0 nX0 nXnXq nXq nXq q q q q q MXq MXe w MXmXMXmXmXmXmXmXw w w w w w w w w e   mXMXmXMXMXMXq nXq nXnX0 nX0 0   ",
"  e   0 0 0 0 nX0 nX0 nXnXq nXq nXq q q q q q MXq MXw e MXMXMXmXMXmXmXmXw w w w w w w w w w w   e mXMXmXMXq q q 0 q 0 nX0 0 0   ",
"  e   0 0 0 nX0 nX0 nXnXq nXq nXq q q q q q q q MXw e w MXMXmXMXmXmXmXw w w w w w w w w w w w e   e mXMXMXq q 8 6 8 nX0 nX0 0   ",
"  e   0 0 8 6 8 0 nX0 9 8 8 nXq q 0 9 9 q q q MXq e q 8 8 8 8 8 9 9 9 9 9 9 9 9 9 9 9 9 9 9 9 9 q   MXMXMXq q q 8 6 0 nX0 0 0   ",
"  e   0 0 q 8 6 nXnXq q 8 8 q q q q 8 9 q q MXq MXMXMXMXmXMXmXmXmXmXmXw mXw w w w w w w w mXw mXmXMXmXMXMXq q e q 8 nX0 nX0 0   ",
"  e   0 nXe q 8 nXq nXe q 9 q q q e q 0 q MXq MXMXMXMXMXMXmXMXmXmXmXw mXw w w w w w w w mXw mXmXMXmXMXMXq q nXq nXnXnXnX0 0 0   ",
"  e   nX0 nXnXnXq nXq nXq q q q q q q q MXq MXMXMXMXMXMXmXMXmXmXmXw mXw w w w w w w w mXw mXmXMXmXMXMXq MXnXq nXnXnXnX0 nX0 0   ",
"  e   0 nXnXnXq nXq nXq nXq q q q q q MXq MXMXMXMXMXMXmXMXmXmXmXw mXw w w w w w w w mXw mXmXw mXMXmXMXMXnXq nXnXnXnX0 nX0 0 0   ",
"  e   w w w w w w w w w w w w w w w w w w w w w w w w w w w w w w w w w w w w w w w w w w w w w w w w w w w w w w w w w w w w   ",
"  e                                                                                                                             ",
"  e e e e e e e e e e e e e e e e e e e e e e e e e e e e e e e e e e e e e e e e e e e e e e e e e e e e e e e e e e e e e e   ",
"  e e e e e e e e e e e e e e e e e e e e e e e e e e e e e e e e e e e e e e e e e e e e e e e e e e e e e e e e e e e e e e   ",
"                                                                                                                                "
};
