/* XPM */
static char *Wall_0971647953498[] = {
/* columns rows colors chars-per-pixel */
"64 64 256 2 ",
"   c black",
".  c #0000A8",
"X  c #00A800",
"o  c #00A8A8",
"O  c #A80000",
"+  c #A800A8",
"@  c #A85400",
"#  c gray66",
"$  c gray33",
"%  c #5454FC",
"&  c #54FC54",
"*  c #54FCFC",
"=  c #FC5454",
"-  c #FC54FC",
";  c #FCFC54",
":  c gray99",
">  c #ECECEC",
",  c gainsboro",
"<  c #D0D0D0",
"1  c #C0C0C0",
"2  c #B4B4B4",
"3  c gray66",
"4  c #989898",
"5  c gray55",
"6  c #7C7C7C",
"7  c gray44",
"8  c #646464",
"9  c gray33",
"0  c #484848",
"q  c gray22",
"w  c #2C2C2C",
"e  c #202020",
"r  c #FC0000",
"t  c #EC0000",
"y  c #E00000",
"u  c #D40000",
"i  c #C80000",
"p  c #BC0000",
"a  c #B00000",
"s  c #A40000",
"d  c #980000",
"f  c #880000",
"g  c #7C0000",
"h  c #700000",
"j  c #640000",
"k  c #580000",
"l  c #4C0000",
"z  c #400000",
"x  c #FCD8D8",
"c  c #FCB8B8",
"v  c #FC9C9C",
"b  c #FC7C7C",
"n  c #FC5C5C",
"m  c #FC4040",
"M  c #FC2020",
"N  c #FC0000",
"B  c #FCA85C",
"V  c #FC9840",
"C  c #FC8820",
"Z  c #FC7800",
"A  c #E46C00",
"S  c #CC6000",
"D  c #B45400",
"F  c #9C4C00",
"G  c #FCFCD8",
"H  c #FCFCB8",
"J  c #FCFC9C",
"K  c #FCFC7C",
"L  c #FCF85C",
"P  c #FCF440",
"I  c #FCF420",
"U  c #FCF400",
"Y  c #E4D800",
"T  c #CCC400",
"R  c #B4AC00",
"E  c #9C9C00",
"W  c #848400",
"Q  c #706C00",
"!  c #585400",
"~  c #404000",
"^  c #D0FC5C",
"/  c #C4FC40",
"(  c #B4FC20",
")  c #A0FC00",
"_  c #90E400",
"`  c #80CC00",
"'  c #74B400",
"]  c #609C00",
"[  c #D8FCD8",
"{  c #BCFCB8",
"}  c #9CFC9C",
"|  c #80FC7C",
" . c #60FC5C",
".. c #40FC40",
"X. c #20FC20",
"o. c #00FC00",
"O. c #00FC00",
"+. c #00EC00",
"@. c #00E000",
"#. c #00D400",
"$. c #04C800",
"%. c #04BC00",
"&. c #04B000",
"*. c #04A400",
"=. c #049800",
"-. c #048800",
";. c #047C00",
":. c #047000",
">. c #046400",
",. c #045800",
"<. c #044C00",
"1. c #044000",
"2. c #D8FCFC",
"3. c #B8FCFC",
"4. c #9CFCFC",
"5. c #7CFCF8",
"6. c #5CFCFC",
"7. c #40FCFC",
"8. c #20FCFC",
"9. c #00FCFC",
"0. c #00E4E4",
"q. c #00CCCC",
"w. c #00B4B4",
"e. c #009C9C",
"r. c #008484",
"t. c #007070",
"y. c #005858",
"u. c #004040",
"i. c #5CBCFC",
"p. c #40B0FC",
"a. c #20A8FC",
"s. c #009CFC",
"d. c #008CE4",
"f. c #007CCC",
"g. c #006CB4",
"h. c #005C9C",
"j. c #D8D8FC",
"k. c #B8BCFC",
"l. c #9C9CFC",
"z. c #7C80FC",
"x. c #5C60FC",
"c. c #4040FC",
"v. c #2024FC",
"b. c #0004FC",
"n. c #0000FC",
"m. c #0000EC",
"M. c #0000E0",
"N. c #0000D4",
"B. c #0000C8",
"V. c #0000BC",
"C. c #0000B0",
"Z. c #0000A4",
"A. c #000098",
"S. c #000088",
"D. c #00007C",
"F. c #000070",
"G. c #000064",
"H. c #000058",
"J. c #00004C",
"K. c #000040",
"L. c #282828",
"P. c #FCE034",
"I. c #FCD424",
"U. c #FCCC18",
"Y. c #FCC008",
"T. c #FCB400",
"R. c #B420FC",
"E. c #A800FC",
"W. c #9800E4",
"Q. c #8000CC",
"!. c #7400B4",
"~. c #60009C",
"^. c #500084",
"/. c #440070",
"(. c #340058",
"). c #280040",
"_. c #FCD8FC",
"`. c #FCB8FC",
"'. c #FC9CFC",
"]. c #FC7CFC",
"[. c #FC5CFC",
"{. c #FC40FC",
"}. c #FC20FC",
"|. c #FC00FC",
" X c #E000E4",
".X c #C800CC",
"XX c #B400B4",
"oX c #9C009C",
"OX c #840084",
"+X c #6C0070",
"@X c #580058",
"#X c #400040",
"$X c #FCE8DC",
"%X c #FCE0D0",
"&X c #FCD8C4",
"*X c #FCD4BC",
"=X c #FCCCB0",
"-X c #FCC4A4",
";X c #FCBC9C",
":X c #FCB890",
">X c #FCB080",
",X c #FCA470",
"<X c #FC9C60",
"1X c #F0945C",
"2X c #E88C58",
"3X c #DC8854",
"4X c #D08050",
"5X c #C87C4C",
"6X c #BC7848",
"7X c #B47044",
"8X c #A86840",
"9X c #A0643C",
"0X c #9C6038",
"qX c #905C34",
"wX c #885830",
"eX c #80502C",
"rX c #744C28",
"tX c #6C4824",
"yX c #5C4020",
"uX c #543C1C",
"iX c #483818",
"pX c #403018",
"aX c #382C14",
"sX c #28200C",
"dX c #600064",
"fX c #006464",
"gX c #006060",
"hX c #00001C",
"jX c #00002C",
"kX c #302410",
"lX c #480048",
"zX c #500050",
"xX c #000034",
"cX c gray11",
"vX c #4C4C4C",
"bX c gray36",
"nX c gray25",
"mX c gray19",
"MX c #343434",
"NX c #D8F4F4",
"BX c #B8E8E8",
"VX c #9CDCDC",
"CX c #74C8C8",
"ZX c #48C0C0",
"AX c #20B4B4",
"SX c #20B0B0",
"DX c #00A4A4",
"FX c #009898",
"GX c #008C8C",
"HX c #008484",
"JX c #007C7C",
"KX c #007878",
"LX c #007474",
"PX c #007070",
"IX c #006C6C",
"UX c #980088",
/* pixels */
"e w e 7 6 5 4 3 3 3 3 3 3 3 3 3 3 3 3 3 3 3 3 3 3 3 3 3 4 5 6 7 e w e 7 6 5 4 3 3 3 3 3 3 3 3 3 3 3 3 3 3 3 3 3 3 3 3 3 4 5 6 7 ",
"e w e 9 4 4 4 4 4 4 4 4 4 4 4 4 5 5 5 5 4 5 4 5 4 5 4 5 4 5 4 8 e w e 9 4 4 4 4 4 4 4 4 4 4 4 4 5 5 5 5 4 5 4 5 4 5 4 5 4 5 4 8 ",
"e w e 9 4 4 5 z z z z z z z z z z z z z z z sXsXsXkXkXkXkXkXkXsXsXsXz z z z z z z z z z z z z z z z z z z z z z z z z z 7 4 5 8 ",
"e w e 9 5 5 4 z z z z z z z z z z z z z z sXsXkXaXaXaXaXaXkXkXkXkXsXsXsXsXz z z z z z z z z z z z z z z z z z z z z z z vX6 5 8 ",
"e w e 9 5 4 5 z z z z z z z z z z z z kXkXaXaXpXuXyXyXyXuXuXpXpXpXpXkXsXsXsXsXz z z z z z z z z z z z z z z z z z z z z vX5 6 8 ",
"e w e 9 5 4 5 z z z z z z z z z z z aXpXiXiXuXrXqX9X9XwXwXrXrXrXrXrXuXpXsXsXsXsXsXz z z z z z z z z z z z z z z z z z z vX5 6 8 ",
"e w e 9 5 5 4 z z z z z z z z z z pXuXuXrXqX7X6X5X5X5X4X5X5X5X5X5X5X8X8XrXyXaXsXsXsXsXz z z z z z z z z z z z z z z z z vX6 6 8 ",
"e w e 9 5 5 5 z z z z z z z z l pXyXwX7X6X6X5X5X5X5X5X5X5X5X5X5X5X5X5X6X7X7XwXyXiXkXsXsXz z z z z z z z z z z z z z z z vX6 5 8 ",
"e w e 9 5 5 6 z z z z z z z z l yXwX8X6X6X5X5X5X5X5X5X5X5X5X5X5X5X5X6X6X7X7X7X9XeXyXkXsXsXsXz z z z z z z z z z z z z z vX6 6 8 ",
"e w e 9 6 7 5 z z z z z z l l tXwX7X6X6X6X6X6X5X5X5X5X5X5X5X5X5X6X6X6X6X6X6X7X7X9XeXtXpXsXsXsXz z z z z z z z z z z z z vX7 6 8 ",
"e w e 9 6 8 7 l z l z l l k yXqX7X6X6X6X6X6X6X6X5X5X5X5X5X5X6X6X6X6X6X6X6X6X6X7X9XwXrXyXpXsXsXsXz z z l z l z l z l z z nX6 7 8 ",
"e w e 9 8 8 8 l l l l l k k eX8X7X6X6X6X6X6X6X6X6X5X6X5X6X6X6X7X7X7X7X6X6X6X6X6X8X9XwXrXyXiXsXsXsXz z z l l l z l l l z nX6 7 8 ",
"e w e 9 7 8 7 k l k l k k yX9X6X7X6X6X5X5X5X5X5X6X5X6X5X6X7X8XqXrXrXwX7X7X6X5X5X7X9XeXtXtXyXiXkXsXsXz z l l l l l k l l nX8 8 8 ",
"e w e 0 0 0 0 k k k k k k eX7X7X6X6X6X5X5X5X5X5X6X5X8X8X9XrXuXpXpXaXpXtXyXtXtXeX7XwXrXyXyXyXtXpXsXsXsXz l l l l k l k l w 0 0 0 ",
"e e e e e e e k k k k k yX7X7X6X6X6X6X6X6X7X9X6X6X5X7XqXuXpXsXsXsXpXpXyXyXuXpXpXuXyXtXuXpXuXyXiXpXsXsXz z l l k k k l k cXe e e ",
"e e e e e e e k k k k k eX7X6X6X6X6X6XeXtXyXrX7X5X5X7XrXaXsXsXsXaXuXeXeXtXuXpXaXkXsXsXaXaXpXuXiXpXsXsXsXz z k k k k k k e e e e ",
"w w w w w w w k k j k yX9X7X6X6X6XwXyXpXpXpXuXqX5X5X7XrXkXsXsXkXiXuXpXpXaXsXsXsXsXkXkXsXkXaXpXpXpXpXsXsXsXz l k k k k k w w w w ",
"3 3 3 3 3 3 3 k j j j eX8X6X6X0XwXyXpXkXkXkXsXrX5X5X7XeXkXsXkXaXaXaXiXsXsXsXsXsXsXsXsXkXsXaXpXpXpXaXsXsXsXsXl k k k k k $ 3 3 3 ",
"5 5 5 4 5 4 5 j k j h qX7X7X6X7X9XqXuXpXpXpXkXrX5X5X7XeXsXsXsXsXuX0XtXuXpXpXkXsXsXsXsXsXkXsXpXpXpXkXsXsXsXsXz k k j k j $ 5 5 5 ",
"5 5 5 5 4 5 4 k j j tX9X7X7X6X7X9XeXyXuXaXaXsXrX5X5X7XrXsXsXpXtX9X7X7X7X7X0XyXiXpXpXaXkXkXkXpXpXaXsXsXsXsXsXz k j j j k vX5 5 5 ",
"5 5 5 4 5 4 5 j j uXeX7X7X7X7XqXuXkXkXiXpXpXpXqX5X5X7XrXiXpXtX8X6X6X7X0XqXeXrXrXrXtXyXuXuXuXiXpXaXsXsXsXsXsXsXl k j k j vX5 5 5 ",
"4 5 6 5 5 5 5 j j iXwX7X7X7XqXpXpXsXaXeXuXeX8X7X6X6X9XeXyXtXeXqX8X6X7X5X6X6X6X6X6X6X8XqXeXyXiXpXkXsXsXsXsXsXsXz j j j j $ 5 4 4 ",
"6 4 6 6 5 6 5 j uXiXqX7X7XqXuXkXpXtXqX7X7X7X6X6X6X6XqXtXtX8X9XtXrX7X6X5X5X6X6X6X7X8X9X0XwXtXuXpXkXsXsXsXsXsXsXz j j j j vX4 6 6 ",
"5 5 4 5 5 5 4 j iXiX0X7X8XyXpXyX9X8X7X7X6X6X6X6X7XrXuXpXiXuXuXiXuX9X7X7X7X7X7X8X8X8X9XqXeXtXuXpXsXsXsXsXsXsXsXsXk j j j vX4 5 5 ",
"4 5 6 5 5 5 5 j pXiX9X7X7XtXrX7X8X7X6X6X6X6X6X8XiXpXkXsXsXsXsXsXsXuX7X6X7X7X8X9X0XqXqXeXtXyXiXaXsXsXsXsXsXsXsXsXl j j j $ 5 4 4 ",
"6 4 6 6 5 6 5 j aXiX9X7X8XwX9X7X6X6X6X6X6X8XtXiXkXsXsXsXsXsXsXsXsXsXaX7X7X8X9X0XqXwXeXrXyXiXpXaXsXsXsXsXsXsXsXsXz j j j vX4 6 6 ",
"6 6 6 6 6 5 6 j aXiX9X6X7X7X6X6X5X5X6X7XqXyXpXsXsXsXsXsXsXsXsXsXsXsXsXuX9X9X0XqXwXeXtXtXuXpXaXkXsXsXsXsXsXsXsXsXsXj j j vX6 6 6 ",
"7 6 5 6 5 7 6 j aXiX9X6X6X6X6X5X5X5X6X9XtXaXsXsXsXsXsXsXsXsXsXsXsXsXsXsXyX9XqXqXeXtXtXuXpXaXkXsXsXsXsXsXsXsXsXsXsXk j j vX6 7 7 ",
"6 7 7 6 7 6 6 h aXiX9X6X6X6X6X5X5X6X7XtXpXsXsXsXsXsXsXsXsXsXsXsXsXsXsXsXsXtXeXwXeXtXyXpXaXkXsXsXsXsXsXsXsXsXsXsXsXk j j nX7 6 6 ",
"7 8 7 8 7 8 7 j pXiX9X6X6X6X6X5X6X6XqXiXkXtXsXsXsXsXsXsXsXsXsXsXsXsXsXsXsXsXtXrXtXyXuXpXaXkXsXsXsXsXsXsXsXsXsXsXsXk j j nX6 7 7 ",
"7 7 8 7 8 7 8 h iXiXqX7X6X6X6X5X6X7XrXpXsXpXsXsXsXsXsXsXsXsXsXsXsXsXsXsXsXsXaXyXtXyXuXpXaXkXsXsXsXsXsXsXsXsXsXsXsXl j h vX7 7 7 ",
"0 0 0 0 0 0 0 h uXiXeX7X6X6X6X6X6X7XtXkXsXsXsXsXsXsXsXsXuXsXsXsXsXsXsXsXsXsXsXuXrXtXyXiXaXkXsXsXsXsXsXsXsXsXsXsXsXsXl j w 0 0 0 ",
"e e e e e e e h g iXtX8X6X6X6X6X6X8XpXsXpXsXsXsXsXuXkXsXsXsXsXsXsXsXsXsXsXsXsXpXrXwXtXuXpXkXsXsXsXsXsXsXsXsXsXsXsXsXsXh cXe e e ",
"e e e e e e e h h iXtX8X6X6X6X6X6XqXaXsXsXsXsXkXsXsXsXsXsXsXsXsXsXsXsXsXsXsXsXaXyXwXeXuXpXkXsXsXsXsXsXsXsXsXsXsXsXsXsXh e e e e ",
"w w w w w w w g h iXyX9X6X6X6X6X6XwXpXsXiXsXkXsXsXkXsXsXsXsXsXsXsXsXsXsXsXsXsXaXuXwXeXyXpXkXsXsXsXsXsXsXsXsXsXsXsXsXsXg w w w w ",
"e w e 7 6 5 4 h g uXiX9X7X6X6X6X6XqXaXsXtXuX9XtXsXsXe nX$ q e cXe sXsXsXsXsXsXsXuXeXwXyXpXkXsXsXsXsXsXsXsXsXsXsXsXsXsXh $ 5 6 7 ",
"e w e 9 4 4 4 g h yXiX9X7X6X6X6X6X9XtXsX8XqXqXuXsXw sXsXsXsXsXsXsXsXsXsXsXsXsXaXuXeXwXyXpXkXsXsXsXsXsXsXsXsXsXsXsXsXsXg $ 5 4 8 ",
"e w e 9 4 4 5 g g g iXqX7X6X6X6X6X8XyXkX7X6X9XaXsXsXsXsXsXsXsXsXsXsXsXsXsXsXsXkXuXtXeXyXpXkXsXsXsXsXsXsXsXkXsXsXsXsXsXg vX4 5 8 ",
"e w e 9 5 5 4 g g g iXqX7X6X6X6X6X8XrXyX6X5XqXsXsXsXsXsXsXsXsXsXsXsXsXsXsXsXsXsXuXtXtXuXaXsXsXsXsXsXsXsXsXkXsXsXsXsXz g vX6 5 8 ",
"e w e 9 5 4 5 g g rXqX9X7X6X6X6X6X6XqXeX6X5XwXsXsXsXsXz z z z z z z sXsXsXaXkXaXuXtXyXpXaXsXsXsXsXsXsXsXsXsXsXsXsXsXl g vX5 6 8 ",
"e w e 9 5 5 4 f g qXuXeX7X6X6X6X6X6X7X7X5X5XrXsXsXz z z z z z k z z z sXkXpXaXaXtXwXrXiXaXsXsXsXsXsXsXsXsXsXsXsXsXsXk g vX6 6 8 ",
"e w e 9 5 5 5 g f eXiXtX8X6X6X6X6X6X8X6X6X5XrXsXsXz z z z z z z z z z sXiXpXpXuX9X9XqXuXaXsXsXsXsXsXsXsXsXsXsXsXsXz g g vX6 5 8 ",
"e w e 9 5 5 6 f g eXpXpX9X6X6X6X6X5X9X8X6X6XrXsXz z z z z z w nXpXaXpXuXuXpXuXwX7X7XqXuXaXsXsXsXsXsXsXsXsXsXsXsXsXj g f vX6 6 8 ",
"e w e 9 6 7 5 f f rXpXpXeX8X6X6X6X6X9X8X8X6X8XaXsXpX8 7 tXrXqX6X9XwXtXiXpXpXyX8X6X7X9XuXaXsXsXsXsXsXsXsXsXsXsXz j g f g vX7 6 8 ",
"e w e 9 6 8 7 f f rXuXpXeX7X6X6X6X5X8X0X9X6X5X9XtXrX8X7X5X7X6X7X9XeXuXpXsXaXyX9X6X7X9XuXaXsXsXsXsXsXsXsXsXsXsXj g f f f nX6 7 8 ",
"e w e 9 8 8 8 f f rXeXtXeX7X6X6X6X6X6X8X9X6X6X5X6X6X5X5X5X6X7X0XqXyXpXkXsXaXuXeX7X7XwXiXkXsXsXsXsXsXsXsXsXsXh g f f f f nX6 7 8 ",
"e w e 9 7 8 7 f f rXeXeXwX8X6X6X6X5X5X6X8X6X5X5X5X6X5X5X6X6X6X6X9XeXuXpXaXpXuXeX7X8XrXpXsXsXsXsXsXsXsXsXsXsXf f f f f f nX8 8 8 ",
"e w e 0 0 0 0 f f f rXqXqX9X8X6X6X6X5X6X6X8X5X5X5X5X5X5X5X5X6X6X6X9XeXyXpXuXtX9X6X9XyXkXsXsXsXsXsXsXsXsXsXl f f f f f f w 0 0 0 ",
"e w e e e e e f f f tXrXrXqX8X6X6X6X5X5X6X6X5X5X5X5X5X5X5X5X5X6X6X7XqXeXtXeX9X8X7XeXpXsXsXsXsXsXsXsXsXsXsXk f f f f f f cXe e e ",
"e e e e e e e f f f f tXtXrXwX7X6X6X6X5X6X5X5X6X6X5X5X5X5X5X5X6X6X7X9XwXwXqX9X9XeXuXaXsXsXsXsXsXsXsXsXsXz j f f f f f f e e e e ",
"w w w w w w w f f f f yXyXpXrX9X6X7X6X6X6X5X5X5X6X6X5X5X5X5X5X6X6X7XqXwXwXwXwXtXpXkXsXsXsXsXsXsXsXsXsXsXl g f f f f f f w w w w ",
"3 3 3 3 3 3 3 f f f d uXpXkXeXqX7X6X7X6X6X5X5X5X5X6X6X6X5X5X5X6X6X7XqXeXrXtXyXpXkXsXsXsXsXsXsXsXsXsXsXz k f f f f f f f $ 3 3 3 ",
"5 5 5 4 5 4 5 d f d f d f d tXeX9X7X6X7X6X6X5X5X5X5X6X6X6X6X6X6X7X9XwXrXyXpXaXsXsXsXsXsXsXsXsXsXsXsXsXz j d f d f d f d $ 5 5 5 ",
"5 5 5 5 4 5 4 d d f d f d f d tXeX9X6X6X7X7X6X6X5X5X6X6X6X6X7X8X9XeXtXiXaXsXsXsXsXsXsXsXsXsXsXsXsXsXsXz j f d f d f d f vX5 5 5 ",
"5 5 5 4 5 4 5 d f d f d f d f tXtXeX9X6X6X8X7X6X6X6X6X7X8X9XwXrXtXuXpXkXsXsXsXsXsXsXsXsXsXsXsXsXsXsXsXz j d f d f d f d vX5 5 5 ",
"5 5 4 5 5 5 4 d d d d d d d d d tXtXeX9X6X6X8X8X7X8XqXeXrXtXuXpXaXkXsXsXsXsXsXsXsXsXsXsXsXsXsXsXsXsXsXaXj d d d d d d d vX4 5 5 ",
"4 5 6 5 5 5 5 d d d d d d d d d tXrXtXeX9X8X8X9XeXtXuXpXaXaXkXsXsXsXsXsXsXsXsXsXsXsXsXsXsXsXsXsXsXsXsXpXeX0Xd d f d d d $ 5 4 4 ",
"6 4 6 6 5 6 5 d d d d d d d d d d tXrXtXwXqX0XqXeXyXpXsXsXsXsXsXsXsXsXsXsXsXsXsXsXsXsXsXsXsXsXsXsXsXsXsX5X5Xd d d d d d vX4 6 6 ",
"6 6 6 6 6 5 6 d d d d d d d d d d tXtXrXtXrXeXeXeXtXpXkXkXsXsXsXsXsXsXsXsXsXsXsXsXsXsXsXsXsXsXsXsXsXsX1X1X5Xd d d d d d vX6 6 6 ",
"7 6 5 6 5 7 6 d d d d d d d d d d d tXtXrXtXtXtXrXyXyXaXsXsXsXsXsXsXsXsXsXsXsXsXsXsXsXsXsXsXsXsXsXuX1X:X1X5Xd d d d d d vX6 7 7 ",
"6 7 7 6 7 6 6 d d d d d d d d d d d yXyXtXrXrXtXtXyXuXaXsXsXsXsXsXsXsXsXsXsXsXsXsXsXsXsXsXsXsXtX7X1X:X:X1X5Xd d d d d d nX7 6 6 ",
"7 8 7 8 7 8 7 $ vXnXnXnXvXnXnXe w e q nXnXnXnXnXnXnXvXnXvXnXnXvXnXnXnXnXnXnXnXnXvXnXnXnXvXnXnXe w e q nXnXnXnXnXnXnXvXnXnX6 7 7 ",
"7 7 8 7 8 7 8 7 8 7 8 7 8 8 8 e w e 9 7 8 7 8 7 7 7 8 7 8 8 6 7 7 7 8 7 8 7 8 7 8 7 8 7 8 8 8 e w e 9 7 8 7 8 7 7 7 8 8 6 7 7 7 ",
"0 0 0 0 0 0 0 0 0 0 0 0 0 0 0 e w e 0 0 0 0 0 0 0 0 0 0 0 0 0 0 0 0 0 0 0 0 0 0 0 0 0 0 0 0 0 e w e 0 0 0 0 0 0 0 0 0 0 0 0 0 0 "
};
