/* XPM */
static char *Wall_0881647953498[] = {
/* columns rows colors chars-per-pixel */
"64 64 256 2 ",
"   c black",
".  c #0000A8",
"X  c #00A800",
"o  c #00A8A8",
"O  c #A80000",
"+  c #A800A8",
"@  c #A85400",
"#  c gray66",
"$  c gray33",
"%  c #5454FC",
"&  c #54FC54",
"*  c #54FCFC",
"=  c #FC5454",
"-  c #FC54FC",
";  c #FCFC54",
":  c gray99",
">  c #ECECEC",
",  c gainsboro",
"<  c #D0D0D0",
"1  c #C0C0C0",
"2  c #B4B4B4",
"3  c gray66",
"4  c #989898",
"5  c gray55",
"6  c #7C7C7C",
"7  c gray44",
"8  c #646464",
"9  c gray33",
"0  c #484848",
"q  c gray22",
"w  c #2C2C2C",
"e  c #202020",
"r  c #FC0000",
"t  c #EC0000",
"y  c #E00000",
"u  c #D40000",
"i  c #C80000",
"p  c #BC0000",
"a  c #B00000",
"s  c #A40000",
"d  c #980000",
"f  c #880000",
"g  c #7C0000",
"h  c #700000",
"j  c #640000",
"k  c #580000",
"l  c #4C0000",
"z  c #400000",
"x  c #FCD8D8",
"c  c #FCB8B8",
"v  c #FC9C9C",
"b  c #FC7C7C",
"n  c #FC5C5C",
"m  c #FC4040",
"M  c #FC2020",
"N  c #FC0000",
"B  c #FCA85C",
"V  c #FC9840",
"C  c #FC8820",
"Z  c #FC7800",
"A  c #E46C00",
"S  c #CC6000",
"D  c #B45400",
"F  c #9C4C00",
"G  c #FCFCD8",
"H  c #FCFCB8",
"J  c #FCFC9C",
"K  c #FCFC7C",
"L  c #FCF85C",
"P  c #FCF440",
"I  c #FCF420",
"U  c #FCF400",
"Y  c #E4D800",
"T  c #CCC400",
"R  c #B4AC00",
"E  c #9C9C00",
"W  c #848400",
"Q  c #706C00",
"!  c #585400",
"~  c #404000",
"^  c #D0FC5C",
"/  c #C4FC40",
"(  c #B4FC20",
")  c #A0FC00",
"_  c #90E400",
"`  c #80CC00",
"'  c #74B400",
"]  c #609C00",
"[  c #D8FCD8",
"{  c #BCFCB8",
"}  c #9CFC9C",
"|  c #80FC7C",
" . c #60FC5C",
".. c #40FC40",
"X. c #20FC20",
"o. c #00FC00",
"O. c #00FC00",
"+. c #00EC00",
"@. c #00E000",
"#. c #00D400",
"$. c #04C800",
"%. c #04BC00",
"&. c #04B000",
"*. c #04A400",
"=. c #049800",
"-. c #048800",
";. c #047C00",
":. c #047000",
">. c #046400",
",. c #045800",
"<. c #044C00",
"1. c #044000",
"2. c #D8FCFC",
"3. c #B8FCFC",
"4. c #9CFCFC",
"5. c #7CFCF8",
"6. c #5CFCFC",
"7. c #40FCFC",
"8. c #20FCFC",
"9. c #00FCFC",
"0. c #00E4E4",
"q. c #00CCCC",
"w. c #00B4B4",
"e. c #009C9C",
"r. c #008484",
"t. c #007070",
"y. c #005858",
"u. c #004040",
"i. c #5CBCFC",
"p. c #40B0FC",
"a. c #20A8FC",
"s. c #009CFC",
"d. c #008CE4",
"f. c #007CCC",
"g. c #006CB4",
"h. c #005C9C",
"j. c #D8D8FC",
"k. c #B8BCFC",
"l. c #9C9CFC",
"z. c #7C80FC",
"x. c #5C60FC",
"c. c #4040FC",
"v. c #2024FC",
"b. c #0004FC",
"n. c #0000FC",
"m. c #0000EC",
"M. c #0000E0",
"N. c #0000D4",
"B. c #0000C8",
"V. c #0000BC",
"C. c #0000B0",
"Z. c #0000A4",
"A. c #000098",
"S. c #000088",
"D. c #00007C",
"F. c #000070",
"G. c #000064",
"H. c #000058",
"J. c #00004C",
"K. c #000040",
"L. c #282828",
"P. c #FCE034",
"I. c #FCD424",
"U. c #FCCC18",
"Y. c #FCC008",
"T. c #FCB400",
"R. c #B420FC",
"E. c #A800FC",
"W. c #9800E4",
"Q. c #8000CC",
"!. c #7400B4",
"~. c #60009C",
"^. c #500084",
"/. c #440070",
"(. c #340058",
"). c #280040",
"_. c #FCD8FC",
"`. c #FCB8FC",
"'. c #FC9CFC",
"]. c #FC7CFC",
"[. c #FC5CFC",
"{. c #FC40FC",
"}. c #FC20FC",
"|. c #FC00FC",
" X c #E000E4",
".X c #C800CC",
"XX c #B400B4",
"oX c #9C009C",
"OX c #840084",
"+X c #6C0070",
"@X c #580058",
"#X c #400040",
"$X c #FCE8DC",
"%X c #FCE0D0",
"&X c #FCD8C4",
"*X c #FCD4BC",
"=X c #FCCCB0",
"-X c #FCC4A4",
";X c #FCBC9C",
":X c #FCB890",
">X c #FCB080",
",X c #FCA470",
"<X c #FC9C60",
"1X c #F0945C",
"2X c #E88C58",
"3X c #DC8854",
"4X c #D08050",
"5X c #C87C4C",
"6X c #BC7848",
"7X c #B47044",
"8X c #A86840",
"9X c #A0643C",
"0X c #9C6038",
"qX c #905C34",
"wX c #885830",
"eX c #80502C",
"rX c #744C28",
"tX c #6C4824",
"yX c #5C4020",
"uX c #543C1C",
"iX c #483818",
"pX c #403018",
"aX c #382C14",
"sX c #28200C",
"dX c #600064",
"fX c #006464",
"gX c #006060",
"hX c #00001C",
"jX c #00002C",
"kX c #302410",
"lX c #480048",
"zX c #500050",
"xX c #000034",
"cX c gray11",
"vX c #4C4C4C",
"bX c gray36",
"nX c gray25",
"mX c gray19",
"MX c #343434",
"NX c #D8F4F4",
"BX c #B8E8E8",
"VX c #9CDCDC",
"CX c #74C8C8",
"ZX c #48C0C0",
"AX c #20B4B4",
"SX c #20B0B0",
"DX c #00A4A4",
"FX c #009898",
"GX c #008C8C",
"HX c #008484",
"JX c #007C7C",
"KX c #007878",
"LX c #007474",
"PX c #007070",
"IX c #006C6C",
"UX c #980088",
/* pixels */
"nX$ =X*X=X-X-X-X-X:X3XwXnX$ ;X-X:X:X:X>X>X>X>X>X>X>X>X>X,X6XwXnX$ >X:X:X;X;X;X;X;X;X:X:X:X:X,X5X0X$ =X=X-X-X-X-X-X-X-X:X4XqXw nX",
"nX$ =X*X=X-X-X-X-X:X3XwXnX$ ;X-X:X:X:X>X>X>X>X>X>X>X>X>X,X6XwXnX$ >X:X:X;X;X;X;X;X;X:X:X:X:X,X5X0XbX=X=X-X-X-X-X-X-X-X:X4XqXw nX",
"nX$ ;X-X;X:X:X:X:X,X5XwXnX$ ;X;X:X>X>X,X,X,X,X,X,X,X,X,X1X6XeXnX$ >X:X:X:X:X>X>X>X>X>X:X:X>X1X6X0XbX;X-X;X;X:X:X:X:X;X>X4XqXw nX",
"nX$ :X-X>X>X>X>X>X1X6XwXnX$ ;X;X>X,X,X1X1X1X<X<X<X<X<X<X2X6XwXnX$ ,X>X>X>X>X>X>X>X>X>X>X>X>X1X6X0XbX:X:X>X>X:X>X>X>X:X,X6XqXw nX",
"nX$ :X:X>X,X,X,X,X2X7XrXnX$ ;X-X>X,X,X<X1X1X1X<X<X<X<X<X2X6XwXnX$ 1X>X,X,X,X,X,X,X,X,X,X,X,X2X6X0XbX>X>X>X>X>X>X>X>X>X,X7XeXw nX",
"nX$ >X>X,X<X<X<X<X3X8XrXnX$ ;X;X>X<X<X<X<X<X1X1X1X1X<X<X2X6XwXnX$ 3X,X<X<X<X<X<X<X<X<X<X<X1X3X7XqXbX>X>X,X,X,X,X,X,X,X1X8XrXw nX",
"nX$ ,X>X1X1X1X1X2X4X8XrXnX$ ;X-X>X<XB B <X<X<X1X1X1X1X<X2X6XwXnX$ 3X,X1X1X1X1X1X1X1X1X1X1X2X4X7XqXbX>X,X<X<X<X<X<X<X<X2X8XrXw nX",
"nX$ ,X,X1X2X3X2X3X5X9XrXnX$ ;X-X>X<XB <XB ,X,X<X1X1X1X1X2X7XeXnX$ 3X<X1X2X2X2X2X2X2X2X2X2X3X5X7XqXbX>X,X1X1X1X1X1X1X1X3X9XrXw nX",
"nX$ ,X,X2X3X3X3X4X6X0XtXnX$ :X;X>X<X<X<XB ,X,X,X<X1X1X1X3X7XwXnX$ 3X1X3X3X3X3X3X3X3X3X3X3X4X6X8XwX$ ,X1X2X2X2X2X2X2X2X4X9XtXw nX",
"nX$ ,X,X3X4X4X4X4X7XqXtXnX$ :X;X>XB <XB <X,X,X<X1X1X1X1X3X7XwXnX$ 4X2X3X4X4X4X4X4X4X4X4X4X5X7X9XwX$ ,X1X3X3X3X3X3X3X3X5X0XtXw nX",
"nX$ ,X,X3X5X5X5X5X7XqXtXnX$ >X:X,XB <X<X,X,X,X<X1X1X1X2X3X7XqXnX$ 4X3X4X5X5X5X5X5X5X5X5X5X6X8X0XwX$ <X3X4X4X4X4X4X4X4X6X0XtXw nX",
"nX$ >X,X4X6X6X6X6X8XqXyXnXbX>X>X>X,X<X,X,X,X<X1X1X1X2X2X3X6X9XnX$ 6X4X5X6X6X6X6X6X6X6X6X6X7X8X0XeX$ 1X3X5X5X5X5X5X5X5X7XqXtXw nX",
"nX$ ,X,X5X7X7X7X7X9XeXyXnXbX,X>X>X,X,X,X1X<X<X1X1X2X2X3X4X6X9XnX$ 7X4X6X7X7X7X7X7X7X7X7X7X7X9XwXeX$ 3X3X6X6X6X6X6X6X6X7XqXtXw nX",
"nX$ 6X4X8X9X9X9X0XqXyXMXnXbX3X>X,X,X,X1X1X1X1X1X2X2X3X3X5X7X9XnX$ 7X6X7X8X8X8X7X8X8X8X8X8X9XwXeXrX$ 3X4X7X7X7X7X7X7X7X8XeXyXw nX",
"nXnXwXqXeXeXeXeXeXtXuXMXnXbX3X,X,X,X,X1X2X2X2X3X3X3X4X5X7X8XqXnX$ 8X7X9X0X9X9X9X9X9X9X9XqXwXeXrXrX$ 4X5X8X8X8X8X8X8X8X0XrXyXMXnX",
"nXnXuXyXyXyXyXyXuXuXMXnXnX$ 4X1X1X1X2X3X4X4X5X5X6X6X6X7X8X9XwXnX$ qXqXqXqXqXqXqXqXqXqXqXwXeXrXrXnX$ 4X6X8X8X8X8X8X8X9XqXyXw nXnX",
"nXnXnXq q nXnXq MXMXnXnXvX$ 8X6X7X7X8X8X0X0X9X9X9X9X9X9X9XwXnXnX$ vXrXrXtXtXtXtXtXtXtXtXtXtXrXnXnX$ 4X6X8X8X9X9X9X9X0XrXyXw vXnX",
"$ $ bX$ $ bXbX$ vXnXnXvX$ $ vXnXnXnXnXnXnXnXnXnXnXnXnXnXnXnXnXvX$ $ vXvXnXnXnXnXnXnXnXnXnXnXnXnXnX$ 6X6X8X9X9X9X9XqXrXyXMXnXvXvX",
"-X-X-X-X:X>X,X<X1X4X7X9XwXbXbXbXbXbXbX$ vXvX$ $ $ $ bXbXbXbXbXbXbXbXbX$ $ $ $ vXnXnX8X7X7X8X0X0XnX$ 6X7X8X9X0XqXqXrXyXw yX8X3X&X",
"=X*X=X=X=X-X-X-X;X>X>X>X>X;X:X:X>X>X,X3X8XvX$ :X:X:X:X:X:X:X>X,X<X1X2X3X4X5X6X8XnXnX8X6X6X7X9XeXnX$ 8X9XqXqXeXeXrXyXw MXeX5X<X=X",
"=X*X=X-X-X-X-X-X-X-X-X-X-X-X-X-X-X;X>X1X7XnXvX6X3X4X6X6X6X6X6X6X6X6X6X6X6X6X7XqXnXnXwX9X9XqXwXrXnX$ rXrXtXtXyXyXyXw MXnX0X3X-X=X",
"=X*X=X=X-X-X-X-X-X;X;X;X;X;X;X;X;X;X>X1X7XnXnXnXnXnXnXnXnXnXnXnXnXnXnXnXnXnXnXnXnXnXnXnXnXnXvXvXvXvXvXnXnXMXMXMXMXnXnXyX8X<X=X=X",
"=X=X=X-X-X-X-X-X;X:X:X:X:X:X>X>X:X:X>X1X8XnXnXvXbXbXbX$ vXvXvXvX$ $ $ $ $ $ $ $ $ $ $ $ $ $ $ $ $ vXvXvXvXvXvXvXvXnXnXeX5X;X=X=X",
";X-X-X-X-X-X-X;X:X>X>X>X>X>X>X>X>X>X>X1X8XnXvX8X6X6X6X6X7X9XnX$ 8X7X7X7X7X7X8X9X0XwXeXvX$ 4X>X>X>X>X>X,X1X3X3X4X6XnXnX0X3X;X-X-X",
":X:X;X;X;X;X:X>X>X>X>X>X>X>X>X>X>X>X>X1X8XnX$ 7X6X7X7X7X8X0Xq $ 7X7X8X8X8X8X9X0XqXwXeXnX$ >X>X,X,X,X,X,X,X<X1X3X6Xq nX8X<X-X;X;X",
":X:X:X:X:X:X>X>X>X>X>X>X>X>X>X>X,X,X,X1X8XnX$ 7X8X0X0X0X0X0XMX$ 9X0XqXqXqXqXqXqXwXeXrXMX$ >X>X<X1X1X1X1X1X<X1X3X5Xq vX5X:X;X:X>X",
":X:X>X>X>X>X>X>X>X>X>X>X>X>X,X,X,X,X,X2X8XnX$ 7X8X0X0X0X0X0XMXvXvXrXrXrXrXrXtXtXtXtXtXMX$ >X>X,X,X,X1X1X1X1X2X3X6Xq nX3X>X:X:X:X",
":X>X>X,X,X,X,X,X,X,X,X,X,X,X1X1X1X1X1X2X8XnX$ 7X8X0XqXqXqX0XMXvXvXvXvXvX$ vXnXMXMXMXMXMX$ >X>X,X,X,X,X<X1X1X1X3X5Xq vX<X>X>X>X>X",
"1X1X2X3X3X3X3X3X3X4X4X4X4X4X4X4X4X3X3X4X8XnX$ 7X8XqXqXqXqX0XMXnX1X,X>X>X>X>X,X3X4X8X0XMX$ >X>X,X,X<X<X<X<X<X1X3X6Xq vX1X,X1X1X2X",
"8X8X8X8X8X8X8X8X8X9X9X9X9X8X8X8X8X8X8X8XwXnX$ 7X8XqXqXqX0X0XMXvX;X>X,X,X,X,X,X,X1X6X0XMX$ >X,X1X1X1X1X1X2X2X2X4X6Xq $ 7X6X8X8X8X",
"nXnXnXnXnXnXnXnXnXnXnXnXnXnXnXnXnXnXnXnXnXvX$ 8X9XqXqXqX0X0XMXvX;X>X<X1X1X1X1X1X1X6X0XMXnX8X6X7X7X7X7X7X7X7X8X8X9Xq vXnXMXw w w ",
"nX$ $ $ $ $ $ $ $ $ $ $ $ bXbXbXbXbX$ $ $ $ $ 8X9XqXqXqX0X0XMXvX;X>X,X,X,X1X1X1X2X6X0XMXq nXnXnXnXnXnXnXnXnXnXnXnXnXvXnXnXMXMXMX",
"nX$ 4X,X>X:X>X>X>X>X>X>X>X>X>X>X>X>X>X>X9X$ $ 8X8X0XqXqX0X0XMXvX;X>X,X,X,X,X<X1X1X6X0XMXnX$ $ $ $ $ $ $ $ $ $ $ $ $ $ $ vXnXnXnX",
"nX4X>X:X-X=X*X&X%X%X%X%X%X%X%X%X%X&X*X;X6XvX$ 9X8X0X0XqXqX0XMXvX;X>X,X,X<X<X<X<X1X6X0XMX$ 1X;X>X>X>X>X>X,X,X,X1X3X3X3X3X7X9XwXnX",
"nX,X:X-X=X*X&X%X%X%X%X%X&X*X*X*X*X=X-X:X4XnX$ qX0X0X0XqXqX0XMXvX-X:X>X,X<XB B <X1X6X0XMX$ ;X;X;X:X>X>X>X,X,X1X1X1X1X1X2X5X8XrXnX",
"nX>X-X=X*X&X&X*X*X*X*X*X=X=X-X-X-X-X;X>X4XnX$ rXrXrXeXrXrXtXMXvX-X:X>X,X<XB <X<X1X6X0XMX$ >X:X>X>X,X1X1X1X3X3X3X3X3X3X4X6X8XeXnX",
"nX:X-X=X*X*X*X*X=X-X-X-X-X-X-X;X;X:X:X,X4XnX$ nXnXnXnXnXnXnXnXvX-X:X>X,X<X<X<XB 1X6X0XMX$ ,X>X,X1X3X3X3X4X4X4X4X4X4X4X4X6X8XwXnX",
"nX:X-X-X=X=X-X-X-X-X;X;X;X;X:X:X:X:X>X,X6XnX$ $ $ $ $ $ $ vXnXvX-X:X>X,XB <XB <X1X6X0XMX$ ,X,X1X3X4X4X4X4X4X4X4X4X4X4X4X5X7XqXnX",
"nX:X-X=X-X-X-X;X;X:X:X>X>X>X>X>X:X;X>X1X6XnX$ 7X7X6X6X6X7X7XnXvX;X>X,X,XB <X<X,X1X6X0XMX$ ,X,X3X4X4X4X4X4X4X4X3X4X4X4X4X5X7X0XnX",
"nX>X=X=X-X-X:X>X>X>X>X>X>X>X>X:X;X;X:X1X6XnX$ 6X5X6X6X5X5X0XnXvX;X>X,X,X,X<X,X,X1X6X0XMX$ ,X,X2X4X4X3X3X3X3X3X3X3X3X3X3X4X6X9XnX",
"nX>X=X=X-X;X:X>X>X>X>X>X>X>X:X:X;X;X>X1X6XnX$ 6X5X7X7X6X5X0XnXvX;X>X,X,X,X,X,X,X1X5X0XMX$ 3X,X2X3X3X3X3X3X3X3X3X3X2X3X3X3X6X8XnX",
"nX>X=X-X;X:X>X>X>X>X>X:X>X>X:X:X:X:X>X1X6XnXvX6X5X6X6X5X5X0XnXvX-X:X>X,X,X,X,X,X,X5X8XMX$ 3X<X2X3X3X3X3X3X2X2X2X2X2X2X2X3X6X8XnX",
"nX>X-X:X>X>X>X>X>X>X>X>X>X>X>X>X>X>X>X1X7XnXvX7X6X7X7X6X7X0XnXvX;X>X,X,X,X,X,X,X>X4X8XMXvX3X,X1X2X3X3X3X2X2X2X2X2X2X2X2X3X5X8XnX",
"nX,X>X>X,X,X,X,X,X,X,X,X,X,X,X>X>X,X1X3X8XnXnXqX0X9X9X9XqXeXnXvX>X>X,X,X,X,X,X,X,X5X8XMXvX4X1X1X2X3X3X3X3X3X3X3X3X3X2X2X3X6X8XnX",
"nX6X1X1X1X1X1X1X1X1X1X1X1X1X1X1X,X1X3X4X8XnXnXnXnXnXnXnXnXnXvXvX4X1X1X2X1X1X1X1X1X6X9XMXnX7X4X4X5X5X5X5X5X5X5X5X4X5X5X5X6X7X8XnX",
"MXnX8X7X7X7X7X7X7X7X7X7X7X7X7X7X7X7X8X8XqXnX$ bX8 8 8 8 bXbXbXbX9X7X7X7X6X6X6X6X7X8XqXnXnXwX9X8X9X0X0X0X0X9X9X9X9X0X9X0X9X9XqXnX",
"vXvXnXnXnXnXnXnXnXnXnXnXnXnXnXnXnXnXnXnXnXnX$ bX<X-X-X-X<X0XbXbXnXnXnXnXnXnXnXnXnXnXnXnXnXnXnXnXnXMXMXMXMXnXnXnXMXMXMXnXnXnXnXnX",
"vXbXbXbXbX$ bX$ $ $ $ $ $ $ bXbXbXbXbXbX$ vX$ bX>X=X-X-X:X7X$ bX$ $ $ $ $ $ $ $ $ $ $ $ $ $ $ $ $ $ vXvXvX$ $ $ vXvXvX$ $ $ $ $ ",
">X>X>X>X>X>X>X>X1X<XvX6X,X>X>X:X:X:X:X,X6X8XnX$ ;X-X:X>X1X8XvXbX;X:X;X;X;X;X;X;X;X;X;X;X;X;X;X;X;X;X;X;X;X;X;X;X:X:X:X;X;X;X;X*X",
">X>X>X:X:X:X:X>X1X2XnX,X:X:X>X>X:X:X:X,X5X0XnXbX:X:X,X<X3XqXnXvX>X:X:X>X>X>X>X>X>X>X>X>X>X>X>X>X>X>X:X;X;X:X>X>X>X>X>X>X>X>X>X:X",
"1X1X1X,X>X>X>X1X3X4XnX,X;X:X>X,X,X,X,X1X6XqXnXbX:X>X1X2X4XqXnXvX,X>X1X1X1X1X1X1X1X1X1X1X1X1X1X1X1X1X1X1X1X1X1X1X1X1X1X1X1X1X1X3X",
"4X4X3X1X1X1X1X3X5X8XnX,X:X>X,X1X1X1X2X4X8XwXnX$ ,X,X1X3X5XqXnXvX1X1X3X4X4X4X4X4X4X4X4X4X3X4X4X4X4X4X3X3X3X3X4X4X4X4X4X4X3X3X4X3X",
"6X6X6X5X4X4X5X6X7X8XnX>X>X1X2X3X3X3X4X7X0XeXnXvX6X4X4X5X7XqXq nX4X3X6X6X6X6X6X6X6X6X6X6X6X6X6X6X6X6X6X6X6X6X6X6X6X6X6X6X6X6X6X6X",
"qXqX0X0X0X0X0X0X0X0XnX>X,X3X5X6X6X7X7X0XeXnXnXnXnX9X8X8X0XtXq vX8X7X0XqXqXqXqXqXqXqXqXqXqXqXqXqXqXqX0X0X0XqXqXqXqXqXqXqXqXqXqXqX",
"tXtXtXrXrXrXrXrXeXnXnX,X,X5X7X8X8X9XqXeXnXvX7X6XnXMXrXqXwXrXnXnXeXeXrXtXtXtXtXtXtXtXtXtXtXtXtXtXtXtXtXtXtXtXtXtXtXtXtXtXtXtXtXtX",
"nXnXnXnXnXnXnXnXnXnXvX6X4X8XqXqXwXrXtXnX$ 6X1X4X8XnXq tXrXnXvX$ $ $ $ $ $ $ $ vXnXnXnXq q MXMXMXMXMXMXMXMXMXMXMXMXMXMXMXMXMXq nX",
"nXnXbXbX$ bXbX$ $ bX8 8 bXvXnXnXnXnXnXnX$ >X>X1X3X8XnXnXnX$ 2X,X;X;X>X,X1X3X4X5X7X0XqXeXtX$ $ $ $ $ $ $ $ $ $ $ $ vXvXvXnXnXnXnX",
"nX$ 2X:X:X:X;X:X:X>X:X>X>X:X:X:X:X;X2XvXbX:X:X,X2X5XqXnXvX1X>X;X*X*X*X-X-X-X;X:X:X:X:X:X:X:X:X:X:X:X:X:X:X:X:X:X:X:X>X>X:X1X0XnX",
"nXbX:X-X-X-X;X:X:X>X>X>X>X>X>X>X1X3X7XnX$ :X>X1X3X5X0XMXnX>X-X-X;X;X;X:X:X:X:X:X>X>X>X>X:X:X>X>X>X>X>X>X>X>X>X>X>X>X>X>X,X3XqXMX",
"nX$ :X:X>X>X>X,X,X1X1X1X1X1X1X1X5X9XrXnX$ >X>X1X4X6X9XMXnX:X:X>X,X,X,X1X1X1X1X1X1X1X1X1X1X1X1X1X1X1X1X1X1X1X1X1X1X1X1X1X4X7XwXMX",
"nX$ ,X>X,X1X1X1X2X3X3X3X3X4X4X5X7XqXyXnX$ >X>X3X6X7XqXMXnX,X,X1X2X2X2X3X3X3X3X3X3X3X3X3X3X3X3X3X3X3X3X3X3X3X3X3X3X4X4X5X6X9XeXMX",
"nX$ 3X1X2X3X4X4X4X4X4X5X6X6X7X7X9XeXyXnX$ >X,X5X7X9XwXMXnX4X1X1X3X4X4X4X4X4X4X4X4X4X4X4X4X5X6X6X6X6X6X6X6X6X6X6X6X6X7X7X8XqXrXMX",
"nX$ 6X5X7X7X8X8X8X8X8X9X9X0XqXqXqXrXyXnX$ 3X3X8X0XqXrXMXnX7X2X3X5X6X7X7X8X8X8X8X8X9X8X8X8X9X0X0X0X0X0X0X0X0X0X9X0X0XqXqXqXrXyXMX",
"nX$ vXrXtXtXtXtXtXyXyXyXyXyXyXyXyXMXq nX$ 8 qXtXtXyXnXMXnXeXqX0XqXwXeXrXtXtXtXtXtXtXtXyXyXyXyXyXyXyXyXyXyXyXyXyXyXyXyXyXyXuXiXMX"
};
