/* XPM */
static char *Wall_0601647953498[] = {
/* columns rows colors chars-per-pixel */
"64 64 256 2 ",
"   c black",
".  c #0000A8",
"X  c #00A800",
"o  c #00A8A8",
"O  c #A80000",
"+  c #A800A8",
"@  c #A85400",
"#  c gray66",
"$  c gray33",
"%  c #5454FC",
"&  c #54FC54",
"*  c #54FCFC",
"=  c #FC5454",
"-  c #FC54FC",
";  c #FCFC54",
":  c gray99",
">  c #ECECEC",
",  c gainsboro",
"<  c #D0D0D0",
"1  c #C0C0C0",
"2  c #B4B4B4",
"3  c gray66",
"4  c #989898",
"5  c gray55",
"6  c #7C7C7C",
"7  c gray44",
"8  c #646464",
"9  c gray33",
"0  c #484848",
"q  c gray22",
"w  c #2C2C2C",
"e  c #202020",
"r  c #FC0000",
"t  c #EC0000",
"y  c #E00000",
"u  c #D40000",
"i  c #C80000",
"p  c #BC0000",
"a  c #B00000",
"s  c #A40000",
"d  c #980000",
"f  c #880000",
"g  c #7C0000",
"h  c #700000",
"j  c #640000",
"k  c #580000",
"l  c #4C0000",
"z  c #400000",
"x  c #FCD8D8",
"c  c #FCB8B8",
"v  c #FC9C9C",
"b  c #FC7C7C",
"n  c #FC5C5C",
"m  c #FC4040",
"M  c #FC2020",
"N  c #FC0000",
"B  c #FCA85C",
"V  c #FC9840",
"C  c #FC8820",
"Z  c #FC7800",
"A  c #E46C00",
"S  c #CC6000",
"D  c #B45400",
"F  c #9C4C00",
"G  c #FCFCD8",
"H  c #FCFCB8",
"J  c #FCFC9C",
"K  c #FCFC7C",
"L  c #FCF85C",
"P  c #FCF440",
"I  c #FCF420",
"U  c #FCF400",
"Y  c #E4D800",
"T  c #CCC400",
"R  c #B4AC00",
"E  c #9C9C00",
"W  c #848400",
"Q  c #706C00",
"!  c #585400",
"~  c #404000",
"^  c #D0FC5C",
"/  c #C4FC40",
"(  c #B4FC20",
")  c #A0FC00",
"_  c #90E400",
"`  c #80CC00",
"'  c #74B400",
"]  c #609C00",
"[  c #D8FCD8",
"{  c #BCFCB8",
"}  c #9CFC9C",
"|  c #80FC7C",
" . c #60FC5C",
".. c #40FC40",
"X. c #20FC20",
"o. c #00FC00",
"O. c #00FC00",
"+. c #00EC00",
"@. c #00E000",
"#. c #00D400",
"$. c #04C800",
"%. c #04BC00",
"&. c #04B000",
"*. c #04A400",
"=. c #049800",
"-. c #048800",
";. c #047C00",
":. c #047000",
">. c #046400",
",. c #045800",
"<. c #044C00",
"1. c #044000",
"2. c #D8FCFC",
"3. c #B8FCFC",
"4. c #9CFCFC",
"5. c #7CFCF8",
"6. c #5CFCFC",
"7. c #40FCFC",
"8. c #20FCFC",
"9. c #00FCFC",
"0. c #00E4E4",
"q. c #00CCCC",
"w. c #00B4B4",
"e. c #009C9C",
"r. c #008484",
"t. c #007070",
"y. c #005858",
"u. c #004040",
"i. c #5CBCFC",
"p. c #40B0FC",
"a. c #20A8FC",
"s. c #009CFC",
"d. c #008CE4",
"f. c #007CCC",
"g. c #006CB4",
"h. c #005C9C",
"j. c #D8D8FC",
"k. c #B8BCFC",
"l. c #9C9CFC",
"z. c #7C80FC",
"x. c #5C60FC",
"c. c #4040FC",
"v. c #2024FC",
"b. c #0004FC",
"n. c #0000FC",
"m. c #0000EC",
"M. c #0000E0",
"N. c #0000D4",
"B. c #0000C8",
"V. c #0000BC",
"C. c #0000B0",
"Z. c #0000A4",
"A. c #000098",
"S. c #000088",
"D. c #00007C",
"F. c #000070",
"G. c #000064",
"H. c #000058",
"J. c #00004C",
"K. c #000040",
"L. c #282828",
"P. c #FCE034",
"I. c #FCD424",
"U. c #FCCC18",
"Y. c #FCC008",
"T. c #FCB400",
"R. c #B420FC",
"E. c #A800FC",
"W. c #9800E4",
"Q. c #8000CC",
"!. c #7400B4",
"~. c #60009C",
"^. c #500084",
"/. c #440070",
"(. c #340058",
"). c #280040",
"_. c #FCD8FC",
"`. c #FCB8FC",
"'. c #FC9CFC",
"]. c #FC7CFC",
"[. c #FC5CFC",
"{. c #FC40FC",
"}. c #FC20FC",
"|. c #FC00FC",
" X c #E000E4",
".X c #C800CC",
"XX c #B400B4",
"oX c #9C009C",
"OX c #840084",
"+X c #6C0070",
"@X c #580058",
"#X c #400040",
"$X c #FCE8DC",
"%X c #FCE0D0",
"&X c #FCD8C4",
"*X c #FCD4BC",
"=X c #FCCCB0",
"-X c #FCC4A4",
";X c #FCBC9C",
":X c #FCB890",
">X c #FCB080",
",X c #FCA470",
"<X c #FC9C60",
"1X c #F0945C",
"2X c #E88C58",
"3X c #DC8854",
"4X c #D08050",
"5X c #C87C4C",
"6X c #BC7848",
"7X c #B47044",
"8X c #A86840",
"9X c #A0643C",
"0X c #9C6038",
"qX c #905C34",
"wX c #885830",
"eX c #80502C",
"rX c #744C28",
"tX c #6C4824",
"yX c #5C4020",
"uX c #543C1C",
"iX c #483818",
"pX c #403018",
"aX c #382C14",
"sX c #28200C",
"dX c #600064",
"fX c #006464",
"gX c #006060",
"hX c #00001C",
"jX c #00002C",
"kX c #302410",
"lX c #480048",
"zX c #500050",
"xX c #000034",
"cX c gray11",
"vX c #4C4C4C",
"bX c gray36",
"nX c gray25",
"mX c gray19",
"MX c #343434",
"NX c #D8F4F4",
"BX c #B8E8E8",
"VX c #9CDCDC",
"CX c #74C8C8",
"ZX c #48C0C0",
"AX c #20B4B4",
"SX c #20B0B0",
"DX c #00A4A4",
"FX c #009898",
"GX c #008C8C",
"HX c #008484",
"JX c #007C7C",
"KX c #007878",
"LX c #007474",
"PX c #007070",
"IX c #006C6C",
"UX c #980088",
/* pixels */
"6X6X6X6X6X6X6X6X6X6X8XtXtXeXeXqXqX0X0X8X8X6X4X3XqXeXeXeXeXeXqX8X8X7X5X5X5X5X5X5X5X7XqXM 5X5X5X5X5X5X5X5X7XeX4X6X6X6X6X6X6X6X6X6X",
"6X6X6X6X6X6X6X6X6X8XtXtXeXeXeXwXqXqX0X0X8X4Xt 3XeXeXeXj eXeX8X8X8X7XwX7X5X5Xi 5XM qX3XM 5X5Xi 5X5X5X5X7XeX4X6X6X6X6X6X6X6X6X6X6X",
"6X6X6X6X6X6X6X8XtXtXtXtXeXeXeXwXqXqX0X0X8X6X3X9XqXeXeXeXeXqX8X8X7XwXeXf 7X5X5X7X7X3X5X5X5X6X6X6XN 5X7XeX8X4X6X6X7X6X6X6X6X6X6X6X",
"6X6X6X6X6X6X8XtXtXtXtXeXeXwXwXwXqXqX0X0X8X7X3X9X9XqXeXeXqX8X6X7XwXwXj f eXwX7XM qXN 5X5Xi 6X5X5X5X7XeXeX4X6X6X6X6X6X6X6X6X7X7X6X",
"6X6X6X6X8XqXtXtXeXtXeXeXwXwXqXqX0X0X0X0X8X6XqX9X9X9XqXeX8Xt 7XwXj eXwXf wXeXeXqX3Xy 6Xy 6Xy 5XN 7XtXtXwX4X6X6X6X6X6X6X7X6X6X6X6X",
"6X6X6X8XqXtXeXeXeXeXwXwXqXqX0X0X8X8X8X7X5XqX9X9Xp 8XqXeX7X9Xj qXeXwXeXj eXeXj 3X5Xy 6X6X5Xi 5X7XtXtXtX4X6X6X7X7X7X6X6X6X6X7X6X6X",
"6X8X8XrXtXwXeXwXeX0X0X0X8X8X8X7X7X6X6XqXqX9X9X9X8XeX4X7X9XqXwXj f wXwXj wXj 4Xi 6Xy 5X7Xy 5X7XtXtXtXtXqX6X6X6X6X7X6X7X6X7X6X6X6X",
"8XqXrXtXeXeXwXwX0X8X8X8X8X7X5X5X5XqXqX9X9X9X8X8X7X4X7Xh f qXf wXj j j j j 6X7Xi 7Xy 6X6Xi 7XeXtXwX9XeXtXqX7X7X7X7X7X7X6X6X7X6X6X",
"qXtXtXrX0X8X8X8X8X7X7X5X5X6X7XqXqXqX9X9X8X8X7X4X6X6X9XqXqXwXqXh h j j j l i 6X5Xi y 7Xi 7XeXwX9X9X9XeXeXtXqX9X6X7X6X7X6X7X6X6X8X",
"tXrXwXwX8X5X5X5X5X5X6X5X6XqXqXqX9X9X9X8X7X7X4Xt 7X9XqXqXqXf wXf f j j l f d i 7Xi i 5Xi eXwX9X9X7XeXeXeXeXtXqX7X6X7X7X7X6X7X8XqX",
"wX0X8X8X7X5X5X5X5X5X5XqXqX9X9X9X9X8X7X7X7X4X6X9X9XqXqXqXwXqXqXqXwXf l l a h f i i i i h qX9Xu 7X9XeXeXwXeXtXqXqX8X7X6X7X8X8XwXtX",
"8X8X6X7X7X9X6X5X6XqXqXeXeX9X9X8X7X7X7X7X4X7X7X9XqXqXqXf qXf f f f f l a h h h f i i h qXd u 7X6XqXwXeXeXeXtXeXeXeX8X7X8XqXqXrX0X",
"6X6X9XwXwXwXwX8X7XqX8XqX5XeX8X8X7X6X7X4X7X9Xf qXqXh a qXqXqXwXqXf h a f h h h h h h k d u 6X6X6X9XeXwXwXeXtXtXtXtXeXqXqXwX0X8X8X",
"9X9XeXeXeXeXeXeX8X8X8X6X5X0XeXeX7X7X4X4X8X9XqXqXqXqXqXwXa qXqXwXrXl u h h h h h h k u u u u 6X4X7X9XwXwXeXtX8XqXtXeXqX0X8X8X8X4X",
"6X7X9X9XeXeXeXeX8X8X7X7X6X5X0XeXeX4X4X4X4Xf qXqXqXqXqXwXqXqXf eXl u r wXh h h h k k u 7X6X6X4X6X6X7X9XwXeXtXqX8XeXqX8X8X8X8X4X6X",
"6X6X6X6X7X9XeXeX8X8X7X6X7X5X0XeXeX4X5X4X4X8X8XqXqXf qXf qXwXeXh u r u 6XwXh h h k u d r 4X4X5X5X6X6X9X9XeXtXrXqX8X8X8X8X8X8X4X6X",
"6X6X6X6X6X6X6XwX8X8X7XwX6X6X7X0X4X6X5X5X5X4X8X8XqXqXqXqXqXeXtXk r u u 6X6XwXh k u d 6X4XM 5X5X5X5X6X7X8X8XqXrX8X8X8X8X8X8X4X6X6X",
"6X6X6X6X6X6X8XwX8X8X0XqXwX7X0XeX5X4X4X5X4X4X4X8XqXqXqXqXeXrXk qX8Xu u 6X6X6Xk u y 6X4X5X5X6X6X6X5X5X7XeXwXqXwXwX8X8X8X8X8X4X6X7X",
"6X6X6X6X6X8XwX8X8X8X8X0XqXwX8X5X6X6X6X5X6X5X4X4X8XqXf eXrXk s 8X8Xu u 6X6X7Xu 7Xy 4X5X6X6X6X6X6X5X7XeXeXwXqXqXwXwX8X8X8X4X6X7X6X",
"7X7X6X6X8XwX8X8X8X8X8X8X8XeX4XqX6X7X5X6X6X5X4X4X7X8XeXrXk eXs 8X7Xu u 6XqXu 7X6X4X5X6X6X7X6X6X5X7XeXeXeXwXqXqXqXwX8X8X4X6X6X7X7X",
"7X7X6X8XwX8X8X8XqX8X8X8X8X4X8XqXqX7X6X6X6X5X4X5X4X8XrXk k eXs 8X7Xu s rXu 7X4X4Xy 7X7X8X7X5X7X7XeXeXeXwXqXqXqXqXwX8X8X4X6X6X7X6X",
"7X6X8XwX8X8X6X9XqXqX8X8X7X4XqXqXqXqX7X5X5X5X4X4X6XrXk k g qXs 8X7Xs rXu 7X4X5X6X7X8X8X7X5X7X5X7XqXqX6X6X6X8XqXqXwX8X4X6X7X7X7X7X",
"8X8XwX8X6X6X9XqXqXrX8X7X4X8XqXqXqXqXqX5X6X4X4X8XeXk k g g wXs 8XwXg qXtXqX7X7X9X8X7X8X0X7X6X7XeX6XqX6X6X6X8XqXwX8X8X4X7X9X6X8X8X",
"8XwX8X6X9XqXqXqXeXrXqX7X4XqXqXqXqXqXwXeX6X8XqX0XeXqXqXwXg d s rXg p qXtXtXqX8X7X7X9X7X8X8X7XeX0XqX8X8X6X6X6X8XwX8X4X6X7X7X9X8X6X",
"wX8X3XqXqXqXqXqXrXwX7X4X8XqXqXqXqXqXwXeX7X6X7X0X0X0X0XqXqXd a g p r qXtXtXtXqX8X7X7X8X6X7XeX8X8XwXqX8X8X6X6X8X8X8X6X7X8X9X9X7X9X",
"8X3X6X6XqXqXqXrXrX8X4X8XqXqXqXqXqXwXeX0X6X4X7X7X0X0X0X0XqXrXk p r r 6XqXtXtXtX8X8X7X7X8XeX0X8XqXwXeX8X8X8X4X8X8X7X8X9X8X9X9X9XwX",
"3X6X6X6X6XqXeXrX8X5X4X8XqXqXqXqXqXwXeX6X4X7X7X7X7X0X0XqXrXk k i r 6X6X6XqXtXtX0X8X8X6XeX0X6X8XwXwXeX7X7XqXqX8X6X8X0X9X9X8X9XwX6X",
"6X6X6X6X8XrXrXwX5X4X8XqXqXqXqXqXqXeX0X4X7X7X7X7X7X0X0XqXk k k k r 6X6X6X6XqXtXwX9XwXwX0X4X8X0XqXeXqX7X7XqXqX6X8XqXeX0X9X9XwX6X3X",
"6X7X6X6X0XrXrX7X5X3X8XqXqXqXqXqXwXeX4X7X7X7X7X7X7X7XqXk tXqXp h f r 6X6X6XeXqXwXwXwX8X6X7X8XwXqXeXqX5X7X8X6X8XqXeXrXrX0XwX6X3X6X",
"6X7X6X8XwXrX7X5X3X8XqXqXqXqXqXwXeX0X7X6X7X7X7X7X7X0Xk tXqX8X7Xf h f r 6X8XeXwXwX8X7X6X4X8X0XqXeXqXqXqXqX6X8XqXwXeXrXrXeX8X3X6X7X",
"7X7X6X0XrX8X5X3X8X0XqXqXqXqXqXwXeX6X7X7X7X7X7X7X0Xk eXqX8X6X0Xf tXh f tXqXqX0X8X6X6X3X4X8XqXqXeX8XqX8X6X8XqXqXeXwXwXrXwX8X6X6X6X",
"7X7X8XrXwX5X3X6X7X8X0XqXqXqXwXeX0X6X7X6X7X6X7X0Xk eXqX8X6X0X0Xf eXf tXk eX0X8X6X6X3X3X8X0X0XeXqX8X8X6X6X8X8XqXwXrXyXyX8X6X8X7X7X",
"7X7X0XwX7X4X6X6X6X7X8X0XqXqXwXeX7X5X6X7X7X7X0Xk eXqX8X6X7XqXqXf 0Xh g k qX0X7X6X3X3X2X0X0XqXeX8X8X6X6X6X6X8XrXyXyXyXtXeX8X8X7X6X",
"6X8XwX7X4X6X6X6X6X6X7X8X0XwXeX0X7X5X6X6X6X0Xk f qX8X8X6X0XqX0Xh f h k g qX0X7X3X3X2X7X7X0XeXqX8X6X6X6X6X6XrXyXyXyXrXeXtXwX8X6X7X",
"6XwXwX6X4X6X6X6X6X6X6X7X8X0XeXqX8X7X5X6X0Xk f qX8X8X6X7X0X0XqXh h k g eXqX8X5X3X3X5X5X7XqXeX8X6X6X6X6X6XrXyXyXyXrXwX0XeXtXwX7X7X",
"6XwX7X4X6X6X6X6X6X6X6X6X7XqXqX9X8X7X0X0Xk f qX8X7X6X6X7X8X0XqXh h k rXqX7X4X3X5X5X5X5X5XwXqX6X6X6X6X6X8XyXyXyXrXwX0XwXwXeXtX8X6X",
"8X8X4X6X6X6X6X6X6X6X6X8XqXqXqX9X8X0XrXk f 8X6X6X6X6X7X7X7X8X0Xh k uXeXqX8X5X5X5X5X5X5X8XwX8X6X6X6X6X6XrXyXyXrXwXwX0XwXwXwXeX8X6X",
"wX4X6X6X6X6X6X6X6X6X8XqXqXqXqX9X0XrXwXi i 6X6X6X6X6X7X7X7X7X8Xh uXeX9X7X8X5X5X5X5X5X5XwXwX6X6X6X6X6XwXyXyXrXwXwX0XwXwXwXeX0X8X8X",
"tX6X6X6X6X6X6X6X6X8XqXqXqXqXqX0XrX8XwXf i 6X6X6X6X6X7X7X7X7X8XuXrXqX9X7X7X5X5X5X5X5X9XwX6X6X6X6X6X8XyXrXrXwXwXwX0XwXwXwXeXqX8XwX",
"tXtX6X6X6X6X6X6X8XqXqXqXqXqXwXeX7X9XwXf i i 6X6X6X6X6X7X7X7XqXk k eXqX7X7X5X5X5X5X5XqX6X6X6X6X6X6XwXyXrXwX0X6X0XwXwXwXwXrXqX8XtX",
"tXtXtX6X6X6X6X0XeXeXeXwXqXeXeX7X7X9XwXf k i 6X6X6X6X6X7X7X9Xh k k k k rX0X5X5X5X5X9XtXqX0X6X6X6X8XyXwXwX7X6X4X0X0XwXwXeXrXwXwXtX",
"eXrXwXtX6X7X0X0XeXeXeXwXwXeX7X7X7XwXwXf g k 7X6X6X6X6X9X9Xf f h j k k k rX0X0X7X9XwXtXtXqX0X6X6XwXwX0X7X6X4X3X7X0XwXwXrXyXrXwXtX",
"rXeXeXwX7X0X0XqXqXeXeXwX0X7X7X6X9XwXwXf g h i 6X6Xn h 9XqXf f f h h h j k qX0X7X5X8XwXtXtXqX0X8X0X8X7X6X4X3X4X6X0X0XwXyXyXyXrXtX",
"eXwXwX7X0X0XqX0XqX0XwXeX0X7X6X7XwXwXeXg g h k wXn d 6XqXqXwXa a d g h h 9X7X7X5X3X6X8XwXtXtXeX0X8X7X7X6X3X4X6X6X7X0XeXtXyXrXtXtX",
"eXwX7X0X0XqX0XqXqXqX0X0X7X7X6X9XwXwXrXg h h k h i 6X9XqXwXeXi a a f g f 9X7X5X3X4X5X6X8XwXtXwX8X7X7X6X3X4X6X6X6X6X0XqXtXyXtXeXtX",
"wX7X0X0XqX0X0XqXqXqXqX7X7X6X7XwXwXeXrXg h k k h 5X6XqXqXqXqXi a a d g j 7X7X3X4X5X6X7X6X8XwXqX7X7X6X4X4X6X6X6X6X6X0XrXyXtXyXtXwX",
"7X0X0X0X0XqX0XqX0X0X7X7X6X6X9XwXeXwXwXh k k h 3X5X9XqXwXqXwXa a a s f wX7X7X4X5X6X6X6X6X6X8X0X7X7X6X3X6X6X6X6X6X8XqXtXtXyXrX0X8X",
"0X0X0XqX0X0XqXqX0X0X7X6X5X7XwXwXwXwXeXh k h 6X3X9XqXqXqXqXqXd i a s d 9X7X4X5X6X7X6X6X6X6X6X0X7X6X5X6X6X6X6X6X6X8X0XyXyXrXrX7X7X",
"0X0X0XqX0X0X0X0X0X7X6X6X5X9XwXwXwXwXeXk k 0X3X5X8X0XqXqXqXwXqXi a s g 7X7X5X6X6X6X6X7X6X6X0X0X6X5X6X6X6X6X6X6X8XqXtXrXyXwX7X7X0X",
"0X9X0X0X0XqX0X0X7X6X6X4X9XwXwXwXwXrXrXk 0X3X5X7X8X8X0XqXqXqXqXi a s j 8X6X6X6X6X7X7X6X6X6X0X8X5X6X7X6X6X6X6X6X8X0XtXrXwX7X5X7X0X",
"0X9X0X9X9X0X0X7X7X6X4X9XwXwXwXwXrXrXyXk 6X4X6X6X7X8X8X0XqXqXqXa a s eX0X6X6X6X6X6X6X6X6X0X8X5X7X6X6X6X7X6X6X8XqXrXrXwX7X5X0X0X0X",
"0X9X9X9X0X0X0X7X6X4X5X6X8XwXwXrXtXyXk wX3X5X6X6X6X7X8X8X0XqXqXd a f eX0X8X6X6X6X6X6X9X0X8X6X5X6X7X7X6X6X6X6X8X0XrXwX0X6X5X6X0X0X",
"9X0X9X0X9X0X7X6X4X5X6X7X7X8XwXwXyXyXk 6X4X6X6X6X6X6X7X8X8X0XqXqXa f eXwX8X6X6X6X6X0XwX8X6X5X7X7X7X7X6X7X6X8XqXeXrXwX7X5X5X7X6X0X",
"6X0X9X0X0X7X6X4X6X7X7X7X7X0XwXtXyXk wX3X5X6X6X6X6X6X6X7X8X8X0XqXa g tXwXqX8X6X6X6XwX0X6X5X8X6X8X6X6X7X6X7X8X0XeXeX0X5X5X6X6X6X7X",
"6X7X9X0X7X7X4X6X7X7X8X7X7XwXtXyXyXk 6X4X6X6X6X6X6X6X6X6X7X8X8X0Xa j rXwXwX8X6X6XwX0X8X7X7X8X7X8X7X7X7X6X8XqXeXeX0X6X5X6X6X7X6X7X",
"6X6X8X8X7X4X7X7X7X7X7X7X8XwXtXyXk wX4X5X6X6X6X6X6X6X6X6X6X7X8X8Xg rXtXeXwXqX8XwX0X8X6X8X7X8X8X7X8X8X6X7X8X0XeXeX0X5X6X7X6X6X6X7X",
"6X8X8X7X4X7X7X7X8X7X7X7X8XwXyXyXk 7X5X7X6X6X6X6X6X6X6X6X6X6X7X8XpXtXtXeXwXwXqXwX8X6X8X6X7X8X7X8X8X7X7X0XqXeXeX0X5X6X7X6X6X6X7X7X",
"8X8X8X4X7X7X8X7X7X7X8X8X8XwXyXk wX5X6X6X6X6X6X6X6X6X6X6X6X6X6XwXk pXyXeXeXrXeX0X7X7X8X8X8X8X8X7X8X8X7X0XeXeX0X7X5X7X7X7X6X7X6X6X",
"8X8X4X7X7X7X7X7X8X9X7X8X0XtXyXwX7X6X7X6X6X6X6X6X6X6X6X6X6X7XwXtXk k pXpXtXwX0X7X8X9X9XqX8XqX8X8X8X7X0XqXeX0X7X5X7X7X6X7X6X6X7X6X",
"8X8X8X7X7X8X8X9X8X8X8X7X0XtXk 8X6X7X6X7X7X7X6X6X6X6X6X6X7XwXuXuXuXk j uXpX0XqX9X9XqXqX9XqX8X9X9X8X8X0XeXeX0X5X7X7X7X7X6X7X6X6X6X",
"8XwX8X9X8X8X7X9X8X8X9X8XwXyXwX7X7X7X7X7X7X7X7X6X6X7X6X7XwXuXuXuXuXk j uXuXyX9XqXqX9XqX9X8X9X8XqX7X0XqXeX0X5X7X7X6X7X7X7X7X6X7X7X",
"rXrXwXwX9X9X8X9X9X8X9X8XwXk 8X8X7X7X7X7X7X6X7X6X7X6X0XwXyXtXuXuXuXuXk j yXyXtXqXqXqXqXqX9X9X9XqX8X0XeX0X5X7X7X7X7X7X7X7X7X7X7XrX",
"rXrXrXrXwX9X8X9X9X8X8X0XyX8X8X8X8X8X7X7X6X7X7X6X7X0XyXyXrXyXuXuXuXuXk j j j j j qXqXqX8XqXqX9X7X0XqXeX8X7X7X7X7X6X7X7X6X6X7X7XrX",
"rXrXrXrXrXrXwX9X9X9X8XwX8X8X8X8X8X8X8X8X7X6X6X9X0XyXwXwXrXuXuXuXuXk k k k k g g f d s a f j 9X8XqXeX8X7X7X7X7X7X7X7X7X7X7X7XrXrX"
};
