/* XPM */
static char *Wall_0471647953497[] = {
/* columns rows colors chars-per-pixel */
"64 64 256 2 ",
"   c black",
".  c #0000A8",
"X  c #00A800",
"o  c #00A8A8",
"O  c #A80000",
"+  c #A800A8",
"@  c #A85400",
"#  c gray66",
"$  c gray33",
"%  c #5454FC",
"&  c #54FC54",
"*  c #54FCFC",
"=  c #FC5454",
"-  c #FC54FC",
";  c #FCFC54",
":  c gray99",
">  c #ECECEC",
",  c gainsboro",
"<  c #D0D0D0",
"1  c #C0C0C0",
"2  c #B4B4B4",
"3  c gray66",
"4  c #989898",
"5  c gray55",
"6  c #7C7C7C",
"7  c gray44",
"8  c #646464",
"9  c gray33",
"0  c #484848",
"q  c gray22",
"w  c #2C2C2C",
"e  c #202020",
"r  c #FC0000",
"t  c #EC0000",
"y  c #E00000",
"u  c #D40000",
"i  c #C80000",
"p  c #BC0000",
"a  c #B00000",
"s  c #A40000",
"d  c #980000",
"f  c #880000",
"g  c #7C0000",
"h  c #700000",
"j  c #640000",
"k  c #580000",
"l  c #4C0000",
"z  c #400000",
"x  c #FCD8D8",
"c  c #FCB8B8",
"v  c #FC9C9C",
"b  c #FC7C7C",
"n  c #FC5C5C",
"m  c #FC4040",
"M  c #FC2020",
"N  c #FC0000",
"B  c #FCA85C",
"V  c #FC9840",
"C  c #FC8820",
"Z  c #FC7800",
"A  c #E46C00",
"S  c #CC6000",
"D  c #B45400",
"F  c #9C4C00",
"G  c #FCFCD8",
"H  c #FCFCB8",
"J  c #FCFC9C",
"K  c #FCFC7C",
"L  c #FCF85C",
"P  c #FCF440",
"I  c #FCF420",
"U  c #FCF400",
"Y  c #E4D800",
"T  c #CCC400",
"R  c #B4AC00",
"E  c #9C9C00",
"W  c #848400",
"Q  c #706C00",
"!  c #585400",
"~  c #404000",
"^  c #D0FC5C",
"/  c #C4FC40",
"(  c #B4FC20",
")  c #A0FC00",
"_  c #90E400",
"`  c #80CC00",
"'  c #74B400",
"]  c #609C00",
"[  c #D8FCD8",
"{  c #BCFCB8",
"}  c #9CFC9C",
"|  c #80FC7C",
" . c #60FC5C",
".. c #40FC40",
"X. c #20FC20",
"o. c #00FC00",
"O. c #00FC00",
"+. c #00EC00",
"@. c #00E000",
"#. c #00D400",
"$. c #04C800",
"%. c #04BC00",
"&. c #04B000",
"*. c #04A400",
"=. c #049800",
"-. c #048800",
";. c #047C00",
":. c #047000",
">. c #046400",
",. c #045800",
"<. c #044C00",
"1. c #044000",
"2. c #D8FCFC",
"3. c #B8FCFC",
"4. c #9CFCFC",
"5. c #7CFCF8",
"6. c #5CFCFC",
"7. c #40FCFC",
"8. c #20FCFC",
"9. c #00FCFC",
"0. c #00E4E4",
"q. c #00CCCC",
"w. c #00B4B4",
"e. c #009C9C",
"r. c #008484",
"t. c #007070",
"y. c #005858",
"u. c #004040",
"i. c #5CBCFC",
"p. c #40B0FC",
"a. c #20A8FC",
"s. c #009CFC",
"d. c #008CE4",
"f. c #007CCC",
"g. c #006CB4",
"h. c #005C9C",
"j. c #D8D8FC",
"k. c #B8BCFC",
"l. c #9C9CFC",
"z. c #7C80FC",
"x. c #5C60FC",
"c. c #4040FC",
"v. c #2024FC",
"b. c #0004FC",
"n. c #0000FC",
"m. c #0000EC",
"M. c #0000E0",
"N. c #0000D4",
"B. c #0000C8",
"V. c #0000BC",
"C. c #0000B0",
"Z. c #0000A4",
"A. c #000098",
"S. c #000088",
"D. c #00007C",
"F. c #000070",
"G. c #000064",
"H. c #000058",
"J. c #00004C",
"K. c #000040",
"L. c #282828",
"P. c #FCE034",
"I. c #FCD424",
"U. c #FCCC18",
"Y. c #FCC008",
"T. c #FCB400",
"R. c #B420FC",
"E. c #A800FC",
"W. c #9800E4",
"Q. c #8000CC",
"!. c #7400B4",
"~. c #60009C",
"^. c #500084",
"/. c #440070",
"(. c #340058",
"). c #280040",
"_. c #FCD8FC",
"`. c #FCB8FC",
"'. c #FC9CFC",
"]. c #FC7CFC",
"[. c #FC5CFC",
"{. c #FC40FC",
"}. c #FC20FC",
"|. c #FC00FC",
" X c #E000E4",
".X c #C800CC",
"XX c #B400B4",
"oX c #9C009C",
"OX c #840084",
"+X c #6C0070",
"@X c #580058",
"#X c #400040",
"$X c #FCE8DC",
"%X c #FCE0D0",
"&X c #FCD8C4",
"*X c #FCD4BC",
"=X c #FCCCB0",
"-X c #FCC4A4",
";X c #FCBC9C",
":X c #FCB890",
">X c #FCB080",
",X c #FCA470",
"<X c #FC9C60",
"1X c #F0945C",
"2X c #E88C58",
"3X c #DC8854",
"4X c #D08050",
"5X c #C87C4C",
"6X c #BC7848",
"7X c #B47044",
"8X c #A86840",
"9X c #A0643C",
"0X c #9C6038",
"qX c #905C34",
"wX c #885830",
"eX c #80502C",
"rX c #744C28",
"tX c #6C4824",
"yX c #5C4020",
"uX c #543C1C",
"iX c #483818",
"pX c #403018",
"aX c #382C14",
"sX c #28200C",
"dX c #600064",
"fX c #006464",
"gX c #006060",
"hX c #00001C",
"jX c #00002C",
"kX c #302410",
"lX c #480048",
"zX c #500050",
"xX c #000034",
"cX c gray11",
"vX c #4C4C4C",
"bX c gray36",
"nX c gray25",
"mX c gray19",
"MX c #343434",
"NX c #D8F4F4",
"BX c #B8E8E8",
"VX c #9CDCDC",
"CX c #74C8C8",
"ZX c #48C0C0",
"AX c #20B4B4",
"SX c #20B0B0",
"DX c #00A4A4",
"FX c #009898",
"GX c #008C8C",
"HX c #008484",
"JX c #007C7C",
"KX c #007878",
"LX c #007474",
"PX c #007070",
"IX c #006C6C",
"UX c #980088",
/* pixels */
"w w w w w w w w w w w w w w w w w w w w w w w w w w w w w w w w w w w w w w w w w w w w w w w w w w w w w w w w w w w w w w w w ",
"w w w w w w w w w w e 6 T T T T T T T R 8 6 T T T T 6     0 8 E T T T T T T T E W 0 w   e e e e e e e e e e w w w w w w w w w w ",
"e e e e e e e e   w e 6 7 R R R R R R 9 7 7 6 R R R 0     0 6 9 0 E 0 0 Q Q Q Q q w       0 Q Q Q Q ! ! q 0 q e e e e e e e e e ",
"0 0 0 0 0 0 0 0   w e T 7 W W W W W W 9 7 6 6 Q Q W q     8 6 8 9 0 9 9 ~ ! ! ! 0 w       Q E R R E E W 6 7 8 Q Q Q ! ! 0 0 0 0 ",
"6 W W W 6 8 q 0   w e T 8 Q Q ! ! ! Q 0 8 8 9 ! ! Q w     0 6 8 0 0 8 8 0 ! ~ ! 0 w       Q R W Q Q Q 7 6 E R R R E E E W 6 6 6 ",
"0 0 W W W ~ q 0   e e T 9 Q ! ! q 0 ! 8 9 Q 0 q ! ! w     e 8 W 8 8 0 8 0 e 0 ~ w w       Q R Q Q 0 8 0 E 8 Q Q Q Q Q W W 8 0 8 ",
"8 6 ~ W Q Q ~ w   e e T 9 Q ! ! 0 9 ! 9 9 Q 0 9 q ! e     e q W 0 W 0 0 9 0 9 ~ e       ~ ! E Q 0 8 E E W 0 ! Q Q Q ! ! 8 8 W 8 ",
"9 6 7 Q ~ ! ~ w     e T 9 0 ! ! 0 8 ! 0 q ! 9 8 0 ! e e   e ~ ! 0 W 8 0 0 8 8 0 e       ! ! E Q 8 0 E W Q 9 ~ Q Q ! 8 ! 0 9 ! 8 ",
"0 7 0 ! ~ ~ q w     e T 9 8 ! ! 0 8 ~ 9 0 9 0 0 8 ! e e e e e ~ ~ ~ e e e             e Q e E ! 0 8 Q q Q q 9 ! Q ! 0 ! 9 8 8 9 ",
"8 8 7 ~ 0 9 q w     e E 9 8 Q ! 0 0 9 0 0 0 0 8 0 ! q   e e e                       e E ! e Q ~ 0 Q ~ 9 Q 9 9 ~ ! ! 0 ~ 9 0 9 0 ",
"9 0 9 9 9 0 e e     e E 9 0 Q ! 0 q 0 9 8 9 8 9 8 ~ w     e e                     e E ! e ~ ! e Q ! 0 8 Q 0 0 9 ! ~ 0 8 0 8 0 0 ",
"0 0 0 0 0 w e e     e ! 9 8 ~ ! 0 q q 8 9 0 0 q 9 0 q     e e e e e W Y Y W 8 Y Y R ! e Q ~ e 0 ~ ~ q q ~ w w w ~ w q q q q q q ",
"q q q q w e         w e 9 7 0 ~ 0 9 Q 0 9 8 q 0 Q 9 w       e 0 W Y Y R E 0 7 7 R E E Q e e 0 0 q q w e e e w w w w w w w w w w ",
"e e e w w           w e 8 7 9 q q Q ! 0 0 9 9 9 ! q w         8 Y R Q W W 0 vX8 Q 0 e             e e e e e e e e e e e e e e e ",
"                    w e 0 7 8 9 8 ! ! q 0 q 0 8 ! w w       e 8 E Q 9 W W vX0 0 Q w ~ e                                         ",
"                    w e 0 6 9 8 9 ! ! 0 8 0 8 9 ~ w 0 e     e 8 E ! 9 bXW W 9 0 ! w e ! e e w w w w   e e e e e e e e e e e e e ",
"9 9 9 9 Q Q Q ! 9     w e 6 6 ! 9 ! ~ ! q 0 9 0 q q w w     e 8 E ! 9 8 W Q 0 bX~ w   ~ Q W W W ! w e w q 9 9 9 9 9 9 9 9 9 9 9 ",
"6 6 6 E E E Q ~ 0     w e 0 6 ~ 0 ! q ! ! 9 8 9 0 0 0 e     e 8 E ! 9 bXQ ~ 0 8 0 w       W W Q !   e q 6 E E W 6 R R R R R R 6 ",
"8 9 0 W Q Q Q ~ 7     w e 0 9 0 0 ! q ~ ~ 0 9 0 w 0 w e     e 8 ! 9 0 0 ~ ~ 0 w w w       Q ! Q !   e 9 E E W 0 Q W W W W W ! q ",
"8 0 8 W Q Q Q ~ 0     e w e 9 9 0 ! q e e w 0 w 0 w e         8 0 0 0 0 e e e e e       q Q ! ! q   e 9 E W 0 9 Q Q Q Q Q Q ! q ",
"8 W 9 W Q Q Q ~ w     e w e q w w e e e e e                   0 0 e e e                 q Q ! ~ q   e 9 W q vXbXQ Q Q Q Q Q ! q ",
"8 Q 8 W Q Q Q ~ w     e w e                                     w                       0 Q ! e q   e 0 W 0 8 bX8 q Q ! ! Q ~ q ",
"0 Q q q Q ! Q ~ w       w w e                   e e e e e e e 0 0 9 W W W W W q w     q 6 Q ! ~ w   e 0 W 0 vX9 0 Q Q e ! Q ~ q ",
"0 ! q q Q ~ ~ q e       0 W E E E E W 8 0 q   e q Q E E E E 7 E W Q W W W Q Q Q !     q 6 Q ! ! w   e q Q 0 9 0 8 Q Q e q Q ~ q ",
"0 9 8 8 Q ~ 0 q e       W E W W W W Q 9 9   w e Q E E 7 W Q W Q ! ! Q Q Q ! Q ! ~     0 6 Q ! ~ e   e ! Q 0 8 9 Q Q ~ e 8 ~ e q ",
"9 8 9 9 ~ 9 0 w         E Q Q ! ! ! ! ~ 8   w e Q E W 0 Q ! ! ! ! ! ! ! ! ~ ~ ~ e     0 5 Q ! e e   e Q e 0 q ! ! ! ~ e 0 q q q ",
"q q q q q w e           E Q ! ! ! ! ! ~ q   e e Q E W E Q ~ q ! ~ ! ! ! ! ~ q ~ e     0 5 Q ! e e   e e   e e e e e e e e w w w ",
"w e e                   E Q ! ! ! ! ! ~ q   e e Q E W ! Q ~ q ! q ! ! ~ ! ~ q ~ e     0 5 Q ! e e                             e ",
"            e e e e e e E Q ~ q ! ! ! ~ q     e Q E W ~ Q ~ q ! 9 ! ! q ! ~ q e e     Q 5 Q ! e w     ~       ~                 ",
"e q q 0 0 9 0 0 0 0 e   E Q q 0 ! ! ! ~ q e   e ! W W 0 Q ~ q ! Q ! ! q ! ~ q e e     Q 5 Q ! e w   ~ ~ Q Q Q w ~ Q ~ ~ e       ",
"q 0 7 W W W W W Q 8 0   W ! q 0 ~ ! ! ~ q e   e ! Q Q 0 Q ~ q ! ! ! ~ q ! ~ q e e   ~ Q 6 Q ! e w   e ~ Q Q Q W E W ! e e e e w ",
"q 7 W Q ! ! ! ! ! 8 e   ! e q 8 vX! ! ~ q e   e q ! ~ 0 ! q q ~ ! ! ~ 0 ! ~ q e e e   Q 6 Q ! e w   e q Q ~ Q Q W W W W ! 9   w ",
"q W Q ! ! ~ ~ ! ! e 8   5 9 8 9 8 ! ! ~ q e     w ~ 0 8 0 q 0 q ! ! q nX! ~ q w       Q 6 Q ! e w   e 8 0 q Q Q ! ! ~ ~ ~ q   w ",
"q W Q ! ~ 8 0 ! ! e 0   5 9 0 9 8 ! ! ~ q e     w 0 8 8 ! 8 ! 0 ~ ! q nX! ! Q e     ~ 0 7 ~ ! e w   e 6 8 0 Q ~ ! ! e q 0 q   e ",
"q W Q ! ~ 9 8 W ! e w   6 8 8 8 9 ! ! e q e     w 0 5 6 ! ! ~ 9 0 ! q 9 Q ! e e   e Q 0 7 8 ! ~ e   e 7 8 0 Q ~ w ! e 0 9 q   e ",
"q W Q ! ~ 9 W Q ! e w   6 6 vX9 q ! ! e q e     e 0 7 6 ! ~ q 9 0 ~ q W Q ~ e     e e 0 7 9 ~ e e   e 6 8 0 Q ~ q ! e 0 8 w   e ",
"q ! Q ! ! ! ! ! ! e w   6 6 0 9 8 ~ ! e q e e   e w 7 6 ~ 0 8 9 8 q ! Q ~ ~ e       e q 8 q ~ e e   e 8 8 0 Q ! 0 ! e 0 9 w     ",
"q 6 ! ~ ! ~ ! ! ! e w   7 6 vX8 0 0 ! e q e e     w 0 6 8 0 q ! ~ e e e e e e       e w     e e e e e 0 w e w w w w w w w w     ",
"q 6 7 9 ! 8 ! ! ! e w   9 6 9 vX8 8 ! e q w e     w e 0 0 ! e e e e   e ~ e e       e w e ~ ~ e ~ w w                           ",
"q 6 7 0 ! bX! ~ ! e w   q 6 Q 9 8 bX! e q w e     e e             ~     ~ ~ e e   e e w ~ ~ e e e ! ~ e e e                     ",
"q 6 7 8 ~ 9 ! e ! e w   w 5 ! 8 bX0 ! e q w e     e e e           ! e e e ! ! ~ ~ ~ ! ! ~ e q q q ~ ! Q Q Q q q q q q q q q   w ",
"q 6 7 0 bX8 ! ~ ! e w   e 5 ! vXQ 9 ! e q w e e     q q q q q q q W ! q q e ! Q W Q ! ~ 8 7 7 6 6 E E E E E E E E E W ! 0 q   w ",
"q 7 7 8 8 9 ! ~ ! e     e 5 ~ bX! 0 ! e q w e e     W 6 6 6 6 6 E E E Q 6 6 E E E E E E E E E E E E E E E E E E E E W Q ! q   e ",
"q 7 7 Q 8 0 ! ~ e w     e 5 0 8 ~ 9 ! e q w e ~ e   W R R R R R R R E W 8 5 6 W W W W W W W W W W W W W W W W W W Q ! ! q w   e ",
"q 6 7 Q 0 8 ! ~ 0 w     e 6 8 8 e 8 ! e q w e e ~ ! Q W E W Q Q Q Q Q Q ! 0 8 6 Q Q Q Q ! ~ ~ ~ ! Q Q Q Q Q Q Q Q ! w w 0 w     ",
"e 6 0 Q 8 0 ~ e 0 w     e 7 0 0 8 0 ! e q w   e ~ ~ e 9 W q Q ! Q Q ! Q ! q 8 8 Q ! Q Q ~ w q nX! Q Q Q ! Q q Q ! ~ w 0 0 w     ",
"e 7 8 Q ! 0 w w w       e 7 8 0 0 8 ~ e q w   e ~ e e 8 9 9 Q ~ Q Q ~ Q ! q 8 0 Q ~ Q ! ~ q 0 9 0 ! Q Q ~ Q 0 Q ~ ~ q 9 0 w     ",
"e q q ! ~ w w w w       e 9 9 8 0 0 w w q w   e e ~   7 8 8 Q ~ Q Q ~ Q ~ q Q 8 ~ q Q ~ w nX0 bX8 0 Q ! ~ Q Q Q ~ w 0 9 0 w     ",
"e     ~ e w w w w     e e q q q q q q q w w     e e ~ 8 6 7 Q ~ Q Q ~ ! e q Q ~ nX9 Q ~ w 0 W W bX8 Q ~ q ! ~ Q ~ w q q 0 w     ",
"w w w ! e             e                           e e 0 7 7 Q ~ ! ! ~ e e q ~ ~ nX9 Q ~ q 8 ! ~ q 9 Q ~ 0 ~ q ! ~ q q q 0 w     ",
"e e e Q ~ ~ e         e                               0 9 9 ! q e e q q q q 8 8 0 0 ! ~ q 0 ~ ~ 0 8 ! ~ 9 9 8 ~ e q 0 9 0 w     ",
"e q 8 W W W Q 0 q e e w                               w e   e     e e e w 0 0 q q q ~ e q q q q q q ~ e q q q q q q q q q w     ",
"e 8 W E E E W W W W 8 0 0 q w e                     e w e e               e w w w w e e w w w w w w e e w w w w w w w w w e     ",
"e 8 W E Q 0 Q Q Q Q W W E E E E E E E E E W W q q 0 q q w w e e e e e         e e e e e e e e e e e e e e e e e e e e e e     e ",
"e 8 W E Q 0 W Q Q ! 0 Q Q Q Q Q Q Q Q Q Q Q Q Q ! 9 6 8 8 8 8 8 0 e w e           ~ e               e e                     e e ",
"e 8 W W Q 0 W Q Q ! 0 q W Q Q 0 Q Q Q ~ ! Q Q Q ! 0 6 6 6 6 7 6 q   e w e e e   ! ~                 ~ e                 e e e w ",
"e 8 7 W Q 0 W 0 Q ! 0 9 W Q Q Q Q W Q ! q W Q Q ! 0 8 9 8 8 8 q q     w e ! W W W q e e e w w w ~ W Q ! ~ ~ e e e e e e w w w w ",
"e 8 6 0 Q 0 q q Q ~ 0 8 W Q ! Q 9 W Q ! 9 W ~ Q ! 0 8 9 9 8 8 q w     e e W ! ! ! 0 6 6 7 w w Q E E E E E E Q ~ 0 6 7 9 q e e w ",
"e 8 0 q q q q q ! e q q ! e q q q ! e q q e ! ! ~ q q q q q q w e       e 0 ! ! ~ 0 7 7 7 q w E Q ! Q Q Q ! ! Q ~ 0 0 8 6 9   w ",
"e 0 q e e e e e e e e e e e e e e e e e e e e e e e e e e e e e e       e 7 ! ~ 0 9 7 9 0 q e E ! 0 Q ! 0 ! 0 ! ~ 0 8 0 8 w   w ",
"e                               e e e e e e e e e                       e   e e w w q q q q e 6 8 9 Q ! 0 0 0 ! ~ 0 8 0 0 w   w ",
"w e                                 e e     e e                           w e e               w w w ~ e w w w ~ e w w w w w   w ",
"w w w w e e e e e e e e             e e     e e                           w w w e e           w w   e e       e e             w ",
"q q q q q q q q q q q q q q q q q q q q q q q q q q q q q q q q q q q q q q q q q q q q q q q q q q q q q q q q q q q q q q q q "
};
