/* XPM */
static char *Wall_0821647953498[] = {
/* columns rows colors chars-per-pixel */
"64 64 256 2 ",
"   c black",
".  c #0000A8",
"X  c #00A800",
"o  c #00A8A8",
"O  c #A80000",
"+  c #A800A8",
"@  c #A85400",
"#  c gray66",
"$  c gray33",
"%  c #5454FC",
"&  c #54FC54",
"*  c #54FCFC",
"=  c #FC5454",
"-  c #FC54FC",
";  c #FCFC54",
":  c gray99",
">  c #ECECEC",
",  c gainsboro",
"<  c #D0D0D0",
"1  c #C0C0C0",
"2  c #B4B4B4",
"3  c gray66",
"4  c #989898",
"5  c gray55",
"6  c #7C7C7C",
"7  c gray44",
"8  c #646464",
"9  c gray33",
"0  c #484848",
"q  c gray22",
"w  c #2C2C2C",
"e  c #202020",
"r  c #FC0000",
"t  c #EC0000",
"y  c #E00000",
"u  c #D40000",
"i  c #C80000",
"p  c #BC0000",
"a  c #B00000",
"s  c #A40000",
"d  c #980000",
"f  c #880000",
"g  c #7C0000",
"h  c #700000",
"j  c #640000",
"k  c #580000",
"l  c #4C0000",
"z  c #400000",
"x  c #FCD8D8",
"c  c #FCB8B8",
"v  c #FC9C9C",
"b  c #FC7C7C",
"n  c #FC5C5C",
"m  c #FC4040",
"M  c #FC2020",
"N  c #FC0000",
"B  c #FCA85C",
"V  c #FC9840",
"C  c #FC8820",
"Z  c #FC7800",
"A  c #E46C00",
"S  c #CC6000",
"D  c #B45400",
"F  c #9C4C00",
"G  c #FCFCD8",
"H  c #FCFCB8",
"J  c #FCFC9C",
"K  c #FCFC7C",
"L  c #FCF85C",
"P  c #FCF440",
"I  c #FCF420",
"U  c #FCF400",
"Y  c #E4D800",
"T  c #CCC400",
"R  c #B4AC00",
"E  c #9C9C00",
"W  c #848400",
"Q  c #706C00",
"!  c #585400",
"~  c #404000",
"^  c #D0FC5C",
"/  c #C4FC40",
"(  c #B4FC20",
")  c #A0FC00",
"_  c #90E400",
"`  c #80CC00",
"'  c #74B400",
"]  c #609C00",
"[  c #D8FCD8",
"{  c #BCFCB8",
"}  c #9CFC9C",
"|  c #80FC7C",
" . c #60FC5C",
".. c #40FC40",
"X. c #20FC20",
"o. c #00FC00",
"O. c #00FC00",
"+. c #00EC00",
"@. c #00E000",
"#. c #00D400",
"$. c #04C800",
"%. c #04BC00",
"&. c #04B000",
"*. c #04A400",
"=. c #049800",
"-. c #048800",
";. c #047C00",
":. c #047000",
">. c #046400",
",. c #045800",
"<. c #044C00",
"1. c #044000",
"2. c #D8FCFC",
"3. c #B8FCFC",
"4. c #9CFCFC",
"5. c #7CFCF8",
"6. c #5CFCFC",
"7. c #40FCFC",
"8. c #20FCFC",
"9. c #00FCFC",
"0. c #00E4E4",
"q. c #00CCCC",
"w. c #00B4B4",
"e. c #009C9C",
"r. c #008484",
"t. c #007070",
"y. c #005858",
"u. c #004040",
"i. c #5CBCFC",
"p. c #40B0FC",
"a. c #20A8FC",
"s. c #009CFC",
"d. c #008CE4",
"f. c #007CCC",
"g. c #006CB4",
"h. c #005C9C",
"j. c #D8D8FC",
"k. c #B8BCFC",
"l. c #9C9CFC",
"z. c #7C80FC",
"x. c #5C60FC",
"c. c #4040FC",
"v. c #2024FC",
"b. c #0004FC",
"n. c #0000FC",
"m. c #0000EC",
"M. c #0000E0",
"N. c #0000D4",
"B. c #0000C8",
"V. c #0000BC",
"C. c #0000B0",
"Z. c #0000A4",
"A. c #000098",
"S. c #000088",
"D. c #00007C",
"F. c #000070",
"G. c #000064",
"H. c #000058",
"J. c #00004C",
"K. c #000040",
"L. c #282828",
"P. c #FCE034",
"I. c #FCD424",
"U. c #FCCC18",
"Y. c #FCC008",
"T. c #FCB400",
"R. c #B420FC",
"E. c #A800FC",
"W. c #9800E4",
"Q. c #8000CC",
"!. c #7400B4",
"~. c #60009C",
"^. c #500084",
"/. c #440070",
"(. c #340058",
"). c #280040",
"_. c #FCD8FC",
"`. c #FCB8FC",
"'. c #FC9CFC",
"]. c #FC7CFC",
"[. c #FC5CFC",
"{. c #FC40FC",
"}. c #FC20FC",
"|. c #FC00FC",
" X c #E000E4",
".X c #C800CC",
"XX c #B400B4",
"oX c #9C009C",
"OX c #840084",
"+X c #6C0070",
"@X c #580058",
"#X c #400040",
"$X c #FCE8DC",
"%X c #FCE0D0",
"&X c #FCD8C4",
"*X c #FCD4BC",
"=X c #FCCCB0",
"-X c #FCC4A4",
";X c #FCBC9C",
":X c #FCB890",
">X c #FCB080",
",X c #FCA470",
"<X c #FC9C60",
"1X c #F0945C",
"2X c #E88C58",
"3X c #DC8854",
"4X c #D08050",
"5X c #C87C4C",
"6X c #BC7848",
"7X c #B47044",
"8X c #A86840",
"9X c #A0643C",
"0X c #9C6038",
"qX c #905C34",
"wX c #885830",
"eX c #80502C",
"rX c #744C28",
"tX c #6C4824",
"yX c #5C4020",
"uX c #543C1C",
"iX c #483818",
"pX c #403018",
"aX c #382C14",
"sX c #28200C",
"dX c #600064",
"fX c #006464",
"gX c #006060",
"hX c #00001C",
"jX c #00002C",
"kX c #302410",
"lX c #480048",
"zX c #500050",
"xX c #000034",
"cX c gray11",
"vX c #4C4C4C",
"bX c gray36",
"nX c gray25",
"mX c gray19",
"MX c #343434",
"NX c #D8F4F4",
"BX c #B8E8E8",
"VX c #9CDCDC",
"CX c #74C8C8",
"ZX c #48C0C0",
"AX c #20B4B4",
"SX c #20B0B0",
"DX c #00A4A4",
"FX c #009898",
"GX c #008C8C",
"HX c #008484",
"JX c #007C7C",
"KX c #007878",
"LX c #007474",
"PX c #007070",
"IX c #006C6C",
"UX c #980088",
/* pixels */
"uX1X6X6X6X6X6X6X6X3X3X1X1X1X1X1X1X1X3X3X3X1X1X3X3X3X3X3X1X1X1X6X7X,X3X3X3X3X3X3X3X3X3X3X3X3X3X3X6X6X6X6X6X6X6X3X3X3X3X3X6X6X6X7X",
"yX6XtXrXrXrXeXeXeXwXqX0X0X0X0X0X0XqX9X8X6X3X3X4X5X3X4X5X6X7X8XrXuX4X8X8X8X8X8X8X8X7X7X7X7X7X7X8X9X9X0X0X9X8X7X7X8X9XqXwXeXeXeXyX",
"yX6XrXrXrXeXeXeXeXeXeXeXeXeXeXeXrXeXwX8X6X3X3X6X6X4X3X5X6X8X9XrXuX4X8X8X7X7X7X6X5X5X4X3X4X4X4X5X6X6X6X6X6X4X5X7X9XqXwXwXwXwXwXyX",
"yX6XrXrXrXrXeXeXeXrXrXrXrXrXrXrXeXwX0X8X7X7X8X0X9X7X6X5X6X7X8XrXyX3X5X5X4X3X4X4X3X3X3X2X3X3X3X3X3X2X3X4X4X4X6X9X0X0X0X0X0X0XqXyX",
"yX6XeXeXeXrXrXrXeXeXrXrXeXeXeXwX0X7X6X7X8X0XqXqX0X8X7X6X5X5X6XwXyX1X3X3X3X2X3X3X3X3X3X3X3X3X3X4X3X2X4X6X7X7X9X0X0X9X8X8X9X0XqXyX",
"uX6XeXeXeXeXeXeXeXeXeXeXwXqX9X8X6X4X4X7X9X0X0X9X8X8X8X7X6X4X4XqXtX1X3X3X3X3X3X3X3X3X4X5X6X6X6X7X6X5X6X7X9X0X0XqX0X9X8X9X0XqXqXyX",
"uX6XeXeXeXeXeXeXwXwXwX0X8X7X7X7X7X6X7X9X0X0X9X8X8X8X7X7X7X6X5XqXtX1X3X3X4X5X6X4X4X5X7X7X8X8X8X8X8X7X6X7X9XqXqXqX0X0X0XqXqXqXqXtX",
"uX6XeXeXeXeXeXeXwXqX0X7X6X6X7X8X9X0X0XqXqX0X9X8X8X8X7X7X7X7X7XwXyX1X4X5X7X7X8X4X5X7X8X8X8X8X8X8X8X7X6X7X9XqXwXqXqXqXqXwXwXwXwXtX",
"uX6XrXrXrXeXeXeXwX0X8X7X7X8X9X0XqXwXwXwXqX0X0X8X8X8X8X7X7X7X7XeXyX1X5X7X8X8X8X5X7X8X8X8X8X8X8X9X0X9X7X7X8XqXwXqXqXwXeXeXeXeXwXtX",
"uX6XrXrXrXrXrXeXqX8X7X8X0XqXqXwXwXwXwXwXqX0X0X9X8X8X8X8X8X7X7XeXtX3X7X8X8X8X8X5X7X8X8X8X8X8X9X0XqX0X8X7X7X0XqXwXwXeXeXeXrXeXeXtX",
"yX6XrXrXrXeXeXqX9X8X8XqXwXeXwXwXwXwXwXqXqX0X9X9X8X8X8X8X8X7X7XeXyX3X7X7X7X4X3X5X7X8X8X8X8X9X0XqXqXqX0X7X7X8X0XwXeXeXeXrXrXeXeXyX",
"yX6XeXeXqX0X9X8X8X9XqXwXeXeXeXeXwXwXqXqX0X9X9X9X8X8X8X8X8X7X7XeXyX3X6X6X4X2X1X5X7X8X8X9X0XqXqXqXqXqXqX9X7X7X8X0XwXeXeXeXeXeXwXyX",
"yX6XwX0X8X7X6X6X8XqXeXeXeXeXeXeXwXqXqX0X9X9X8X8X8X8X8X8X8X8X8XeXyX3X5X3X1X1X2X6X8X8X9XqXwXwXeXwXwXwXqX0X9X8X8X8X8X0XwXwXwXwXwXyX",
"tX3X8X8X8X8X6X6X8XeXeXeXeXeXeXeXwXqX0X0X9X9X8X8X8X8X8X8X8X7X7XwXtX3X4X4X2X2X5X7X8X9XqXwXeXeXeXeXeXwXqXqX0X8X7X5X6X8X0X0X0X0XqXtX",
"tX1X8X0XwXqX8X7X0XeXrXeXeXwXwXwXwXqXqX0X0X0X9X8X8X8X7X7X6X6X5XqXyX3X6X6X6X7X8X9X0XqXwXeXeXeXeXeXwXwXwXqX0X8X6X4X6X8X9X0X0X0X0XtX",
"tX3XqXeXeXqX8X8XwXrXrXrXeXwXwXwXwXwXqX0XqX0X0X8X8X7X6X5X5X6X6XwXyX3X7X7X7X9X0XqXqXwXwXeXeXeXeXwXwXeXwX0X8X7X6X7X8X9X0XqXqX0X9XrX",
"yX6XrXrXeX0X7X0XeXtXrXrXeXwXwXqXqX0X0XqXqX0X9X8X7X6X6X6X7X8X8XrXyX3X7X7X9XqXwXwXwXwXwXeXwXwXwXwXwXqX0X8X7X7X8X0XqXqXqXwXwXqX0XtX",
"yX6XtXrXeX9X7X0XrXtXrXeXwXqX0X8X7X7X8X9X9X8X7X7X7X7X8X0X0X0X8XeXyX3X7X8X0XwXwXwXwXwXwXwXqXqX0X9X8X8X7X7X7X8X0XwXwXqXqXqXqXqX0XtX",
"yX6XtXrXwX8X7XqXrXtXrXwX9X7X7X6X6X6X7X7X7X7X7X8X0XqXqXqXqX9X7XwXyX3X8X9XqXwXwXwXwXwX0X9X8X8X8X7X6X6X6X7X9XqXwXwXqX0X0X0XqXqX0XrX",
"yX6XtXeX0X6X7XqXrXrXwX9X7X6X7X7X8X8X8X7X7X8XqXwXeXeXwX0X8X7X6XeXuX4X9X0XqXqXqXqXqX0X8X7X7X7X7X7X6X7X8X0XwXwXwXwXqX0X0X0XqX0X7XeX",
"uX6XtXeX9X6X8XwXeXwX9X7X7X8X9XqXwXwXqX0XqXwXeXeXeXwX9X7X6X6X7XrXuX4X0X0X0X9X8X8X8X8X8X8X9X8X8X8X8X0XqXwXwXwXwXqXqX0X0X0X0X8X5XwX",
"uX6XtXeX9X7X9XwXwX9X7X8X0XwXeXeXrXrXeXeXeXeXeXeXqX9X7X7X7X7X8XtXuX4X9X8X7X7X7X7X7X8X0XwXwXqX0X0X0XqXqXwXqXqXqX0X0X0X0X9X7X5X4XeX",
"uX6XrXwX8X7X9X0X9X7X8X0XeXrXrXyXtXrXrXeXeXeXwX0X8X7X7X7X8X9X0XtXuX4X7X6X6X7X8X8X9XqXwXeXwXqX0X0X0XqXqXqX0X9X9X9X0X0X9X6X3X3X6XtX",
"uX6XeX9X7X8X8X8X7X8X0XeXrXtXyXyXtXeXeXwXqX0X8X7X7X7X8X8X9X9X0XtXuX3X7X7X8X9XqXwXwXwXeXwXwXqXqXqX0X0X0X9X8X8X8X8X0X0X7X4X3X6X9XyX",
"yX6X9X7X6X7X7X7X8X0XeXrXtXyXyXtXeX0X9X8X8X7X7X6X7X8X8X8X8X8X8XrXyX3X8X0XwXwXwXwXwXwXwXwXqXqXqX0X0X9X8X8X8X8X8X8X0X0X7X4X6X0XeXyX",
"yX3X7X6X6X6X7X8X0XwXeXrXtXtXrXeX0X7X7X7X7X7X7X8X8X9X8X8X7X6X6XwXyX4X0XeXeXeXwXwXwXeXwXwXqXqX0X0X9X8X8X8X8X8X8X8X0X9X7X6X9XwXwXtX",
"yX1X7X7X6X7X8X0XwXeXeXrXrXeXwX9X7X8X8X8X8X8X8X8X8X8X7X7X6X5X5XeXuX6XeXeXeXwXwXwXeXeXeXwXqX0X9X8X8X8X8X8X8X8X8X9X0X8X7X7X9X0X8XeX",
"tX1X7X7X7X8XqXwXeXeXeXeXwX0X8X7X8X0XqX0X8X7X6X6X6X6X6X6X7X7X8XtXiX6XeXeXeXwXeXeXeXeXeXwXqX9X8X8X8X8X8X8X8X8X8X0X0X7X5X5X7X7X7XeX",
"tX,X7X7X9XqXeXeXeXwXwX0X8X7X6X7X8X0X0X8X7X5X4X4X6X7X7X8X0XqXwXyXiX7XeXeXwXwXeXeXeXeXwXqX0X9X8X8X8X8X8X8X8X8X8X8X8X6X4X4X6X7X8XtX",
"eX,X7X8XqXeXeXwXwXqX0X8X6X6X6X7X8X8X7X7X7X7X7X7X8X9X0XqXwXeXwXyXiX6XeXwXqXwXeXwXwXqX0X0X8X8X8X8X8X8X8X8X8X7X7X7X7X6X6X7X8X0XqXyX",
"eX,X8XqXwXeXeXqX0X9X8X7X5X6X7X7X7X7X7X8X0X0X0X0XqXqXqXqXwXqXqXtXuX6XqXqXqXqXqX0X9X8X8X8X8X8X8X8X8X8X8X7X7X6X5X6X7X8X0XqXqXwXwXyX",
"yX6XtXyXyXyXyXtXtXrXrXwXwXwXwXeXeXrXtXtXyXyXyXyXyXyXtXtXtXtXtXuXpX7XtXtXtXtXrXrXrXeXeXeXrXrXrXrXrXeXwXwXqXqXqXeXrXtXtXyXyXyXyXiX",
"yX7XuXiXiXiXiXuXuXuXuXyXyXyXyXyXyXuXuXuXiXiXiXiXiXiXuXuXuXuXuXpXaX8XuXuXuXuXuXuXuXyXyXyXuXuXuXuXuXyXyXyXtXtXtXyXuXuXuXiXiXiXiXaX",
"rX1X6X6X6X6X6X6X6X4X3X3X1X1X1X3X4X6X6X6X6X6X6X6X6X6X6X6X4X4X6XwXyX3X6X6X4X4X4X3X3X3X3X3X4X4X4X3X3X3X3X1X1X1X3X4X4X4X6X6X6X6X6XwX",
"yX6XeXeXeXeXeXeXeXwX7X2X1X3X5X8XwXeXeXeXwXwXwXwXwXwXqX0X0XqXqXtXuX6XqX0X9X8X8X7X7X7X7X8X8X8X6X6X4X3X3X3X2X3X7X8X8X9X0XqXwXeXeXyX",
"yX6XeXeXeXeXeXeXeXqX7X3X3X6X8XqXeXeXwXwXwXwXqXqXqX0X0X0XqXwXwXtXuX4X0X0X8X8X8X8X8X8X8X8X8X7X4X3X3X3X3X3X3X3X7X7X8X8X9X0XqXwXwXtX",
"yX6XrXeXeXeXeXwX0X8X7X7X7X0XqXwXwXwXwXwXwXwXqX0X0X9X0XqXwXwXqXtXuX4X0X9X9X9X9X0X0X0X0X8X7X5X4X3X3X3X3X4X5X6X7X7X7X7X7X6X7X8X8XrX",
"yX6XrXeXeXwX0X8X7X7X8X9X0XqXqXqXqXqXwXwXwXwXqX0X9X9X0XqXwXqX0XtXuX4X0X0XqXqXqXqXqXqX9X7X6X5X6X6X4X4X5X7X7X8X7X7X7X5X4X4X4X5X6XeX",
"yX6XeXwX0X8X7X7X7X8X0X0X0X9X0X0XqXqXwXwXwXqX0X0X0XqXwXwXqX0X0XtXuX6XqXqXwXwXwXwXwX0X7X6X6X7X7X6X4X5X7X8X8X8X7X7X5X4X5X6X6X7X7XrX",
"yX6XwX9X7X7X7X8X9X0X0X0X9X8X9X0XqXqXqXqX0X0X0XqXwXwXwXwXqXqXqXtXiX6XwXeXeXeXeXeXqX8X6X7X7X8X8X4X5X7X8X8X8X8X7X5X5X6X7X8X9X0XqXyX",
"yX6X9X7X7X8X0X0XqX0X0X0X0X0X0XqXwXwXwXqX0X0X0XqXqXwXqX0X0XqXqXyXiX6XeXeXeXeXeXwX9X6X6X7X8X8X7X6X5X5X5X5X5X5X5X5X6X7X8X0XqXwXeXuX",
"yX3X8X8X0XwXwXqXqX0X0XqXqXqXwXwXeXeXeXeXwX0X9X8X8X8X7X7X7X8X0XtXiX6XwXwXeXeXqX9X6X5X6X8X8X7X6X4X4X4X4X3X3X4X5X6X7X8X0XqXwXeXrXuX",
"tX1X9XqXeXeXwXqXqXqXqXwXwXwXeXeXeXeXeXeXqX8X7X7X7X6X5X5X6X7X7XrXuX4X8X8X8X8X7X6X4X4X7X8X7X6X4X5X6X7X7X6X6X6X7X7X8X8X0XqXwXeXeXuX",
"tX3XwXeXeXwXqXqXqXqXwXwXwXeXeXeXeXeXwX0X8X8X8X8X8X8X7X7X8X8X7XeXyX3X7X7X5X4X5X5X4X4X5X5X4X3X4X6X7X8X8X8X8X7X7X7X7X7X8X8X8X9X0XtX",
"yX6XeXeXwXqX0XqXqXqXwXwXqXqXwXwXqX0X8X8X8X9XqXwXwXwXwXwXwXqX0XtXuX4X8X7X6X5X6X6X6X6X3X2X2X3X5X6X6X6X6X7X7X6X6X5X6X7X7X7X7X7X7XrX",
"yX6XeXwXqX0X0X0XqXqXqX0X8X8X8X8X8X8X8X9XqXwXeXeXrXrXrXrXrXeXeXyXiX6X0X8X7X8X0X0X8X7X5X3X4X6X6X5X5X5X5X6X6X7X8X8X8X8X9X0X0X0XqXtX",
"yX6XwXqX0X9X9X0X0X9X8X7X7X7X7X7X7X8XqXwXeXrXrXrXrXtXtXtXtXrXrXuXiX6X0X8X9XqXwXwX0X8X6X6X8X9X8X7X7X7X7X8X9X0X0XqXqXwXwXwXeXeXeXyX",
"yX6XqX9X8X8X9X9X8X7X6X7X7X8X9X9X0XwXeXrXrXtXrXtXyXyXyXyXyXtXrXuXiX4X8X8X0X0X0X8X7X5X6X8XqXwXwXqX0X0XqXqX0X9X9X8X9X9X0X0XqXqXqXtX",
"yX6X9X8X8X8X8X7X7X6X7X8XqXwXeXeXeXrXrXtXtXtXtXyXyXyXyXyXyXrXeXyXuX3X7X7X8X7X7X6X4X5X7XqXeXeXeXeXwXwXqX9X8X7X7X7X7X7X8X8X8X8X7XrX",
"yX3X8X8X7X7X6X5X6X7X9XqXeXeXrXrXtXtXtXtXyXyXyXyXyXtXeXeXeXwX0XeXtX3X6X7X7X7X8X7X7X7X9XqXeXeXeXwXwX0X8X7X7X8X9X9X0X0XqXqXqX0X8XtX",
"tX3X8X7X6X5X4X5X7X8X0XwXeXeXrXrXtXtXyXyXyXyXyXyXtXwX8X7X7X6X5XqXtX3X7X8X9X0X0X9X8X7X7X7X8X9X0X8X7X7X7X8X0XqXwXeXeXrXrXrXrXrXeXyX",
"tX3X7X5X4X4X5X7X8X8X0XqXwXeXrXtXyXyXyXyXyXyXtXrXwX7X3X,X,X1X3XwXyX4X0X0X0X9X8X8X6X3X3X4X6X7X7X6X3X3X7X0XwXeXeXeXeXrXtXyXyXyXrXuX",
"tX1X5X4X5X6X7X7X8X8X0XqXwXeXrXtXyXyXyXyXtXwX0X8X7X5X2X,X,X2X6XrXuX4X9X8X7X7X7X6X4X2X3X6X7X9X0X7X4X3X7X9XqXwXeXeXeXeXrXrXrXrXrXyX",
"tX1X5X6X7X7X7X7X8X8X9XqXwXeXrXtXyXyXyXrXeX8X4X3X5X6X5X4X5X5X6XeXuX3X7X6X6X7X7X7X6X6X8X0XwXeXeXwX9X7X7X7X8X9XqXwXeXeXeXeXeXeXeXyX",
"tX1X7X7X8X7X7X7X8X8X0XqXwXeXeXrXrXwXwXqX8X6X3X3X5X6X7X7X6X6X5XqXtX3X6X7X8X8X8X8X7X9XwXeXeXeXeXeXwX0X8X7X7X7X9XqXqXqXqXqXwXwXwXyX",
"tX3X8X9X8X8X8X8X8X9X0XqXqXqX0X0X0X9X8X8X7X7X7X7X8X8X8X8X8X8X7XeXyX3X8X0XqX0X8X8X9XwXeXeXeXeXeXeXeXeXwXqX0X8X8X8X8X8X8X8X9X0X0XtX",
"yX6XqXqX0X0X0X0X9X9X9X9X8X8X7X8X9X0XqX0X0XqXqXwXqXqXqXqXqX0X0XtXuX6XwXwXqX9X8X9XwXeXrXrXeXeXeXeXeXeXeXeXeXwX9X7X7X7X7X7X7X8X9XtX",
"yX6XwXwXwXqXqX0X9X8X7X6X6X7X8XqXwXeXeXeXeXeXeXwXqXqXqXqXqXwXwXyXiX6XeXwX0X8XqXeXrXrXrXrXeXeXeXeXeXeXrXrXrXeXwX0X9X8X8X8X7X7X8XtX",
"yX6XwXwXqX0X9X8X7X7X7X6X6X8XwXeXeXeXeXeXeXwXwXqXqX0XqXqXwXwXeXyXiX6XeX0X0XwXrXyXyXtXrXrXrXeXeXeXeXeXeXrXrXeXeXeXwXwXwXqX8X7X7XrX",
"yX6X0X8X8X8X7X7X7X8X9X8X9XqXeXeXeXwXwXwXwXwXqXqXqXqXqXwXeXeXeXyXiX6X0X0XwXrXyXyXtXtXrXrXrXrXeXeXeXeXeXeXeXeXeXeXeXeXeXeXwX0X8XeX",
"yX3X8X8X8X9X0XqXwXeXeXeXwXwXwXwXwXqXqXqXqXwXwXwXwXeXeXeXwXeXeXyXuX4X9XqXeXrXrXrXrXrXrXrXrXrXeXeXeXeXeXeXeXeXeXeXeXeXeXeXeXeXwXtX",
"tX3XqXwXeXeXrXrXrXtXrXeXeXwXqX0X0X0X0XqXqXqXwXwXwXeXeXqX0X9X9XrXuX4X0XeXeXeXeXeXeXeXrXrXrXrXrXeXeXeXeXeXeXeXeXeXeXrXrXrXrXrXrXyX",
"tX3XqXwXeXeXrXrXrXtXrXeXeXwXqX0X0X0X0XqXqXqXwXwXwXeXeXqX0X9X9XrXuX4X0XeXeXeXeXeXeXeXrXrXrXrXrXeXeXeXeXeXeXeXeXeXeXrXrXrXrXrXrXyX",
"yX6XyXuXuXuXuXuXyXyXtXrXeXqX9X8X8X8X8X8X8X8X8X9X9X0X9X8X8X7X7XrXuX6XeXeXrXeXeXeXeXeXrXrXrXtXrXrXrXrXrXrXrXrXrXrXrXrXrXrXrXtXyXiX"
};
