/* XPM */
static char *Wall_0921647953498[] = {
/* columns rows colors chars-per-pixel */
"64 64 256 2 ",
"   c black",
".  c #0000A8",
"X  c #00A800",
"o  c #00A8A8",
"O  c #A80000",
"+  c #A800A8",
"@  c #A85400",
"#  c gray66",
"$  c gray33",
"%  c #5454FC",
"&  c #54FC54",
"*  c #54FCFC",
"=  c #FC5454",
"-  c #FC54FC",
";  c #FCFC54",
":  c gray99",
">  c #ECECEC",
",  c gainsboro",
"<  c #D0D0D0",
"1  c #C0C0C0",
"2  c #B4B4B4",
"3  c gray66",
"4  c #989898",
"5  c gray55",
"6  c #7C7C7C",
"7  c gray44",
"8  c #646464",
"9  c gray33",
"0  c #484848",
"q  c gray22",
"w  c #2C2C2C",
"e  c #202020",
"r  c #FC0000",
"t  c #EC0000",
"y  c #E00000",
"u  c #D40000",
"i  c #C80000",
"p  c #BC0000",
"a  c #B00000",
"s  c #A40000",
"d  c #980000",
"f  c #880000",
"g  c #7C0000",
"h  c #700000",
"j  c #640000",
"k  c #580000",
"l  c #4C0000",
"z  c #400000",
"x  c #FCD8D8",
"c  c #FCB8B8",
"v  c #FC9C9C",
"b  c #FC7C7C",
"n  c #FC5C5C",
"m  c #FC4040",
"M  c #FC2020",
"N  c #FC0000",
"B  c #FCA85C",
"V  c #FC9840",
"C  c #FC8820",
"Z  c #FC7800",
"A  c #E46C00",
"S  c #CC6000",
"D  c #B45400",
"F  c #9C4C00",
"G  c #FCFCD8",
"H  c #FCFCB8",
"J  c #FCFC9C",
"K  c #FCFC7C",
"L  c #FCF85C",
"P  c #FCF440",
"I  c #FCF420",
"U  c #FCF400",
"Y  c #E4D800",
"T  c #CCC400",
"R  c #B4AC00",
"E  c #9C9C00",
"W  c #848400",
"Q  c #706C00",
"!  c #585400",
"~  c #404000",
"^  c #D0FC5C",
"/  c #C4FC40",
"(  c #B4FC20",
")  c #A0FC00",
"_  c #90E400",
"`  c #80CC00",
"'  c #74B400",
"]  c #609C00",
"[  c #D8FCD8",
"{  c #BCFCB8",
"}  c #9CFC9C",
"|  c #80FC7C",
" . c #60FC5C",
".. c #40FC40",
"X. c #20FC20",
"o. c #00FC00",
"O. c #00FC00",
"+. c #00EC00",
"@. c #00E000",
"#. c #00D400",
"$. c #04C800",
"%. c #04BC00",
"&. c #04B000",
"*. c #04A400",
"=. c #049800",
"-. c #048800",
";. c #047C00",
":. c #047000",
">. c #046400",
",. c #045800",
"<. c #044C00",
"1. c #044000",
"2. c #D8FCFC",
"3. c #B8FCFC",
"4. c #9CFCFC",
"5. c #7CFCF8",
"6. c #5CFCFC",
"7. c #40FCFC",
"8. c #20FCFC",
"9. c #00FCFC",
"0. c #00E4E4",
"q. c #00CCCC",
"w. c #00B4B4",
"e. c #009C9C",
"r. c #008484",
"t. c #007070",
"y. c #005858",
"u. c #004040",
"i. c #5CBCFC",
"p. c #40B0FC",
"a. c #20A8FC",
"s. c #009CFC",
"d. c #008CE4",
"f. c #007CCC",
"g. c #006CB4",
"h. c #005C9C",
"j. c #D8D8FC",
"k. c #B8BCFC",
"l. c #9C9CFC",
"z. c #7C80FC",
"x. c #5C60FC",
"c. c #4040FC",
"v. c #2024FC",
"b. c #0004FC",
"n. c #0000FC",
"m. c #0000EC",
"M. c #0000E0",
"N. c #0000D4",
"B. c #0000C8",
"V. c #0000BC",
"C. c #0000B0",
"Z. c #0000A4",
"A. c #000098",
"S. c #000088",
"D. c #00007C",
"F. c #000070",
"G. c #000064",
"H. c #000058",
"J. c #00004C",
"K. c #000040",
"L. c #282828",
"P. c #FCE034",
"I. c #FCD424",
"U. c #FCCC18",
"Y. c #FCC008",
"T. c #FCB400",
"R. c #B420FC",
"E. c #A800FC",
"W. c #9800E4",
"Q. c #8000CC",
"!. c #7400B4",
"~. c #60009C",
"^. c #500084",
"/. c #440070",
"(. c #340058",
"). c #280040",
"_. c #FCD8FC",
"`. c #FCB8FC",
"'. c #FC9CFC",
"]. c #FC7CFC",
"[. c #FC5CFC",
"{. c #FC40FC",
"}. c #FC20FC",
"|. c #FC00FC",
" X c #E000E4",
".X c #C800CC",
"XX c #B400B4",
"oX c #9C009C",
"OX c #840084",
"+X c #6C0070",
"@X c #580058",
"#X c #400040",
"$X c #FCE8DC",
"%X c #FCE0D0",
"&X c #FCD8C4",
"*X c #FCD4BC",
"=X c #FCCCB0",
"-X c #FCC4A4",
";X c #FCBC9C",
":X c #FCB890",
">X c #FCB080",
",X c #FCA470",
"<X c #FC9C60",
"1X c #F0945C",
"2X c #E88C58",
"3X c #DC8854",
"4X c #D08050",
"5X c #C87C4C",
"6X c #BC7848",
"7X c #B47044",
"8X c #A86840",
"9X c #A0643C",
"0X c #9C6038",
"qX c #905C34",
"wX c #885830",
"eX c #80502C",
"rX c #744C28",
"tX c #6C4824",
"yX c #5C4020",
"uX c #543C1C",
"iX c #483818",
"pX c #403018",
"aX c #382C14",
"sX c #28200C",
"dX c #600064",
"fX c #006464",
"gX c #006060",
"hX c #00001C",
"jX c #00002C",
"kX c #302410",
"lX c #480048",
"zX c #500050",
"xX c #000034",
"cX c gray11",
"vX c #4C4C4C",
"bX c gray36",
"nX c gray25",
"mX c gray19",
"MX c #343434",
"NX c #D8F4F4",
"BX c #B8E8E8",
"VX c #9CDCDC",
"CX c #74C8C8",
"ZX c #48C0C0",
"AX c #20B4B4",
"SX c #20B0B0",
"DX c #00A4A4",
"FX c #009898",
"GX c #008C8C",
"HX c #008484",
"JX c #007C7C",
"KX c #007878",
"LX c #007474",
"PX c #007070",
"IX c #006C6C",
"UX c #980088",
/* pixels */
"uX1X6X6X6X6X6X6X6X3X3X1X1X1X1X1X1X1X3X3X3X1X1X3X3X3X3X3X1X1X1X6X7X,X3X3X3X3X3X3X3X3X3X3X3X3X3X3X6X6X6X6X6X6X6X3X3X3X3X3X6X6X6X7X",
"yX6XtXrXrXrXeXeXeXwXqX0X0X0X0X0X0XqX9X8X6X3X3X4X5X3X4X5X6X7X8XrXuX4X8X8X8X8X8X8X8X7X7X7X7X7X7X8X9X9X0X0X9X8X7X7X8X9XqXwXeXeXeXyX",
"yX6XrXrXrXeXeXU eXeXeXeXeXeXeXeXrXeXwX8X6X3X3X6X6X4X3X5X6X8X9XrXuX4X8X8X7X7X7X6X5X5X4X3X4X4X4X5X6X6X6X6X6X4X5X7X9XU wXwXwXwXwXyX",
"yX6XrXrXrXrXB G eXrXrXrXrXrXrXrXeXwX0X8X7X7X8X0X9X7X6X5X6X7X8XrXyX3X5X5X4X3X4X4X3X3X3X2X3X3X3X3X3X2X3X4X4X4X6X9X0XG B 0X0X0XqXyX",
"yX6XeXeXB U G G C U U U 9 6 9 U U U U U U U U U U U U U U U U U U U U U U U U U U U U U U U U U U U U 8 6 U U U G G U U B 0XqXyX",
"uX6XeXeXS S S U F F F F # 9 q 0 q F F F F F F F F F F F F F F F F F F F F F F F F F F F F F F F F q w   0 0XF F F B S S S qXqXyX",
"uX6XeXeXeXyXyXC yXyXyXrXrXO N a 0 q   rXrXrXrXrXrXrXeXeXeXwXqXtXuX8X0X0XqXqXwXqXqXqXeXeXrXrXrX  w q j a pXuXtXtXrXF yXtXqXqXqXtX",
"uX6XeXeXeXeXeXeXwXqX0X7X6XN N y y a d g g 0X9X8X8X8X7X7X7X7X7XwXyX1X4X5X7X7X8X4X5X7X8X8X8X8Xh a a a p a uXtXwXqXqXqXqXwXwXwXwXtX",
"uX6XrXrXrXeXeXeXwX0X8X7X7XN N y y u i p a O O a p u r : 0 : r u p O 2   4 O f d a i u t M M N N y u p a uXtXwXqXqXwXeXeXeXeXwXtX",
"uX6XrXrXrXrXrXeXqX8X7X8X0XN N y y u i p a O O a p u r : 0 : r u p O 2   4 O f d a i u t M M N N y u p a yXrXqXwXwXeXeXeXrXeXeXtX",
"yX6XrXrXrXeXeXqX9X8X8XqXwXN N y y u i p a O O a p u r : 0 : r u p O 2   4 O f d a i u t M M N N y u p a yXrX0XwXeXeXeXrXrXeXeXyX",
"yX6XeXeXqX0X9X8X8X9XqXwXeXN N y y u i p a O O a p u r : 0 : r u p O 2   4 O f d a i u t M M N N y u p a yXeX8X0XwXeXeXeXeXeXwXyX",
"yX6XwX0X8X7X6X6X8XqXeXeXeXN N y y u i p a O O a p u r : 0 : r u p O 2   4 O f d a i u t M M N N y u p a uXrX8X8X8X0XwXwXwXwXwXyX",
"tX3X8X8X8X8X6X6X8XeXeXeXeXN N y y u i p a O O a p u r : 0 : r u p O 2   4 O f d a i u t M M N N y u p a uXrX7X5X6X8X0X0X0X0XqXtX",
"tX1X8X0XwXqX8X7X0XeXrXeXeXN N y y u i p a O O a p u r : 0 : r u p O 2   4 O f d a i u t M M N N y u p a uXrX6X4X6X8X9X0X0X0X0XtX",
"tX3XqXeXeXqX8X8XwXrXrXrXeXN N y y u i p a O O a p u r : 0 : r u p O 2   4 O f d a i u t M M N N y u p a uXeX6X7X8X9X0XqXqX0X9XrX",
"yX6XrXrXeX0X7X0XeXtXrXrXeXN N y y u i p a O O a p u n : 0 : r u p O 2   4 O f d a i u t M M N N y u p a yXeX8X0XqXqXqXwXwXqX0XtX",
"yX6XtXrXeX9X7X0XrXtXrXeXwXN N y y u i p a O O a p n : : 0 : > > , < 2   4 4 8 d a i u t M M N N y u p a yXrX0XwXwXqXqXqXqXqX0XtX",
"yX6XtXrXwX8X7XqXrXtXrXwX9XN N y y u i p a O O a 7 , : 9 0 : > > , < 2 3     6 7 0 i u t M M N N y u p a uXtXwXwXqX0X0X0XqXqX0XrX",
"yX6XtXeX0X6X7XqXrXrXwX9X7XN N y y u i p a O O 7 1 w 0 : 4 0 q q w e e   4 4     4 7 u t M M N N y u p a iXyXwXwXqX0X0X0XqX0X7XeX",
"uX6XtXeX9X6X8XwXeXwX9X7X7XN N y y u i p a O 7 1 w 7 : 9 0 : > > , < 2 3     6 7   3 7 t M M N N y u p a iXyXwXqXqX0X0X0X0X8X5XwX",
"uX6XtXeX9X7X9XwXwX9X7X8X0XN N y y u i p a O 2   7 , 0 : : $ q q 5 < 2 3 4 7   7 7   2 t M M N N y u p a uXtXqX0X0X0X0X9X7X5X4XeX",
"uX6XrXwX8X7X9X0X9X7X8X0XeXN N y y u i p a 3   7 1 w : : 5 0 q q $ < 2 3 4 4 6   4 7   < M M N N y u p a uXrX9X9X0X0X9X6X3X3X6XtX",
"uX6XeX9X7X8X8X8X7X8X0XeXrXN N y y u i p 8 3   1 w , : 5 0 0 q $ 5 < 2 $   w 6 7   3   < 4 M N N y u p a uXrX8X8X0X0X7X4X3X6X9XyX",
"yX6X9X7X6X7X7X7X8X0XeXrXtXN N y y u i p 5   2   1 , 5 9 0 0 $ 5 , < $       w 7 4   2   > M N N t u p a uXrX8X8X0X0X7X4X6X0XeXyX",
"yX3X7X6X6X6X7X8X0XwXeXrXtX: : : < 2 4 5 5   2   1 3 0 9 0 0 $ 5 , $ e         w 4   7   > > > , < 3 5 7 uXrX8X8X0X9X7X6X9XwXwXtX",
"yX1X7X7X6X7X8X0XwXeXeXrXrX    q q q       3   1 1 , 5 9 0 0 q $ $ e e           w 7   < 0 8 9 9 w       uXrX8X9X0X8X7X7X9X0X8XeX",
"tX1X7X7X7X8XqXwXeXeXeXeXwX: : : < 2 4 5 5 3   1 1 , : 5 0 0 q q w e e   w         3   < > > > , < 3 5 7 uXrX8X0X0X7X5X5X7X7X7XeX",
"tX,X7X7X9XqXeXeXeXwXwX0X8XN N y y u i p 5 3   1 1 , : : 5 0 q q w e e w 4 w       3   < > M N N y i p a uXrX8X8X8X6X4X4X6X7X8XtX",
"eX,X7X8XqXeXeXwXwXqX0X8X6XN N y y u i p 5 3   1 w 5 : : : $ q q w e w 8 4 4 w w w 3   < > M N N y i p a uXeX7X7X7X6X6X7X8X0XqXyX",
"eX,X8XqXwXeXeXqX0X9X8X7X5XN N y y u i p 5 3   1 w w 5 : 5 0 q q w e e   8 4 6 7 4 3   < > M N N y i p a yXwX5X6X7X8X0XqXqXwXwXyX",
"yX6XtXyXyXyXyXtXtXrXrXwXwX: : : < 2 4 5 5 3   1 w w 0 $ 0 0 q q $ e e     8 6 7 4 3   < > > > , < 3 5 7 uXtXqXeXrXtXtXyXyXyXyXiX",
"yX7XuXiXiXiXiXuXuXuXuXyXyX    q q q       3   1 $ w 0 9 0 0 q 5 , $ e       6 7 4 7   < 0 8 9 9 w       pXuXtXyXuXuXuXiXiXiXiXaX",
"rX1X6X6X6X6X6X6X6X4X3X3X1X: : : < 2 5 5 5   7   1 $ 0 9 0 0 5 > , < $         7 4   2   > > > , < 3 5 7 rX8X3X4X4X4X6X6X6X6X6XwX",
"yX6XeXeXeXeXeXeXeXwX7X2X1XN N y y u i p 5   2   1 , 5 9 0 5 > > , < $         7 4   2   > M N N y u p a rX0X7X8X8X9X0XqXwXeXeXyX",
"yX6XeXeXeXeXeXeXeXqX7X3X3XN N y y u i p a 3   1 w , : : : : > > , $ e       6 7   3   < 5 M N N y u p a rX0X7X7X8X8X9X0XqXwXwXtX",
"yX6XrXeXeXeXeXwX0X8X7X7X7XN N y y u i p a 3   1 1 w : : : : > > , e e     4 6   4 7   > M M N N y u p a tXwX7X7X7X7X7X6X7X8X8XrX",
"yX6XrXeXeXwX0X8X7X7X8X9X0XN N y y u i p a O 2   1 , 0 : : : > > , $ e   4 0   7 7   2 7 M M N N y u p a yXrX7X7X7X5X4X4X4X5X6XeX",
"yX6XeXwX0X8X7X7X7X8X0X0X0XN N y y u i p a O n 1 w , : 9 0 : > > , < 2 3     6 0   3 5 t M M N N y u p a uXrX7X7X5X4X5X6X6X7X7XrX",
"yX6XwX9X7X7X7X8X9X0X0X0X9XN N y y u i p a O O n 1 w 0 : : 0 q q w e e   4 4     4 5 u t M M N N y u p a uXrX7X5X5X6X7X8X9X0XqXyX",
"yX6X9X7X7X8X0X0XqX0X0X0X0XN N y y u i p a O O a n , 3 9 0 : > > , < 2 7     6 7 7 i u t M M N N y u p a tXqX5X5X6X7X8X0XqXwXeXuX",
"yX3X8X8X0XwXwXqXqX0X0XqXqXN N y y u i p a O O a p u 4 : 0 : > > , < 2   4 4 8 d a i u t M M N N y u p a rXqX5X6X7X8X0XqXwXeXrXuX",
"tX1X9XqXeXeXwXqXqXqXqXwXwXN N y y u i p a O O a p u r : 0 : r u p O 2   4 O f d a i u t M M N N y u p a yXwX7X7X8X8X0XqXwXeXeXuX",
"tX3XwXeXeXwXqXqXqXqXwXwXwXN N y y u i p a O O a p u r : 0 : r u p O 2   4 O f d a i u t M M N N y u p a uXeX7X7X7X7X8X8X8X9X0XtX",
"yX6XeXeXwXqX0XqXqXqXwXwXqXN N y y u i p a O O a p u r : 0 : r u p O 2   4 O f d a i u t M M N N y u p a yXwX6X5X6X7X7X7X7X7X7XrX",
"yX6XeXwXqX0X0X0XqXqXqX0X8XN N y y u i p a O O a p u r : 0 : r u p O 2   4 O f d a i u t M M N N y u p a yXeX8X8X8X8X9X0X0X0XqXtX",
"yX6XwXqX0X9X9X0X0X9X8X7X7XN N y y u i p a O O a p u r : 0 : r u p O 2   4 O f d a i u t M M N N y u p a uXrX0XqXqXwXwXwXeXeXeXyX",
"yX6XqX9X8X8X9X9X8X7X6X7X7XN N y y u i p a O O a p u r : 0 : r u p O 2   4 O f d a i u t M M N N y u p a uXrX9X8X9X9X0X0XqXqXqXtX",
"yX6X9X8X8X8X8X7X7X6X7X8XqXN N y y u i p a O O a p u r : 0 : r u p O 2   4 O f d a i u t M M N N y u p a uXeX7X7X7X7X8X8X8X8X7XrX",
"yX3X8X8X7X7X6X5X6X7X9XqXeXN N y y u i p a O O a p u r : 0 : r u p O 2   4 O f d a i u t M M N N y u p a yXrX9X9X0X0XqXqXqX0X8XtX",
"tX3X8X7X6X5X4X5X7X8X0XwXeXN N y y u i p a O O a p u r : 0 : r u p O 2   4 O f d a i u t M M N N y u p a uXtXwXeXeXrXrXrXrXrXeXyX",
"tX3X7X5X4X4X5X7X8X8X0XqXwXN N y y u i p a O O a p u r : 0 : r u p O 2   4 O f d a i u t M M N N y u p a iXyXeXeXeXrXtXyXyXyXrXuX",
"tX1X5X4X5X6X7X7X8X8X0XqXwXN N y y u i p a O O a p u r : 0 : r u p O 2   4 O f d a i u t M M N N y u p a uXyXeXeXeXeXrXrXrXrXrXyX",
"tX1X5X6X7X7X7X7X8X8X9XqXwXN N y y u i p a O O a p u r : 0 : r u p O 2   4 O f d a i u t M M N N y u p a uXrXqXwXeXeXeXeXeXeXeXyX",
"tX1X7X7X8X7X7X7X8X8X0XqXwXN N y y u i p a O O a p u r : 0 : r u p O 2   4 O f d a i u t M M N N y u p a yXeX9XqXqXqXqXqXwXwXwXyX",
"tX3X8X9X8X8X8X8X8X9X0XqXqXqX0XeXuXuXuXuXuXuXuXuXuXd d 3   3 d d d d 8   8 uXuXuXuXg s u M M N N y u p tXuXrX8X8X8X8X8X8X9X0X0XtX",
"yX6XqXqX0X0X0X0X9X9X9X9X8X8X7X8X9XrXtXrXrXrXrXrXrXrXuXuXuXuXuXpXaXyXiXuXuXuXuXuXuXuXuXuXuXuXuXuXuXuXuXtXrXwX9X7X7X7X7X7X7X8X9XtX",
"yX6XwXwXwXqXqX0X9X8X7X6X6X7X8XqXwXeXeXeXeXeXeXwXqXwXrXrXrXtXyXiXaXwXyXtXeXqXeXrXtXtXtXyXyXyXyXyXtXtXtXrXrXeXwX0X9X8X8X8X7X7X8XtX",
"yX6XwXwXqX0X9X8X7X7X7X6X6X8XwXeXeXeXeXeXeXwXwXqXqX0XqXqXwXwXeXyXiX6XeX0X0XwXrXyXyXtXrXrXrXeXeXeXeXeXeXrXrXeXeXeXwXwXwXqX8X7X7XrX",
"yX6X0X8X8X8X7X7X7X8X9X8X9XqXeXeXeXwXwXwXwXwXqXqXqXqXqXwXeXeXeXyXiX6X0X0XwXrXyXyXtXtXrXrXrXrXeXeXeXeXeXeXeXeXeXeXeXeXeXeXwX0X8XeX",
"yX3X8X8X8X9X0XqXwXeXeXeXwXwXwXwXwXqXqXqXqXwXwXwXwXeXeXeXwXeXeXyXuX4X9XqXeXrXrXrXrXrXrXrXrXrXeXeXeXeXeXeXeXeXeXeXeXeXeXeXeXeXwXtX",
"tX3XqXwXeXeXrXrXrXtXrXeXeXwXqX0X0X0X0XqXqXqXwXwXwXeXeXqX0X9X9XrXuX4X0XeXeXeXeXeXeXeXrXrXrXrXrXeXeXeXeXeXeXeXeXeXeXrXrXrXrXrXrXyX",
"tX3XqXwXeXeXrXrXrXtXrXeXeXwXqX0X0X0X0XqXqXqXwXwXwXeXeXqX0X9X9XrXuX4X0XeXeXeXeXeXeXeXrXrXrXrXrXeXeXeXeXeXeXeXeXeXeXrXrXrXrXrXrXyX",
"yX6XyXuXuXuXuXuXyXyXtXrXeXqX9X8X8X8X8X8X8X8X8X9X9X0X9X8X8X7X7XrXuX6XeXeXrXeXeXeXeXeXrXrXrXtXrXrXrXrXrXrXrXrXrXrXrXrXrXrXrXtXyXiX"
};
