/* XPM */
static char *_f00a25129ca4f9fbfdf9e6000a985a6t0rijx9RzQ28qOkL[] = {
/* columns rows colors chars-per-pixel */
"64 64 256 2 ",
"   c black",
".  c #0000A8",
"X  c #00A800",
"o  c #00A8A8",
"O  c #A80000",
"+  c #A800A8",
"@  c #A85400",
"#  c gray66",
"$  c gray33",
"%  c #5454FC",
"&  c #54FC54",
"*  c #54FCFC",
"=  c #FC5454",
"-  c #FC54FC",
";  c #FCFC54",
":  c gray99",
">  c #ECECEC",
",  c gainsboro",
"<  c #D0D0D0",
"1  c #C0C0C0",
"2  c #B4B4B4",
"3  c gray66",
"4  c #989898",
"5  c gray55",
"6  c #7C7C7C",
"7  c gray44",
"8  c #646464",
"9  c gray33",
"0  c #484848",
"q  c gray22",
"w  c #2C2C2C",
"e  c #202020",
"r  c #FC0000",
"t  c #EC0000",
"y  c #E00000",
"u  c #D40000",
"i  c #C80000",
"p  c #BC0000",
"a  c #B00000",
"s  c #A40000",
"d  c #980000",
"f  c #880000",
"g  c #7C0000",
"h  c #700000",
"j  c #640000",
"k  c #580000",
"l  c #4C0000",
"z  c #400000",
"x  c #FCD8D8",
"c  c #FCB8B8",
"v  c #FC9C9C",
"b  c #FC7C7C",
"n  c #FC5C5C",
"m  c #FC4040",
"M  c #FC2020",
"N  c #FC0000",
"B  c #FCA85C",
"V  c #FC9840",
"C  c #FC8820",
"Z  c #FC7800",
"A  c #E46C00",
"S  c #CC6000",
"D  c #B45400",
"F  c #9C4C00",
"G  c #FCFCD8",
"H  c #FCFCB8",
"J  c #FCFC9C",
"K  c #FCFC7C",
"L  c #FCF85C",
"P  c #FCF440",
"I  c #FCF420",
"U  c #FCF400",
"Y  c #E4D800",
"T  c #CCC400",
"R  c #B4AC00",
"E  c #9C9C00",
"W  c #848400",
"Q  c #706C00",
"!  c #585400",
"~  c #404000",
"^  c #D0FC5C",
"/  c #C4FC40",
"(  c #B4FC20",
")  c #A0FC00",
"_  c #90E400",
"`  c #80CC00",
"'  c #74B400",
"]  c #609C00",
"[  c #D8FCD8",
"{  c #BCFCB8",
"}  c #9CFC9C",
"|  c #80FC7C",
" . c #60FC5C",
".. c #40FC40",
"X. c #20FC20",
"o. c #00FC00",
"O. c #00FC00",
"+. c #00EC00",
"@. c #00E000",
"#. c #00D400",
"$. c #04C800",
"%. c #04BC00",
"&. c #04B000",
"*. c #04A400",
"=. c #049800",
"-. c #048800",
";. c #047C00",
":. c #047000",
">. c #046400",
",. c #045800",
"<. c #044C00",
"1. c #044000",
"2. c #D8FCFC",
"3. c #B8FCFC",
"4. c #9CFCFC",
"5. c #7CFCF8",
"6. c #5CFCFC",
"7. c #40FCFC",
"8. c #20FCFC",
"9. c #00FCFC",
"0. c #00E4E4",
"q. c #00CCCC",
"w. c #00B4B4",
"e. c #009C9C",
"r. c #008484",
"t. c #007070",
"y. c #005858",
"u. c #004040",
"i. c #5CBCFC",
"p. c #40B0FC",
"a. c #20A8FC",
"s. c #009CFC",
"d. c #008CE4",
"f. c #007CCC",
"g. c #006CB4",
"h. c #005C9C",
"j. c #D8D8FC",
"k. c #B8BCFC",
"l. c #9C9CFC",
"z. c #7C80FC",
"x. c #5C60FC",
"c. c #4040FC",
"v. c #2024FC",
"b. c #0004FC",
"n. c #0000FC",
"m. c #0000EC",
"M. c #0000E0",
"N. c #0000D4",
"B. c #0000C8",
"V. c #0000BC",
"C. c #0000B0",
"Z. c #0000A4",
"A. c #000098",
"S. c #000088",
"D. c #00007C",
"F. c #000070",
"G. c #000064",
"H. c #000058",
"J. c #00004C",
"K. c #000040",
"L. c #282828",
"P. c #FCE034",
"I. c #FCD424",
"U. c #FCCC18",
"Y. c #FCC008",
"T. c #FCB400",
"R. c #B420FC",
"E. c #A800FC",
"W. c #9800E4",
"Q. c #8000CC",
"!. c #7400B4",
"~. c #60009C",
"^. c #500084",
"/. c #440070",
"(. c #340058",
"). c #280040",
"_. c #FCD8FC",
"`. c #FCB8FC",
"'. c #FC9CFC",
"]. c #FC7CFC",
"[. c #FC5CFC",
"{. c #FC40FC",
"}. c #FC20FC",
"|. c #FC00FC",
" X c #E000E4",
".X c #C800CC",
"XX c #B400B4",
"oX c #9C009C",
"OX c #840084",
"+X c #6C0070",
"@X c #580058",
"#X c #400040",
"$X c #FCE8DC",
"%X c #FCE0D0",
"&X c #FCD8C4",
"*X c #FCD4BC",
"=X c #FCCCB0",
"-X c #FCC4A4",
";X c #FCBC9C",
":X c #FCB890",
">X c #FCB080",
",X c #FCA470",
"<X c #FC9C60",
"1X c #F0945C",
"2X c #E88C58",
"3X c #DC8854",
"4X c #D08050",
"5X c #C87C4C",
"6X c #BC7848",
"7X c #B47044",
"8X c #A86840",
"9X c #A0643C",
"0X c #9C6038",
"qX c #905C34",
"wX c #885830",
"eX c #80502C",
"rX c #744C28",
"tX c #6C4824",
"yX c #5C4020",
"uX c #543C1C",
"iX c #483818",
"pX c #403018",
"aX c #382C14",
"sX c #28200C",
"dX c #600064",
"fX c #006464",
"gX c #006060",
"hX c #00001C",
"jX c #00002C",
"kX c #302410",
"lX c #480048",
"zX c #500050",
"xX c #000034",
"cX c gray11",
"vX c #4C4C4C",
"bX c gray36",
"nX c gray25",
"mX c gray19",
"MX c #343434",
"NX c #D8F4F4",
"BX c #B8E8E8",
"VX c #9CDCDC",
"CX c #74C8C8",
"ZX c #48C0C0",
"AX c #20B4B4",
"SX c #20B0B0",
"DX c #00A4A4",
"FX c #009898",
"GX c #008C8C",
"HX c #008484",
"JX c #007C7C",
"KX c #007878",
"LX c #007474",
"PX c #007070",
"IX c #006C6C",
"UX c #980088",
/* pixels */
"q q q q q q q q q q q q q q q q q q q q q q q q q q q q q q q q q q q q q q q q q q q q q q q q q q q q q q q q q q q q q q q q ",
"q e q w w w w w q w w w w w w q w e w w w w w w w q q q q q q w w w w w w w w w q q q q q q q w w w w e e e w w q q w w w w w e ",
"e i i i i s s s s s s s f w w q p p p p a a a a s s s s d d d d d d d d f w e q i i i i a a a a a s s s s s s s d d d d d d f w ",
"w i a d d p h f p h a f l e w q p s h s h s h s j s g s g s j s j s a f k e w e i f a d a d d a k a j a d a h d f j a g a f j e ",
"w a f j f h f g k f h k l e w q p s h h f h k f f k g f f k g f k f g k l e w q i f f j l f h k h f j h f f h f j h f l f k l e ",
"w a j f f k g f f k f l l e w q a h s f h f k f h f k f k h j f k g j k l e w w i k f l h f l f k f j f h f l f g j f j f k l e ",
"w a f j h g j f k h f k l e w q s s h f h h g f k h k f h k g j h k f k l e e w s k f j f h l f k k f f k f h f f j f l f h l e ",
"w g j f f k f g k g k l l e w w a a h f k f k f k f k g h k j f k g j k l e e w g g f l h f j h k h j f h f l f j h f j f k l e ",
"w g f k h l k j l k h k l e e q g g k k l h k k h k l k h k h k l h k k l e e w a k k l k k l h l k l h l k l h l l k h k h l e ",
"w j l l l l l l l l l l l e e w j l l l l l l l l l l l l l l l l l l l l e e w h l l l l l l l l l l k l l l l l l l k l l l e ",
"w w e e e e e e e e e e e e e q w e e e e e e e e e e e e e e e e e e e e e w q e e e e e e e e e e e e e e e e e e e e e e e e ",
"q e e e e w w w w e e e e e w e w w w w w w w e e e q w w w e e w w w w w w q e w q q q q 0 0 0 0 q q w w e e e q e q w w w q e ",
"a a a s s s s s s s s s s s s f w q w p p p a a a a a a a a s s s s s s s s s s s s d d d d d d d d d d f w e q p p a a a a a a ",
"d h h d g j d j g h d l d h f l e w q p k d a j s l h s h h a g f h j h f h f h f j a l a h g s a g a f l e w e p a j d h d h d ",
"h f h f j h h l f h l h f f k l e w w a d k f j f f h f l f k l h f j f j f l f f h l f h f k h f k f k l e w q p d j f h j f g ",
"k f f h g l f j h h g l f h k l e e w a k f h g h h l h h k f h l f h j l j h h f l h j f k f k f f k k l e w w a j f f f j f j ",
"f h h f h j j h j f g l f l k l e e w a k f f j f l h f l k f l h f j h j f l f h l f l f k h k f k f k l e e w a d j f j f g j ",
"k f l f k h j g l f l h f f k l e w q a d l f j f h l h l h k l f h j l j f l h l h f l h f k h f k f k l e e w d j f f l f j h ",
"k d l k l j k g k g k l g k k l e w q d f k h l k g k h l k h l k g k g l h k h h l g k k h l k g k h k l e w q d f j k l k g k ",
"l k l l l l l l l l l l l l l l e w q f l l l l l l l l l l l l l l l l l l l l l l l l l l l l l l l l l e w e f l l l l l l l ",
"e e e e e e e e e e e e e e e e e w e w e e e e e e e e e e e e e e e e e e e e e e e e e e e e e e e e e e w q w e e e e e e e ",
"q q w e e w q e q e w w e e e e w w q w w w q e w e w e q w w w q e q w w e e e w w w w q e e e w w w w q w q e q e e e q w w w ",
"q p p p a a s s s s s s s s s d d d d d d d d d d d d f w q q p p p a a a a a a a s s s s s s s s d d d d d d d d d d d d d f w ",
"q a h d s j s j s j d h d h d a h d h d h s d l d a k l e w q p s k p f d h f d h d g d j l f h k h f j h f g h f j h f l f l e ",
"e a d h f g f j k h f f h g h f h l f k f h l h f k d l e w 0 p s g f l f l h k g h l f l h f l f k f j f h f l f g j f j k l e ",
"w a l f f k h l f l f k f h g f l h f k h f h l j f k l e q 0 p s j f j f l f k g f j f j f h l f k k f g k g h f f j f l k l e ",
"w a d h f l f l k h f h k j f j h l j f l f h l f k l l e q 0 p k f k g h l h g k f l h l h f j h k h j f h f l f j h f j k l e ",
"q a k l f l h j f l f l f l f h l h f h l f l h j j d l e w q d a k f k f h f h k f l f l k k l f l f l f l f f h l l k h k l e ",
"w a f l k k k l k l k k h l h k k h k k l k g k g k k l e e q a f k g k h l k k k k l h k h l f l k f l k h l f l f l f k k l e ",
"w f g l l l l l l l l l l l l l l l l l l l l l l l l l e e q f l l l l l l l l l l l l l l l l l l l l l l l l l l l l l l l e ",
"w w e e e e e e e e e e e e e e e e e e e e e e e e e e e w w w e e e e e e e e e e e e e e e e e e e e e e e e e e e e e e e e ",
"q q q q q w w e w e e e w q 0 0 q q q w w w w e e e w e e e q w w w q e q w q w w e w e w w q q w w w e w w w w q e q w w w q e ",
"s s s d d d d d d d f w e q p a a a a s s s s s s s s s s s s d d d d d d d d f w q q p p a a a s s s s s s s s s s s s s s s s ",
"f d f d g a d d a f l e w e p f l f k f f l f h f f k f h l f f l f f k f j f l e w q p f j f k f f l f j h j f k f h f j f k f ",
"f j h f g f j f h k l e w q a l f j h f j f g k f h h k h h f h l f k h f l f l e q q a f l f k f h l f h f j h h g k g j g h k ",
"h j f g j f j g f k l e w e a l f f j g f k f k f h f l f l h h f h k g f j f l e q 0 a f j f k f h f h f f j f k g h f g j f k ",
"f h j f g f g j h k l e w q a g l f j f j l g h h h k h f l f h l h g k h f j l e q 0 a j f f k f l f f j j f j f h g g h j k h ",
"f h j f j f j g f k l e w w a l f j l g f k h h f h f k h l l g l f g k f j f l e w q a f j f f k f h h j f j f k g h f j h f k ",
"k k h g k k g k k k l e w w g l f f l f j k f k f l f l h l f h l g k g f l j l e w q a f l f k f f h f h f j f k g k g j f f k ",
"l l l l l l l l l l l e w w f l l l l l l l l l l l l l l l l l l l l l l l l l e w w f l l l l l l l l l l l l l l l l l l l l ",
"e e e e e e e e e e e e w q w e e e e e e e e e e e e e e e e e e e e e e e e e e w w w e e e e e e w e e e e e e e e e e e e e ",
"q w q e w e e w w e e e e w w e e e w w w w w q q w w e e e q w w w q e w e w e w w q w q e q w q 0 0 q q w w e q w q w q e q e ",
"e p p a a a a a s s s s s s s s s d d d d d d d d d d d d d d f e q e p p a a a a s s s s s s s s s s s d d d d d d d d d d f w ",
"q p f h h f l f f j g f j f k h f l f j f h f l f l f f j k f l e w q p f f l f l f l f k f l f h l g h k f h j f j g k h f l e ",
"w a f l f h l f h g j f l h l f g l f l h g h l f j f j f k g l e w w a h f l h l j l h l g j f l f l f k h k f h j g f l h l e ",
"w a h l f l h k l f l f h j h f l g h h l j f l g l h l h h k l e e w a h f l l h f j l f j l g f l f k k f k f j f k h l f l e ",
"e a f h f h l f h j g f j f l h f l f l h f l g f j f f f k j l e e w a f l f h l f l f k g j j l h l f j h g h g j k f h f l e ",
"q a f l h f l f l f l f l f k f l l f l h j f j h l g l h k f l e e q a f l l f l j l f l f l g l f l h k f k j f j g h l k l e ",
"e a f l f l h k h g j f h h h f g l h j l l f l f k g j f k f l e e q a k f l h l f l j f j l g k h l f k f k f j g k f l f l e ",
"q f l l l l l l l l l l l l l l l l l l l l l l l l l l l l l l e w q f l l l l l l l l l l l l l l l l l l l l l l l l l l l e ",
"e w e e e e e e e e e e e e e e e e e e e e e e e e e e e e e e e w e w e e e e e e e e e e e e e e e e e e e e e e e e e e e e ",
"q e q e q w q w w w w q 0 0 q w q e q w q w w e e e w w q w w e w w q e q w w w w w w w w q q q q q w w w w e e e e e e w w q w ",
"s s s s s s d d d d d d d d d d d f w q w p p p p a a a a a s s s s s s d d d d d d d d d d f w e q p p p p a a a s s s s s s s ",
"j f l f f l g l f j a j f l f j f l e w w p f f f f l f l f j f l f l f g f l f l f l f k l l e w q a f l h f l f k f k f l f k ",
"f j j f j f l g j l f l j l h l h l e w w a j f k f l k l j g j f h l h g l j h k h l f l f l e w q p l f l f k f k h f k f h l ",
"f j l j f l g l j f j l f h l g j l e w w d j j k f l j j f l f l f f l f l f l h l h h l k l e w q p l f k k f f h k h k l k h ",
"j g l g l l f l f j f l j k l f l l e w e d f l k f l f l f j g l f l h j l f l f h l k g l l e w q p f l l f h k k f k f l k f ",
"l f j f l f l h f l f j l h f j h l e w q a l f f l f j k h l j l f l f l j j l h k l h k l l e w w p l f h f k f h k k l f k f ",
"l f j j l g g l g l j l f l f l g l e w w a l f k f l j j h l g l h l f j l f h l f l f l h l e e w p l f l k l f k f k l l f l ",
"j g l f l l h l j j f l f l k h j l e w q a f l k f l f l h l f l f k l f l j f l h k h l h l e e w a l l l f l f k f k f l f k ",
"l l l l l l l l l l l l l l l l l l e w w f l l l l l l l l l l l l l l l l l l l l l l l l l e w q f l l l l l l l l l l l l l ",
"e e e e e e e e e e e e e e e e e e e w q w e e e e e e e e e e e e e e e e e e e e e e e e e e e w w e e e e e e e e e e e e e ",
"e q e q e e e w w w w w q q e w w w w q q q q q w w w q w w w q w w e w w w w e e w e e w w e e e q w w e q w w w w e e e w w w ",
"0 0 0 0 0 0 0 0 0 0 0 0 0 0 0 0 0 0 0 0 0 0 0 0 0 0 0 0 0 0 0 0 0 0 0 0 0 0 0 0 0 0 0 0 0 0 0 0 0 0 0 0 0 0 0 0 0 0 0 0 0 0 0 0 "
};
