/* XPM */
static char *Wall_0191647953497[] = {
/* columns rows colors chars-per-pixel */
"64 64 256 2 ",
"   c black",
".  c #0000A8",
"X  c #00A800",
"o  c #00A8A8",
"O  c #A80000",
"+  c #A800A8",
"@  c #A85400",
"#  c gray66",
"$  c gray33",
"%  c #5454FC",
"&  c #54FC54",
"*  c #54FCFC",
"=  c #FC5454",
"-  c #FC54FC",
";  c #FCFC54",
":  c gray99",
">  c #ECECEC",
",  c gainsboro",
"<  c #D0D0D0",
"1  c #C0C0C0",
"2  c #B4B4B4",
"3  c gray66",
"4  c #989898",
"5  c gray55",
"6  c #7C7C7C",
"7  c gray44",
"8  c #646464",
"9  c gray33",
"0  c #484848",
"q  c gray22",
"w  c #2C2C2C",
"e  c #202020",
"r  c #FC0000",
"t  c #EC0000",
"y  c #E00000",
"u  c #D40000",
"i  c #C80000",
"p  c #BC0000",
"a  c #B00000",
"s  c #A40000",
"d  c #980000",
"f  c #880000",
"g  c #7C0000",
"h  c #700000",
"j  c #640000",
"k  c #580000",
"l  c #4C0000",
"z  c #400000",
"x  c #FCD8D8",
"c  c #FCB8B8",
"v  c #FC9C9C",
"b  c #FC7C7C",
"n  c #FC5C5C",
"m  c #FC4040",
"M  c #FC2020",
"N  c #FC0000",
"B  c #FCA85C",
"V  c #FC9840",
"C  c #FC8820",
"Z  c #FC7800",
"A  c #E46C00",
"S  c #CC6000",
"D  c #B45400",
"F  c #9C4C00",
"G  c #FCFCD8",
"H  c #FCFCB8",
"J  c #FCFC9C",
"K  c #FCFC7C",
"L  c #FCF85C",
"P  c #FCF440",
"I  c #FCF420",
"U  c #FCF400",
"Y  c #E4D800",
"T  c #CCC400",
"R  c #B4AC00",
"E  c #9C9C00",
"W  c #848400",
"Q  c #706C00",
"!  c #585400",
"~  c #404000",
"^  c #D0FC5C",
"/  c #C4FC40",
"(  c #B4FC20",
")  c #A0FC00",
"_  c #90E400",
"`  c #80CC00",
"'  c #74B400",
"]  c #609C00",
"[  c #D8FCD8",
"{  c #BCFCB8",
"}  c #9CFC9C",
"|  c #80FC7C",
" . c #60FC5C",
".. c #40FC40",
"X. c #20FC20",
"o. c #00FC00",
"O. c #00FC00",
"+. c #00EC00",
"@. c #00E000",
"#. c #00D400",
"$. c #04C800",
"%. c #04BC00",
"&. c #04B000",
"*. c #04A400",
"=. c #049800",
"-. c #048800",
";. c #047C00",
":. c #047000",
">. c #046400",
",. c #045800",
"<. c #044C00",
"1. c #044000",
"2. c #D8FCFC",
"3. c #B8FCFC",
"4. c #9CFCFC",
"5. c #7CFCF8",
"6. c #5CFCFC",
"7. c #40FCFC",
"8. c #20FCFC",
"9. c #00FCFC",
"0. c #00E4E4",
"q. c #00CCCC",
"w. c #00B4B4",
"e. c #009C9C",
"r. c #008484",
"t. c #007070",
"y. c #005858",
"u. c #004040",
"i. c #5CBCFC",
"p. c #40B0FC",
"a. c #20A8FC",
"s. c #009CFC",
"d. c #008CE4",
"f. c #007CCC",
"g. c #006CB4",
"h. c #005C9C",
"j. c #D8D8FC",
"k. c #B8BCFC",
"l. c #9C9CFC",
"z. c #7C80FC",
"x. c #5C60FC",
"c. c #4040FC",
"v. c #2024FC",
"b. c #0004FC",
"n. c #0000FC",
"m. c #0000EC",
"M. c #0000E0",
"N. c #0000D4",
"B. c #0000C8",
"V. c #0000BC",
"C. c #0000B0",
"Z. c #0000A4",
"A. c #000098",
"S. c #000088",
"D. c #00007C",
"F. c #000070",
"G. c #000064",
"H. c #000058",
"J. c #00004C",
"K. c #000040",
"L. c #282828",
"P. c #FCE034",
"I. c #FCD424",
"U. c #FCCC18",
"Y. c #FCC008",
"T. c #FCB400",
"R. c #B420FC",
"E. c #A800FC",
"W. c #9800E4",
"Q. c #8000CC",
"!. c #7400B4",
"~. c #60009C",
"^. c #500084",
"/. c #440070",
"(. c #340058",
"). c #280040",
"_. c #FCD8FC",
"`. c #FCB8FC",
"'. c #FC9CFC",
"]. c #FC7CFC",
"[. c #FC5CFC",
"{. c #FC40FC",
"}. c #FC20FC",
"|. c #FC00FC",
" X c #E000E4",
".X c #C800CC",
"XX c #B400B4",
"oX c #9C009C",
"OX c #840084",
"+X c #6C0070",
"@X c #580058",
"#X c #400040",
"$X c #FCE8DC",
"%X c #FCE0D0",
"&X c #FCD8C4",
"*X c #FCD4BC",
"=X c #FCCCB0",
"-X c #FCC4A4",
";X c #FCBC9C",
":X c #FCB890",
">X c #FCB080",
",X c #FCA470",
"<X c #FC9C60",
"1X c #F0945C",
"2X c #E88C58",
"3X c #DC8854",
"4X c #D08050",
"5X c #C87C4C",
"6X c #BC7848",
"7X c #B47044",
"8X c #A86840",
"9X c #A0643C",
"0X c #9C6038",
"qX c #905C34",
"wX c #885830",
"eX c #80502C",
"rX c #744C28",
"tX c #6C4824",
"yX c #5C4020",
"uX c #543C1C",
"iX c #483818",
"pX c #403018",
"aX c #382C14",
"sX c #28200C",
"dX c #600064",
"fX c #006464",
"gX c #006060",
"hX c #00001C",
"jX c #00002C",
"kX c #302410",
"lX c #480048",
"zX c #500050",
"xX c #000034",
"cX c gray11",
"vX c #4C4C4C",
"bX c gray36",
"nX c gray25",
"mX c gray19",
"MX c #343434",
"NX c #D8F4F4",
"BX c #B8E8E8",
"VX c #9CDCDC",
"CX c #74C8C8",
"ZX c #48C0C0",
"AX c #20B4B4",
"SX c #20B0B0",
"DX c #00A4A4",
"FX c #009898",
"GX c #008C8C",
"HX c #008484",
"JX c #007C7C",
"KX c #007878",
"LX c #007474",
"PX c #007070",
"IX c #006C6C",
"UX c #980088",
/* pixels */
"sXsXsXsXsXsXsXsXsXsXsXsXsXsXsXsXsXsXsXsXsXsXsXsXsXsXsXsXsXsXsXsXsXsXsXsXsXsXsXsXsXsXsXsXsXsXsXsXsXsXsXsXsXsXsXsXsXsXsXsXsXsXsXsX",
"pXpXpXpXpXpXpXpXpXpXpXpXpXpXpXpXpXpXpXpXpXpXpXpXpXpXpXpXpXpXpXpXpXpXpXpXpXpXpXpXpXpXpXpXpXpXpXpXpXpXpXpXpXpXpXpXpXpXpXpXpXpXpXpX",
"yXyXyXyXyXyXyXyXyXyXyXyXyXyXyXyXyXyXyXyXyXyXyXyXyXyXyXyXyXyXyXyXyXyXyXyXyXyXyXyXyXyXyXyXyXyXyXyXyXyXyXyXyXyXyXyXyXyXyXyXyXyXyXyX",
"sXsXsXsXsXsXsXsXsXsXsXsXsXsXsXsXsXsXsXsXsXsXsXsXsXsXsXsXsXsXsXsXsXsXsXsXsXsXsXsXsXsXsXsXsXsXsXsXsXsXsXsXsXsXsXsXsXsXsXsXsXsXsXsX",
"sXsXpXiXiXiXiXsXyXsXsXyXaXsXsXsXsXiXiXsXpXsXpXsXsXsXyXsXsXyXiXsXiXsXyXsXsXyXaXsXsXsXaXsXyXsXsXyXsXiXsXsXiXsXiXsXiXiXsXyXsXsXyXpX",
"sXsXpXiXiXiXaXsXyXsXsXyXpXsXsXsXsXiXiXsXpXsXpXsXsXsXyXsXsXyXiXsXiXsXyXsXsXyXiXaXsXaXiXsXyXsXsXyXsXiXsXsXiXsXiXsXiXiXsXyXsXsXyXpX",
"sXsXaXiXiXY T R R R R R R R R R R R R R R R R R R R R R R R R R R R R R R R R R R R R R R R R R R R R R R R R R R R S aXsXsXyXpX",
"sXsXsXpXiXT R S S S S S S S S S S S S S S S S S S S S S S S S S S S S S S S S S S S S S S S S S S S S S S S S S S S S aXsXsXyXpX",
"pXsXsXaXiXR S iXiXiXiXiXiXiXiXiXiXiXiXiXiXiXiXiXiXiXiXiXiXiXiXiXiXiXiXiXiXiXiXiXiXiXiXiXiXiXiXiXiXiXiXiXiXiXiXiXiXS tXaXsXsXyXsX",
"pXsXsXsXaXR S iX                                                                                                  D tXaXsXsXyXsX",
"iXsXsXsXsXR S iX  u.u.u.u.y.IXIXIXt.t.PXIXIXIXy.y.y.u.u.u.u.u.u.u.u.u.u.u.u.u.u.u.u.u.u.u.u.u.u.u.u.u.u.u.u.w w w D tXaXsXsXyXsX",
"iXsXsXsXsXR S iX  u.u.y.t.t.t.JXr.r.e.w.n m m m t t t t t t y y y y y t t t t t t t t m m m n r.r.t.y.u.u.u.y.u.u.D tXaXsXsXyXsX",
"pXiXsXsXsXR S iX  u.y.t.t.JXr.e.w.n m t t t t t y y y y y p y p y p y p y y y y y y t t t t t m n r.y.y.u.y.u.y.y.D tXaXsXsXyXsX",
"pXiXsXsXsXR S iX  y.t.t.JXr.e.w.t m m m t m t t t y y y y y p y p y p y y y y y y t t t m t m m m t t.y.y.IXy.y.y.D tXaXsXsXyXsX",
"aXiXiXsXsXR S iX  y.IXJXJXt.r.t m m m m m t m t y t y y y y y p y p y p y y y t t y t m t m m m m m t t.y.y.IXy.t.D tXaXsXsXyXsX",
"sXiXiXiXsXR S iX  IXIXJXr.t.t u t m m m t m t t t y y y y y p y p y p y y y y y y t t t m t m m m t u t t.t.t.t.r.D tXaXsXsXyXsX",
"sXpXiXiXaXR S iX  IXt.JXr.t.z s p t m t p f f h h h h h h h h h h h h h h h h h h h h f f p t m t p s z t.JXr.r.r.D tXaXsXsXyXsX",
"sXpXiXiXiXR S iX  y.IXJXJXt.z z s p p h f u.u.u.u.u.q q w w e e e e w q u.y.y.y.y.u.e e e f h p p s z z JXr.r.e.e.D tXaXsXsXyXsX",
"sXaXpXiXiXR S iX  y.y.IXJXu.z z k h z h e u.u.u.u.q w w e e e e e e w w q u.y.y.u.u.w u.e e h z h k z z r.e.e.e.e.D tXaXsXsXyXpX",
"sXsXpXiXiXR S iX  y.IXt.t.t h h z z z z u.7 2 2 6 q e e e 0 6 4 2 2 e e w q u.u.q 4 2 0 e e z z z z h h t r.e.e.r.D tXaXsXsXyXpX",
"sXsXaXiXiXR S iX  u.t.y.t t t s h z z e 4 2 7 q e e w e e 6 4 2 4 w e   w w u.u.e w 6 2 6 e z z z h s t t t r.r.JXD tXaXsXsXyXpX",
"sXsXsXiXiXR S iX  u.y.t m m t t s k e 4 2 7 q e e e w w w 6 2 2 2 8 2 2 7 w q q e sXw 6 2 0 e z k s t t m m t JXt.D tXaXsXsXyXpX",
"sXsXsXaXsXR S iX  u.f t t m m t t e y.2 7 q e e e e w w w 6 6 3 8 0 w q q w q w e sXe w 4 4 0 e e t t m m t t i t.D tXaXsXsXyXpX",
"sXsXsXsXsXR S iX  u.f p t t m m u.y.4 2 e e e e e e e w w q 4 6 8 q e w w w w e e sXe e 6 2 6 e e w m m t t p f y.D tXaXsXsXyXpX",
"sXsXsXsXsXR S iX  u.g s p t t u.0 y.2 4 q e e e e q e q w e 4 4 5 8 q e w w w q 0 sXe e 9 4 2 e y.y.a t t p s h y.D tXaXsXsXyXaX",
"pXsXsXsXsXR S iX  u.z h s p u e q q 2 7 e e e sXe e 8 q q q 4 3 3 5 6 0 q e w 0 q sXe e 0 4 2 e u.y.e u p s h z t.D tXaXsXsXyXsX",
"pXsXsXsXsXR S iX  u.u.k h s z z e w 2 0 e e e e e e 8 6 3 2 2 2 2 2 2 4 e q 0 7 e e e e q 4 2 e u.e z j s h k u.KXD tXaXsXsXyXsX",
"pXsXsXsXsXR S iX  u.y.u.k h z z z e 2 0 e e e e e e e 8 4 2 2 2 2 2 2 4 e q u.e e e e e q 4 2 e e z z z h k u.KXGXD tXaXsXsXyXsX",
"aXsXsXsXsXR S iX  y.t.y.u.k z z z z 2 q e e e e e e e e 8 2 3 3 3 3 3 6 e e e e e e e e q 4 2 e z z z z k u.LXGXFXD tXaXsXsXyXsX",
"sXpXsXsXsXR S iX  t.r.t.u.z z z z z 2 q e e e e e e e e e 4 6 6 6 6 6 8 q e e e e e e e q 4 2 e z z z j j LXGXFXe.D tXaXsXsXyXsX",
"sXpXsXsXsXR S iX  t.e.r.t.s s h h z 2 0 e e e e e e e e e 6 6 8 8 8 8 q e e e e e e e e 0 4 2 e z h h s s r.GXGXGXD tXaXsXsXyXsX",
"sXaXsXsXpXR S iX  y.r.r.y.y s s h z 2 0 e e e e e e e e e 4 8 q q q q q e e e e e e e w 0 4 2 e z h s s y JXr.r.r.D tXaXsXsXyXsX",
"sXsXpXsXpXR S iX  u.t.y.t y s s s z 2 7 e e e e e e e e e 6 q e e e e e e e e e e e e q 7 4 2 e z s s s y t JXr.JXD tXaXsXsXyXsX",
"sXsXpXsXpXR S iX  u.y.t m t y s z e 4 2 e e e e e e e e e 6 q e e e e e w e e e e e q 0 6 4 5 e e z s y t m t JXJXD tXaXsXsXyXsX",
"sXsXaXpXaXR S iX  u.u.s t m t z e w 0 2 q e e e e e w w e 8 q e e e e w 0 e e e e e 0 8 4 2 7 e w e z t m t s t.t.D tXaXsXsXyXsX",
"sXsXsXaXsXR S iX  y.y.h p t z w e e w 2 7 e e e e w w w w 7 q e e e e 0 7 w e e e e 8 6 4 2 8 e w w e j t p h IXt.D tXaXsXsXyXsX",
"sXsXsXsXsXR S iX  t.t.z k p z z z e w 4 2 e e e e w w w q 5 0 e e e e 9 5 q e e e e 6 4 4 6 e u.w z z j p k z y.IXD tXaXsXsXyXaX",
"sXsXsXsXsXR S iX  t.t.u.z k z z z z e 0 2 8 e e e w w e 0 5 9 e e e e 8 5 0 e e e e 4 4 2 q e w z z z z k z u.y.y.D tXaXsXsXyXpX",
"sXsXsXsXsXR S iX  y.JXy.u.z z z z z z e 7 2 e e w w w e 8 5 8 e e e e 6 5 8 e e e e 4 2 7 e e z z z z z z u.y.y.y.D tXaXsXsXyXpX",
"sXsXsXsXsXR S iX  u.r.t.y.u.u.w z l z z e 0 6 e e w w e 4 4 4 e e e e 4 4 4 w e w e 2 7 q e z z l z u.u.u.y.IXIXy.D tXaXsXsXyXpX",
"sXsXsXsXsXR S iX  u.t.r.a a z z e z h l z e e q e w e 4 0 4 0 2 0 4 0 0 4 0 4 w w w 7 q e z l h z u.z h y t JXIXu.D tXaXsXsXyXsX",
"pXsXsXsXsXR S iX  u.y.t m t a h z z h h z e e e e tXtX! ! ! ! ! ! ! ! ~ ~ ~ aXsXw w w w w z h h z z h h t m t JXu.D tXaXsXsXyXsX",
"pXsXsXsXsXR S iX  u.t y t m t f z z z h l z e e tXE T I I I I Y Y R R E W Q ~ aXsXw w w z l h z z z z t m t y t u.D tXaXsXsXyXsX",
"pXaXsXsXsXR S iX  u.d s y y z z z z z z z z e tXE T I U T T y g g g y ! ~ ~ ~ aXaXsXw w z z z z z z z j y y s d u.D tXaXsXsXyXsX",
"pXpXsXsXsXR S iX  w z h s s z w u.w z z z z e w tX! ~ W ~ g g   g g g g aXaXaXaXsXw q q z z z z w w w j s s h z u.D tXaXsXsXyXsX",
"aXpXaXsXaXR S iX  w u.z z h h z w u.w z z e w e tXE ~ I y g   z g z   g z ~ aX~ sXq u.u.q z z w w w z h h z z w u.D tXaXsXsXyXsX",
"sXpXpXaXpXR S iX  u.u.u.u.z z z z z z z w e e w tXE ~ I g g z   z   z   l ~ aX~ sXu.u.u.q q z z z z z z z w u.u.y.D tXaXsXsXyXsX",
"sXpXpXaXpXR S iX  u.y.y.u.u.u.u.z z z z z w w e tXE ~ I g g g z   z g g g ~ aX~ sXq u.q w z z z z z w u.u.u.y.y.t.D tXaXsXsXyXsX",
"sXpXiXiXiXR S iX  u.t.m t g z u.u.u.z l z z w w tXE ~ I g   z   z   z g l ~ aX~ sXw q w z z l z w w w z g t r.t.y.D tXaXsXsXyXsX",
"sXaXiXiXiXR S iX  u.m m t s s g z z z k l z z w tXE ~ I y g   z g z   g z ~ aX~ sXq u.z z l k z z z g s s t t r.y.D tXaXsXsXyXsX",
"sXsXpXiXiXR S iX  u.t t m t s z z z h h k l z w tXE ~ I ~ g g g g   g z aX~ aX~ sXu.u.z l k h h z z z s t m t t q D tXaXsXsXyXsX",
"sXsXpXiXiXR S iX  u.g s y m z w w z z h h z z w tXE ~ I ~ Y y g g g z ~ aX~ aX~ sXu.q z z h h z z e e j m y s g u.D tXaXsXsXyXsX",
"sXsXaXiXpXR S iX  w u.g h s z k w w w z z z w rX9XY I J U J Y E E Q ! ~ ~ ~ aXaX~ sXw w z z z w w e k j s h g u.u.D tXaXsXsXyXsX",
"sXsXsXpXpXR S iX  u.u.u.g z z z z z w u.u.u.u.uX~ ~ wXyXyX9XyXyXyXyXpXsXaXpXpXsXsXsXw q w w w w z z z h z g u.u.u.D tXaXsXsXyXaX",
"sXsXsXpXaXR S iX  u.u.u.u.u.z h h k z u.u.u.rX9XE Y J I J J Y Y E E Q ! ~ ~ ~ aXaX~ sXq q q q z k h h z u.u.u.u.u.D tXaXsXsXyXaX",
"sXsXsXaXaXR S iX  u.u.w z z z z z h z u.u.uXuX~ ~ wXyXyX9XrXyXyXyXpXaXaXsXaXpXpXsXsXsXw q u.q z h z z z z z u.u.u.D tXaXsXsXyXpX",
"sXsXsXsXsXR S iX  w w w w w w e z z w u.u.rX9XE Y J I I J J Y Y E E Q ! ~ ~ ~ ~ aXaX~ sXw w w w z z w q u.u.u.u.u.D tXaXsXsXyXpX",
"sXsXsXsXsXR S iX  w w w w w w w w w u.w u.rX9XwXwXyXyX9XrXrXyXiXpXaXaXsXsXsXaXaXaXsXsXsXw w w w q u.u.u.u.u.u.u.u.D tXaXsXsXyXiX",
"sXsXsXsXsXR S S D D D D D D D D D D D D D D D D D D D D D D D D D D D D D D D D D D D D D D D D D D D D D D D D D D tXaXsXsXyXiX",
"aXsXsXsXsXR F tXtXtXtXtXtXtXtXtXtXtXtXtXtXtXtXtXtXtXtXtXtXtXtXtXtXtXtXtXtXtXtXtXtXtXtXtXtXtXtXtXtXtXtXtXtXtXtXtXtXtXtXaXsXsXyXiX",
"aXsXsXsXsXF aXaXaXaXaXaXaXaXaXaXaXaXaXaXaXaXaXaXaXaXaXaXaXaXaXaXaXaXaXaXaXaXaXaXaXaXaXaXaXaXaXaXaXaXaXaXaXaXaXaXaXaXaXaXsXsXyXiX",
"pXsXsXsXsXsXpXsXyXsXsXpXsXsXsXsXsXsXsXsXsXsXsXsXsXsXpXsXsXpXsXsXsXsXpXsXsXpXsXsXsXsXsXsXpXsXsXpXsXsXsXsXsXsXsXsXsXsXsXpXsXsXyXiX",
"pXaXsXsXsXsXpXsXyXsXsXyXsXsXsXsXaXsXsXsXsXpXiXiXaXsXyXsXsXyXpXaXsXsXyXsXsXyXsXsXsXsXsXsXyXsXsXyXaXsXiXaXsXsXsXsXsXsXsXyXsXsXyXiX",
"aXaXaXaXaXaXaXsXyXsXsXyXaXsXsXsXsXsXsXsXaXaXaXaXaXsXyXsXsXyXaXsXsXsXyXsXsXyXaXsXsXsXaXsXyXsXsXyXaXsXaXaXsXsXsXsXsXsXsXyXsXsXyXaX"
};
