/* XPM */
static char *Wall_0181647953497[] = {
/* columns rows colors chars-per-pixel */
"64 64 256 2 ",
"   c black",
".  c #0000A8",
"X  c #00A800",
"o  c #00A8A8",
"O  c #A80000",
"+  c #A800A8",
"@  c #A85400",
"#  c gray66",
"$  c gray33",
"%  c #5454FC",
"&  c #54FC54",
"*  c #54FCFC",
"=  c #FC5454",
"-  c #FC54FC",
";  c #FCFC54",
":  c gray99",
">  c #ECECEC",
",  c gainsboro",
"<  c #D0D0D0",
"1  c #C0C0C0",
"2  c #B4B4B4",
"3  c gray66",
"4  c #989898",
"5  c gray55",
"6  c #7C7C7C",
"7  c gray44",
"8  c #646464",
"9  c gray33",
"0  c #484848",
"q  c gray22",
"w  c #2C2C2C",
"e  c #202020",
"r  c #FC0000",
"t  c #EC0000",
"y  c #E00000",
"u  c #D40000",
"i  c #C80000",
"p  c #BC0000",
"a  c #B00000",
"s  c #A40000",
"d  c #980000",
"f  c #880000",
"g  c #7C0000",
"h  c #700000",
"j  c #640000",
"k  c #580000",
"l  c #4C0000",
"z  c #400000",
"x  c #FCD8D8",
"c  c #FCB8B8",
"v  c #FC9C9C",
"b  c #FC7C7C",
"n  c #FC5C5C",
"m  c #FC4040",
"M  c #FC2020",
"N  c #FC0000",
"B  c #FCA85C",
"V  c #FC9840",
"C  c #FC8820",
"Z  c #FC7800",
"A  c #E46C00",
"S  c #CC6000",
"D  c #B45400",
"F  c #9C4C00",
"G  c #FCFCD8",
"H  c #FCFCB8",
"J  c #FCFC9C",
"K  c #FCFC7C",
"L  c #FCF85C",
"P  c #FCF440",
"I  c #FCF420",
"U  c #FCF400",
"Y  c #E4D800",
"T  c #CCC400",
"R  c #B4AC00",
"E  c #9C9C00",
"W  c #848400",
"Q  c #706C00",
"!  c #585400",
"~  c #404000",
"^  c #D0FC5C",
"/  c #C4FC40",
"(  c #B4FC20",
")  c #A0FC00",
"_  c #90E400",
"`  c #80CC00",
"'  c #74B400",
"]  c #609C00",
"[  c #D8FCD8",
"{  c #BCFCB8",
"}  c #9CFC9C",
"|  c #80FC7C",
" . c #60FC5C",
".. c #40FC40",
"X. c #20FC20",
"o. c #00FC00",
"O. c #00FC00",
"+. c #00EC00",
"@. c #00E000",
"#. c #00D400",
"$. c #04C800",
"%. c #04BC00",
"&. c #04B000",
"*. c #04A400",
"=. c #049800",
"-. c #048800",
";. c #047C00",
":. c #047000",
">. c #046400",
",. c #045800",
"<. c #044C00",
"1. c #044000",
"2. c #D8FCFC",
"3. c #B8FCFC",
"4. c #9CFCFC",
"5. c #7CFCF8",
"6. c #5CFCFC",
"7. c #40FCFC",
"8. c #20FCFC",
"9. c #00FCFC",
"0. c #00E4E4",
"q. c #00CCCC",
"w. c #00B4B4",
"e. c #009C9C",
"r. c #008484",
"t. c #007070",
"y. c #005858",
"u. c #004040",
"i. c #5CBCFC",
"p. c #40B0FC",
"a. c #20A8FC",
"s. c #009CFC",
"d. c #008CE4",
"f. c #007CCC",
"g. c #006CB4",
"h. c #005C9C",
"j. c #D8D8FC",
"k. c #B8BCFC",
"l. c #9C9CFC",
"z. c #7C80FC",
"x. c #5C60FC",
"c. c #4040FC",
"v. c #2024FC",
"b. c #0004FC",
"n. c #0000FC",
"m. c #0000EC",
"M. c #0000E0",
"N. c #0000D4",
"B. c #0000C8",
"V. c #0000BC",
"C. c #0000B0",
"Z. c #0000A4",
"A. c #000098",
"S. c #000088",
"D. c #00007C",
"F. c #000070",
"G. c #000064",
"H. c #000058",
"J. c #00004C",
"K. c #000040",
"L. c #282828",
"P. c #FCE034",
"I. c #FCD424",
"U. c #FCCC18",
"Y. c #FCC008",
"T. c #FCB400",
"R. c #B420FC",
"E. c #A800FC",
"W. c #9800E4",
"Q. c #8000CC",
"!. c #7400B4",
"~. c #60009C",
"^. c #500084",
"/. c #440070",
"(. c #340058",
"). c #280040",
"_. c #FCD8FC",
"`. c #FCB8FC",
"'. c #FC9CFC",
"]. c #FC7CFC",
"[. c #FC5CFC",
"{. c #FC40FC",
"}. c #FC20FC",
"|. c #FC00FC",
" X c #E000E4",
".X c #C800CC",
"XX c #B400B4",
"oX c #9C009C",
"OX c #840084",
"+X c #6C0070",
"@X c #580058",
"#X c #400040",
"$X c #FCE8DC",
"%X c #FCE0D0",
"&X c #FCD8C4",
"*X c #FCD4BC",
"=X c #FCCCB0",
"-X c #FCC4A4",
";X c #FCBC9C",
":X c #FCB890",
">X c #FCB080",
",X c #FCA470",
"<X c #FC9C60",
"1X c #F0945C",
"2X c #E88C58",
"3X c #DC8854",
"4X c #D08050",
"5X c #C87C4C",
"6X c #BC7848",
"7X c #B47044",
"8X c #A86840",
"9X c #A0643C",
"0X c #9C6038",
"qX c #905C34",
"wX c #885830",
"eX c #80502C",
"rX c #744C28",
"tX c #6C4824",
"yX c #5C4020",
"uX c #543C1C",
"iX c #483818",
"pX c #403018",
"aX c #382C14",
"sX c #28200C",
"dX c #600064",
"fX c #006464",
"gX c #006060",
"hX c #00001C",
"jX c #00002C",
"kX c #302410",
"lX c #480048",
"zX c #500050",
"xX c #000034",
"cX c gray11",
"vX c #4C4C4C",
"bX c gray36",
"nX c gray25",
"mX c gray19",
"MX c #343434",
"NX c #D8F4F4",
"BX c #B8E8E8",
"VX c #9CDCDC",
"CX c #74C8C8",
"ZX c #48C0C0",
"AX c #20B4B4",
"SX c #20B0B0",
"DX c #00A4A4",
"FX c #009898",
"GX c #008C8C",
"HX c #008484",
"JX c #007C7C",
"KX c #007878",
"LX c #007474",
"PX c #007070",
"IX c #006C6C",
"UX c #980088",
/* pixels */
"pXpXpXpXpXpXpXpXpXpXpXpXpXpXpXpXpXpXpXpXpXpXpXpXpXpXpXpXpXpXpXpXpXpXpXpXpXpXpXpXpXpXpXpXpXpXpXpXpXpXpXpXpXpXpXpXpXpXpXpXpXpXpXpX",
"tXtXtXtXtXtXtXtXtXtXtXtXtXtXtXtXtXtXtXtXtXtXtXtXtXtXtXtXtXtXtXtXtXtXtXtXtXtXtXtXtXtXtXtXtXtXtXtXtXtXtXtXtXtXtXtXtXtXtXtXtXtXtXtX",
"qXqXqXqXqXqXqXqXqXqXqXqXqXqXqXqXqXqXqXqXqXqXqXqXqXqXqXqXqXqXqXqXqXqXqXqXqXqXqXqXqXqXqXqXqXqXqXqXqXqXqXqXqXqXqXqXqXqXqXqXqXqXqXqX",
"uXuXuXuXuXuXuXaXuXsXaXuXuXuXuXuXuXuXuXuXuXuXuXuXuXaXuXsXaXuXuXuXuXaXuXsXaXuXuXuXuXuXuXaXuXsXaXuXuXuXuXuXuXuXuXuXuXuXaXuXsXaXuXuX",
"iXiXtXrXrXrXrXuXqXsXuXqXyXiXiXiXiXrXrXiXtXiXtXiXiXuXqXsXuXqXrXiXrXuXqXsXuXqXyXiXiXiXyXuXqXsXuXqXiXrXiXiXrXiXrXiXrXrXuXqXsXuXqXtX",
"iXiXtXrXrXrXyXuXqXsXuXqXtXiXiXiXuXrXrXiXtXiXtXiXiXuXqXsXuXqXrXiXrXuXqXsXuXqXrXyXiXyXrXuXqXsXuXqXiXrXiXiXrXiXrXiXrXrXuXqXsXuXqXtX",
"iXiXyXrXrXG J U U U U U U U U U U U U U U U U U U U U U U U U U U U U U U U U U U U U U U U U U U U U U U U U U U U B F sXuXqXtX",
"uXiXuXtXrXJ U B B B B B B B B B B B B B B B B B B B B B B B B B B B B B B B B B B B B B B B B B B B B B B B B B B B Z aXsXuXqXtX",
"tXiXiXyXrXU B F F F F F F F F F F F F F F F F F F F F F F F F F F F F F F F F F F F F F F F F F F F F F F F F F F Z A aXsXuXqXuX",
"tXiXuXiXyXU B F w w w w w w w w w w w w w w w w w w w w w w w w w w w w w w w w w w w w w w w w w w w w w w w w w B A aXsXuXqXuX",
"rXuXiXiXuXU B F w y.y.t.r.r.r.e.w.w.w.e.r.t.t.t.t.t.t.t.t.t.t.t.t.t.t.t.t.t.t.t.t.t.t.t.t.t.t.r.r.r.r.r.t.y.u.u.u.B A aXsXuXqXuX",
"rXuXiXiXiXU B F w y.r.e.q.w.q.q.q.q.0.8.v b b b n n n n n n m m m m m n n n n n n n n b b b v 9.q.q.e.r.t.y.y.y.t.B A aXsXuXqXiX",
"tXrXiXiXiXU B F w r.e.q.w.q.q.q.8.v b n n n n n m m m m m r m r m r m r m m m m m m n n n n n b v 9.e.r.r.t.t.t.e.B A aXsXuXqXiX",
"tXrXuXiXiXU B F w w.q.w.q.w.w.0.n b b b n b n n n m m m m m r m r m r m m m m m m n n n b n b b b n w.e.r.r.e.e.q.B A aXsXuXqXiX",
"yXrXrXiXuXU B F w w.0.q.w.w.e.n b b b b b n b n m n m m m m m r m r m r m m m n n m n b n b b b b b n w.w.w.w.0.0.B A aXsXuXqXiX",
"uXrXrXrXuXU B F w w.9.0.q.w.n M n b b b n b n n n m m m m m r m r m r m m m m m m n n n b n b b b n M n 0.0.0.0.8.B A aXsXuXqXuX",
"iXtXrXrXyXU B F w e.q.9.9.w.g y r n b n r i i a a a a a a a a a a a a a a a a a a a a i i r n b n r y g 0.0.0.9.q.B A aXsXuXqXuX",
"iXtXrXrXrXU B F w e.w.9.0.0.k g y r r a i y.y.t.r.r.r.r.t.y.0 0 0 0 y.t.r.e.e.e.e.r.9 9 9 i a r r y g k 0.9.9.9.8.B A aXsXuXqXuX",
"iXyXtXrXrXU B F w r.q.0.9.r.g k d a g a 9 y.y.t.t.t.y.y.0 0 0 0 0 0 0 y.t.r.e.e.r.r.u.r.9 9 a g a d k g 9.9.8.9.0.B A aXsXuXqXtX",
"iXuXtXrXrXU B F w r.0.9.w.n a a k g k k t.2 : : 1 6 0 0 0 8 1 , : : 4 8 y.t.r.r.6 , : 4 9 9 k k g k a a n 8.8.0.0.B A aXsXuXqXtX",
"iXiXyXrXrXU B F w t.0.e.n n n y a k k 9 , : 2 6 9 0 u.0 0 1 , : , 7 0   7 t.t.t.9 7 1 : 1 9 k k k a y n n n 0.0.0.B A aXsXuXqXtX",
"iXiXuXrXrXU B F w y.e.n b b n n y d 9 , : 2 6 9 w 0 u.u.u.1 : : : 4 : : , 7 y.y.q sX7 1 : 9 9 g d y n n b b n e.q.B A aXsXuXqXtX",
"uXiXuXyXuXU B F w y.N n n b b n n 9 e.: 2 6 9 w w 9 u.u.u.1 1 > 4 8 7 7 7 7 y.u.9 sXw 7 , , 4 9 9 n n b b n n N w.B A aXsXuXqXtX",
"uXiXiXuXiXU B F w y.g r n n b b r.e., : 4 9 w w w 9 0 u.u.6 , 1 4 6 q u.u.u.u.9 8 sXw w 1 : 1 4 9 u.b b n n r g e.B A aXsXuXqXtX",
"uXiXiXiXiXU B F w y.g y r n n r.e.e.: , 6 9 w w w 6 9 6 u.8 , , 3 3 6 9 u.u.u.6 5 sXw q 4 , : 4 e.e.u.n n r y g e.B A aXsXuXqXyX",
"tXiXiXiXiXU B F w y.g a y r M 9 e.e.: 2 8 w w pX9 9 3 6 6 6 , > > 1 1 5 6 9 u.5 6 sXq q 5 , : 4 r.e.9 M r y a g w.B A aXsXuXqXuX",
"tXiXiXiXiXU B F w t.y.d a y g k 9 u.: 4 9 w w w w 9 3 1 > : : : : : : , 4 6 5 2 8 w q 0 6 , : 4 t.9 k g y a d r.q.B A aXsXuXqXuX",
"tXuXiXiXiXU B F w r.e.y.d a h g k 9 : 4 9 w q w w w 9 3 , : : : : : : , 4 6 r.8 w w q 0 6 , : 4 9 k g h a d r.q.0.B A aXsXuXqXiX",
"yXuXiXiXiXU B F w e.0.e.y.d k h k k : 4 9 w w q w w w 9 3 : > > > > > 1 4 8 8 w w w 0 9 6 , : 4 k k h k d r.q.0.0.B A aXsXuXqXiX",
"uXtXiXiXiXU B F w w.9.0.r.k k k k k : 4 9 w w w q q w w 9 , 1 1 1 1 1 3 6 q w w w w 0 8 5 , : 4 k k k k k q.0.0.0.B A aXsXuXqXiX",
"uXtXuXiXiXU B F w w.9.9.0.y a d g k : 4 9 w w w w w w w 9 1 1 3 3 3 3 6 8 q e e e q 9 8 4 , : 4 k a a y y q.0.q.q.B A aXsXuXqXiX",
"iXyXuXiXtXU B F w e.9.9.9.m y a d k 1 4 9 q 0 w w w w w 9 , 3 6 6 6 6 6 9 q e w w w 0 7 4 , : 4 k a y y m w.q.w.w.B A aXsXuXqXiX",
"iXuXtXuXtXU B F w r.9.9.n m y y a k 1 2 9 q q 0 0 w w w 9 1 4 9 9 9 9 8 9 q e w q 9 8 6 2 , : 4 k y y y m n w.w.q.B A aXsXuXqXiX",
"iXuXtXuXtXU B F w t.0.n b n m y g 9 5 : 8 q q q q q w w 9 1 6 0 0 0 0 9 7 q q q q 9 6 4 1 , < 4 9 g y m n b n q.q.B A aXsXuXqXiX",
"iXiXyXtXyXU B F w t.r.y n b n g 9 u.9 : 6 q w q q w u.u.9 3 8 w w w w 7 5 8 q 0 0 9 4 2 , : 2 4 u.9 g n b n y q.q.B A aXsXuXqXuX",
"iXiXuXyXuXU B F w e.e.a r n g u.9 9 u.1 2 q w q w u.u.u.7 2 6 w w w w 5 2 7 0 q q 7 2 1 , : 3 7 u.u.9 g n r a q.q.B A aXsXuXqXuX",
"iXiXiXuXiXU B F w w.w.g d r g g k 9 u.5 : 8 q w w u.u.u.6 < 5 e e e e 5 2 6 q q q 8 1 , , 1 4 t.u.k g g r d g w.q.B A aXsXuXqXyX",
"iXiXiXiXiXU B F w w.q.y.h d g g k k 9 9 < 3 q q w u.u.w 5 < 4 e e e e < 2 5 q q q 0 , , : 4 7 u.k k g g d h t.q.w.B A aXsXuXqXtX",
"iXiXiXiXiXU B F w e.q.e.y.k k k k g k 9 5 : 8 q u.u.u.w 3 < 3 e e e e , 2 5 q q q q , : 2 7 9 k g k k k k t.e.w.e.B A aXsXuXqXtX",
"uXiXiXiXiXU B F w r.0.q.e.r.y.u.g f g k 9 5 1 q w u.u.9 , , , e e e 4 , , , u.q u.q : 2 7 9 k g f g y.t.r.e.r.e.e.B A aXsXuXqXtX",
"uXiXiXiXiXU B F w t.w.0.n m g g q g a f k 9 4 6 w u.0 , 5 , 5 : 5 , 5 5 , 5 , u.u.u.2 7 9 k f a g y.g g m n e.r.r.B A aXsXuXqXuX",
"tXuXiXiXiXU B F w t.e.n b n a a g g a a k 9 9 9 9 C B T T T T T T T T R R E E Q u.u.u.u.u.k a a g g a a n b n e.t.B A aXsXuXqXuX",
"tXuXiXiXiXU B F w y.n m n b n g g g k a f j 9 9 B I K H H H H H J J K K I Y R W rXu.u.u.j f a k g g g n b n m n r.B A aXsXuXqXiX",
"tXyXuXiXuXU B F w y.u y m m g g k k g k g k 9 B I K H J L L m p p p m T R E E W ! rXu.u.k g k g k k g g m m y u t.B A aXsXuXqXiX",
"tXtXuXuXuXU B F w u.g a y y g u.y.u.k k g k 9 u.Z T R L R p p   p p p p uXF uX! uXu.y.t.k g k k u.u.u.g y y a g t.B A aXsXuXqXiX",
"yXtXyXuXyXU B F w u.y.g g a a g u.y.u.k k 9 u.9 Z I R H m p   g p l   p h W uX! uXy.r.t.y.k k u.u.u.g a a g g u.t.B A aXsXuXqXiX",
"uXtXtXyXtXU B F w y.r.y.y.k k k g g g g u.9 9 u.Z I R H p p l   l   g   f W uX! uXt.e.r.t.y.g g g g k k k u.y.r.q.B A aXsXuXqXiX",
"uXtXtXyXtXU B F w y.w.w.r.t.t.y.k k k k k u.u.9 Z I R H p p p l   l p p p W uX! uXy.r.t.u.k k k k k u.y.y.t.t.r.q.B A aXsXuXqXiX",
"iXtXrXrXrXU B F w t.w.b n p g t.y.y.k f g k u.u.Z I R H p   g   l   l p f W uX! uXu.y.u.k g f k u.u.u.g p n t.t.r.B A aXsXuXqXiX",
"iXyXrXrXrXU B F w t.b b n y y p g g g d f g k u.Z I R H m p   l p g   p h W uX! uXy.y.k g f d g g g p y y n n e.t.B A aXsXuXqXiX",
"iXuXtXrXrXU B F w t.n n b n y g g g a a d f k u.Z I R H R p p p p   p h uXW uX! uXy.y.k f d a a g g g y n b n n e.B A aXsXuXqXiX",
"iXuXtXrXrXU B F w y.p y m b g u.u.g g a a g k u.Z I R H R K m p p p h Q uXW uX! uXy.y.k g a a g g 9 9 g b m y p e.B A aXsXuXqXuX",
"iXiXyXrXtXU B F w u.t.p a y k d u.u.u.g g k u.Z V K H : J : K I I Y T R W E tXtX! uXu.u.k g g t.t.9 d k y a p e.r.B A aXsXuXqXuX",
"iXiXuXtXtXU B F w y.e.t.p k k k k k u.t.t.t.t.D Q ! Z F F V F F F F F uXrXrXrXrXuXuXu.y.t.r.r.u.k k k k k p e.r.r.B A aXsXuXqXyX",
"iXiXuXtXyXU B F w y.r.e.y.y.g a a d k t.r.r.Z V K K : H : : K K I I Y T R W E tXtX! uXy.t.t.y.k d a a g t.t.r.r.t.B A aXsXuXqXyX",
"iXiXiXyXyXU B F w y.y.u.g g g g g a g t.r.e.D Q ! Z F F V Z F F F F F uXuXrXrXrXrXuXuXu.y.y.y.g a g g g g g t.t.t.B A aXsXuXqXtX",
"iXiXiXuXuXU B F w u.u.u.u.u.u.q g g u.y.t.Z V K K : H H : : K K I I Y T R R W W tXtX! uXu.u.u.u.g g r.r.r.t.t.t.t.B A aXsXuXqXtX",
"uXiXiXiXiXU B F w u.u.u.u.u.u.u.u.u.y.u.y.D Q Z Z F F V Z Z F F F F F uXuXuXrXrXrXtXuXuXu.u.u.u.y.t.r.e.r.t.t.t.t.B A aXsXuXqXrX",
"uXiXiXiXiXU B Z B B B B B B B B B B B B B B B B B B B B B B B B B B B B B B B B B B B B B B B B B B B B B B B B B B A aXsXuXqXrX",
"yXiXiXiXiXU B A A A A A A A A A A A A A A A A A A A A A A A A A A A A A A A A A A A A A A A A A A A A A A A A A A A A aXsXuXqXrX",
"yXuXiXiXiXB aXaXaXaXaXaXaXaXaXaXaXaXaXaXaXaXaXaXaXaXaXaXaXaXaXaXaXaXaXaXaXaXaXaXaXaXaXaXaXaXaXaXaXaXaXaXaXaXaXaXaXaXaXaXsXuXqXrX",
"tXuXiXiXiXuXtXaXyXsXuXyXaXaXaXaXaXaXaXaXaXaXaXaXaXaXyXsXuXyXaXaXaXaXyXsXuXyXaXaXaXaXaXaXyXsXuXyXaXaXaXaXaXaXaXaXaXaXaXyXsXuXqXrX",
"tXyXiXiXiXuXtXuXqXsXuXqXiXiXiXiXyXiXiXiXiXtXrXrXyXuXqXsXuXqXtXyXiXuXqXsXuXqXiXiXiXiXiXuXqXsXuXqXyXiXrXyXiXiXiXiXiXiXuXqXsXuXqXrX",
"yXyXyXyXyXyXyXuXqXsXuXqXyXiXiXiXiXiXiXiXyXyXyXyXyXuXqXsXuXqXyXiXiXuXqXsXuXqXyXiXiXiXyXuXqXsXuXqXyXiXyXyXiXiXiXiXiXiXuXqXsXuXqXyX"
};
