/* XPM */
static char *Wall_0491647953497[] = {
/* columns rows colors chars-per-pixel */
"64 64 256 2 ",
"   c black",
".  c #0000A8",
"X  c #00A800",
"o  c #00A8A8",
"O  c #A80000",
"+  c #A800A8",
"@  c #A85400",
"#  c gray66",
"$  c gray33",
"%  c #5454FC",
"&  c #54FC54",
"*  c #54FCFC",
"=  c #FC5454",
"-  c #FC54FC",
";  c #FCFC54",
":  c gray99",
">  c #ECECEC",
",  c gainsboro",
"<  c #D0D0D0",
"1  c #C0C0C0",
"2  c #B4B4B4",
"3  c gray66",
"4  c #989898",
"5  c gray55",
"6  c #7C7C7C",
"7  c gray44",
"8  c #646464",
"9  c gray33",
"0  c #484848",
"q  c gray22",
"w  c #2C2C2C",
"e  c #202020",
"r  c #FC0000",
"t  c #EC0000",
"y  c #E00000",
"u  c #D40000",
"i  c #C80000",
"p  c #BC0000",
"a  c #B00000",
"s  c #A40000",
"d  c #980000",
"f  c #880000",
"g  c #7C0000",
"h  c #700000",
"j  c #640000",
"k  c #580000",
"l  c #4C0000",
"z  c #400000",
"x  c #FCD8D8",
"c  c #FCB8B8",
"v  c #FC9C9C",
"b  c #FC7C7C",
"n  c #FC5C5C",
"m  c #FC4040",
"M  c #FC2020",
"N  c #FC0000",
"B  c #FCA85C",
"V  c #FC9840",
"C  c #FC8820",
"Z  c #FC7800",
"A  c #E46C00",
"S  c #CC6000",
"D  c #B45400",
"F  c #9C4C00",
"G  c #FCFCD8",
"H  c #FCFCB8",
"J  c #FCFC9C",
"K  c #FCFC7C",
"L  c #FCF85C",
"P  c #FCF440",
"I  c #FCF420",
"U  c #FCF400",
"Y  c #E4D800",
"T  c #CCC400",
"R  c #B4AC00",
"E  c #9C9C00",
"W  c #848400",
"Q  c #706C00",
"!  c #585400",
"~  c #404000",
"^  c #D0FC5C",
"/  c #C4FC40",
"(  c #B4FC20",
")  c #A0FC00",
"_  c #90E400",
"`  c #80CC00",
"'  c #74B400",
"]  c #609C00",
"[  c #D8FCD8",
"{  c #BCFCB8",
"}  c #9CFC9C",
"|  c #80FC7C",
" . c #60FC5C",
".. c #40FC40",
"X. c #20FC20",
"o. c #00FC00",
"O. c #00FC00",
"+. c #00EC00",
"@. c #00E000",
"#. c #00D400",
"$. c #04C800",
"%. c #04BC00",
"&. c #04B000",
"*. c #04A400",
"=. c #049800",
"-. c #048800",
";. c #047C00",
":. c #047000",
">. c #046400",
",. c #045800",
"<. c #044C00",
"1. c #044000",
"2. c #D8FCFC",
"3. c #B8FCFC",
"4. c #9CFCFC",
"5. c #7CFCF8",
"6. c #5CFCFC",
"7. c #40FCFC",
"8. c #20FCFC",
"9. c #00FCFC",
"0. c #00E4E4",
"q. c #00CCCC",
"w. c #00B4B4",
"e. c #009C9C",
"r. c #008484",
"t. c #007070",
"y. c #005858",
"u. c #004040",
"i. c #5CBCFC",
"p. c #40B0FC",
"a. c #20A8FC",
"s. c #009CFC",
"d. c #008CE4",
"f. c #007CCC",
"g. c #006CB4",
"h. c #005C9C",
"j. c #D8D8FC",
"k. c #B8BCFC",
"l. c #9C9CFC",
"z. c #7C80FC",
"x. c #5C60FC",
"c. c #4040FC",
"v. c #2024FC",
"b. c #0004FC",
"n. c #0000FC",
"m. c #0000EC",
"M. c #0000E0",
"N. c #0000D4",
"B. c #0000C8",
"V. c #0000BC",
"C. c #0000B0",
"Z. c #0000A4",
"A. c #000098",
"S. c #000088",
"D. c #00007C",
"F. c #000070",
"G. c #000064",
"H. c #000058",
"J. c #00004C",
"K. c #000040",
"L. c #282828",
"P. c #FCE034",
"I. c #FCD424",
"U. c #FCCC18",
"Y. c #FCC008",
"T. c #FCB400",
"R. c #B420FC",
"E. c #A800FC",
"W. c #9800E4",
"Q. c #8000CC",
"!. c #7400B4",
"~. c #60009C",
"^. c #500084",
"/. c #440070",
"(. c #340058",
"). c #280040",
"_. c #FCD8FC",
"`. c #FCB8FC",
"'. c #FC9CFC",
"]. c #FC7CFC",
"[. c #FC5CFC",
"{. c #FC40FC",
"}. c #FC20FC",
"|. c #FC00FC",
" X c #E000E4",
".X c #C800CC",
"XX c #B400B4",
"oX c #9C009C",
"OX c #840084",
"+X c #6C0070",
"@X c #580058",
"#X c #400040",
"$X c #FCE8DC",
"%X c #FCE0D0",
"&X c #FCD8C4",
"*X c #FCD4BC",
"=X c #FCCCB0",
"-X c #FCC4A4",
";X c #FCBC9C",
":X c #FCB890",
">X c #FCB080",
",X c #FCA470",
"<X c #FC9C60",
"1X c #F0945C",
"2X c #E88C58",
"3X c #DC8854",
"4X c #D08050",
"5X c #C87C4C",
"6X c #BC7848",
"7X c #B47044",
"8X c #A86840",
"9X c #A0643C",
"0X c #9C6038",
"qX c #905C34",
"wX c #885830",
"eX c #80502C",
"rX c #744C28",
"tX c #6C4824",
"yX c #5C4020",
"uX c #543C1C",
"iX c #483818",
"pX c #403018",
"aX c #382C14",
"sX c #28200C",
"dX c #600064",
"fX c #006464",
"gX c #006060",
"hX c #00001C",
"jX c #00002C",
"kX c #302410",
"lX c #480048",
"zX c #500050",
"xX c #000034",
"cX c gray11",
"vX c #4C4C4C",
"bX c gray36",
"nX c gray25",
"mX c gray19",
"MX c #343434",
"NX c #D8F4F4",
"BX c #B8E8E8",
"VX c #9CDCDC",
"CX c #74C8C8",
"ZX c #48C0C0",
"AX c #20B4B4",
"SX c #20B0B0",
"DX c #00A4A4",
"FX c #009898",
"GX c #008C8C",
"HX c #008484",
"JX c #007C7C",
"KX c #007878",
"LX c #007474",
"PX c #007070",
"IX c #006C6C",
"UX c #980088",
/* pixels */
"zXzXzXe #X#X#Xe #XzX@X#XzXe #X#X#X#X#Xe zXzXzXzXzXzXlXe #X#X#X#X#X#X#Xe lXzX@X@XzXlX#Xe #X#X#X#X#X#X#X#X#X#Xe e #X#X#X#X#X#X#X#X",
"pX@X@XzXe e e #XzX@XzXzX#X#Xe #X#Xe e zX@X+XiXiXiXpXzX#Xe e #X#Xe e #X#XzX@X@X@X@XzX@XzXe #X#X#X#X#X#X#Xe #X#XlXzX@X@XiXiXiXiXiX",
"iXpX@X@X@XzXe #XzXzX#XzXzXzX#Xe e #X#X@X+XiXiXpXpXpXpXlX#X#Xe e #X#X#X#XzX@X@X@XzX@XzXzX#Xe e #X#X#Xe e #X#X#XzX@X@XiXiXiXiXiXiX",
"pXpXpX@XzXlX#X#X#X#Xl zX#X#XcXe #X#X#X@X+XiXpXlXlXlXpXzX#X#X#X#XlXlXlX#XzX@XzX@XzXzXlX#X#X#X#Xe #X#Xe #X#X#X#XzX@XiXiXiXiXaXaX#X",
"@XpXsXzX@XzXlX#X#X#X#X#X#Xe e #X#X#X#XzX@X@XlX#XzX@XiXzX#X#XpXpXpX@XzXlX#XzX@XzXlX#XpXpXiXpXpXpXaXaXaXsX#X#X#XzX@XiXiXiXaX#XaXzX",
"@XpXaX@X@XzXzXlXzXzX@X@X@X@X@XzXzXlX#X#XzX@XzX@X@XzXaXlX#XpXiXiXiXpX@XzX#X#XzXsXaXpXiXiXiXiXiXpXpXpXkXpXaX#X#XzX@XzXiXpXaXzXaX@X",
"zX@XpXzX@XzX@XzX@X@X@X@XiXzXzX@X@XzXzX#XlXzXlX@XzXzXsX#XpXiXiXaXaXpX@XzX#XkXaXiXiXuXiXiXiXpXaXaXsXaXsXkXpXkX#XlXzX@XiXpXkX@XaXzX",
"@X@XpX@XzXzXzX@XpXuX@XiXpXzXlXzXzXzX@XzX#X#X#XlXzX#XsX#XiXpXaX#X#XaXzX#XsXaXiXuXuXuXuXuXiXkXaXsX  aX#X#XpXkXsX#XlX@XiXpXkX@XaX#X",
"zX@XpXzX#XzX@XpXuXuXiXpXaXzX#X#X#XlXzXzX#XzXl #XzXzXpXzXpXpX#X@XzXkX@XzXaXiXuXuXyXyXuXuXiXsX  sX#XaXzXzXaX#XkX#X#XzXpXaXkXzXaX#X",
"lXzXpX#XzX@X@XuXuXiXpXpXaXzX#XlXzX#X#X#X#XlXl zXzXzXaX#XpXpXzX@X@XkXzXkXiXaXsXyXyXuXuXiXpXsX#XsX#XaX@X@XaXzXkX#X#XlXpXaXkX@XaX#X",
"#XlXaXzXzX@X+XuXiXpXpXaXkXzX#XzXzXpXpXpXaXsX#X#X#XzXsX#XkX#X@XzXzXsX#XkXaXiXzXyXuXiXiXpXaXsX#X#X#X@X@XaXaXzXkXsXlX#X#XaXkXzX#X#X",
"#X#XkXzX@X@X+XuXpXaXaXkXkXzXlXzXpXj iXiXiXpXzXlX#X#X#X#XkXzX@X#XzXsXe sXaXaXzXyXiXiXpXaXaXaXsX@X#X@XaXaXaXaXkXkXzXlX#XaXsX#X#X#X",
"#X#XkXzX@X+X+XzXpXaXkXzXkX#XzX#XiXiXpXlXpXiX@XzX#X#Xe e sX#X#X#X#Xe e #XaXkX@XiXiXpXaX#XzXaXaXsX@X@XaXkXsXaXkXkXzXzX#XaXsX#X#Xe ",
"#X#XsXzX+X@XiXiXiXpXsX#XkX#X#XpXiXpXlXzX@XpX@XzX#XcX  e #X#XlXlXlXlX#X#XaXkX@XiXpXaX#XzX@XzXaXsXpXiXkXsXsX@XsXkXzX@XlX#X#X#Xe e ",
"#X#Xl l @XiXiXl g zXzXzXj e #XpXiXpXlX@XzXpX@XzX#Xe e #X#X#XzX@X@XzXlX#XkXsX@XiX#Xl zX@X@X@XiXpXiXaXsXzXzXzXsXsXzX@XzX#X#X#Xe e ",
"#X#X#XzX@XiXpXzX@X+X+X@XsXcX#XpXiXpX#X@XlXaXzX#Xl #XsXsXsXlXzXl zXzXlXe kX#X@XiX@XaX#XsXaXiXiXiXaXsXzX@XzX#XzXsXsXzXzX#Xe e e e ",
"#X#X#XzX@XiXzX@X+X@XzXzXsX  #XiX@XaX#XzX#XsXlX#X#XpXiXiXpXpXsXlXzX#Xe e kX#X@XiX@XaXsXiXiXiXiXiXiXaXsXzXzXlX@XsXsXsXzX#Xe e e e ",
"#X#X#Xl zXiXzX+X@X#X#X  sX  #XiX@XsXj zX#XsX#XlXiXyXyXyXyXiXpX#XlXzXe e kXzX@XlX@XaXiXiXiXiXaXaXaXaXkXzX@XzXzXzXsXsXsX#Xe e #X#X",
"#X#X#Xl zXiXzXj lXzX@X#XsXe #X@X@XzX@XzX#X#X#X@XyXiXpXpXpXpXiXaX#X#X#Xe kXzXzXlXlXaXiXiXaXaXsXaXsXaXkXzXzXlX#X@XzXsX#X  #X#X#X#X",
"lXlXlXlXzXzX@XzX#X@XzX#XsX#X#Xl @X@XzXl #X#XlX@XpXzXOXg @X+XpXaXsXsX#X#XsXzX@X#XaXaXiXaXkXsX#XaX#XaXkXzXlXzX#X@XzXsX#Xe #X#X#XzX",
"zXzXzX#XlXzX@XlX#Xl zX@XzX#XzXl zXl lX#XlXlX@Xj j OXg @X@XaX@XaXaXsX#X#XsXzXzX#XlXaXiXaXsX#XzXlXzXaXkXzX#XzX#XzXzXsX#X#XzXzXzXzX",
"iX@X@XzX#Xl zX#XzX#X#XzX@XzXj l lX#Xl j l @Xj j l +X@XiXaXaXsXaXsXsXsX#XsXzXlX#XlXaX@XaXsXzXzXlX#XsX#X#XzXlX#XzX#XsX#XzX@XuXuXiX",
"iXiXpX@XzX#X#Xl lXzX@XlX#XcXcX#X#X#XlXzX@Xj j iXl iXiXpXsX#XzXsX#XsXsXsXaXsX#Xl zXaX@XkXsXlXlXlXzXzX#XzXlX#X#X#XsXaX@X@XuXuXiXiX",
"pXpXiXaXzXk lXzX@Xj j zX#X  cXpXpXkXlXzX@Xj j zXl iXaXaX#XzX@X#XsXkXaXpXiXpX#XlXzXzX@XkXzX#X#X#XlX@XzX#X#X#Xe   sXpXiXiXuXuXiXiX",
"pXaXaXaXzX@Xk zX@Xj @Xj lX  aXj aXaX#Xj k j j zX@XiXaXsX#X@X#XsXkXkXkXkXaXaXaXzXzXzX@XsX@XzXzX@X@XzX@XcXe   #X#XpXiXuXuX@X@X@XpX",
"#X#XaXkXkXzXj k @X@XzX#X  j iXzX#Xj #XzXk k k iXiXaXsXsXzX@XaXsXsXkXkXaXaXsXaXaXkX@XzXzXzX@X@Xj zXlXcX    cX#XzXiXuXuX+X@XzXzXzX",
"lXlXlXkXkXzXk k k zX#XsXj j j #Xj sXsXzXk k l zX#X#XzXzX@X@XaXsXkXkX#X#XzXaXaXkXkXkXzX@XzXzX@XzXlX#XcX  cXe zX@XuXuX+X+X@X#XzX#X",
"@X@X@XaXaX#Xk l l l sXaXaXpX#X#Xj sXk k l l l l #XzXiXiXg aXkXsXkXaXaX@X+XaXzXk kXkXsXzX#XlXzXlX#X#XcXe l #X@XuXiXuXuXuXuXiX#X#X",
"lXzXzXpXpX#XzXl z z sXzXj aXzXzXk k #XlXl l l @X+X+Xg +Xj aXkXzXzXsXaX@X@XaXzXaXaXkXsXlX#X#X#X#XpXpXpX#X#Xl @XiXuXpXpXpXuXuXiXzX",
"#XzX@XiXpX@XlXl z z z #XzXkX@Xk k #Xe #Xl l l +X+Xg @X@X@XaXkX#X+X@XsX#XzXaXzXaXk kXsXlXlX#X#XpXpXpX#Xg h j +XiXpX@XOXOXpXiXiX@X",
"zX@XzXj pXzX#Xl l z l k zXsXz z z sXe e l k j +X+X@X@XzXpXaXsXg @X@XsX#Xl aXk aXk k sXzX#XsX#XpXaXl g @X@X@X+XiX@XOX@X@X+X+XiXpX",
"zX@XzXaXaXj zXl l l k j j j k @XzXaXsXsXk j j j pXiXiXaXsXaXzX+XzXzXsX#Xl zXk aXaXkXk zX#X#X#XaXl j @XzXzX@X+XiX@XOXzXzX+X+XpXpX",
"lX@XzXkXkX@X#Xl l k j j h j k k aX@XsXk j j k pXiXpXaXj aXzX+X@Xl @X#Xl @X@X@XaXaXkXk z #XcXl aXl @X@XzX#X@X@XiX@X+XzXlX@X@XaXaX",
"#XzX@XaXaXzXzXl l k j h j k l k k l zXj j k l iXpXsXe sXaXsX+X@X#XzXzXzX@X@X@XaXaXkXsXz z z z kXl l zXz zX@X@XiX@X+XzX#XzXsXkXkX",
"lXzX@XiXpXzX@Xl l k j j k l l l k l z j k l l aXsX#X#X#XkXsX@XzXe #XzX@X@XzX#XaXkXsXsXzXz z z kXl l z z lXzX@XpXzX@XzX#XzXsXsXsX",
"@XlX@XpXj zX@XzXl @Xk k l l z z l z z l l l l sXe #XzX#XkXsXzX#Xe #XzX@X@Xl #XaXkX#XzXlX#Xz z kXz z z z z lXzXaXzX@XzXlX#X#XaXaX",
"#XlX@XkXsXzXzXj l zX@Xl l z z z z z z l l l zXkXe zXzXl kXsX#Xe #X#X#XzX@X#X#XaXkX#XzXlX#Xl #XsXz z z z z #Xz kX#XzXzXzXlX#XpXpX",
"#XlXzXsXzXlXlXj j zX@Xl z z z z z z z #Xl zXzXpXcX#X#Xe kXsXe e zX#X#X@X#X#XzXzXkXzX@XzXl l zXsXz z z l l z l kXcX#XzXzXzXzXiXiX",
"j #X@XzXlX#Xj #Xl lXzXl z z z z z z z e l #XlXaX  zX#Xe sXsXe #X#Xe #X#XzXzX#XzXsX#XzXl @X@X@XsX#Xz zXl l zXl aX#XcX#X#X#X#XiXiX",
"#X#XzX#X#X#X#X#Xl #Xj z z z z z z z z #Xl j #XkXcX#X#X@XzXsXcXe e #Xl zX@X@X#XzX#XsXl l @X@XzXsXlXzX@Xl l l zX#X#Xe cX      pXpX",
"#X#X#XzXzXj zX#Xj j #Xz z z z z z z z #Xl #X#XkXe cXcXzXl sX  e e #Xl @X@XzX#X#X#XsXl @Xl #X#XsXsXpXpXl l l l zXzX#Xe cX    aXkX",
"#X#XzX@XiXiX@XzXj zXlXz z z z z l l l lXj lX#XkXe e cXcXcXsX  e #XlXzX@XzX#X#XzX#X#X#X#X#X@XsXpXpXiXiXpXpXl l zX@XzX#Xe cX  kXkX",
"#X#XzXiXpXpXaXzXj lXzXl @Xz z l l h j zX@XzXj sX#Xe e e e sXcX#Xl zXlX#X#X#X#X#X#Xe #X#XlXzX@XpXiXpXaX#XaXzXl zX@X@XzX#Xe cXsXsX",
"#X#X@XpXzXj aX#Xj zX@Xj @Xl l l h j k lXzX#Xe sX#X#X#X#X#XsX#X#X#X#XlXzXlX#X#X#Xe cXl #XzX@X+XiXiXaXsX  sXzXl @X@XzX@XzX#X#XsXsX",
"#X#X@XaXzXj aX@Xk @X@Xh iXl k j j l l #X#X#XcXsX#XaXaXaXaXpX@X@X#X#XlXzXzXzXlXlX#Xl #XlXzX@X+XaX@XsX#X  #X#Xl @XzX#XzX#XzX#XsX  ",
"#X#XzXaXzXj aXzXk @X@Xk @Xl l #XaXl l zX#X#X  sXaXiXiXpXpXiX+X+X@X#X#XzX@X@XzXzXlXl lXzX@XiX+XaX@XsX    #XzX@X@XzX#X#XzX@XzXsX  ",
"#X#X#XsXzX@X@XzXl @XzXl #Xl #Xl #Xl l @XzX#Xe aXiXyXuXiXpXiX@XOX+XiXsXzX@X@XzX@XzX#XzX@XiXiX@XsXzX#X  #X#XsXpX+X@XzXzXzX@XzXsX  ",
"e #X#XsXzX@X@XzXl @XzXl @X#Xl #X@Xl sX@XzX#X#XpXyXuXuXiXiXiXzX+X@XpXiXsX@XzX@XzXzXlXzXiXiXiX@XsXzX#X#XsXsXpXiXuX@XzX@XzXzXzX#X#X",
"#Xe #XsXzXzXzX#Xl @XzXz #X#X#Xl +Xl sXzXlX#X#XiXuXiXiXpXiXiXiX@X+X@XpXpXzX@XzX@XzXzXiXiXiXiXiXiX#XsXsXpXpXiXuXpXzXzX@XzXzX@XzXsX",
"#Xe #XsX#X#X#X#Xl zXlXz #X#X#X#X#XsXzX@XzX#XiXiXpXaXiXaXpXiXiXiX@X+X@XpXsXzXzXzXzX@XiXiXpXpXpXpXiX@X@XuXuXuXpXkX#X#XzXzXzX@XzXsX",
"e cXe sXe #X#X#X#XlXzXz lX#X#X#X  sX#XzXlX#X@XiXaXpXpXkXaXpXpXpXzX@X@XpXsX#X#XlXzXiXiXpXpXe #X#X#XzXzXpXsX#XpXkX#XzX@X@XzX@XzXsX",
"cX  cXsXe cXe e #X#X#Xz #XzX#X#Xe sX#X#XsXiXiXiXiXpXkXpXaXaXkXkXpXiX@XpXkXe #X#XlXiXpXzXaX#X#X#XzX@X@XpXsXzXpXkXzX@X@XzX#XzX#X#X",
"e     cXcXe #X#X#XlXlXl lX#Xl #X#XsXsXkXiXaXaXkXpXkXpXaXkXkXsXsXkXpXpXpXpXkXe #X#XaX@XzXaX#XsXpXpXkXkXpX@X@XzXkX@X@XaXpXsX#X#XsX",
"#X    sXe #X#XlXzXzX@Xj @X@Xl l #XsXsXiXaXaXkXkXsXsXaXkXsXe #X#XzXzXaXaXpXpXkXsX#XkXzX@XkXzXpXaXaXkXkXpX@XzXzXkXzXaXpXpXpXsX#XsX",
"cX  cXe #XlXzX@X@X@XiXh iXiXj l zX#XkXpXaXsXcXsXsXcXkXkXsX#X@XzXzX#XkXkXkXkXaXsXe sX#XzXsX@XzXkXe sXkXpXzX#X#XsX@XzXzXaXaXsX#X#X",
"e cXe e #XzX@X+X+XpXiXj aXaXl j @X#XkXaXsXcXcXsXsXcXsXsXsXzX@X@X@X@XsXkXkXsXaXsX#XsXe #XsX@XzXkXe sXsX#X#XzX#XsXzX#XzXsXsXsX#X#X",
"e e e e lXzX@X+X+XiX#Xl zXzXaXaXzX#XkXaXsXe e e sXe e #XsX#XzX@X@X@XsXsXsXe kXsX#X#X#Xe sXzXzXsXe sXsX#X#X@X#XsX#X#X#XsXsXsX#X#X",
"#Xe e #XlXzX@X+X#XaXzX@XzX@XzXaXzX#XkX@X@XlXlX@XsXlX@XlXsXlXzX@XzXzXsXsXe #XkXsX#X#X#Xe sX#X#XsX#XaXaXsX#X#X#XsX#XzX#X#XpXaXaX#X",
"#Xe e #XlXzX@XaXaXsXaXaX@XzX@XkXzXzXkXlX@X@XlX#XsX#XlXlXsXzX#XzXlXe e sX#XzXkXsXe zXe #XsX#X#X#X#XpXzXpXsX#X#XsXzX#X#XpXyXiXiXaX",
"#Xe e #XaXiXiXiXzX@XzXzXzXzXzXkXzX@XsX#XlXlX#X#XsXsXsXsXsXzXzXlX#X#Xe sXzX#XkXsXe #X#X#XsXzXzX#X@XaX@XzXsXsX#XsX#X#XpXyXiXpXpX@X",
"sX#X#XzXiXiXpXpXiXzXzX@X@XsXsXsXsXsXsX#X#X@X#XsXkXkXkXkXkXkXkXsXsXsXsXsXsX#XkXsXe zX#XzX@X@X@XzX#XsXsXsXsXsXsXsXkXkXiXyXpXzXsXsX",
"sXsXsX@XiX#XzX@XaX@X#XzXsXsXkXkXkXkXkXsXsXkXkXaXpX@XpXpXpXpXaXaXaXaXkXkXkXsXsXsXzX@XzXzX@X@X@XsXsXkXaXaXaXaXpXpXpXiXyXpXkX@XzXsX",
"sXsXsXsXpXzX@X#XsXsXsXsXkXaXpXiXiXpXpXaXkXsXsXkXaXpXiXuXyXuXiXiXpXpXpXpXaXaXaXkXkXkXsXsXsXkXkXkXkXkXaXpXiXiXiXiXiXiXpXkXkXsXsXsX",
"8 0 q sXsXsXsXsXsXsXsXsXsXkXkXkXkXkXq 0 8 8 9 q sXsXsXkXkXkXkXkXkXkXkXkXkXkXsXsXsXsXsXq 0 9 9 0 q sXsXsXsXsXsXsXsXsXsXsXsXq 0 8 "
};
