/* XPM */
static char *Wall_0151647953497[] = {
/* columns rows colors chars-per-pixel */
"64 64 256 2 ",
"   c black",
".  c #0000A8",
"X  c #00A800",
"o  c #00A8A8",
"O  c #A80000",
"+  c #A800A8",
"@  c #A85400",
"#  c gray66",
"$  c gray33",
"%  c #5454FC",
"&  c #54FC54",
"*  c #54FCFC",
"=  c #FC5454",
"-  c #FC54FC",
";  c #FCFC54",
":  c gray99",
">  c #ECECEC",
",  c gainsboro",
"<  c #D0D0D0",
"1  c #C0C0C0",
"2  c #B4B4B4",
"3  c gray66",
"4  c #989898",
"5  c gray55",
"6  c #7C7C7C",
"7  c gray44",
"8  c #646464",
"9  c gray33",
"0  c #484848",
"q  c gray22",
"w  c #2C2C2C",
"e  c #202020",
"r  c #FC0000",
"t  c #EC0000",
"y  c #E00000",
"u  c #D40000",
"i  c #C80000",
"p  c #BC0000",
"a  c #B00000",
"s  c #A40000",
"d  c #980000",
"f  c #880000",
"g  c #7C0000",
"h  c #700000",
"j  c #640000",
"k  c #580000",
"l  c #4C0000",
"z  c #400000",
"x  c #FCD8D8",
"c  c #FCB8B8",
"v  c #FC9C9C",
"b  c #FC7C7C",
"n  c #FC5C5C",
"m  c #FC4040",
"M  c #FC2020",
"N  c #FC0000",
"B  c #FCA85C",
"V  c #FC9840",
"C  c #FC8820",
"Z  c #FC7800",
"A  c #E46C00",
"S  c #CC6000",
"D  c #B45400",
"F  c #9C4C00",
"G  c #FCFCD8",
"H  c #FCFCB8",
"J  c #FCFC9C",
"K  c #FCFC7C",
"L  c #FCF85C",
"P  c #FCF440",
"I  c #FCF420",
"U  c #FCF400",
"Y  c #E4D800",
"T  c #CCC400",
"R  c #B4AC00",
"E  c #9C9C00",
"W  c #848400",
"Q  c #706C00",
"!  c #585400",
"~  c #404000",
"^  c #D0FC5C",
"/  c #C4FC40",
"(  c #B4FC20",
")  c #A0FC00",
"_  c #90E400",
"`  c #80CC00",
"'  c #74B400",
"]  c #609C00",
"[  c #D8FCD8",
"{  c #BCFCB8",
"}  c #9CFC9C",
"|  c #80FC7C",
" . c #60FC5C",
".. c #40FC40",
"X. c #20FC20",
"o. c #00FC00",
"O. c #00FC00",
"+. c #00EC00",
"@. c #00E000",
"#. c #00D400",
"$. c #04C800",
"%. c #04BC00",
"&. c #04B000",
"*. c #04A400",
"=. c #049800",
"-. c #048800",
";. c #047C00",
":. c #047000",
">. c #046400",
",. c #045800",
"<. c #044C00",
"1. c #044000",
"2. c #D8FCFC",
"3. c #B8FCFC",
"4. c #9CFCFC",
"5. c #7CFCF8",
"6. c #5CFCFC",
"7. c #40FCFC",
"8. c #20FCFC",
"9. c #00FCFC",
"0. c #00E4E4",
"q. c #00CCCC",
"w. c #00B4B4",
"e. c #009C9C",
"r. c #008484",
"t. c #007070",
"y. c #005858",
"u. c #004040",
"i. c #5CBCFC",
"p. c #40B0FC",
"a. c #20A8FC",
"s. c #009CFC",
"d. c #008CE4",
"f. c #007CCC",
"g. c #006CB4",
"h. c #005C9C",
"j. c #D8D8FC",
"k. c #B8BCFC",
"l. c #9C9CFC",
"z. c #7C80FC",
"x. c #5C60FC",
"c. c #4040FC",
"v. c #2024FC",
"b. c #0004FC",
"n. c #0000FC",
"m. c #0000EC",
"M. c #0000E0",
"N. c #0000D4",
"B. c #0000C8",
"V. c #0000BC",
"C. c #0000B0",
"Z. c #0000A4",
"A. c #000098",
"S. c #000088",
"D. c #00007C",
"F. c #000070",
"G. c #000064",
"H. c #000058",
"J. c #00004C",
"K. c #000040",
"L. c #282828",
"P. c #FCE034",
"I. c #FCD424",
"U. c #FCCC18",
"Y. c #FCC008",
"T. c #FCB400",
"R. c #B420FC",
"E. c #A800FC",
"W. c #9800E4",
"Q. c #8000CC",
"!. c #7400B4",
"~. c #60009C",
"^. c #500084",
"/. c #440070",
"(. c #340058",
"). c #280040",
"_. c #FCD8FC",
"`. c #FCB8FC",
"'. c #FC9CFC",
"]. c #FC7CFC",
"[. c #FC5CFC",
"{. c #FC40FC",
"}. c #FC20FC",
"|. c #FC00FC",
" X c #E000E4",
".X c #C800CC",
"XX c #B400B4",
"oX c #9C009C",
"OX c #840084",
"+X c #6C0070",
"@X c #580058",
"#X c #400040",
"$X c #FCE8DC",
"%X c #FCE0D0",
"&X c #FCD8C4",
"*X c #FCD4BC",
"=X c #FCCCB0",
"-X c #FCC4A4",
";X c #FCBC9C",
":X c #FCB890",
">X c #FCB080",
",X c #FCA470",
"<X c #FC9C60",
"1X c #F0945C",
"2X c #E88C58",
"3X c #DC8854",
"4X c #D08050",
"5X c #C87C4C",
"6X c #BC7848",
"7X c #B47044",
"8X c #A86840",
"9X c #A0643C",
"0X c #9C6038",
"qX c #905C34",
"wX c #885830",
"eX c #80502C",
"rX c #744C28",
"tX c #6C4824",
"yX c #5C4020",
"uX c #543C1C",
"iX c #483818",
"pX c #403018",
"aX c #382C14",
"sX c #28200C",
"dX c #600064",
"fX c #006464",
"gX c #006060",
"hX c #00001C",
"jX c #00002C",
"kX c #302410",
"lX c #480048",
"zX c #500050",
"xX c #000034",
"cX c gray11",
"vX c #4C4C4C",
"bX c gray36",
"nX c gray25",
"mX c gray19",
"MX c #343434",
"NX c #D8F4F4",
"BX c #B8E8E8",
"VX c #9CDCDC",
"CX c #74C8C8",
"ZX c #48C0C0",
"AX c #20B4B4",
"SX c #20B0B0",
"DX c #00A4A4",
"FX c #009898",
"GX c #008C8C",
"HX c #008484",
"JX c #007C7C",
"KX c #007878",
"LX c #007474",
"PX c #007070",
"IX c #006C6C",
"UX c #980088",
/* pixels */
"q G.G.G.G.G.G.G.G.G.G.G.G.G.G.G.G.G.G.G.G.G.G.G.G.G.G.G.q q G.G.G.G.G.G.G.G.G.G.G.G.G.q q G.G.G.G.G.G.G.G.G.G.G.G.q G.G.G.G.G.q ",
"e G.G.G.G.G.G.G.G.G.G.G.G.G.G.G.G.G.G.G.G.G.H.H.H.J.K.K.jXjXG.G.G.G.G.G.G.G.H.J.J.J.J.jXjXG.G.G.G.G.G.G.G.J.J.jXjXjXF.F.F.F.H.hX",
"  G.G.G.J.G.K.G.G.H.K.F.F.K.G.G.G.K.K.G.J.K.K.K.K.jXjXjX    G.G.H.H.J.G.G.H.J.J.J.J.jX    G.D.F.D.F.D.D.D.D.D.H.K.  F.F.J.H.J.  ",
"  G.H.K.J.H.D.D.H.G.G.F.F.F.G.G.G.J.K.K.H.H.K.K.K.K.jXjX    G.H.G.G.J.H.H.K.J.K.G.jXjX    G.F.D.D.G.D.S.F.D.G.H.K.  G.G.F.H.jX  ",
"  G.J.G.K.H.D.D.D.H.H.H.F.F.K.G.G.G.H.K.K.jXK.J.J.J.K.jX    G.H.J.J.H.H.K.J.K.jXjXjXjX    G.D.F.G.S.D.F.G.H.J.J.jX  J.jXK.K.jX  ",
"  G.J.K.G.H.H.D.D.H.K.H.G.K.H.H.G.G.K.J.J.jXK.J.J.J.K.jX    G.G.J.G.G.K.jXjXjXJ.K.jXjX    G.D.G.S.C.S.G.D.G.H.jXK.  H.J.jXjXjX  ",
"  G.H.H.G.G.K.H.G.H.K.H.H.K.H.H.H.K.K.J.J.K.jXK.K.K.K.jX    G.G.G.J.J.K.jXJ.J.J.jXK.jX    G.F.D.G.D.D.G.G.F.K.K.jX  H.K.jXjXjX  ",
"  G.G.H.G.G.G.K.H.K.K.H.H.H.J.H.H.J.K.K.K.jXhXhXjXhXhXjX    G.G.J.K.J.J.J.K.J.K.jXjXjX    G.F.D.F.G.F.F.F.G.K.jXK.  H.jXjXjXjX  ",
"  G.H.K.H.G.G.J.H.K.J.K.H.H.K.J.xXxXxXJ.K.jXhXhXjXhXhXhX    G.H.J.J.jXJ.G.G.K.jXK.jXjX    G.F.S.F.F.D.G.G.G.H.jXjX              ",
"  G.J.J.J.G.K.K.K.H.H.J.K.K.K.K.xXhXhXxXK.K.jXhXjXK.hXhX    G.J.J.jXK.K.J.J.jXjXjXjXjX    G.F.D.G.F.G.G.J.H.J.jXjX  H.F.F.F.G.  ",
"  H.K.J.G.J.J.J.J.H.H.H.J.K.J.K.xXhXhXhXK.jXK.K.K.jXjXjX    H.J.K.K.jXJ.J.jXK.jXjXjXjX    G.F.D.D.G.D.G.J.J.K.jXjX  G.F.H.F.J.  ",
"  H.J.H.K.K.G.J.J.K.H.H.J.K.K.K.K.hXhXhXjXK.K.K.K.jXjXjX    H.J.K.jXK.jXJ.jXjXjXjXjXhX    G.F.D.D.F.G.J.G.H.K.jXjX  H.G.J.H.jX  ",
"  H.K.H.K.jXJ.J.K.jXK.jXK.jXjXK.K.jXhXhXjXjXjXjXjXhXhXhX    H.K.J.K.K.K.jXhXhXjXjXhXjX    G.F.D.D.G.H.H.K.J.K.K.jX  H.G.H.jXjX  ",
"  H.H.K.K.K.jXjXjXjXjXK.jXjXjXjXjXjXjXjXjXjXjXjXhXhXhXjX    J.J.jXjXK.K.jXhXhXhXjXhXhX    G.F.G.D.J.H.J.H.K.K.K.jX  J.J.K.jXjX  ",
"  H.K.H.jXjXjXjXK.jXjXjXjXjXjXhXjXhXhXjXjXhXjXhXjXhXhXhX    J.jXJ.jXjXjXjXjXhXhXhXjXhX    H.D.F.D.D.J.G.J.jXK.K.jX  K.jXjXjXjX  ",
"                                                                                          H.D.F.G.H.H.J.J.jXhXjXjX              ",
"G.D.F.G.F.G.G.G.G.G.F.G.G.G.G.                                                            H.F.D.H.D.K.H.K.K.hXhXhX  jXS.S.S.S.S.",
"D.F.G.H.G.D.F.G.J.G.G.K.G.H.K.      jXK.H.K.H.H.G.G.K.K.jXjX          jXjXH.H.G.J.K.jXjX  H.D.F.D.H.H.S.H.K.jXhXhX  J.S.S.Z.D.S.",
"D.F.H.H.J.J.J.H.K.H.H.K.K.H.H.    jXK.H.H.H.H.G.F.G.G.J.jXjXjXhXjX    jXH.G.K.J.K.J.K.jX  H.H.G.F.D.H.H.K.K.jXhXhX  G.S.Z.V.Z.F.",
"F.G.H.G.G.J.J.J.H.K.H.K.K.K.K.    H.H.H.F.G.F.F.K.J.H.jXjXjXhXjXhX    K.G.K.jXjXK.jXjXK.  J.F.F.D.F.H.J.K.jXK.jXjX  G.S.S.Z.F.S.",
"G.J.H.F.D.J.K.K.J.H.K.H.K.K.K.    F.H.F.J.F.G.K.jXjXK.jXjXjXjXhXK.    J.J.G.K.jXjXhXhXjX  J.D.F.F.G.H.J.K.K.jXK.jX  F.S.S.F.G.F.",
"G.G.J.H.F.J.K.J.K.K.G.H.J.K.K.    G.G.F.F.G.F.H.jXK.jXjXhXhXjXjXjX    jXG.J.J.jXjXhXhXhX  K.G.G.G.G.J.K.K.J.K.jXjX  D.S.S.F.S.G.",
"F.J.K.J.H.G.H.K.K.H.G.G.H.K.K.  jXG.F.F.G.S.H.J.K.jXjXjXhXhXhXjXjX    jXjXjXjXjXjXjXjXjX  K.H.G.G.J.jXK.J.J.J.K.jX  F.S.F.D.F.G.",
"F.G.J.F.F.F.K.H.H.K.J.G.G.K.jX  jXH.G.G.J.K.J.J.jXjXK.jXjXhXhXjXjX                        K.H.H.D.K.K.jXK.J.K.K.jX  F.S.F.G.H.D.",
"F.F.H.J.F.F.H.H.H.K.K.jXK.K.jX  jXH.G.J.K.H.J.jXjXjXjXH.jXK.jXK.jX  G.G.D.D.G.G.H.H.J.    H.H.G.H.H.K.jXjXK.K.hXhX  G.S.S.F.S.S.",
"F.G.J.K.J.J.K.jXK.H.K.jXK.K.K.  jXH.J.K.F.G.H.K.jXK.J.S.F.J.jXjXjX  G.D.D.G.H.J.jXJ.K.    H.D.F.G.H.K.K.jXjXjXhXhX  G.S.F.S.D.F.",
"G.H.K.J.F.H.K.J.H.K.jXK.jXK.K.  jXJ.J.K.H.F.H.H.J.J.H.F.J.K.K.jXK.  G.H.G.G.J.jXG.jXjX    G.D.F.D.G.H.J.jXK.K.jXhX  G.S.S.S.F.G.",
"F.H.F.H.H.K.F.J.K.K.jXjXjXhXjX    K.K.J.F.C.F.J.G.H.K.H.J.jXJ.jXK.  G.G.H.K.J.G.J.jXjX    G.F.G.D.G.H.K.jXK.K.K.jX  J.S.S.S.F.F.",
"G.J.J.K.K.F.F.F.J.K.K.jXK.jXjX    K.K.J.H.F.G.G.H.G.G.J.H.K.jXK.jX  G.G.G.H.G.jXjXJ.jX    G.G.H.G.J.H.J.K.jXK.K.jX  J.S.F.S.S.G.",
"G.H.J.K.H.J.F.F.H.J.jXhXhXjXjX    K.J.H.G.J.G.J.G.F.jXF.jXjXjXhXhX  G.S.F.G.J.jXjXjXjX    G.H.G.J.K.K.K.K.jXhXhXjX  J.S.S.D.F.F.",
"H.J.H.H.J.K.J.H.H.J.jXhXhXhXhX    jXK.K.H.K.H.G.H.G.F.jXjXjXK.hXhX  G.H.F.G.J.jXjXjXjX    G.H.D.G.H.J.jXjXjXhXhXhX  J.S.S.F.H.G.",
"H.J.J.K.J.J.K.J.K.K.K.jXhXhXjX    jXjXK.K.K.K.H.G.jXK.H.jXK.jXjXjX  G.H.H.G.K.jXjXjXjX    G.G.F.D.G.J.K.jXK.K.hXhX  J.S.F.S.F.H.",
"H.J.G.H.jXK.K.jXK.K.jXjXjXjXhX        jXjXjXjXjXjXjXjXjXjXjXjXjX    G.H.G.jXjXK.jXjXjX    G.G.F.F.G.G.H.K.jXK.jXhX  J.S.F.S.J.J.",
"H.G.H.J.J.K.jXK.jXjXK.jXjXhXjX                                      G.G.J.K.jXjXjXjXjX    G.D.D.G.H.H.H.H.J.jXjXjX  J.S.S.J.H.J.",
"K.H.H.J.K.K.K.K.K.jXjXjXjXjXhX      jXjXjXjXjXjXjXjXjXjXjXjXjXjX    G.J.J.jXjXK.K.jXjX    G.D.D.G.H.K.H.H.J.K.jXjX  jXS.F.S.H.H.",
"K.J.J.K.jXK.K.K.K.jXhXjXhXhXjX      jXjXK.H.H.K.H.J.J.K.K.jXjXjX    G.G.J.K.jXK.K.K.jX    G.H.D.H.D.K.jXJ.K.jXK.jX  jXS.F.H.H.J.",
"K.J.jXjXK.jXK.K.K.jXjXjXhXhXhX      jXK.H.H.J.H.K.jXJ.jXjXJ.jXjX    G.G.K.H.jXjXK.K.jX    G.G.G.F.H.H.K.K.jXK.jXjX  jXF.F.H.J.J.",
"K.H.K.jXK.jXjXjXjXhXjXjXhXhXhX      jXH.J.jXH.H.jXJ.jXjXhXhXjXjX    G.G.H.G.K.jXjXK.jX    G.D.G.H.H.jXK.jXK.jXK.jX  jXF.H.J.H.J.",
"K.J.H.J.jXK.jXjXjXjXjXhXhXjXhX      jXH.K.H.K.K.H.jXJ.jXhXhXhXjX    G.H.G.H.J.K.jXjXjX    G.D.H.G.H.jXjXjXjXK.jXjX  jXF.H.H.H.J.",
"K.H.J.K.jXjXK.jXjXjXhXjXhXhXhX      jXJ.H.H.K.jXjXjXjXjXjXhXhXjX    G.G.J.K.K.jXhXhXjX    H.F.H.H.K.K.jXhXhXjXjXhX  jXH.H.H.K.H.",
"                                    jXH.J.K.jXjXjXjXjXjXjXjXjXjX    H.H.K.K.jXjXhXhXhX    H.G.H.K.jXK.jXhXhXhXjXjX              ",
"            jXjXjXjXJ.J.J.K.jXjXjXjX                                H.G.K.jXjXjXjXhXhX    J.K.jXjXjXjXjXjXhXhXjXjX    jXjXjXjX  ",
"    H.G.F.D.D.D.D.D.D.D.D.D.D.D.D.F.F.F.G.G.H.H.K.                  H.H.K.jXK.K.jXjXjX    J.K.jXjXjXhXjXhXhXjXjXhX    jXjXK.jX  ",
"    G.D.D.D.D.D.F.G.F.D.G.G.G.D.G.G.F.F.K.J.J.J.jX    jXjXjXjXjX    H.K.J.jXK.K.K.jXjX                                jXjXjXjX  ",
"    G.D.F.F.G.F.F.D.D.D.S.G.D.D.D.F.G.J.F.G.K.jXjX    jXH.J.F.K.    J.K.J.jXjXK.K.jXjX                                          ",
"    D.D.D.F.F.F.H.H.F.S.D.D.H.F.J.G.J.K.G.G.G.J.jX    jXG.F.H.jX    K.K.jXjXjXjXjXjXjX      D.D.D.D.D.D.D.D.D.D.D.D.D.F.F.F.G.  ",
"    D.G.F.G.F.F.H.H.H.D.D.S.J.J.G.K.jXK.J.G.G.J.jX    jXF.F.G.J.                            D.D.D.D.F.F.G.G.F.F.F.G.G.F.D.G.J.  ",
"    D.D.F.S.S.F.G.H.H.G.H.D.D.G.G.G.K.jXK.J.hXhXjX    jXG.J.jXjX    J.H.G.F.G.G.G.H.J.J.    D.F.F.D.F.G.H.G.G.F.G.H.D.D.H.H.J.  ",
"    D.D.H.S.S.S.J.G.G.F.F.K.G.G.A.G.H.jXjXjXhXhXhX    jXH.jXjXjX    H.G.F.G.H.F.H.F.jXjX    D.D.F.F.G.D.D.H.G.F.H.J.K.H.jXJ.K.  ",
"    D.D.D.D.S.S.D.J.F.G.K.G.J.G.G.H.K.H.H.K.hXhXhX    jXJ.jXjXjX    G.F.F.G.J.K.J.jXjXjX    D.F.D.F.G.F.F.G.F.G.H.H.G.K.K.K.jX  ",
"    D.G.D.H.G.G.D.F.H.H.H.D.G.G.jXK.H.K.K.jXjXhXhX                  H.G.J.J.K.jXjXjXjXjX    D.D.F.F.G.G.H.G.H.H.J.G.J.J.H.jXjX  ",
"    D.F.H.H.D.S.D.G.J.G.J.J.G.G.K.K.K.H.jXK.K.jXjX                                          D.F.G.G.H.H.D.F.G.H.F.K.jXH.H.jXjX  ",
"    D.G.D.G.S.C.S.H.H.G.H.J.K.J.G.K.jXK.jXK.K.K.jX    H.H.H.G.G.G.G.G.G.G.H.H.H.J.J.jXjX    D.F.G.H.H.F.G.H.K.H.K.J.H.H.K.jXK.  ",
"    D.F.D.G.D.S.D.G.K.G.G.J.H.H.K.K.K.jXjXK.K.K.jX    H.G.H.J.G.J.H.G.G.J.H.G.K.K.jXjXjX    D.G.G.F.H.J.H.J.G.J.K.J.G.J.jXK.jX  ",
"    D.G.D.G.F.F.J.J.J.H.H.H.H.H.J.jXK.jXK.jXjXjXjX    H.H.J.J.J.G.G.G.F.H.J.J.J.jXK.K.jX    D.D.G.H.H.J.J.K.J.H.H.H.J.jXK.K.jX  ",
"    G.D.G.H.G.K.K.G.J.G.H.H.K.J.jXK.jXK.jXK.jXjXjX    G.J.G.G.F.H.G.H.G.G.G.H.J.K.K.K.jX    D.F.G.H.K.K.K.jXK.J.H.K.jXjXjXjXK.  ",
"    D.G.D.F.J.J.F.K.K.G.G.H.hXhXK.K.K.jXK.jXjXjXjX    G.G.J.G.H.J.K.J.H.G.G.H.J.K.jXjXjX    D.F.D.F.G.J.jXjXjXK.K.K.jXK.hXhXjX  ",
"    D.G.D.G.H.J.K.jXJ.jXK.jXhXhXhXK.K.K.jXjXK.K.jX    H.J.G.H.J.G.K.J.H.H.H.J.K.jXjXjXjX    D.D.G.G.K.K.H.K.jXjXK.K.K.jXhXhXhX  ",
"    F.G.J.J.J.G.G.J.jXJ.jXK.jXhXhXK.K.K.J.jXK.K.jX    H.G.J.K.K.K.J.jXK.K.J.K.K.K.jXjXjX    F.H.G.H.D.H.K.K.jXK.jXK.jXK.jXhXhX  ",
"    F.G.jXjXJ.H.G.H.K.H.K.jXK.jXjXK.K.K.K.hXhXjXjX    J.H.G.K.jXK.jXK.jXK.K.jXK.K.K.jXjX    F.D.G.K.H.jXjXK.jXhXhXjXK.jXK.jXjX  ",
"    G.G.J.J.jXJ.H.H.K.K.K.K.jXjXK.K.jXK.jXhXhXhXjX    J.H.J.K.jXjXK.jXK.K.jXK.jXK.jXjXjX    G.K.H.K.J.H.K.jXK.hXhXhXjXjXjXjXjX  ",
"e jXG.H.K.J.H.jXjXK.jXK.K.K.jXjXK.K.jXjXjXjXhXhXjXjXjXJ.K.jXK.jXjXjXjXjXjXK.jXjXjXjXjXjXjXjXG.H.K.J.K.K.jXK.jXjXhXhXjXjXjXjXjXhX",
"w w H.K.jXJ.jXJ.jXjXjXjXjXjXjXjXjXe e e e e e e jXw w J.J.K.jXjXjXjXjXjXxXxXxXe e e e e w w J.K.jXjXjXjXK.jXjXjXjXjXjXe e e e w ",
"q q F.D.D.D.D.D.D.D.D.D.q q q q q nXnXnX0 0 0 0 q q q F.D.D.D.D.D.D.D.q q nXnX0 0 0 0 0 q q F.D.D.D.D.D.G.G.G.q q q q nXnX0 0 q "
};
