/* XPM */
static char *result[] = {
/* columns rows colors chars-per-pixel */
"32 32 15 1 ",
"  c #301807",
". c #54331A",
"X c #8A6431",
"o c #845F44",
"O c #AE8A5A",
"+ c #CCA777",
"@ c #E7CFA3",
"# c #F9DDBB",
"$ c #FFE8CD",
"% c #FAECD0",
"& c #FCF3DF",
"* c #FDF4E2",
"= c #FFFBF3",
"- c white",
"; c None",
/* pixels */
";;;;;;;;;;;;;;;;;;;;;;;;;;;;;;;;",
";;;;;;;;;;;;;;;;;;;;;;;;;;;;;;;;",
";;;;;;;;;;;;;;;;;;;;;;;;;;;;;;;;",
";;;;;;;;;;;oooooooooo;;;;;;;;;;;",
";;;;;;;;ooO@%%%%%%%%@Ooo;;;;;;;;",
";;;;;;.X@%%%%%%%%%%%%%%@o.;;;;;;",
";;;;;.@%%%%$@++++++@$%%%%@.;;;;;",
";;;;.@%%%@+++++++++++++@%%@.;;;;",
";;;o@%%@++@#&&&&&&&&#@++@%%@o;;;",
";;;O%%@+#%&%%%%%%%%%%&%#@+%%O;;;",
";; @%@+#&%%%%%%%%%%%%%%&@@+%@ ;;",
";;O%%+%%%%%*========*%%%%%+%%O;;",
"; @%%@%%*==============*%%@%%@ ;",
"; %%@%%*================*%%@%% ;",
"; %%+%*==================*%+%% ;",
"; %%+%====================%+%% ;",
"; %%+%====================%+%% ;",
"; --+%====================%@-- ;",
"; --@%====================%#-- ;",
"; ---#===================%#--- ;",
";; --@%==================%@-- ;;",
";; --#%==================%@-- ;;",
";;;o--@==================@--o;;;",
";;; ---@================@--- ;;;",
";;;;o---@#&==========&#@---o;;;;",
";;;;; ====-&&&&&&&&&&----- ;;;;;",
";;;;;; o----------------o ;;;;;;",
";;;;;;;;  o----------o  ;;;;;;;;",
";;;;;;;;;;;          ;;;;;;;;;;;",
";;;;;;;;;;;;;;;;;;;;;;;;;;;;;;;;",
";;;;;;;;;;;;;;;;;;;;;;;;;;;;;;;;",
";;;;;;;;;;;;;;;;;;;;;;;;;;;;;;;;"
};
