/* XPM */
static char *result[] = {
/* columns rows colors chars-per-pixel */
"32 32 13 1 ",
"  c #301807",
". c #54331A",
"X c #845F44",
"o c #AE7C57",
"O c #E4A769",
"+ c #E7CFA3",
"@ c #F9DDBB",
"# c #FFE8CD",
"$ c #FAECD0",
"% c #FCF3DF",
"& c #FFFBF3",
"* c white",
"= c None",
/* pixels */
"================================",
"=========XXXXXXXXXXXXXX=========",
"======XXX**************XXX======",
"====.X***#++++++++++++#***X.====",
"===.**#++++++++++++++++++#**.===",
"==.*#++++@%%%%%%%%%%%%@++++#*.==",
"=X*$++@$%&&&&&&&&&&&&&&%$@++$*X=",
"=.$#+@%&&&&&&&&&&&&&&&&&&%@+@*.=",
"= *$+$&&&&&&&&&&&&&&&&&&&&$+$* =",
"= **+&&&&&&&&&&&&&&&&&&&&&&+** =",
"= +*@&&&&&&&&&&&&&&&&&&&&&&@*+ =",
"= X**%&&&&&&&&&&&&&&&&&&&&%**X =",
"= *o**%%%&&&&&&&&&&&&&&%%%**o* =",
".*X*oO***%%%%%%%%%%%%%%***Oo*X==",
" *O**%OOO**************OOO%** ==",
" **o**%%%OOOOOOOOOOOOOO%%%**o ==",
"=X*%oO***%%%%%%%%%%%%%%***OoX*.=",
"= **%&oOO**************OOo**o* =",
"= O**%%%&ooOOOOOOOOOOoo%%**o** =",
"==XoO***%%%%%%%%%%%%%%***Oo%*X*.",
"== **oOO**************OOO&%**o* ",
"== o**%%OOOOOOOOOOOOOO&%%%**o** ",
"=.*XoO***%%%%%%%%%%%%%%***Oo%*X=",
"= *O**oOO**************OOO&%** =",
"= **X**%%OOOOOOOOOOOOOO&%%%**o =",
"==X*%Xo***%%%%%%%%%%%%%%***ooX==",
"== **%&oOO**************Ooo** ==",
"=== **%%%&OOOOOOOOOOOOoX%%** ===",
"==== X***%%%%%%%%%%%%%%***X ====",
"======  X**************X  ======",
"=========              =========",
"================================"
};
