/* XPM */
static char *result[] = {
/* columns rows colors chars-per-pixel */
"32 32 22 1 ",
"  c #5A000B",
". c #842500",
"X c #842A00",
"o c #8A2A00",
"O c #B44907",
"+ c #BA5A2B",
"@ c #D25A06",
"# c #D26706",
"$ c #D56018",
"% c #E48B39",
"& c #E99635",
"* c #DE9F45",
"= c #EA9444",
"- c #F6A94D",
"; c #EAB949",
": c #F6B74E",
"> c #FFC94F",
", c #F0CE6B",
"< c #FFEA6D",
"1 c #FCEEAC",
"2 c white",
"3 c None",
/* pixels */
"33333333333333333333333333333333",
"33333333333333333333333333333333",
"33333333333333333333333333333333",
"33333333333333333333333333333333",
"33333333333333333333333333333333",
"33333333333333333333333333333333",
"3333333333333333333   3333333333",
"3333333333333333   &&& 333333333",
"333333333333    &:::&& 333333333",
"3333        &:>>&>><$OOo33333333",
"333 >>:&%&:>>&>:&$OO>@& 33333333",
"333 &><>>>&:&&oO$>>&>&>& 3333333",
"333 $&:>:&$$Oo&>@&&@>&&&& 333333",
"333 $&&$$$&>><&>&>>&&@>>>> 33333",
"3333 $ .&----=@<&<&#>>&&#@@ 3333",
"3333 & * ..O$$=->&><&&>>>&& 3333",
"3333 >O,*11+..O#-&$$>><&&<<> 333",
"3333 >O1*111*;,*+O..O-&><&&@ 333",
"3333 & 1,11;;;;;*1122++$&>>>X333",
"3333O&XXO**,,*11*;1221,1O<2<O333",
"3333O>>>&XXXO*121,,11*;,;X&&O333",
"33333OOOO&&&&XXXO,;*;*11,*XX3333",
"333333333O$$$====XXO,1111;O33333",
"3333333333333O$$$===XXO11,O33333",
"33333333333333333O$$=>=XXX$O3333",
"33333333333333333333O$$==><O3333",
"33333333333333333333333$$OO33333",
"33333333333333333333333333333333",
"33333333333333333333333333333333",
"33333333333333333333333333333333",
"33333333333333333333333333333333",
"33333333333333333333333333333333"
};
