/* XPM */
static char *result[] = {
/* columns rows colors chars-per-pixel */
"32 32 17 1 ",
"  c #690000",
". c #9C2F00",
"X c #BA511B",
"o c #A34D22",
"O c #BB5F31",
"+ c #C3612E",
"@ c #D77544",
"# c #DF8959",
"$ c #FFB149",
"% c #E1A25D",
"& c #F09B6B",
"* c #FFB779",
"= c #EEBD83",
"- c #F3D49D",
"; c #FADD9D",
": c #FFEDA9",
"> c None",
/* pixels */
">>>>>>>>>>>>>>>>>>>>>>>>>>>>>>>>",
">>>>>>>>>>>>>>>>>>>>>>>>>>>>>>>>",
">>>>>>>>>>>>>>>>>>>>>>>>>>>>>>>>",
">>>>>>>>>>>>>>>>>>>>>>>>>>>>>>>>",
">>>>>>>>>>>>>>>>>>>>>>>>>>>>>>>>",
">>>>>>>>>>>>>>>>>>>>>>>>>>>>>>>>",
">>>>>>>>>>>>>>>>>>>>>>>>>>>>>>>>",
">>>>>>>>>>>>       >>>>>>>>>>>>>",
">>>>>>>>>>  +@O--%@   >>>>>>>>>>",
">>>>>>>>> X@*o-%@*oO%%  >>>>>>>>",
">>>>>>    X@o%-@*o%---%@  >>>>>>",
">>>>  X++X...-%@o%--%+@*oO  >>>>",
">>> X+@*ooO@@..@O--+@@*o%--% >>>",
">> X+@*o%---%+@..-%@@*o%-%+@@ >>",
">> +@@o%--%+@@oO@..@@o%-+@@@@ >>",
">> #@@o-%+@*oO%--%@..O%+@@$@# >>",
">> =@@O%+@*o%--%+*OO@.@@$:@#=.>>",
">> :=@@@@@@o--%+*o%--% @@#==: >>",
">>> :=#@$@@O%+@@o%-%+@@ ==:: >>>",
">>>> :==#@@@@@@@O-%+@@@+    >>>>",
">>>>> .:==#@@$:@O%@@@@@@ >>>>>>>",
">>>>>>>  :==&#@@@@@$:$@# >>>>>>>",
">>>>>>>>>  ;====&#@@@#==.>>>>>>>",
">>>>>>>>>>>  :;=======: >>>>>>>>",
">>>>>>>>>>>>>   =;;;;; >>>>>>>>>",
">>>>>>>>>>>>>>>>      >>>>>>>>>>",
">>>>>>>>>>>>>>>>>>>>>>>>>>>>>>>>",
">>>>>>>>>>>>>>>>>>>>>>>>>>>>>>>>",
">>>>>>>>>>>>>>>>>>>>>>>>>>>>>>>>",
">>>>>>>>>>>>>>>>>>>>>>>>>>>>>>>>",
">>>>>>>>>>>>>>>>>>>>>>>>>>>>>>>>",
">>>>>>>>>>>>>>>>>>>>>>>>>>>>>>>>"
};
