/* XPM */
static char *result[] = {
/* columns rows colors chars-per-pixel */
"32 32 32 1 ",
"  c #301807",
". c #690000",
"X c #54331A",
"o c #9C2F00",
"O c #BA511B",
"+ c #A34D22",
"@ c #8A6431",
"# c #C3612E",
"$ c #845F44",
"% c #D77544",
"& c #AE8A5A",
"* c #DE8C55",
"= c #DF8959",
"- c #E49E4A",
"; c #FFB149",
": c #E1A25D",
"> c #CCA777",
", c #EEBD83",
"< c #EABF88",
"1 c #F3D49D",
"2 c #FADD9D",
"3 c #E7CFA3",
"4 c #EAC9A0",
"5 c #F9DDBB",
"6 c #FFEDA9",
"7 c #FFE3C1",
"8 c #FFE8CD",
"9 c #FAECD0",
"0 c #FCF3DF",
"q c #FFFBF3",
"w c white",
"e c None",
/* pixels */
"eeeeeeeeeeeeeeeeeeeeeeeeeeeeeeee",
"eeeeeeeeeeeeeeeeeeeeeeeeeeeeeeee",
"eeeeeeeeeeeeeeeeeeeeeeeeeeeeeeee",
"eeeeeeeeeeeeeeeeeeeeeeeeeeeeeeee",
"eeeeeeeeeee$$$$$$$$$$eeeeeeeeeee",
"eeeeeeee$$&3wwwwwwww3&$$eeeeeeee",
"eeeeeeX@3wwwwwwwwwwwwww3$Xeeeeee",
"eeeeeX3wwww83.......8wwww3Xeeeee",
"eeeeX3www3>..#++11:#...3ww3Xeeee",
"eee$3ww3>>.O%+11:#+:11:..ww3$eee",
"eee&ww3....O:1:##+11:#;++..w&eee",
"ee 3w..O##Oo.o%%+1:#;++:11:.3 ee",
"ee&w.O##*++1:%oo:%##+:11:##%.&ee",
"e 3.%##*+11111:%oo%%11:###;%.3 e",
"e w.%;#+11:%%%%::%oo:###6;%=.w e",
"e wo=%;#:%%%*+:111:%o%%%%%=,ow e",
"e wo,%%%%%%;+11:%%%%%.%%=,,6#w e",
"e w<#,%%%;:+::%%*+:11:.,,66#ww e",
"e w7o6,=%%:1:%%%+111:##..o#3ww e",
"e ww3o6,,=%%%;;6:1:###%.<795ww e",
"e www5##6,,,=%%=:%%;6%=.7=5www e",
"ee ww335##62,,,,=%%%=,,oq93ww ee",
"ee ww5%q7<#-62,,,,,,,6#<:93ww ee",
"eee$ww3qqq74##-,22222#<7q3ww$eee",
"eee www3qqqqq7<######7qq3www eee",
"eeee$www350qqqqqqqqqq053www$eeee",
"eeeee qqqqw0000000000wwwww eeeee",
"eeeeee $wwwwwwwwwwwwwwww$ eeeeee",
"eeeeeeee  $wwwwwwwwww$  eeeeeeee",
"eeeeeeeeeee          eeeeeeeeeee",
"eeeeeeeeeeeeeeeeeeeeeeeeeeeeeeee",
"eeeeeeeeeeeeeeeeeeeeeeeeeeeeeeee"
};
