/* XPM */
static char *result[] = {
/* columns rows colors chars-per-pixel */
"32 32 22 1 ",
"  c #541902",
". c #631B00",
"X c #9F3903",
"o c #994F0B",
"O c #BD5F2E",
"+ c #BD6C24",
"@ c #C3652E",
"# c #C3752E",
"$ c #C96A38",
"% c #CF7537",
"& c #D58843",
"* c #E79952",
"= c #E3A158",
"- c #EDB468",
"; c #EDC774",
": c #F3D87F",
"> c #F3C380",
", c #F9D891",
"< c #FFE7B5",
"1 c #FFEDC7",
"2 c #FFF3D9",
"3 c None",
/* pixels */
"33333333333333333333333333333333",
"33333333333333333333333333333333",
"33333333333333333333333333333333",
"33333333333333333333333333333333",
"33333333333333333333333333333333",
"33333333333333333333333333333333",
"3333333333333.XXX..X$X...3333333",
"3333333333...**<2:*$*2:=&X.33333",
"3333333..O=>22>==&2:@=&<=-@.3333",
"33333..>22&==>2@===&2@---=@@.333",
"3333.O&&&%>&&&>2&=--=<#&#-&&.333",
"333.=,,=&&%>&&=&2&=&&#-&&%&%.333",
"333.,<<<,=&%>&&&#-&=%&&%&&%.3333",
"333.<<<;<,=&=&%&&&%&&&&%+o.33333",
"333.<<,,,,,&&&&&&&+&&+o..3333333",
"333.-<;<,,,=oX..XXXX.33333333333",
"3333.-,,,;o.-,<,,,-oo...33333333",
"33333..&&.-,<<1;,&o-,<<-.3333333",
"33333333.-<<,<<,&-<<<1;<&.333333",
"33333333X<,;1<<&-<<<<<<<&.333333",
"3333333.,<<<<<,o,<<1<;<-&.333333",
"3333333.-,,,,-o-<;<<<<<=&.333333",
"3333333.=---=&o,<<<<<,-=X3333333",
"3333333.&---=&X-,<<,---=.3333333",
"33333333.=--=& &=------.33333333",
"333333333......&=----=.333333333",
"333333333333333.=--=..3333333333",
"3333333333333333....333333333333",
"33333333333333333333333333333333",
"33333333333333333333333333333333",
"33333333333333333333333333333333",
"33333333333333333333333333333333"
};
