/* XPM */
static char *_00_taco_dish1655581887[] = {
/* columns rows colors chars-per-pixel */
"32 32 44 1 ",
"  c None",
". c #301807",
"X c #7D1308",
"o c #5F2B0A",
"O c #54331A",
"+ c #722408",
"@ c #9F1908",
"# c #943308",
"$ c #8F381B",
"% c #B13908",
"& c #D03219",
"* c #AE4B0D",
"= c #A4461C",
"- c #B66408",
"; c #8A6431",
": c #D57A16",
"> c #E7463E",
", c #D16B2A",
"< c #845F44",
"1 c #F6615A",
"2 c #EE8F19",
"3 c #E39A3D",
"4 c #EDAD30",
"5 c #F4C13E",
"6 c #AE8A5A",
"7 c #FEA940",
"8 c #DFAE6D",
"9 c #CCA777",
"0 c #88D856",
"q c #BCE774",
"w c #FFE577",
"e c #FFBE94",
"r c #DAF680",
"t c #FFE580",
"y c #E7CFA3",
"u c #F0D4A0",
"i c #F9DDBB",
"p c #FFE8CD",
"a c #FAECD0",
"s c #FCEED1",
"d c #FCF3DF",
"f c #F6FFD8",
"g c #FFFBF3",
"h c white",
/* pixels */
"                                ",
"                                ",
"                                ",
"                                ",
"           <<<<<<<<<<           ",
"        <<6yhhhhhhhhy6<<        ",
"      O;yhhhhhhhhhhhhhhy<O      ",
"     Oyhhhhpy999999yphhhhyO     ",
"    Oyhhhy999++++++9999yhhyO    ",
"   <yhhy99y++tttttt++y99yhhy<   ",
"   6hhy9ia+t52@@&&>5t+aiy9hh6   ",
"  .yhy9id+52@&1e1rq1&t+dyy9hy.  ",
"  6hh9a+XXX@>17>fq7705t+aa9hh6  ",
" .yhhy+:45t:Xqr7qffqr02t+ayhhy. ",
" .hhy+545555t:Xfwrrrqf02+aayhh. ",
" .hh9+:5545555tX0ffqrof0t+a9hh. ",
" .hh98+:5555545tX*roqr*o5-a9hh. ",
" .hh9au+:5455554%*#,r,#*$2a9hh. ",
" .hh9asu++:55455tX,#*#3,o2ayhh. ",
" .hhyaggsu++:5555%*,3#**o-aihh. ",
" .ahhig5ggsu++:54tX*,*,ot+iaha. ",
"  .hhyagggggsu++:5tXooot+ayhh.  ",
"  .ahaiagg4gtgsu++=225t+aygha.  ",
"   <hhaygggggggggsu++++gyahh<   ",
"   .ahgayggggggggggggggyagha.   ",
"    <aghayidggggggggdiyahga<    ",
"     .aggghiiiiiiiiiihhhha.     ",
"      .<ahhhhhhhhhhhhhha<.      ",
"        ..<ahhhhhhhha<..        ",
"           ..........           ",
"                                ",
"                                "
};
