/* XPM */
static char *_01_waffle1655581887[] = {
/* columns rows colors chars-per-pixel */
"32 32 56 1 ",
"  c None",
". c #3C0D00",
"X c #511100",
"o c #601B00",
"O c #601813",
"+ c #6D2700",
"@ c #762B00",
"# c #7A2900",
"$ c #870F0F",
"% c #903F00",
"& c #903832",
"* c #C2230F",
"= c #A84B01",
"- c #AE4801",
"; c #AC4D01",
": c #B75E13",
"> c #B35C14",
", c #B95812",
"< c #BB5C14",
"1 c #B96314",
"2 c #BB6913",
"3 c #BB6A17",
"4 c #BF6D15",
"5 c #80422D",
"6 c #C14112",
"7 c #E65D1D",
"8 c #CD6F02",
"9 c #EC4E3A",
"0 c #C76E24",
"q c #C07327",
"w c #C57A2C",
"e c #C97D29",
"r c #CF7C30",
"t c #9C6242",
"y c #996349",
"u c #DA871E",
"i c #E49A1D",
"p c #DC8E20",
"a c #DE9B28",
"s c #CD8432",
"d c #C88135",
"f c #D38938",
"g c #E49C22",
"h c #E49E2F",
"j c #EAA93A",
"k c #BA926B",
"l c #F0B441",
"z c #F4BE4E",
"x c #F68779",
"c c #F8A9A0",
"v c #F0DBA6",
"b c #F9C1BA",
"n c #F0E4A6",
"m c #F4E3B1",
"M c #FCF3CA",
"N c white",
/* pixels */
"                                ",
"                                ",
"                                ",
"                                ",
"         OO                     ",
"         ONO                    ",
"         &vM&O.......           ",
"        ONNNMMvt&zzzu%.         ",
"       o&NNMMvMNN&z$$zz.        ",
"      .z&vvvMNNNNM&99$zu.       ",
"      %zgtMNNNNNMmkxc9$z%       ",
"     .zul&vnMMmvvvv$$x$uz.      ",
"     .zu&MNNmMMMmv$99$uuz.      ",
"     .zz&mMNNNNNN$9cx9$zz.      ",
"     .zi2tmMNNNNM$xbxx$iz.      ",
"     .zuwd5kmMMkt*xbcx*uz.      ",
"     .jzu3>35tyd>46777,zj.      ",
"     .8jzd>3dw2d2es4uzzj8.      ",
"     %o8azdd>>uz>::zzza-%%      ",
"     o.88paqfzzzzssja8p-.%      ",
"     oj.8p8=8phhh1;888p#jo      ",
"     o8j.%8=8phhh1;88%%08o      ",
"      %8az%@%#%%%++#%za-%       ",
"      o88pajzzzzzzrja8p-o       ",
"       o8p88p88phh<888pX        ",
"        o%88p88phh<88%o         ",
"          ooooooooooo           ",
"                                ",
"                                ",
"                                ",
"                                ",
"                                "
};
