/* XPM */
static char *_02_waffle_dish1655581888[] = {
/* columns rows colors chars-per-pixel */
"32 32 39 1 ",
"  c None",
". c #301807",
"X c #601B00",
"o c #54331A",
"O c #870F0F",
"+ c #903F00",
"@ c #903832",
"# c #C2230F",
"$ c #8A6431",
"% c #E65D1D",
"& c #CD6F02",
"* c #EC4E3A",
"= c #845F44",
"- c #9C6242",
"; c #DA871E",
": c #E49A1D",
"> c #DC8E20",
", c #DE9B28",
"< c #E49C22",
"1 c #E49E2F",
"2 c #EAA93A",
"3 c #AE8A5A",
"4 c #BA926B",
"5 c #F0B441",
"6 c #F4BE4E",
"7 c #F68779",
"8 c #CCA777",
"9 c #F8A9A0",
"0 c #E7CFA3",
"q c #F0DBA6",
"w c #F9C1BA",
"e c #F9DDBB",
"r c #F0E4A6",
"t c #F4E3B1",
"y c #FCF3CA",
"u c #FAECD0",
"i c #FCF3DF",
"p c #FFFBF3",
"a c white",
/* pixels */
"                                ",
"                                ",
"                                ",
"                                ",
"           ==========           ",
"        =@-0aaaaaaaa03==        ",
"      o$0@a-aaaaaaaaaaa0=o      ",
"     o0aa@qy4-@XXXX++aaaa0o     ",
"    o0aa-aaayyq-@666;+X0aa0o    ",
"   =0aaX@aayyqyaa@6OO66X0aa0=   ",
"   3aaX6@qqqyaaaay@**O6;X8aa3   ",
"  .0a0+6<-yaaaaayt479*O6+08a0.  ",
"  3aa+6;5@qryytqqqqOO7O;6X8aa3  ",
" .0aa+6;@yaatyyytqO**O;;6X0aa0. ",
" .aa0+66@tyaaaaaaO*97*O66+u0aa. ",
" .aa8+6::-tyaaaayO7w77O:6+u8aa. ",
" .aa8X6;56-4tyy4-#7w97#;6+u8aa. ",
" .aa8X26;<;<--46;<%%%%;62Xu8aa. ",
" .aa8X&266;<65:6:56<;662&Xu0aa. ",
" .aa00+&,666;;;6;;;666,&+0ueaa. ",
" .uaaeX&&>,266666662,&>&Xueuau. ",
"  .aa00X&>&&&>111>&&&&>X0u0aa.  ",
"  .uaue0X+&&&>111>&&&+X0u0pau.  ",
"   =aau0p0XXXXXXXXXXX0pp0uaa=   ",
"   .uapu0pppppppppppppp0upau.   ",
"    =upau0eippppppppie0uapu=    ",
"     .upppaeeeeeeeeeeaaaau.     ",
"      .=uaaaaaaaaaaaaaau=.      ",
"        ..=uaaaaaaaau=..        ",
"           ..........           ",
"                                ",
"                                "
};
