/* XPM */
static char *result[] = {
/* columns rows colors chars-per-pixel */
"32 32 32 1 ",
"  c #301807",
". c #541902",
"X c #631B00",
"o c #9F3903",
"O c #994F0B",
"+ c #BD5F2E",
"@ c #BD6C24",
"# c #C3652E",
"$ c #C3752E",
"% c #C96A38",
"& c #CF7537",
"* c #845F44",
"= c #AE8A5A",
"- c #D58843",
"; c #E79952",
": c #E3A158",
"> c #CCA777",
", c #EDB468",
"< c #EDC774",
"1 c #F3D87F",
"2 c #F3C380",
"3 c #F9D891",
"4 c #E7CFA3",
"5 c #F9DDBB",
"6 c #FFE7B5",
"7 c #FFEDC7",
"8 c #FAECD0",
"9 c #FFF3D9",
"0 c #FCF3DF",
"q c #FFFBF3",
"w c white",
"e c None",
/* pixels */
"eeeeeeeeeeeeeeeeeeeeeeeeeeeeeeee",
"eeeeeeeeeeeeeeeeeeeeeeeeeeeeeeee",
"eeeeeeeeeeeeeeeeeeeeeeeeeeeeeeee",
"eeeeeeeeeeeeeeeeeeeeeeeeeeeeeeee",
"eeeeeeeeeeeXo%%oXXo%oXXXeeeeeeee",
"eeeeeeeeXX+--;691;%;91:-oXeeeeee",
"eeeeeeXX-+29#-::-91#:-6:,#oeeeee",
"eeeeeX+---;299#:::-9#,,,:##Xeeee",
"eeeeX:33:-,:-29-:,,:6$-$,--Xeeee",
"eee*X36663:,,:-9-:--$,--&-&X*eee",
"eee=X666<63&---$,-:&--&--&O4=eee",
"ee 4O663333:-&---&----&@OX>84 ee",
"ee=8O,6<6333@----@--@OXX>4>88=ee",
"e 488O,333<3OoXXooooX>>>484884 e",
"e 8848XO33OX,36333,OOXXX88&488 e",
"e 88>84>OX,3667<3-O,366,X88>88 e",
"e 88>884X,663663-,6667<6-X8>88 e",
"e 88>8qqo63<766-,6666666-X8>88 e",
"e ww>8qX3666663O36676<6,-X84ww e",
"e ww48qX,3333,O,6<66666:-X85ww e",
"e 8ww5qX:,,,:-O3666663,:o858w8 e",
"ee ww48X-,,,:-o,3663,,,:X84ww ee",
"ee 8w858X:,,:-.-:,,,,,,X84qw8 ee",
"eee*ww84qXXXXXX-:,,,,:Xq48ww*eee",
"eee 8wq84qqqq4>X:,,:XXq48qw8 eee",
"eeee*8qw84;0&qq4XXXX0548wq8*eeee",
"eeeee 8qqqw5555555555wwww8 eeeee",
"eeeeee *8wwwwwwwwwwwwww8* eeeeee",
"eeeeeeee  *8wwwwwwww8*  eeeeeeee",
"eeeeeeeeeee          eeeeeeeeeee",
"eeeeeeeeeeeeeeeeeeeeeeeeeeeeeeee",
"eeeeeeeeeeeeeeeeeeeeeeeeeeeeeeee"
};
