/* XPM */
static char *result[] = {
/* columns rows colors chars-per-pixel */
"32 32 15 1 ",
"  c #3B0800",
". c #681D0E",
"X c #5E2502",
"o c #672600",
"O c #7E360A",
"+ c #994310",
"@ c #9A4613",
"# c #A14C10",
"$ c #AE571A",
"% c #BE6422",
"& c #C46925",
"* c #D2752C",
"= c #D4803D",
"- c #D78C51",
"; c None",
/* pixels */
";;;;;;;;;;;;;;;;;;;;;;;;;;;;;;;;",
";;;;;;;;;;;;;;;;;;;;;;;;;;;;;;;;",
";;;;;;;;;;;;;;;;;;;;;;;;;;;;;;;;",
";;;;;;;;;;;;;;;;;;;;;;;;;;;;;;;;",
";;;;;;;;;;;;;;;;;;;;;;;;;;;;;;;;",
";;;;;;;;;;;;;;;;;;;;;;;;;;;;;;;;",
";;;;;;;;;;;;;;;;;;;;;;;;;;;;;;;;",
";;;;;;;;;; .... ;;;;;;;;;;;;;;;;",
";;;;;;;; X$*==*$X ;;;;;;;;;;;;;;",
";;;;;;; $*======*$ ;;;;;;;;;;;;;",
";;;;;; $*===$===&*$ ;;;;;;;;;;;;",
";;;;;;X&*===-==&=*&O;;;;;;;;;;;;",
";;;;; #**&======***# ;;;;;;;;;;;",
";;;;; &**=*********+ ;;;;;;;;;;;",
";;;;;.#******$=**@o    ;;;;;;;;;",
";;;;; &$*&*****@o$====$X.;;;;;;;",
";;;;;; &*****%@%*=&====*$X;;;;;;",
";;;;;;;  $%$%@%*==-==-=*=$ ;;;;;",
";;;;;;;;;   o@&*$=====&=*&X;;;;;",
";;;;;;;;;;;; $***==&==****+ ;;;;",
";;;;;;;;;;;; &**=***=*****+ ;;;;",
";;;;;;;;;;;; +&**********$& ;;;;",
";;;;;;;;;;;; &+$*******&$&$ ;;;;",
";;;;;;;;;;;;; &&&**&&**&&+ ;;;;;",
";;;;;;;;;;;;;;  ++$+$+++  ;;;;;;",
";;;;;;;;;;;;;;;;        ;;;;;;;;",
";;;;;;;;;;;;;;;;;;;;;;;;;;;;;;;;",
";;;;;;;;;;;;;;;;;;;;;;;;;;;;;;;;",
";;;;;;;;;;;;;;;;;;;;;;;;;;;;;;;;",
";;;;;;;;;;;;;;;;;;;;;;;;;;;;;;;;",
";;;;;;;;;;;;;;;;;;;;;;;;;;;;;;;;",
";;;;;;;;;;;;;;;;;;;;;;;;;;;;;;;;"
};
