/* XPM */
static char *result[] = {
/* columns rows colors chars-per-pixel */
"32 32 26 1 ",
"  c #301807",
". c #480A00",
"X c #54331A",
"o c #722D04",
"O c #782818",
"+ c #964310",
"@ c #B4541B",
"# c #BD5E1A",
"$ c #8A6431",
"% c #C96C2B",
"& c #D97C38",
"* c #845F44",
"= c #DF823D",
"- c #AE8A5A",
"; c #ED9148",
": c #F09E5D",
"> c #CCA777",
", c #F6AD73",
"< c #E7CFA3",
"1 c #F9DDBB",
"2 c #FFE8CD",
"3 c #FAECD0",
"4 c #FCF3DF",
"5 c #FFFBF3",
"6 c white",
"7 c None",
/* pixels */
"77777777777777777777777777777777",
"77777777777777777777777777777777",
"77777777777777777777777777777777",
"77777777777777777777777777777777",
"77777777777**********77777777777",
"77777777**-<33333333<-**77777777",
"777777X$<.OOOO.33333333<*X777777",
"77777X<.o%;::;%oo>><23333<X77777",
"7777X<.%;::::::;%+>>>>><33<X7777",
"777*<.%;:::%:::=;%+41<>><33<*777",
"777-3o=;:::,::=:;=+33431<>33-777",
"77 <.#;;=::::::;;;#+3334<<>3< 77",
"77-3.=;;:;;;;;;;;;@o333333>33-77",
"7 <3O#;;;;;;%:;;oooooo3333<33< 7",
"7 33O=%;=;;;;;.o%::::%oO3;3<33 7",
"7 33>O=;;;;;%.%;:=::::;%o33>33 7",
"7 33>3Oo%&%&.%;::,::,:;:%.3>33 7",
"7 33>3<>OOO.o=;%:::::=:;=o3>33 7",
"7 66>35555<.%;;;::=::;;;;@.<66 7",
"7 66<35;555.=;;:;;;:;;;;;@.166 7",
"7 3661555@5O@=;;;;;;;;;;%=O363 7",
"77 66<35555O=@%;;;;;;;=%=%O66 77",
"77 36313555<O===;;==;;==@O563 77",
"777*663<5555<Oo@@%@%@@@oO366*777",
"777 3653<5555<>OOOOOOOO<3563 777",
"7777*3563<145555555541<3653*7777",
"77777 35556111111111166663 77777",
"777777 *3666666666666663* 777777",
"77777777  *3666666663*  77777777",
"77777777777          77777777777",
"77777777777777777777777777777777",
"77777777777777777777777777777777"
};
