/* XPM */
static char *result[] = {
/* columns rows colors chars-per-pixel */
"32 32 18 1 ",
"  c #460800",
". c #520705",
"X c #6F0000",
"o c #7A0510",
"O c #8D0E07",
"+ c #9A090E",
"@ c #9C2305",
"# c #932A00",
"$ c #BD311C",
"% c #DD4119",
"& c #C45526",
"* c #D5763A",
"= c #EA662F",
"- c #F68F4C",
"; c #ED9A4D",
": c #FBC470",
"> c #F6CA72",
", c None",
/* pixels */
",,,,,,,,,,,,,,,,,,,,,,,,,,,,,,,,",
",,,,,,,,,,,,,,,,,,,,,,,,,,,,,,,,",
",,,,,,,,,,,,,,,,,,,,,,,,,,,,,,,,",
",,,,,,,,,,,,,,,,,,,,,,,,,,,,,,,,",
",,,,,,,,,,,,,,,,,,,,,,,,,,,,,,,,",
",,,,,,,,,,,,,,,,,,,,,,,,,,,,,,,,",
",,,,,,,,,,,,,...,,,,,,,,,,,,,,,,",
",,,,,,,,,,,,.==$...,,,,,,,,,,,,,",
",,,,,,,,,,,.$+%-==$.......,,,,,,",
",,,,,,,,,.....-+$%=:=-==-=.,,,,,",
",,,,,,,,.@%%--@..=-%+%$$%+.,,,,,",
",,,,,,,,@-=-%%=:=@.=-===-=.,,,,,",
",,,,,,,, X#&-=%%:-=@......,,,,,,",
",,,,,,,.&&&*&%==%+-=-=@..,,,,,,,",
",,,,,,. #*;;;*%@==%++=--=.,,,,,,",
",,,,,.+%=@&&&&>;&@=-:%@=-@,,,,,,",
",,,,.+=+:=@&;>&O*;@o.@-%@.,,,,,,",
",,,,.%+=@-=# #;*&>* ,,...,,,,,,,",
",,,,,.%+=%:#,, #;&*;# ,,,,,,,,,,",
",,,,,,@%+:%=@,,,#;OO;>#  ,,,,,,,",
",,,,,,,@%+-:=@.@,O;;&O*;* ,,,,,,",
",,,,,,,.=%+=-=-:@.@*;>&OO ,,,,,,",
",,,,,,,,.-=++%=-=-=@#*;* ,,,,,,,",
",,,,,,,,,.@:-=%%++=--#  ,,,,,,,,",
",,,,,,,,,,,..@-:-=%+=.,,,,,,,,,,",
",,,,,,,,,,,,,,.@.@==+.,,,,,,,,,,",
",,,,,,,,,,,,,,,,,,...,,,,,,,,,,,",
",,,,,,,,,,,,,,,,,,,,,,,,,,,,,,,,",
",,,,,,,,,,,,,,,,,,,,,,,,,,,,,,,,",
",,,,,,,,,,,,,,,,,,,,,,,,,,,,,,,,",
",,,,,,,,,,,,,,,,,,,,,,,,,,,,,,,,",
",,,,,,,,,,,,,,,,,,,,,,,,,,,,,,,,"
};
