/* XPM */
static char *result[] = {
/* columns rows colors chars-per-pixel */
"32 32 39 1 ",
"  c #301807",
". c #460800",
"X c #520705",
"o c #6F0000",
"O c #7A0510",
"+ c #54331A",
"@ c #454C06",
"# c #477513",
"$ c #8D0E07",
"% c #9A090E",
"& c #9C2305",
"* c #932A00",
"= c #8A6431",
"- c #DD4119",
"; c #C45526",
": c #D5763A",
"> c #EA662F",
", c #845F44",
"< c #3F901F",
"1 c #72A711",
"2 c #8CB528",
"3 c #C0E12A",
"4 c #AE8A5A",
"5 c #F68F4C",
"6 c #ED9A4D",
"7 c #ED9D6F",
"8 c #CCA777",
"9 c #B5DE50",
"0 c #FBC470",
"q c #F6CA71",
"w c #E7CFA3",
"e c #F9DDBB",
"r c #FFE8CD",
"t c #FAECD0",
"y c #FCF3DF",
"u c #FFF5E2",
"i c #FFFBF3",
"p c white",
"a c None",
/* pixels */
"aaaaaaaaaaaaaaaaaaaaaaaaaaaaaaaa",
"aaaaaaaaaaaaaaaaaaaaaaaaaaaaaaaa",
"aaaaaaaaaaaaaaaaaaaaaaaaaaaaaaaa",
"aaaaaaaaaaaaaaaaaaaaaaaaaaaaaaaa",
"aaaaaaaaaaa,,,,,,,,,,aaaaaaaaaaa",
"aaaaaaaa,,4wpppppp@@w4,,aaaaaaaa",
"aaaaaa+=wpppppppp@3@tttw,+aaaaaa",
"aaaaa+wpppprw@@@8@3@rt@@pw+aaaaa",
"aaaa+wpppw888@<1@@1@8@3@ppw+aaaa",
"aaa,wppwX&&&X77@19<9@@3@wppw,aaa",
"aaa4ppwX&--55&XX7@@<9<1@w8pp4aaa",
"aa wpw8&5>5-->0>&X7@@1<#ww8pw aa",
"aa4pp8u.o*;5>--05>&XX@29#u8pp4aa",
"a wppwX;;;:;->>-%5>5>&XX9#wppw a",
"a ppwX.*:666:-&>>-%%>55>X9#wpp a",
"a ppX%->&;;;;q6;&>50-&>5&#9#pp a",
"a pX%>%0>&;6q;$:6&OX&5-&X7@@pp a",
"a pX-%>&5>*.*6:;q:.88XXXeiu8pp a",
"a ppX-%>-0*88.*6;:6*.88etiuwpp a",
"a ppw&-%0->&888*6$$6q*..eiuepp a",
"a tpp7&-%50>&X&8$66;$:6:.tetpt a",
"aa ppwX>-%>5>50&X&:6q;$$.twpp aa",
"aa tpteX5>%%->5>5>&*:6:.twipt aa",
"aaa,pptwX&05>--%%>55*..iwtpp,aaa",
"aaa tpitwiXX&505>-%>X7iwtipt aaa",
"aaaa,tiptwey7X&X&>>%Xewtpit,aaaa",
"aaaaa tiiipeeeee7XXXeppppt aaaaa",
"aaaaaa ,tppppppppppppppt, aaaaaa",
"aaaaaaaa  ,tppppppppt,  aaaaaaaa",
"aaaaaaaaaaa          aaaaaaaaaaa",
"aaaaaaaaaaaaaaaaaaaaaaaaaaaaaaaa",
"aaaaaaaaaaaaaaaaaaaaaaaaaaaaaaaa"
};
