/* XPM */
static char *result[] = {
/* columns rows colors chars-per-pixel */
"32 32 38 1 ",
"  c #180601",
". c #370F03",
"X c #570D00",
"o c #461505",
"O c #571C08",
"+ c #571F0D",
"@ c #73250E",
"# c #73260E",
"$ c #813600",
"% c #943315",
"& c #8D4700",
"* c #934502",
"= c #B86804",
"- c #C36A1E",
"; c #C97916",
": c #DB781E",
"> c #DB8214",
", c #D5841F",
"< c #EB8F1D",
"1 c #E18E27",
"2 c #EC9623",
"3 c #ED982B",
"4 c #EB9D36",
"5 c #EC9F35",
"6 c #EF9E38",
"7 c #E79041",
"8 c #D5A643",
"9 c #F1A842",
"0 c #F5B150",
"q c #F9BF5E",
"w c #F2C758",
"e c #FAC866",
"r c #FBC968",
"t c #FFD979",
"y c #FFE37F",
"u c #FFF5B5",
"i c white",
"p c None",
/* pixels */
"pppppppppppppppppppppppppppppppp",
"pppppppppppppppppppppppppppppppp",
"pppppppppppppppppppppppppppppppp",
"pppppppppppppppppppppppppppppppp",
"pppppppppppppppppppppppppppppppp",
"pppppppppppppppppppppppppppppppp",
"pppppppppppXXXXXXXXXXppppppppppp",
"pppppppppX=250000005:=Xppppppppp",
"ppppppppX250000000t005:Xpppppppp",
"pppppppX250q000u000q005:Xppppppp",
"ppppppp$5000000000000u05$ppppppp",
"ppppppX20rtrq0000t09q000:Xpppppp",
"ppppppX0rtttttqq0q05t005:Xpppppp",
"ppppppX2trtrttttqt97q90r2Xpppppp",
"ppppppX=20u0urttrt57r7r2=Xpppppp",
"ppppp.-ww-***-,,111,;=*88 pppppp",
"ppppp.-y-%@+-wwwwwwwww8%%# ppppp",
"ppppp.@%@%%@%@--yiyyy-@#o# ppppp",
"pppppp.OO@%@%%%%-www-%%@Oo ppppp",
"ppppppX..OoO@O@@%-w@@OoOO.pppppp",
"ppppppX3=.oOOoOOoooOo.oO.Xpppppp",
"ppppppXe0e=&..OO...O.o&=>Xpppppp",
"pppppppX3e60600066064>>=Xppppppp",
"pppppppp$00uttee00044>>$pppppppp",
"pppppppppX$030006606<$Xppppppppp",
"pppppppppppX$$$$$$$$Xppppppppppp",
"pppppppppppppppppppppppppppppppp",
"pppppppppppppppppppppppppppppppp",
"pppppppppppppppppppppppppppppppp",
"pppppppppppppppppppppppppppppppp",
"pppppppppppppppppppppppppppppppp",
"pppppppppppppppppppppppppppppppp"
};
