/* XPM */
static char *result[] = {
/* columns rows colors chars-per-pixel */
"32 32 57 1 ",
"  c black",
". c #370F03",
"X c #301807",
"o c #570D00",
"O c #461505",
"+ c #571C08",
"@ c #571F0D",
"# c #54331A",
"$ c #73250E",
"% c #73260E",
"& c #813600",
"* c #943315",
"= c #8D4700",
"- c #934502",
"; c #994100",
": c #9D500B",
"> c #B86804",
", c #C36A1E",
"< c #C97916",
"1 c #DB781E",
"2 c #845F44",
"3 c #DB8214",
"4 c #D5841F",
"5 c #EB8F1D",
"6 c #E18E27",
"7 c #EC9623",
"8 c #ED982B",
"9 c #EB9D36",
"0 c #EC9F35",
"q c #EF9E38",
"w c #AE8A5A",
"e c #E79041",
"r c #D5A643",
"t c #F1A842",
"y c #F5B150",
"u c #F9BF5E",
"i c #C9A663",
"p c #CCA777",
"a c #D2AA74",
"s c #F2C758",
"d c #FAC866",
"f c #FBC968",
"g c #FFD979",
"h c #FFE37F",
"j c #E7CD9D",
"k c #FFE49A",
"l c #E7CFA3",
"z c #F3DBAF",
"x c #F9DDBB",
"c c #F9E9BB",
"v c #FFF5B5",
"b c #FAECD0",
"n c #FCF4DF",
"m c #FFF5E2",
"M c #FFFBF3",
"N c white",
"B c None",
/* pixels */
"BBBBBBBBBBBBBBBBBBBBBBBBBBBBBBBB",
"BBBBBBBBBBBBBBBBBBBBBBBBBBBBBBBB",
"BBBBBBBBBBB&&&&&&&&&&BBBBBBBBBBB",
"BBBBBBBBB&>70yyyyyy01>&BBBBBBBBB",
"BBBBBBBB&70yyyyyyygyy01&BBBBBBBB",
"BBBBBBB&70yuyyyvyyyuyy01&BBBBBBB",
"BBBBBB#&0yyyyyyyyyyyyvy0&#BBBBBB",
"BBBBB#&7yfgfuyyyygytuyyy1&#BBBBB",
"BBBB#k&yfggggguuyuy0gyy01&k#BBBB",
"BBB2kNo7gfgfggggugteutyf7oNk2BBB",
"BBBwNNo>7yvyvfggfg0efef7>oNNwBBB",
"BBXkNl,ss,---,446664<>-rr pNkXBB",
"BBwNN.,h,*$@,sssssssssr**% NNwBB",
"BXlNN.$*$**$*$,,hNhhh,$%O% NNlXB",
"BXNNlm.++$*$****,sss,**$+O lNNXB",
"BXNNpmo..+O+$+$$*,s$$+O++.cpNNXB",
"BXNNpm:8>.O++O++OOO+O.O+.ozpNNXB",
"BXNNpm>dyd>=..++...+.O=>3=jpNNXB",
"BXNNpmc>8dqyqyyyqqyq933>=ijlNNXB",
"BXNNlmMj>yyvggddyyy9933=ijmxNNXB",
"BXwNNxMcj=>y8yyyqqyq5>=ijbxbNaXB",
"BBXNNlbMMcj;========;ijjMblNNXBB",
"BBXbNbxbMMMMMMMMMnnccccMblMNbXBB",
"BBB2NNblMMMMMMMMMMMMMMMMlbNN2BBB",
"BBBXbNMbnMnnnnnnnnnnMMnlbMNbXBBB",
"BBBB2bMNbnxnnnnnnnMMnnlbNMb2BBBB",
"BBBBBXbMMMNxxxxxxxxxxNNNNbXBBBBB",
"BBBBBBX2bNNNNNNNNNNNNNNb2XBBBBBB",
"BBBBBBBBXX2bNNNNNNNNb2XXBBBBBBBB",
"BBBBBBBBBBBXXXXXXXXXXBBBBBBBBBBB",
"BBBBBBBBBBBBBBBBBBBBBBBBBBBBBBBB",
"BBBBBBBBBBBBBBBBBBBBBBBBBBBBBBBB"
};
