/* XPM */
static char *result[] = {
/* columns rows colors chars-per-pixel */
"32 32 63 1 ",
"  c black",
". c #370F03",
"X c #301807",
"o c #570D00",
"O c #461505",
"+ c #571C08",
"@ c #571F0D",
"# c #51201A",
"$ c #54331A",
"% c #73250E",
"& c #73260E",
"* c #7B4943",
"= c #813600",
"- c #943315",
"; c #8D4700",
": c #934502",
"> c #994100",
", c #9D500B",
"< c #B86804",
"1 c #A87136",
"2 c #C36A1E",
"3 c #C97916",
"4 c #DB781E",
"5 c #845F44",
"6 c #AB7051",
"7 c #C67548",
"8 c #DB8214",
"9 c #D5841F",
"0 c #EB8F1D",
"q c #E18E27",
"w c #EC9623",
"e c #ED982B",
"r c #EB9D36",
"t c #EC9F35",
"y c #EF9E38",
"u c #AE8A5A",
"i c #E79041",
"p c #D5A643",
"a c #F1A842",
"s c #F5B150",
"d c #F9BF5E",
"f c #D29D63",
"g c #C9A663",
"h c #CFA874",
"j c #D2AA74",
"k c #F2C758",
"l c #FAC866",
"z c #FBC968",
"x c #FFD979",
"c c #FFE37F",
"v c #EDAE8B",
"b c #F0B7AC",
"n c #E7CD9D",
"m c #FFE49A",
"M c #F3DBAF",
"N c #F9E9BB",
"B c #FFF5B5",
"V c #F9F0C7",
"C c #FAECD0",
"Z c #FCF4DF",
"A c #FFFBF3",
"S c white",
"D c None",
/* pixels */
"DDDDDDDDDDDDDDDDDDDDDDDDDDDDDDDD",
"DDDDDDDDDDDDDDDDDDDDDDDDDDDDDDDD",
"DDDDDDDDDDD==========DDDDDDDDDDD",
"DDDDDDDDD=<wtsssssst4<=DDDDDDDDD",
"DDDDDDDD=wtsssssssxsst4=DDDDDDDD",
"DDDDDDD=wtsdsssBsssdsst4=DDDDDDD",
"DDDDDD$=tssssssssssssBst=$DDDDDD",
"DDDDD$=wszxzdssssxsadsss4=$DDDDD",
"DDDD$m=szxxxxxddsdstxsst4=m$DDDD",
"DDD5mSowxzxzxxxxdxaidaszwoSm5DDD",
"DDDuSho<wsBsBzxxzxtizizw<ouSuDDD",
"DDXmhS2kk2:::299qqq93<:pp SumXDD",
"DDuuS.2c2-%@2kkkkkkkkkp--& SuuDD",
"DXuSb.%-%--%-%22cSccc2%&O& bSuXD",
"D#VbSS.++%-%----2kkk2--%+O SbV#D",
"D6VvSSo..+O+%+%%-2k%%+O++.NSbV6D",
"#VvSSS,e<.O++O++OOO+O.O+.oMSSvV#",
"#VvSSS<lsl<;..++...+.O;<8;nSSvV#",
"#VVbSSN<elysysssyysyr88<;gnbbvV#",
"##*SbSSn<ssBxxllsssrr88;gnbSS###",
"DXj1SbSNn;<sesssyysy0<;gnbS6#jXD",
"DDXj1SbSSNn>;;;;;;;;>gnnbS6jjXDD",
"DDXCCfSbSSSSSSSSSZZNNNNbS6nSnXDD",
"DDD5SSfSbSSSSSSSSSSSSSbS6nSS5DDD",
"DDDXnSAfZbZZZZZZZZZZbbZ6nASnXDDD",
"DDDD5CASfZbZZZZZZZbbZZfCSAC5DDDD",
"DDDDDXCAA1SbSSSSbbSSf1SSSCXDDDDD",
"DDDDDDX5nS1n7nn7nnf1SSSn5XDDDDDD",
"DDDDDDDDXX51n77nf1SSn5XXDDDDDDDD",
"DDDDDDDDDDDX#nn##XXXXDDDDDDDDDDD",
"DDDDDDDDDDDDD##DDDDDDDDDDDDDDDDD",
"DDDDDDDDDDDDDDDDDDDDDDDDDDDDDDDD"
};
