/* XPM */
static char *result[] = {
/* columns rows colors chars-per-pixel */
"32 32 27 1 ",
"  c #450E00",
". c #7B3314",
"X c #813A29",
"o c #BF511C",
"O c #9D5B27",
"+ c #B7733D",
"@ c #BD774A",
"# c #8A8008",
"$ c #9E8311",
"% c #E98902",
"& c #F19C11",
"* c #C78524",
"= c #CC8141",
"- c #CC8F5D",
"; c #E39653",
": c #DFA653",
"> c #DFA26E",
", c #E3AF6F",
"< c #E7B87D",
"1 c #FFE140",
"2 c #F1C48A",
"3 c #F8D7A3",
"4 c #FFEABE",
"5 c #FFE5C4",
"6 c #FFF2D0",
"7 c white",
"8 c None",
/* pixels */
"88888888888888888888888888888888",
"88888888888888888888888888888888",
"88888888888888888888888888888888",
"88888888888888888888888888888888",
"88888888888888888888888888888888",
"88888888888888888888888888888888",
"8888888888      8888888888888888",
"888888888 3332>>O  8888888888888",
"88888888 33>2332>>>O  8888888888",
"88888888 >3433332>232>O  8888888",
"8888888  .O>33433333>232>O 88888",
"88888 .342>OO>3343323333333  888",
"8888.344>>22>OO>334>3323365<O 88",
"888.4442>>2222>OO>3343375<<O@ 88",
"888 4-444432222>>O.>226<<O@<< 88",
"888 3442-44322>+>>+.O><O@<O3> 88",
"888 =,344444>3444432,O.<33<O 888",
"888 44,,34433443444432,O>>O 8888",
"8888 242,,34443444,XOXO,O 888888",
"88888 .>44,=33342*XO*#*$, 888888",
"8888888 .242,=34*:::&$&*,.888888",
"888888888 .243=2X1&o;*oO, 888888",
"88888888888 .>3>X&*##OXX, 888888",
"8888888888888.>4O%$:*&X, 8888888",
"88888888888888.>4O##*O, 88888888",
"888888888888888 .442,. 888888888",
"88888888888888888    88888888888",
"88888888888888888888888888888888",
"88888888888888888888888888888888",
"88888888888888888888888888888888",
"88888888888888888888888888888888",
"88888888888888888888888888888888"
};
