/* XPM */
static char *result[] = {
/* columns rows colors chars-per-pixel */
"32 32 23 1 ",
"  c #5D1100",
". c #873100",
"X c #AB4505",
"o c #A5440C",
"O c #AC581A",
"+ c #D3780F",
"@ c #C4691A",
"# c #C36E24",
"$ c #CF7629",
"% c #CF7F33",
"& c #DA8532",
"* c #D6873C",
"= c #D8883D",
"- c #E19037",
"; c #D98F42",
": c #E7A254",
"> c #ECA658",
", c #E8A861",
"< c #EFAE64",
"1 c #F3B56E",
"2 c #F9D591",
"3 c #FFF6D9",
"4 c None",
/* pixels */
"44444444444444444444444444444444",
"44444444444444444444444444444444",
"44444444444444444444444444444444",
"44444444444444444444444444444444",
"44444444444444444444444444444444",
"44444444444444444444444444444444",
"44444444444444444444444444444444",
"4444444444444      4444444444444",
"4444444444   @$--$@   4444444444",
"44444444 .@$:;------$@. 44444444",
"4444444.@&-&&&$$$&&##&-$.4444444",
"444444 @----$>>111>&--#&$ 444444",
"444444.:-&##>11>>11>-&:&#.444444",
"44444 ==1$$;;>111>11;==1&; 44444",
"44444 -##==;:+oo..O;###;=# 44444",
"44444 -$$##=O444444.+$$##; 44444",
"44444.;$;$$#O.4444.O$$$;$; 44444",
"44444.;#;#$$=O...oO==$$;:;.44444",
"44444 ,;$;=#$$=$$$$##*:1<X 44444",
"44444 1;;<21:*$=:=*:122<;@ 44444",
"444444X%;;<231<<<1<22<%;:X444444",
"444444 1%%;;<233232;;;;%1 444444",
"4444444 1;%;:::<:<%:;;;1 4444444",
"44444444 X1%;;;;;;;%;1X 44444444",
"4444444444  X:1:11:X  4444444444",
"4444444444444      4444444444444",
"44444444444444444444444444444444",
"44444444444444444444444444444444",
"44444444444444444444444444444444",
"44444444444444444444444444444444",
"44444444444444444444444444444444",
"44444444444444444444444444444444"
};
