/* XPM */
static char *result[] = {
/* columns rows colors chars-per-pixel */
"32 32 40 1 ",
"  c #301807",
". c #5D1100",
"X c #54331A",
"o c #873100",
"O c #935700",
"+ c #AB4505",
"@ c #A5440C",
"# c #B15405",
"$ c #BE6112",
"% c #8A6431",
"& c #D3780F",
"* c #C4691A",
"= c #CB711D",
"- c #845F44",
"; c #DF8A30",
": c #E89630",
"> c #AE8A5A",
", c #D98F42",
"< c #C39045",
"1 c #E69844",
"2 c #DBB466",
"3 c #CCA777",
"4 c #E8A861",
"5 c #F0AA63",
"6 c #E1B263",
"7 c #ECC181",
"8 c #FEC28C",
"9 c #E7CFA3",
"0 c #EFD6A0",
"q c #F5D5A2",
"w c #F9DDBB",
"e c #F3E2A0",
"r c #FFECC1",
"t c #FFE8CD",
"y c #FAECD0",
"u c #FCF3DF",
"i c #FFF4E2",
"p c #FFFBF3",
"a c white",
"s c None",
/* pixels */
"ssssssssssssssssssssssssssssssss",
"ssssssssssssssssssssssssssssssss",
"ssssssssssssssssssssssssssssssss",
"ssssssssssssssssssssssssssssssss",
"sssssssssss-----ooooosssssssssss",
"ssssssss-->999o#&&&&&#o-ssssssss",
"ssssssX%9ppp9o&&;;;;;;&o-Xssssss",
"sssssX9ppppt.:&=*$;;=*=&#3Xsssss",
"ssssX9ppp933o:&;;@4q4;&&&o3Xssss",
"sss-9pp9339o4:*1*@4qq4;;&#.3-sss",
"sss>pp93wyu.74&5&&$4qq*&;&o3>sss",
"ss 9p93wuoo+47:&8&;$@@&&&*o33 ss",
"ss>pp3yoo&&&o07:*a&&&&;1;:o39>ss",
"s 9pp9o&;4&&.407:**85&5&:o39yy s",
"s pp9o&&&&4;&.4074:***:74.99pp s",
"s ppo,&&&*4qq4.470000074.3w3pp s",
"s ppo,;4&@qqqqo.o47074o.3ww3pp s",
"s ppo,*&;*@ooo*&;+....3wOOO3pp s",
"s aao4&**&**;;&***+.33O<ieeOaa s",
"s aao4,8&*&;****&,*o3OeeeieOaa s",
"s ya3o4,8a8*;&*&,4*+Oeaiee<yay s",
"ss a9o404,&**;,404o3<iaaieOaa ss",
"ss ya3o40raar0r04o3OeaaaeOpay ss",
"sss-aa3oo400004oo3Oiiie2<yaa-sss",
"sss yapy3oooooo3y<eie2<9ypay sss",
"ssss-ypayywuppp6<iie6w9yapy-ssss",
"sssss ypppawwweiie6<waaaay sssss",
"ssssss -yaaaaaaaaaaaaaay- ssssss",
"ssssssss  -yaaaaaaaay-  ssssssss",
"sssssssssss          sssssssssss",
"ssssssssssssssssssssssssssssssss",
"ssssssssssssssssssssssssssssssss"
};
