/* XPM */
static char *result[] = {
/* columns rows colors chars-per-pixel */
"32 32 51 1 ",
"  c #301807",
". c #450000",
"X c #690000",
"o c #6F0C00",
"O c #54331A",
"+ c #014B00",
"@ c #930000",
"# c #B1070E",
"$ c #9F3900",
"% c #993E00",
"& c #D51821",
"* c #9F4E20",
"= c #8A6431",
"- c #A56339",
"; c #BB743E",
": c #C97A0B",
"> c #D06E15",
", c #845F44",
"< c #FF6746",
"1 c #268139",
"2 c #2E9F3D",
"3 c #61AB07",
"4 c #E18025",
"5 c #AE8A5A",
"6 c #D59D50",
"7 c #F1A85D",
"8 c #F9B659",
"9 c #C89A6E",
"0 c #CCA777",
"q c #F4A467",
"w c #FAB56A",
"e c #82D571",
"r c #EFC557",
"t c #EDC460",
"y c #F9DE64",
"u c #FCCB77",
"i c #FFDC9C",
"p c #FBE18E",
"a c #FFE59B",
"s c #E7CFA3",
"d c #F9DDBB",
"f c #FFE5A6",
"g c #FFEFA6",
"h c #FFE8CD",
"j c #FFF1C4",
"k c #FFFCC4",
"l c #FAECD0",
"z c #FCF3DF",
"x c #FFFBF3",
"c c white",
"v c None",
/* pixels */
"vvvvvvvvvvvvvvvvvvvvvvvvvvvvvvvv",
"vvvvvvvvvvvvvvvvvvvvvvvvvvvvvvvv",
"vvvvvvvvvvvvvvvooovvvvvvvvvvvvvv",
"vvvvvvvvvvvvvvo474$ovvvvvvvvvvvv",
"vvvvvvvvvvv,,,$74444$ovvvvvvvvvv",
"vvvvvvvv,,5sco7u7uoo44$ovvvvvvvv",
"vvvvvvO=scccc$XXf%c%7447$ovvvvvv",
"vvvvvOscccchoX&&Xcgcou7444ovvvvv",
"vvvvOscccs0*.@<#@++gt%fu74oOvvvv",
"vvv,sccs00*.&<@XX12+t4uuq>os,vvv",
"vvv5ccs0d$yX##X<&@1ee3w>uq$c5vvv",
"vv scs0d$ak7X#@##Xe+113quu:cs vv",
"vv5cc0l$yyyakc7##>++7ijiij6cc5vv",
"v sccs$yyyyyyyrqqipjjipijj6ccs v",
"v ccsloakkarrryjjjjjjjjjip6scc v",
"v cc0loryryjpjjjjpjpjpijji$0cc v",
"v cc0l:ycjjjjjjjjjpicjji9-$0cc v",
"v cc0l6jjjjjjjjjpjjji9---o00cc v",
"v cc0l6jcjjjjpcjji9----$o0lscc v",
"v ccsl:jjjjjjji9----$oo0dlldcc v",
"v lccd$ijjji9----$oo0dddlldlcl v",
"vv ccso44;----$oo0dddd8lxlscc vv",
"vv lcldo4;-$oo0ddddddlxxlsxcl vv",
"vvv,cclsooo0dddd8lxxxxxxslcc,vvv",
"vvv lcxlsxxxxxxxxx8xxxxslxcl vvv",
"vvvv,lxclsdzxxxxxxxxzdslcxl,vvvv",
"vvvvv lxxxcddddddddddccccl vvvvv",
"vvvvvv ,lccccccccccccccl, vvvvvv",
"vvvvvvvv  ,lccccccccl,  vvvvvvvv",
"vvvvvvvvvvv          vvvvvvvvvvv",
"vvvvvvvvvvvvvvvvvvvvvvvvvvvvvvvv",
"vvvvvvvvvvvvvvvvvvvvvvvvvvvvvvvv"
};
