/* XPM */
static char *result[] = {
/* columns rows colors chars-per-pixel */
"32 32 7 1 ",
"  c #9C1E00",
". c #B43201",
"X c #C84300",
"o c #DE7B1E",
"O c #F88903",
"+ c #F8AC18",
"@ c None",
/* pixels */
"@@@@@@@@@@@@@@@@@@@@@@@@@@@@@@@@",
"@@@@@@@@@@@@@@@@@@@@@@@@@@@@@@@@",
"@@@@@@@@@@@@@@@@@@@@@@@@@@@@@@@@",
"@@@@@@@@@@@@@@@@@@@@@@@@@@@@@@@@",
"@@@@@@@@@@@@@@@@@@@@@@@@@@@@@@@@",
"@@@@@@@@@@@@@@@@@@@@@@@@@@@@@@@@",
"@@@@@@@@@@@@XX@@@@@@@@@@@@@@@@@@",
"@@@@@@@@@@@X+OXXXX@XXX@@@@@@@@@@",
"@@@@@@@@XXXXoXO+++XO+OX@@@@@@@@@",
"@@@@@@XXO+++XoO++O XX+O  X@@@@@@",
"@@@@XXo++++Oo oXX O++XoX++X@@@@@",
"@@@X+OXoOOXX   oO+++OoXO++ @@@@@",
"@@@X++X  XoO+++X++OoX. ooX X@@@@",
"@@@XOX+O O++++X ooX.+O  XO++X@@@",
"@@@@X O+X+++OX+O   .O++++++OX@@@",
"@@@X++X++XOX  O++ +OXOO XXoX@@@@",
"@@@X++X++XXoX  oOXO++X oooX@@@@@",
"@@@ O+ OX+OXooo..X O+O  XoX@@@@@",
"@@@ oOO X++ oo.XO++XoXO++X@@@@@@",
"@@@ oooo OO  .O+++OXX+++O @@+@@@",
"@@@@ oo ooo O+XO+OXXoOOo @X@@@@@",
"@@@X@ XOooXXoOOXXXOOXoo+OX@@XX@@",
"@@@@@ OOoXooXoooO++o  O++oX@OX@@",
"@@@@@@  X+++o XO+++O @ o+OX@@@@@",
"@@@@@@@XO+OX @@    X@@@XXX@@@@@@",
"@@@@X @@XXX@@@X@@@@@@@@@@@@@@@@@",
"@@@@ O@@@@@@@@@@@@@@@@+@@@@@@@@@",
"@@@@@@@@@@@@@@@@@@@@@@@@@@@@@@@@",
"@@@@@@@@@@@@@@@@@@@@@@@@@@@@@@@@",
"@@@@@@@@@@@@@@@@@@@@@@@@@@@@@@@@",
"@@@@@@@@@@@@@@@@@@@@@@@@@@@@@@@@",
"@@@@@@@@@@@@@@@@@@@@@@@@@@@@@@@@"
};
