/* XPM */
static char *result[] = {
/* columns rows colors chars-per-pixel */
"32 32 21 1 ",
"  c #2A190E",
". c #61422B",
"X c #9C1E00",
"o c #B43201",
"O c #96451C",
"+ c #B77A2B",
"@ c #C84300",
"# c #DE7B1E",
"$ c #F88903",
"% c #F8AC18",
"& c #E1B57D",
"* c #BC9A81",
"= c #E1B883",
"- c #EDCBA0",
"; c #ECCCA4",
": c #EEE7BE",
"> c #F9E2C4",
", c #F8F8D8",
"< c #FCF0E0",
"1 c white",
"2 c None",
/* pixels */
"22222222222222222222222222222222",
"22222222222222222222222222222222",
"22222222222222222222222222222222",
"22222222222222222222222222222222",
"22222222222222222222222222222222",
"22222222222222222222222222222222",
"2222222222++++++++++++2222222222",
"2222222+++:11@@111111:+++2222222",
"22222++:1111@%$@@@@1@@@1:++22222",
"2222+:111@@@@#@$%%%@$%$@11:+2222",
"222+:1-@@$%%%@#$%%$X@@%$XX@:+222",
"22+:1@@#%%%%$#X#@@X$%%@#@%%@:+22",
"22.1@%$@#$$@@XXX#$%%%$#@$%%X1.22",
"2+:1@%%@XX@#$%%%@%%$#@oX##@X@:+2",
"2+1=@$@%$X$%%%%@X##@o%$XX@$%%@+2",
"2.1*;@X$%@%%%$@%$XXXo$%%%%%%$@.2",
"2 1*@%%@%%@$@XX$%%X%$@$$X@@#@1 2",
"2 1*@%%@%%@@#@XX#$@$%%@X###@*1 2",
"2 ,&X$%X$@%$@###oo@X$%$XX@#@&, 2",
"2 ;1X#$$X@%%X##o@$%%@#@$%%@;1; 2",
"22*:O####X$$XXo$%%%$@@%%%$@&;.22",
"22.*:O##X###X$%@$%$@@#$$#@O1*.22",
"222.;1OO###@@#$$@@@$$@##OO:;.222",
"222 :;:1OOO##@#######OOO1:;:.222",
"2222.:;;11:OOOOOOOOOO:11;;:.2222",
"22222.:1;><1111111111<>;1:.22222",
"222222.1111<<<<<<<<<<111:.222222",
"2222222 .:111111111111:. 2222222",
"222222222 .+:111111:+. 222222222",
"222222222222........222222222222",
"22222222222222222222222222222222",
"22222222222222222222222222222222"
};
