/* XPM */
static char *result[] = {
/* columns rows colors chars-per-pixel */
"32 32 22 1 ",
"  c #301807",
". c #450E00",
"X c #54331A",
"o c #692E16",
"O c #8D5139",
"+ c #8A6431",
"@ c #845F44",
"# c #997545",
"$ c #B17157",
"% c #AE8A5A",
"& c #C38863",
"* c #CCA777",
"= c #DBA380",
"- c #E7CFA3",
"; c #F9DDBB",
": c #FFE8CD",
"> c #FAECD0",
", c #FCF3DF",
"< c #FCF3E0",
"1 c #FFFBF3",
"2 c white",
"3 c None",
/* pixels */
"33333333333333333333333333333333",
"33333333333333333333333333333333",
"33333333333333333333333333333333",
"33333333333333333333333333333333",
"33333333333@@@@@@@@@@33333333333",
"33333333@@%-11111111-%@@33333333",
"333333X+-11....11111111-@X333333",
"33333X-111.$&&$o.**-:1111-X33333",
"3333X-111.&$$$O$$o.****-11-X3333",
"333@-11-.oO=&O$&&$$o.-**-11-@333",
"333%11-.$&&OoO=&$$O$$o.;-*11%333",
"33 -1-.&$$$O$$OO&O$&&$$o.-*1- 33",
"33%11*.O=&O$&&$$oO=&$$O$$o.11%33",
"3 -11-.oOo=$$$$O$$OO&O$&&$&.1- 3",
"3 11->-..oO&=&O$&&$$oO=&$&O.11 3",
"3 11*>>*#..oOo=$$$$O$$OO&Oo.11 3",
"3 11*><1;*#..oO&=&O$&&$&Oo.*11 3",
"3 11*>1...*##..oOo$$$$=Oo.**11 3",
"3 22*>.$$$.*;*#..oO&=&Oo.*>-22 3",
"3 22->.&=&.#...*-..oOoo.*1>;22 3",
"3 >22;oOOO..$$$.;*.....*1>;>2> 3",
"33 22-*ooo*.&=&.;.$$$.*11>-22 33",
"33 >2>;>111oOOOo;.&=&.11>-12> 33",
"333@22>-111*ooo*1oOOOo11->22@333",
"333 >21>-11111111*ooo*1->12> 333",
"3333@>12>-;,11111111,;->21>@3333",
"33333 >1112;;;;;;;;;;2222> 33333",
"333333 @>22222222222222>@ 333333",
"33333333  @>22222222>@  33333333",
"33333333333          33333333333",
"33333333333333333333333333333333",
"33333333333333333333333333333333"
};
