/* XPM */
static char *result[] = {
/* columns rows colors chars-per-pixel */
"32 32 27 1 ",
"  c #301807",
". c #452203",
"X c #54331A",
"o c #69390C",
"O c #512E25",
"+ c #81321E",
"@ c #8D4A0D",
"# c #935925",
"$ c #9F4F3B",
"% c #8A6431",
"& c #B76F2E",
"* c #845F44",
"= c #AE8A5A",
"- c #CF9058",
"; c #D9A460",
": c #CCA777",
"> c #E7BB74",
", c #E1B57A",
"< c #E7CFA3",
"1 c #F9DDBB",
"2 c #FFE8CD",
"3 c #FAECD0",
"4 c #FCF3DF",
"5 c #FCF3E0",
"6 c #FFFBF3",
"7 c white",
"8 c None",
/* pixels */
"88888888888888888888888888888888",
"88888888888888888888888888888888",
"88888888888888888888888888888888",
"88888888888888888888888888888888",
"88888888888**********88888888888",
"88888888**=<66666666<=**88888888",
"888888X%<66666666......<*X888888",
"88888X<66662<::..;>>>;-.6<X88888",
"8888X<666<::::.->>$O;>>-.6<X8888",
"888*<66<::<14.->>;>>>O>>.66<*888",
"888=66<:134...>>-;>;;>>;o:66=888",
"88 <6<:143+,,+&;$-;>$>$-@o:6< 88",
"88=66:3&3+,,-+o-;>;+O;-&oo:66=88",
"8 <66<335.@@&&-@&&&-&-#o&o<66< 8",
"8 66<33+@->-@.@.oo@@o.,&o.3<66 8",
"8 66:3+->;+>>-.o.&-&--&o.:3:66 8",
"8 66:+-;>->>&+-.oo.oo.o.:<3:66 8",
"8 66:.>$+>>>$O;@.@@.&--&.63:66 8",
"8 77:+>+-;;>>;>@->O-.&$-+63<77 8",
"8 77<+;->>$>->;.>>>;;.-,+63177 8",
"8 377.-;$>;->;&@;->>>@,.<++373 8",
"88 77<+&-;;;-&+;$>$O;@.<6&O77 88",
"88 3731.+&&&+.--;>+&-.<63<673 88",
"888*773<6...&-&&&-&&+<6&<377*888",
"888 3763<66<..-----+<66<3673 888",
"8888*3673<146<...++641<3763*8888",
"88888 36667111111111177773 88888",
"888888 *3777777777777773* 888888",
"88888888  *3777777773*  88888888",
"88888888888          88888888888",
"88888888888888888888888888888888",
"88888888888888888888888888888888"
};
