/* XPM */
static char *result[] = {
/* columns rows colors chars-per-pixel */
"32 32 13 1 ",
"  c black",
". c #331D13",
"X c #4B2919",
"o c #633926",
"O c #633A26",
"+ c #724632",
"@ c #744530",
"# c #744732",
"$ c #8D573F",
"% c #B77B5D",
"& c #B78268",
"* c #D5A38B",
"= c None",
/* pixels */
"================================",
"================================",
"================================",
"================================",
"================================",
"================================",
"================XXX=============",
"==============Xo$$$X============",
"============Xo$$+XX+X===========",
"==========Xo$$+XX+X+o===========",
"========Xo$$+XO++X+$$X==========",
"=======.&$+%O+$$X+$$+o==========",
"=======.*&$$$$$X+$XXX+X=========",
"=======X*$&*$$+%OX+$X$o=========",
"=======X&X@$&*$$$$+X+$$X========",
"=======.$XX.@$&*$+X%OXXo========",
"=======.$.XXXX@$&*$$+X+$.=======",
"=======.$&$.XX.X@$&*$$$&.=======",
"=======.$$#&$..X.X@$&*&@.=======",
"=======.$XX$#&$XXX..@$$X.=======",
"======== X.XX$#&$X.XX.X. =======",
"========== XX..$#&$XX.X& =======",
"============ X.XX$#$&&$# =======",
"============== X.X.X#$#X =======",
"================ X.XX..X =======",
"================== .XX. ========",
"====================   =========",
"================================",
"================================",
"================================",
"================================",
"================================"
};
