/* XPM */
static char *result[] = {
/* columns rows colors chars-per-pixel */
"32 32 26 1 ",
"  c black",
". c #301807",
"X c #331D13",
"o c #4B2919",
"O c #54331A",
"+ c #633926",
"@ c #633A26",
"# c #724632",
"$ c #744530",
"% c #744732",
"& c #8D573F",
"* c #8A6431",
"= c #845F44",
"- c #B77B5D",
"; c #AE8A5A",
": c #B78268",
"> c #CCA777",
", c #D5A38B",
"< c #E7CFA3",
"1 c #F9DDBB",
"2 c #FAECD0",
"3 c #FCF3DF",
"4 c #FDF4E1",
"5 c #FFFBF3",
"6 c white",
"7 c None",
/* pixels */
"77777777777777777777777777777777",
"77777777777777777777777777777777",
"7777777777777777ooo7777777777777",
"77777777777777o+&&&o777777777777",
"77777777777=o+&&#oo#o77777777777",
"77777777==o+&&#oo#o#+;==77777777",
"777777O*o+&&#o@##o#&&o5<=O777777",
"77777O<X:&#-@#&&o#&&#+555<O77777",
"7777O<5X,:&&&&&o#&ooo#o<55<O7777",
"777=<55o,&:,&&#-@o#&o&+><55<=777",
"777;55<o:o$&:,&&&&#o#&&o<>55;777",
"77.<5<>X&ooX$&:,&#o-@oo+<<>5<.77",
"77;55>2X&Xoooo$&:,&&#o#&X2>55;77",
"7.<55<2X&:&XooXo$&:,&&&:X2<55<.7",
"7.55<24X&&%:&XXoXo$&:,:$X42<55.7",
"7.55>25X&oo&%:&oooXX$&&oX52>55.7",
"7.55>25> oXoo&%:&oXooXoX 52>55.7",
"7.55>2552> ooXX&%:&ooXo: 52>55.7",
"7.66>255552> oXoo&%&::&% 52<66.7",
"7.66<255::552> oXoXo%&%o 52166.7",
"7.266152::25552> oXooXXo 21262.7",
"77.66<25555:55552> XooX 22<66.77",
"77.2621255555555552>   >2<562.77",
"777=662<5555555555555555<266=777",
"777.2652<55555555555555<2562.777",
"7777=2562<135555555531<2652=7777",
"77777.25556111111111166662.77777",
"777777.=2666666666666662=.777777",
"77777777..=2666666662=..77777777",
"77777777777..........77777777777",
"77777777777777777777777777777777",
"77777777777777777777777777777777"
};
