/* XPM */
static char *result[] = {
/* columns rows colors chars-per-pixel */
"32 32 29 1 ",
"  c black",
". c #42372E",
"X c #483A2E",
"o c #605349",
"O c #6C5A55",
"+ c #9E2802",
"@ c #DE7606",
"# c #E4710D",
"$ c #C64B24",
"% c #509019",
"& c #86AE33",
"* c #E88C08",
"= c #F0AB0B",
"- c #F6B812",
"; c #FFCA1D",
": c #FFD01C",
"> c #FFF101",
", c #D89C48",
"< c #C09F6E",
"1 c #C6A474",
"2 c #968B84",
"3 c #968E84",
"4 c #B4ACA2",
"5 c #C0B7B1",
"6 c #D2D2D2",
"7 c #D8D5D2",
"8 c #EAEAEA",
"9 c white",
"0 c None",
/* pixels */
"00000000000000000000000000000000",
"00000000000000000000000000000000",
"00000000000000000000000000000000",
"00000000000000000000000000000000",
"00000000000000000000000000000000",
"000    0000000000000000000000000",
"00 5669 000000000000000000000000",
"0 36595.000000000000000000000000",
"0 3. 355.00000000000000000000000",
"0 33 .366.        00000000000000",
"0 63. .3O668689986  000000000000",
"00.33. O44,1,,11,,66 00000000000",
"00 633o<44@$@$$$@,,18 0000000000",
"000 63o<4@:=;-==*$@,19  00000000",
"0000   <4$==;;==-&;$+182  000000",
"0000000 2+*->%&=>->;-@$1662 0000",
"0000000 7o$*:;*===;-===@+166 000",
"0000000 56oo2oo2oo2*==%=*+146 00",
"00000000 52295589865o*-=-*@126 0",
"00000000 2526556666685o-*#+226 0",
"000000000 2525569666522oo$<6  00",
"0000000000 X5222622222255o  0000",
"0000000000 6Xoo69695oX    000000",
"0000000000 6522ooooX5 0000000000",
"0000000000 5222592222 0000000000",
"00000000000 52266522 00000000000",
"000000000000 o2596  000000000000",
"0000000000000     00000000000000",
"00000000000000000000000000000000",
"00000000000000000000000000000000",
"00000000000000000000000000000000",
"00000000000000000000000000000000"
};
