/* XPM */
static char *result[] = {
/* columns rows colors chars-per-pixel */
"32 32 48 1 ",
"  c #301807",
". c #661A00",
"X c #54331A",
"o c #7E2900",
"O c #9E2802",
"+ c #8A3100",
"@ c #B55100",
"# c #BA5E00",
"$ c #8A6431",
"% c #C64707",
"& c #CC6700",
"* c #DE7606",
"= c #D86910",
"- c #C67214",
"; c #E4710D",
": c #845F44",
"> c #BA7765",
", c #638A13",
"< c #7AA229",
"1 c #86AE33",
"2 c #E88C08",
"3 c #FB8E0F",
"4 c #EC9A09",
"5 c #F0A109",
"6 c #F0AB0B",
"7 c #F8AD12",
"8 c #FFB91B",
"9 c #CE8029",
"0 c #ED902C",
"q c #FFD01C",
"w c #AE8A5A",
"e c #E8A34F",
"r c #CCA777",
"t c #EABD77",
"y c #FFDE64",
"u c #D2A582",
"i c #F6CE8E",
"p c #D9C2AA",
"a c #E7CFA3",
"s c #E7D7BC",
"d c #F9DDBB",
"f c #EADECA",
"g c #FAECD0",
"h c #FCF0DC",
"j c #FCF3DF",
"k c #FFFBF3",
"l c white",
"z c None",
/* pixels */
"zzzzzzzzzzzzzzzzzzzzzzzzzzzzzzzz",
"zzzzzzzzzzzzzzzzzzzzzzzzzzzzzzzz",
"zzzzzzzzzzzzzzzzz...zzzzzzzzzzzz",
"zzzzzzzzzzzzzz...o00..zzzzzzzzzz",
"zzzzzzzzzzz::.titotii0..zzzzzzzz",
"zzzzzzzz::wag+0i0o0eiio0@..zzzzz",
"zzzzzzX$all.++-i0@-0it@t09t.zzzz",
"zzzzzXalll.0e@iii@iie0-9@@0t.zzz",
"zzzzXallla.t00te0-ti0-t0@@9t.zzz",
"zzz:allarrOOO#**##0te@0t09t@e.zz",
"zzzwllarO*464*47882*##etttt-tt.z",
"zz alar#46666866q76675*#te@0t0.z",
"zzwllr#46%666*6686q,6*55*0-tt@.z",
"z alla*688386qq676667q585Oete..z",
"z lla#638q*4,68qq8%66685**#0@r.z",
"z llr=662**268qq888,664*&&O.rr z",
"z llr*61,62*288268q8444,42#rgg z",
"z llr=2444%644666648q44444Orgg z",
"z llrO;2q2664461,66qq34<y;Oall z",
"z llaO=>>>>>>>664663**422#rdll z",
"z gldr>pfplllfu>22*266q5;Odglg z",
"zz ll>hlllllfpllu>>q222=Ogall zz",
"zz gluffhlppllpflfp#==OOdaklg zz",
"zzz:ll>pfflfhshpslh#OOdkagll:zzz",
"zzz glkuufplfpfffp>dkkkagklg zzz",
"zzzz:gklgu>>uuu>u>dkjdaglkg:zzzz",
"zzzzz gkkklddddddddddllllg zzzzz",
"zzzzzz :gllllllllllllllg: zzzzzz",
"zzzzzzzz  :gllllllllg:  zzzzzzzz",
"zzzzzzzzzzz          zzzzzzzzzzz",
"zzzzzzzzzzzzzzzzzzzzzzzzzzzzzzzz",
"zzzzzzzzzzzzzzzzzzzzzzzzzzzzzzzz"
};
