/* XPM */
static char *result[] = {
/* columns rows colors chars-per-pixel */
"32 32 30 1 ",
"  c black",
". c #330E00",
"X c #3F1A00",
"o c #4B1A00",
"O c #52260A",
"+ c #572F12",
"@ c #692C00",
"# c #633B1E",
"$ c #814921",
"% c #995A2D",
"& c #AE6632",
"* c #C36819",
"= c #CC7224",
"- c #CF772C",
"; c #CF7D36",
": c #DE8442",
"> c #DB8840",
", c #E19655",
"< c #F39E5F",
"1 c #CCAF7F",
"2 c #E166AC",
"3 c #CF9D94",
"4 c #CFB982",
"5 c #E4CDA9",
"6 c #ECD8B9",
"7 c #82C1C3",
"8 c #F3DFDC",
"9 c #FCF0DF",
"0 c white",
"q c None",
/* pixels */
"qqqqqqqqqqqqqqqqqqqqqqqqqqqqqqqq",
"qqqqqqqqqqqqqqqqqqqqqqqqqqqqqqqq",
"qqqqqqqqqqqqqqqqqqqqqqqqqqqqqqqq",
"qqqqqqqqqqqqqqqqqqqqqqqqqqqqqqqq",
"qqqqqqqqqqqqqqqqqqqqqqqqqqqqqqqq",
"qqqqqqqqqqqqqqqqqqqqqqqqqqqqqqqq",
"qqqqqqqqqqqqqqqqqq#######qqqqqqq",
"qqqqqqqqqqqqqqqq##5999995##qqqqq",
"qqqqqqqqqqqqqqq#59990009995#qqqq",
"qqqqqqqqqqqqqq#5990999900995#qqq",
"qqqqqqqqqqqqq#599996555699995#qq",
"qqqqqqqqqqqqq#999951111159999#qq",
"qqqqqqqqqqqqq.99961*,,,*16999#qq",
"qqqqqqqqqqqqq.599995555599999#qq",
"qqqqqqqq       59999999999995Xqq",
"qqqqqq .Xooo4ooX.59999999995Xqqq",
"qqqqq o7oo@@@oo2o.*>599951*>Xqqq",
"qqqq 4o@$%%:%%$@oo.*;>>,;,;Xqqqq",
"qqq OO+$@@...@@$+7O ;>>>;@Xqqqqq",
"qqq O+3+.*=***.+2+O ..XXXqqqqqqq",
"qqq.O8+++.@...+4+8O.qqqqqqqqqqqq",
"qqq %+%&4+++++$$%@% qqqqqqqqqqqq",
"qqqqX,@$&&*<*&$@,*Xqqqqqqqqqqqqq",
"qqqqX*;>@$%%$$,>*-oqqqqqqqqqqqqq",
"qqqqqX>**;******>Xqqqqqqqqqqqqqq",
"qqqqqqX@>,>>>>>@Xqqqqqqqqqqqqqqq",
"qqqqqqqqXXXXXXXqqqqqqqqqqqqqqqqq",
"qqqqqqqqqqqqqqqqqqqqqqqqqqqqqqqq",
"qqqqqqqqqqqqqqqqqqqqqqqqqqqqqqqq",
"qqqqqqqqqqqqqqqqqqqqqqqqqqqqqqqq",
"qqqqqqqqqqqqqqqqqqqqqqqqqqqqqqqq",
"qqqqqqqqqqqqqqqqqqqqqqqqqqqqqqqq"
};
