/* XPM */
static char *result[] = {
/* columns rows colors chars-per-pixel */
"32 32 44 1 ",
"  c black",
". c #330E00",
"X c #301807",
"o c #3F1A00",
"O c #4B1A00",
"+ c #52260A",
"@ c #572F12",
"# c #54331A",
"$ c #692C00",
"% c #723D17",
"& c #784F09",
"* c #8D440F",
"= c #814921",
"- c #995A2D",
"; c #8A6431",
": c #AE6632",
"> c #A87E36",
", c #C36819",
"< c #CC7224",
"1 c #CF772C",
"2 c #CF7D36",
"3 c #845F44",
"4 c #AE8A5A",
"5 c #DE8442",
"6 c #DB8840",
"7 c #E19655",
"8 c #CCA777",
"9 c #CCAF7F",
"0 c #E166AC",
"q c #CF9D94",
"w c #CFB982",
"e c #E7CFA3",
"r c #E4CDA9",
"t c #F9DDBB",
"y c #82C1C3",
"u c #F3DFDC",
"i c #FFE8CD",
"p c #FAECD0",
"a c #FCF0DF",
"s c #FCF3DF",
"d c #FDF5E4",
"f c #FFFBF3",
"g c white",
"h c None",
/* pixels */
"hhhhhhhhhhhhhhhhhhhhhhhhhhhhhhhh",
"hhhhhhhhhhhhhhhhhhhhhhhhhhhhhhhh",
"hhhhhhhhhhhhhhhhhhhhhhhhhhhhhhhh",
"hhhhhhhhhhhhhhhhhhhhhhhhhhhhhhhh",
"hhhhhhhhhhh3333333333hhhhhhhhhhh",
"hhhhhhhh334eppppppppe433hhhhhhhh",
"hhhhhh#;eppppppppppppppe3#hhhhhh",
"hhhhh#eppppie88888&&&&&ppe#hhhhh",
"hhhh#epppe888888&>raaar>&pe#hhhh",
"hhh3eppe88etsss>raagggaar>pe3hhh",
"hhh4ppe8tpsppp>raaaaaaaaar&p4hhh",
"hhXepe8tsppppp&aaar999raaa>peXhh",
"hh4pp8ppppdfff aar9rrr9raa&pp4hh",
"hXeppeppdf     aaaaaaaaaga&ppeXh",
"hXppeppd .oOOOOo arargggar$eppXh",
"hXpp8pd OyOO$OO0O.a6raar,6$8ppXh",
"hXpp8p wO$=-5-=$OO a67272$88ppXh",
"hXpp8p.+@=$...$=@y 2662*$8t8ppXh",
"hXgg8po@q@.,<,.@0@. $**8tfpeggXh",
"hXggep.u@@@...@w@u@ftfffffptggXh",
"hXpggt @-=-@@@==-$.fffff6ptpgpXh",
"hhXgge,7$$%:5:$$7,*tfwfffpeggXhh",
"hhXpgp*,26$=-$76,1OfffffpefgpXhh",
"hhh3gg8$6,,22,,,6*8fyfffepgg3hhh",
"hhhXpgf8$*67616*$8tffffepfgpXhhh",
"hhhh3pfgp8$$$$$8tfffstepgfp3hhhh",
"hhhhhXpfffgttttttttttggggpXhhhhh",
"hhhhhhX3pggggggggggggggp3Xhhhhhh",
"hhhhhhhhXX3pggggggggp3XXhhhhhhhh",
"hhhhhhhhhhhXXXXXXXXXXhhhhhhhhhhh",
"hhhhhhhhhhhhhhhhhhhhhhhhhhhhhhhh",
"hhhhhhhhhhhhhhhhhhhhhhhhhhhhhhhh"
};
