/* XPM */
static char *result[] = {
/* columns rows colors chars-per-pixel */
"32 32 10 1 ",
"  c #391F00",
". c #7B3D0F",
"X c #BD8035",
"o c #E1A966",
"O c #EDB571",
"+ c #EDCDA6",
"@ c #F9DDBB",
"# c #FCE9D1",
"$ c #FFFBF3",
"% c None",
/* pixels */
"%%%%%%%%%%%%%%%%%%%%%%%%%%%%%%%%",
"%%%%%%%%%%%%%%%%%%%%%%%%%%%%%%%%",
"%%%%%%%%%%%%%%%%%%%%%%%%%%%%%%%%",
"%%%%%%%%%%%%%%%%%%%%%%%%%%%%%%%%",
"%%%%%%%%%%%%%%%%%%%%%%%%%%%%%%%%",
"%%%%%%%%%%%%%%%%%%%%%%%%%%%%%%%%",
"%%%%%%%%%%%%%%%%%%%%%%%%%%%%%%%%",
"%%%%%%%%%%%%%%%%%%%%%%%%%%%%%%%%",
"%%%%%%%%%%%%%%%%%%%%%... %%%%%%%",
"%%%%%%%%%%%%%%%%%....@#@ %%%%%%%",
"%%%%...%%...%%...#$$O#$.%%%%%%%%",
"%%%% $#..$$#..#$+@@$#$@ %%%%%%%%",
"%%%% @$#O@+@@+@@#$$#@#.%%.. %%%%",
"%%%%%.#$@$#$$#$$#$#@@@ %.#$ %%%%",
"%%%%% @$#$#$$$#@@@@@@   @$$ %%%%",
"%%%%%%.@O@@@@@@@@@O..O@#$$@ %%%%",
"%%%%%% O...O...O..X@#$@#$#.%%%%%",
"%%%%%%%  $@.#$@X$#@@$$#@$@ %%%%%",
"%%%%%%%% @#O$$$O$$$@$$$#$o %%%%%",
"%%%%%%%%%.@$$$$#@$$#$$$#@.%%%%%%",
"%%%%%%%%% o@#$$$#$$$#@@@o %%%%%%",
"%%%%%%%%%% O@@@@@@@@@@@@ %%%%%%%",
"%%%%%%%%%%% .O@@@@@@@#o %%%%%%%%",
"%%%%%%%%%%%%% .O@##@O. %%%%%%%%%",
"%%%%%%%%%%%%%%%      %%%%%%%%%%%",
"%%%%%%%%%%%%%%%%%%%%%%%%%%%%%%%%",
"%%%%%%%%%%%%%%%%%%%%%%%%%%%%%%%%",
"%%%%%%%%%%%%%%%%%%%%%%%%%%%%%%%%",
"%%%%%%%%%%%%%%%%%%%%%%%%%%%%%%%%",
"%%%%%%%%%%%%%%%%%%%%%%%%%%%%%%%%",
"%%%%%%%%%%%%%%%%%%%%%%%%%%%%%%%%",
"%%%%%%%%%%%%%%%%%%%%%%%%%%%%%%%%"
};
