/* XPM */
static char *result[] = {
/* columns rows colors chars-per-pixel */
"32 32 27 1 ",
"  c #301807",
". c #511700",
"X c #4B2114",
"o c #54331A",
"O c #7B3D0F",
"+ c #6C3829",
"@ c #7F4434",
"# c #416F2A",
"$ c #925B2E",
"% c #8A6431",
"& c #B77E32",
"* c #845F44",
"= c #AE644F",
"- c #6C9358",
"; c #AE8A5A",
": c #CCA777",
"> c #D29988",
", c #FCB5A0",
"< c #F0C997",
"1 c #E7CFA3",
"2 c #F9DDBB",
"3 c #FAECD0",
"4 c #FCF3DF",
"5 c #FDF5E4",
"6 c #FFFBF3",
"7 c white",
"8 c None",
/* pixels */
"88888888888888888888888888888888",
"88888888888888888888888888888888",
"88888888888888888888888888888888",
"888888888888.......8888888888888",
"88888888888O3663363O*88888888888",
"88888888**O311111113O;**88888888",
"888888o%1O31=@+>+@=13O31*o888888",
"88888o133O6=++#,+@-=6O3331o88888",
"8888o1333O6XX@X=X@@+6.:1331o8888",
"888*1331:.31X=X@X#@13.::1331*888",
"888;331:21&366676663&1321:33;888",
"88 131:243O222232222O33411:31 88",
"88;33:33332&2223222&253333:&O;88",
"8 13OOO3561OOO::::&26665&&&6O1 8",
"8 33O62OOOO26O666666O&&&262<O3 8",
"8 33O<626266<O166666O626<2<2O3 8",
"8 33:O<<&&&OO1$$1O&&1O<2222O33 8",
"8 33:3&&26<:O1&6$O22&&O22&O:33 8",
"8 7O&&26<622O1&6O1&6262&&11177 8",
"8 7O66<6226&1&2<2&O2<2<62&O277 8",
"8 37O:22662O1&626&1O2662<3O373 8",
"88 77&2662O1$2<66$11O2222O177 88",
"88 373OO&&11&6262O661OOOO1673 88",
"888*7731666$6<22<O6666661377*888",
"888 3763166OO<2<O16666613673 888",
"8888*36731241OOO16664213763*8888",
"88888 36667222222222277773 88888",
"888888 *3777777777777773* 888888",
"88888888  *3777777773*  88888888",
"88888888888          88888888888",
"88888888888888888888888888888888",
"88888888888888888888888888888888"
};
