/* XPM */
static char *result[] = {
/* columns rows colors chars-per-pixel */
"32 32 20 1 ",
"  c #4E2711",
". c #BD5802",
"X c #AE6200",
"o c #EA730F",
"O c #ED9801",
"+ c #FFAC01",
"@ c #FFBA01",
"# c #FFCF01",
"$ c #DE9F45",
"% c #F6B559",
"& c #FFF55B",
"* c #F6CF7C",
"= c #E3C587",
"- c #FFF99D",
"; c #F3D9A3",
": c #F9EFCD",
"> c #F0EED0",
", c #F7F6E5",
"< c white",
"1 c None",
/* pixels */
"11111111111111111111111111111111",
"11111111111111111111111111111111",
"11111111111111111111111111111111",
"11111111111111111111111111111111",
"11111111111111111111111111111111",
"11111111111111111111111111111111",
"11111111111111111111111111111111",
"11111111111111111111111111111111",
"11111111111111111111111111111111",
"1111111111111111     11111111111",
"111111111111   X*,*,, 1111111111",
"111111111  X:<<<<<,;;, 111111111",
"11111111 *:<<:oooo;<<<, 11111111",
"1111111 :;<<:o@##@o;<<<X11111111",
"1111111X<<<<o@&###@o;>,; 1111111",
"111111 ;,:<<.+@<-@+.;<><X1111111",
"11111 ::<:<<.+++++O.,<>:; 111111",
"11111 %>>,<<;oOOOo=;<;:;:; 11111",
"11111 :;>>;,<<,>;;,<<:;;:: 11111",
"11111 *<$>>>>,<<<<<<<<:;<< 11111",
"111111 $,;,<<<<,,<<<:;;<<* 11111",
"1111111 *<>;;<:<<<<<<<<<X 111111",
"11111111 X*<<:;<<:;;:<* 11111111",
"1111111111     X;,<,<* 111111111",
"1111111111111111      1111111111",
"11111111111111111111111111111111",
"11111111111111111111111111111111",
"11111111111111111111111111111111",
"11111111111111111111111111111111",
"11111111111111111111111111111111",
"11111111111111111111111111111111",
"11111111111111111111111111111111"
};
