/* XPM */
static char *result[] = {
/* columns rows colors chars-per-pixel */
"32 32 36 1 ",
"  c #301807",
". c #54331A",
"X c #32672D",
"o c #BD5802",
"O c #AE6200",
"+ c #8A5436",
"@ c #8A6431",
"# c #EA730F",
"$ c #845F44",
"% c #589751",
"& c #DC8100",
"* c #ED9801",
"= c #FFAC01",
"- c #FFBA01",
"; c #FFCF01",
": c #AE8A5A",
"> c #DE9F45",
", c #F6B559",
"< c #CCA777",
"1 c #FFF55B",
"2 c #F6CF7C",
"3 c #E3C587",
"4 c #FFF99D",
"5 c #E7CFA3",
"6 c #F3D9A3",
"7 c #F9DDBB",
"8 c #FFE8CD",
"9 c #F9EFCD",
"0 c #F0EED0",
"q c #FAECD0",
"w c #FCF3DF",
"e c #F7F6E5",
"r c #FDF5E4",
"t c #FFFBF3",
"y c white",
"u c None",
/* pixels */
"uuuuuuuuuuuuuuuuuuuuuuuuuuuuuuuu",
"uuuuuuuuuuuuuuuuuuuuuuuuuuuuuuuu",
"uuuuuuuuuuuuuuuuuuuuuuuuuuuuuuuu",
"uuuuuuuuuuuuuuuuuuuuuuuuuuuuuuuu",
"uuuuuuuuuuu$$$$$$$$$$uuuuuuuuuuu",
"uuuuuuuu$$%5tttttttt5:$$uuuuuuuu",
"uuuuuu.@5t%%%tttttttttt5$.uuuuuu",
"uuuuu.5ttttX%%<%<<<58tttt5.uuuuu",
"uuuu.5t%%%%%%X<%%<<<<<<5tt5.uuuu",
"uuu$5tt5XXX<5wXXOOOOO5<<5tt5$uuu",
"uuu:tt5XXX<5OO&O2e2eeOq75<tt:uuu",
"uu 5t5<X<OO&9yyyyye66eOw55<t5 uu",
"uu:tt<qqO29yy9####6yyyeOqq%tt:uu",
"u 5tt5qO96yy9#-;;-#6yyy&X%5tt5 u",
"u tt5qqOyyyy#-1;;;-#60e6Oqq5tt u",
"u tt<qO6e9yyo=-y4-=o6y0y&rq<tt u",
"u tt<O99y9yyo=====*oey096&q<tt u",
"u tt<&,00eyy6#***#36y69696O<tt u",
"u yy<O96006eyye066eyy96699O5yy u",
"u yy5+2y>0000eyyyyyyyy96yy&7yy u",
"u qyy7O>e6eyyyyeeyyy966yy2+qyq u",
"uu yy5qO2y066yyyyyyyyyyy&+5yy uu",
"uu qyq7qO&2yy99yy9669y2Oq5tyq uu",
"uuu$yyq5t7O&&&&&6eyey2&75qyy$uuu",
"uuu qytq5tttttq7&&&OO+75qtyq uuu",
"uuuu$qtyq57wttttttttw75qytq$uuuu",
"uuuuu qttty7777777777yyyyq uuuuu",
"uuuuuu $qyyyyyyyyyyyyyyq$ uuuuuu",
"uuuuuuuu  $qyyyyyyyyq$  uuuuuuuu",
"uuuuuuuuuuu          uuuuuuuuuuu",
"uuuuuuuuuuuuuuuuuuuuuuuuuuuuuuuu",
"uuuuuuuuuuuuuuuuuuuuuuuuuuuuuuuu"
};
