/* XPM */
static char *result[] = {
/* columns rows colors chars-per-pixel */
"32 32 19 1 ",
"  c #781D00",
". c #436100",
"X c #A95F00",
"o c #BC5503",
"O c #D17902",
"+ c #D86666",
"@ c #749C1F",
"# c #DCA309",
"$ c #F6BA1B",
"% c #E49324",
"& c #F9C32F",
"* c #FBCF41",
"= c #F5CC5B",
"- c #FDE05D",
"; c #FAE19C",
": c #FFF39D",
"> c #FFEDBB",
", c #FDF8DB",
"< c None",
/* pixels */
"<<<<<<<<<<<<<<<<<<<<<<<<<<<<<<<<",
"<<<<<<<<<<<<<<<<<<<<<<<<<<<<<<<<",
"<<<<<<<<<<<<<<<<<<<<<<<<<<<<<<<<",
"<<<<<<<<<<<<<<<<<<<<<<<<<<<<<<<<",
"<<<<<<<<<<<<<<<<<<<<<<<<<<<<<<<<",
"<<<<<<<<<<<<<<<<<<<<<<<<<<<<<<<<",
"<<<<<<<<<<<<<<<<<<<<<<<<<<<<<<<<",
"<<<<<<<<<<<<<<<   <<  <<<<<<<<<<",
"<<<<<<<<<<   o#*-- X#- <<<<<<<<<",
"<<<<<<<  o%o*--***O*--#o <<<<<<<",
"<<<<<< #:$o$--@.*$$$*--*# <<<<<<",
"<<<<< $-::#-:*-:::::-+::*# <<<<<",
"<<<<<o#-:::#$$*-:::*,,**#o <<<<<",
"<<<< --##$-:$>,,>-*,,>*$o$$ <<<<",
"<<<<o*@@---$**;;**>>;$##$--$ <<<",
"<<< $#$*-$%%$*-:@--*-*--*--* <<<",
"<<< **+-**-:*$&*-*$%$.**$*@# <<<",
"<<< $--*,>*@-*-::::$%-,,-#* <<<<",
"<<<<o*#.;,>$.:$-::*-*,,,*-% <<<<",
"<<<< ##%=;,>$##$*--*>>;;.*-- <<<",
"<<<< o#$--$#*$*+--@$*;;=%#-$ <<<",
"<<<<< %#$;;*$@---*$*#$--$   <<<<",
"<<<<< ,-%*-$-*-*$#$*-%$- <<<<<<<",
"<<<<< $$-o   %--$--$--o <<<<<<<<",
"<<<<<<   <<<<<   $$%  <<<<<<<<<<",
"<<<<<<<<<<<<<<<<<   <<<<<<<<<<<<",
"<<<<<<<<<<<<<<<<<<<<<<<<<<<<<<<<",
"<<<<<<<<<<<<<<<<<<<<<<<<<<<<<<<<",
"<<<<<<<<<<<<<<<<<<<<<<<<<<<<<<<<",
"<<<<<<<<<<<<<<<<<<<<<<<<<<<<<<<<",
"<<<<<<<<<<<<<<<<<<<<<<<<<<<<<<<<",
"<<<<<<<<<<<<<<<<<<<<<<<<<<<<<<<<"
};
