/* XPM */
static char *result[] = {
/* columns rows colors chars-per-pixel */
"32 32 35 1 ",
"  c #2A190E",
". c #436100",
"X c #61422B",
"o c #A95F00",
"O c #BC5503",
"+ c #BA5900",
"@ c #B77A2B",
"# c #CC6F0B",
"$ c #C87A06",
"% c #D17902",
"& c #D86666",
"* c #749C1F",
"= c #DCA309",
"- c #F6BA1B",
"; c #E49324",
": c #F9C32F",
"> c #E1B57D",
", c #FBCF41",
"< c #F5CC5B",
"1 c #FDE05D",
"2 c #BC9A81",
"3 c #E1B883",
"4 c #FAE19C",
"5 c #FFF39D",
"6 c #EDCBA0",
"7 c #ECCCA4",
"8 c #EEE7BE",
"9 c #FFEDBB",
"0 c #F9E2C4",
"q c #F8F8D8",
"w c #FDF8DB",
"e c #FCF0E0",
"r c #FCFCED",
"t c white",
"y c None",
/* pixels */
"yyyyyyyyyyyyyyyyyyyyyyyyyyyyyyyy",
"yyyyyyyyyyyyyyyyyyyyyyyyyyyyyyyy",
"yyyyyyyyyyyyyyyyyyyyyyyyyyyyyyyy",
"yyyyyyyyyyyyyyyyyyyyyyyyyyyyyyyy",
"yyyyyyyyyyyyyyyyyyyyyyyyyyyyyyyy",
"yyyyyyyyyyyyyyyyyyyyyyyyyyyyyyyy",
"yyyyyyyyyy@@@@@@@@@@@@yyyyyyyyyy",
"yyyyyyy@@@8ttt7OOO77$$@@@yyyyyyy",
"yyyyy@@8tt$$OO=,11oo=1Ot8@@yyyyy",
"yyyy@8tO=O1O,11,,,%,11=OOt8@yyyy",
"yyy@8oO=5-O-11*.,---,11,=6t8@yyy",
"yy@8t=-155=15,1555551&55,=ot8@yy",
"yyXt3O=1555=--,1555,ww,,=OO3tXyy",
"y@8to11==-15-9ww91,ww9,-O--Ot8@y",
"y@t3o,**111-,,44,,994-==-11-Ot@y",
"yXto-=-,1-;;-,15*11,1,11,11,=tXy",
"y t=,,&1,,15,-:,1,-;-.,,-,*=Ot y",
"y t=-11,w9,*1,15555-;1ww1=,=Ot y",
"y q>=,=.4w9-.5-155,1,www,11->q y",
"y 7to==;<4w9-==-,11,9944.1,Ot7 y",
"yy28>#=-11-=,-,&11*-,44<;,+>7Xyy",
"yyX28>o=-44,-*111,-,=-11-+>t2Xyy",
"yyyX7t>#,,r-1,1,-=-,1;-1#>87Xyyy",
"yyy 878t>#o=#;r11;#o;7#+t878Xyyy",
"yyyyX877tt8>>>;#;>>>>8tt778Xyyyy",
"yyyyyX8t70etttttttttte07t8Xyyyyy",
"yyyyyyXtttteeeeeeeeeettt8Xyyyyyy",
"yyyyyyy X8tttttttttttt8X yyyyyyy",
"yyyyyyyyy X@8tttttt8@X yyyyyyyyy",
"yyyyyyyyyyyyXXXXXXXXyyyyyyyyyyyy",
"yyyyyyyyyyyyyyyyyyyyyyyyyyyyyyyy",
"yyyyyyyyyyyyyyyyyyyyyyyyyyyyyyyy"
};
