/* XPM */
static char *result[] = {
/* columns rows colors chars-per-pixel */
"32 32 35 1 ",
"  c #301807",
". c #450100",
"X c #4A1503",
"o c #6F1200",
"O c #54331A",
"+ c #B44900",
"@ c #A8670B",
"# c #8D4731",
"$ c #8A6431",
"% c #BD7422",
"& c #C97800",
"* c #845F44",
"= c #9F5243",
"- c #B1664F",
"; c #E18B02",
": c #F3B316",
"> c #DD913B",
", c #AE8A5A",
"< c #CD845B",
"1 c #CCA777",
"2 c #DEA578",
"3 c #FFD15E",
"4 c #E8BA88",
"5 c #F3B482",
"6 c #F3D09A",
"7 c #FFF988",
"8 c #E7CFA3",
"9 c #F9DDBB",
"0 c #FFE8CD",
"q c #FAECD0",
"w c #FFEDD0",
"e c #FCF3DF",
"r c #FFFBF3",
"t c white",
"y c None",
/* pixels */
"yyyyyyyyyyyyyyyyyyyyyyyyyyyyyyyy",
"yyyyyyyyyyyyyyyyyyyyyyyyyyyyyyyy",
"yyyyyyyyyyyyyyyyyyyyyyyyyyyyyyyy",
"yyyyyyyyyyyyyyyyyyyyyyyyyyyyyyyy",
"yyyyyyyyyyy**********yyyyyyyyyyy",
"yyyyyyyy**,8rrrrrrrr8,**yyyyyyyy",
"yyyyyyO$=ooooo=rrrrrrrr8*Oyyyyyy",
"yyyyyO8o<25522<o11180rrrr8Oyyyyy",
"yyyyO8o2+X+@;;&2o1111118rr8Oyyyy",
"yyy*8=<+XX@;:::&<=ee98118rr8*yyy",
"yyy,ro<;@@;::;++<oqqqeq981rr,yyy",
"yy 8ro2::::;+X;:2oqqqqqe881r8 yy",
"yy,rro23::;+X;:3=ooooo=qqq1rr,yy",
"y 8rro423377333o<25522<oqq8rr8 y",
"y rr8.62225525o2&+;;++&2oqq8rr y",
"y rr1.<46w6w6=<;:::;XX+;<=q1rr y",
"y rr1q.>->->-o<:;::::@;X<oq1rr y",
"y rr1q1.#%#%#o2:+XXX+::+2oq1rr y",
"y tt1q91.....o23:;X+;::32oq8tt y",
"y tt8qrr91111o42337373324oq9tt y",
"y qtt9rrrrrrr.62225525226.9qtq y",
"yy tt8qrrrrrr.<46w6w6w64<.8tt yy",
"yy qtq9qrrrrrr.>->->->-#.8rtq yy",
"yyy*ttq8rrrrrr1.#%#%#%#.1qtt*yyy",
"yyy qtrq8rrrrr91.......19rtq yyy",
"yyyy*qrtq89errrr9111119qtrq*yyyy",
"yyyyy qrrrt9999999999ttttq yyyyy",
"yyyyyy *qttttttttttttttq* yyyyyy",
"yyyyyyyy  *qttttttttq*  yyyyyyyy",
"yyyyyyyyyyy          yyyyyyyyyyy",
"yyyyyyyyyyyyyyyyyyyyyyyyyyyyyyyy",
"yyyyyyyyyyyyyyyyyyyyyyyyyyyyyyyy"
};
