/* XPM */
static char *result[] = {
/* columns rows colors chars-per-pixel */
"32 32 43 1 ",
"  c #390000",
". c #301807",
"X c #023F2F",
"o c #451A03",
"O c #630000",
"+ c #751F00",
"@ c #54331A",
"# c #055724",
"$ c #692C44",
"% c #69374A",
"& c #755443",
"* c #A50006",
"= c #933D0E",
"- c #872F24",
"; c #A54815",
": c #B15B2D",
"> c #E13C48",
", c #845F44",
"< c #C36458",
"1 c #C97C52",
"2 c #438139",
"3 c #5DA551",
"4 c #7DBD58",
"5 c #AE8A5A",
"6 c #B79E7F",
"7 c #C9894D",
"8 c #CFA46E",
"9 c #CCA777",
"0 c #DEB078",
"q c #765587",
"w c #FFB891",
"e c #EDCB97",
"r c #E7CFA3",
"t c #E1CAAF",
"y c #F9DDBB",
"u c #F3E4D3",
"i c #FAECD0",
"p c #FCF3DF",
"a c #FFF3E5",
"s c #FDF5E4",
"d c #FFFBF3",
"f c white",
"g c None",
/* pixels */
"gggggggggggggggggggggggggggggggg",
"gggggggggggggggggggggggggggggggg",
"gggggggggggggggggggggggggggggggg",
"gggggggggggg&&&&&ggggggggggggggg",
"ggggggggg&&&uaaat&&,,ggggggggggg",
"ggggggg&&auaaO #Xat&r5,,gggggggg",
"gggggg&uautaO>* #uat&ddr,@gggggg",
"ggggg&uaa3## **w>63#t&dddr@ggggg",
"gggg&tauaa#Ow> >>#2tut&rddr@gggg",
"ggg,o:t8aua >>X23tuaaat&rddr,ggg",
"ggg5o=;tatu2#Xttuaaaauato9dd5ggg",
"gg.rdo:18u343#uaaau0e0e07o9dr.gg",
"gg5ddo:=;tt2Xtutu0eee-0e7o9dd5gg",
"g.rddo:+:;8Xtaa0e$$$0<qq:orddr.g",
"g.ddrio:::;ttt0ee0$$$0qqoiirdd.g",
"g.dd9io=:1:=t1ee0<70eee7osi9dd.g",
"g.dd9iro::::=07--<e0<-e:odi9dd.g",
"g.dd9iir-:1%;e---ee--70ordi9dd.g",
"g.ff9iddr-1%:e--7$$e7q7oidirff.g",
"g.ffrii7dr-::70ee$$0qo-rddiyff.g",
"g.iffyddddro=:e--70o-riddiyifi.g",
"gg.ffrididdroo:--o-riddd7irff.gg",
"gg.ifiyir7rdirooorid77ddirdfi.gg",
"ggg,ffirddddddddddir77ddriff,ggg",
"ggg.ifdirddddddddddddddridfi.ggg",
"gggg,idfirypddddddddpyrifdi,gggg",
"ggggg.idddfyyyyyyyyyyffffi.ggggg",
"gggggg.,iffffffffffffffi,.gggggg",
"gggggggg..,iffffffffi,..gggggggg",
"ggggggggggg..........ggggggggggg",
"gggggggggggggggggggggggggggggggg",
"gggggggggggggggggggggggggggggggg"
};
