/* XPM */
static char *result[] = {
/* columns rows colors chars-per-pixel */
"32 32 14 1 ",
"  c #631E00",
". c #93410A",
"X c #CD5D13",
"o c #E3770A",
"O c #938B06",
"+ c #B1A92D",
"@ c #F18507",
"# c #C3BB33",
"$ c #E4A534",
"% c #F3B340",
"& c #F3D54F",
"* c #FFC867",
"= c #F8E7A1",
"- c None",
/* pixels */
"--------------------------------",
"--------------------------------",
"--------------------------------",
"--------------------------------",
"--------------------------------",
"--------------------------------",
"--------------------------------",
"--------------------------------",
"--------------......------------",
"------------..%&=#=%..----------",
"-----------.%====&===%..--------",
"----------.%=&O&===&+&=%.-------",
"---------- %====&O+=====%.------",
"---------- X%========&+&=X------",
"-------     ..X&+==&=O&==%.-----",
"------.%===+&=%...=#&===%X -----",
"-----.%==&=====#=%X.===%XX -----",
"----- @=&O+===O&===%.%@oX ------",
"----- X%==&&==&&&===$.@o -------",
"----- XX%==#======#&%   --------",
"------ X@%====+=O&=*X ----------",
"------- @oX%&=&==*oXX ----------",
"-------- oXXXXo@o@oX -----------",
"--------- .XXXo@o@. ------------",
"-----------       --------------",
"--------------------------------",
"--------------------------------",
"--------------------------------",
"--------------------------------",
"--------------------------------",
"--------------------------------",
"--------------------------------"
};
