/* XPM */
static char *result[] = {
/* columns rows colors chars-per-pixel */
"32 32 27 1 ",
"  c #301807",
". c #631E00",
"X c #54331A",
"o c #93410A",
"O c #8A6431",
"+ c #CD5D13",
"@ c #E17609",
"# c #845F44",
"$ c #938B06",
"% c #B1A92D",
"& c #F18507",
"* c #C3BB33",
"= c #E4A534",
"- c #AE8A5A",
"; c #F3B340",
": c #CCA777",
"> c #F3D54F",
", c #FFC867",
"< c #E7CFA3",
"1 c #F9DDBB",
"2 c #F8E7A1",
"3 c #FFE8CD",
"4 c #FAECD0",
"5 c #FCF3DF",
"6 c #FFFBF3",
"7 c white",
"8 c None",
/* pixels */
"88888888888888888888888888888888",
"88888888888888888888888888888888",
"88888888888888888888888888888888",
"88888888888888888888888888888888",
"88888888888##########88888888888",
"88888888##-<66666666<-##88888888",
"888888XO<66666666666666<#X888888",
"88888X<66663<:oooooo36666<X88888",
"8888X<666<::oo;>2*2;oo:<66<X8888",
"888#<66<::<o;2222>222;oo<66<#888",
"888-66<:14o;2>$>222>%>2;o:66-888",
"88 <6<:154.;2222>$%22222;o:6< 88",
"88-66:4444.+;22222222>%>2+:66-88",
"8 <66<4.....oo+>%22>2$>22;o66< 8",
"8 66<4o;222%>2;ooo2*>222;+.<66 8",
"8 66:o;22>22222*2;+o222;++.:66 8",
"8 66:.&2>$%222$>222;o;&@+.<:66 8",
"8 66:.+;22>>22>>>222=o&@.<4:66 8",
"8 77:.++;22*222222*>;...<44<77 8",
"8 77<<.+@;2222%2$>2,+.<4&64177 8",
"8 4771<.@&+;>2>22,@++.46641474 8",
"88 77<4<.&++++@&@&@+.<6,64<77 88",
"88 47414<.o+++@&@&o.<6664<674 88",
"888#774<64<.......<4;666<477#888",
"888 4764<;6666666666666<4674 888",
"8888#4674<156666666651<4764#8888",
"88888 46667111111111177774 88888",
"888888 #4777777777777774# 888888",
"88888888  #4777777774#  88888888",
"88888888888          88888888888",
"88888888888888888888888888888888",
"88888888888888888888888888888888"
};
