/* XPM */
static char *result[] = {
/* columns rows colors chars-per-pixel */
"32 32 19 1 ",
"  c #360D00",
". c #541400",
"X c #4E0027",
"o c #A52109",
"O c #B4270C",
"+ c #811A29",
"@ c #A81C21",
"# c #D13519",
"$ c #D23519",
"% c #C02228",
"& c #E23F20",
"* c #EA5035",
"= c #841251",
"- c #D24046",
"; c #F16248",
": c #FF7F9D",
"> c #F08893",
", c #FFC8B5",
"< c None",
/* pixels */
"<<<<<<<<<<<<<<<<<<<<<<<<<<<<<<<<",
"<<<<<<<<<<<<<<<<<<<<<<<<<<<<<<<<",
"<<<<<<<<<<<<<<<<<<<<<<<<<<<<<<<<",
"<<<<<<<<<<<<<<<<<<<<<<<<<<<<<<<<",
"<<<<<<<<<<<<<<<<<<<<<<<<<<<<<<<<",
"<<<<<<<<<<<<XXX<<<<XXX<<<<<<<<<<",
"<<<<<<<<<<<Xoo+XXX.$;*X<<<<<<<<<",
"<<<<<<<<<<<X+#;::**;;;X<<<<<<<<<",
"<<<<<<<<<<<X*;;;;;;>*$X<<<<<<<<<",
"<<<<<<<<<<X$;;;;;;;*$;X<<<<<<<<<",
"<<<<<<<<<<X*;:,**:;;%o <<<<<<<<<",
"<<<<<<<<<X$;:;;***;;$*X<<<<<<<<<",
"<<<<<<<<<X*;-%%%%-;*$>X<<<<<<<<<",
"<<<<<<<<<X$*;;;;;;;$,$ <<<<<<<<<",
"<<<<<<<<<<X@*>>**&$>@X <<<<<<<<<",
"<<<<<<<<<<X$%%%%%%O$*OX<<<<<<<<<",
"<<<<<<<<<X$*;****;:;;*OX<<<<<<<<",
"<<<<<<<<X$*#O****OO#;:*X<<<<<<<<",
"<<<<<<<<X**,*O$OO:;*O*$X<<<<<<<<",
"<<<<<<<<X$;;;O$OO;>,*OOX<<<<<<<<",
"<<<<<<<<<X$:*$$##OOOOOX<<<<<<<<<",
"<<<<<<<<<XX=$****OO=XXX<<<<<<<<<",
"<<<<<<<<X;;;O;;OO#;;$OX<<<<<<<<<",
"<<<<<<<<X*:*#*#***:**OX<<<<<<<<<",
"<<<<<<<<X$$$$OO;;;;;>OX<<<<<<<<<",
"<<<<<<<<<XO*>XXOO>,$OX<<<<<<<<<<",
"<<<<<<<<<<XXX<<XXXXXX<<<<<<<<<<<",
"<<<<<<<<<<<<<<<<<<<<<<<<<<<<<<<<",
"<<<<<<<<<<<<<<<<<<<<<<<<<<<<<<<<",
"<<<<<<<<<<<<<<<<<<<<<<<<<<<<<<<<",
"<<<<<<<<<<<<<<<<<<<<<<<<<<<<<<<<",
"<<<<<<<<<<<<<<<<<<<<<<<<<<<<<<<<"
};
