/* XPM */
static char *result[] = {
/* columns rows colors chars-per-pixel */
"32 32 32 1 ",
"  c #360D00",
". c #301807",
"X c #541400",
"o c #54331A",
"O c #4E0027",
"+ c #A52109",
"@ c #B4270C",
"# c #811A29",
"$ c #A81C21",
"% c #D13519",
"& c #D23519",
"* c #C02228",
"= c #E23F20",
"- c #8A6431",
"; c #EA5035",
": c #841251",
"> c #845F44",
", c #D24046",
"< c #F16248",
"1 c #AE8A5A",
"2 c #CCA777",
"3 c #FF7F9D",
"4 c #F08893",
"5 c #E7CFA3",
"6 c #FFC8B5",
"7 c #F9DDBB",
"8 c #FAECD0",
"9 c #FCF3DF",
"0 c #FDF5E4",
"q c #FFFBF3",
"w c white",
"e c None",
/* pixels */
"eeeeeeeeeeeeeeeeeeeeeeeeeeeeeeee",
"eeeeeeeeeeeeOOOeeeeOOOeeeeeeeeee",
"eeeeeeeeeeeO++#OOOX&<;Oeeeeeeeee",
"eeeeeeeeeeeO#%<33;;<<<Oeeeeeeeee",
"eeeeeeeeeeeO;<<<<<<4;&Oeeeeeeeee",
"eeeeeeee>>O&<<<<<<<;&<O>eeeeeeee",
"eeeeeeo-5qO;<36;;3<<*+ 5>oeeeeee",
"eeeeeo5qqO&<3<<;;;<<&;Oqq5oeeeee",
"eeeeo5qqqO;<,****,<;&4O5qq5oeeee",
"eee>5qq52O&;<<<<<<<&6& 25qq5>eee",
"eee1qq5278O$;44;;=&4$O 752qq1eee",
"ee.5q52798O&******@&;@O9552q5.ee",
"ee1qq2888O&;<;;;;<3<<;@O882qq1ee",
"e.5qq588O&;%@;;;;@@%<3;O885qq5.e",
"e.qq5880O;;6;@&@@3<;@;&O0885qq.e",
"e.qq280qO&<<<@&@@<46;@@Oq082qq.e",
"e.qq28qqqO&3;&&%%@@@@@Oqqq82qq.e",
"e.qq28qqqOO:&;;;;@@:OOO5qq82qq.e",
"e.ww28qqO<<<@<<@@%<<&@O28q85ww.e",
"e.ww58qqO;3;%;%;;;3;;@O25q87ww.e",
"e.8ww7qqO&&&&@@<<<<<4@O25878w8.e",
"ee.ww58q5O@;4OO@@46&@O22585ww.ee",
"ee.8w878q2OOO22OOOOOO25585qw8.ee",
"eee>ww85qqqqqqqqqqqqqqqq58ww>eee",
"eee.8wq85qqqqqqqqqqqqqq58qw8.eee",
"eeee>8qw8579qqqqqqqq9758wq8>eeee",
"eeeee.8qqqw7777777777wwww8.eeeee",
"eeeeee.>8wwwwwwwwwwwwww8>.eeeeee",
"eeeeeeee..>8wwwwwwww8>..eeeeeeee",
"eeeeeeeeeee..........eeeeeeeeeee",
"eeeeeeeeeeeeeeeeeeeeeeeeeeeeeeee",
"eeeeeeeeeeeeeeeeeeeeeeeeeeeeeeee"
};
