/* XPM */
static char *result[] = {
/* columns rows colors chars-per-pixel */
"32 32 20 1 ",
"  c #020000",
". c #240000",
"X c #361000",
"o c #5D2300",
"O c #602908",
"+ c #7E3204",
"@ c #783900",
"# c #9B622D",
"$ c #A66D2A",
"% c #A56B37",
"& c #BA7D35",
"* c #D29760",
"= c #D8A06D",
"- c #A18C91",
"; c #CCB8BD",
": c #CFC9B4",
"> c #EAE4D0",
", c #EFEAED",
"< c #FFFBFD",
"1 c None",
/* pixels */
"11111111111111111111111111111111",
"11111111111111111111111111111111",
"11111111111111111111111111111111",
"11111111111111111111111111111111",
"11111111111111111111111111111111",
"11111111111111111111111111111111",
"111111111111111XXXX1111111111111",
"11111111111111X%%,%X111111111111",
"1111111111111X%%%#%%XXX111111111",
"1111111111111X%,%%,%.%%X11111111",
"1111111111111.@%%,:%o,:X11111111",
"111111OOOO1111.@#%%%%#%X11111111",
"11111O==<=O111XX.o#,%%%.11111111",
"1111O==*===XOO%,%%%@:#%@ 1111111",
"1111X=<==<=+==O,%%#%@,%#@.X11111",
"1111+&==<>=$<>X-#%%%%%%%%:oX1111",
"11111+&===*==*XX.o%%#%%#%,%X1111",
"11111XX+$*<*==+11X@%%%.o@-@X1111",
"1111O=<===&>*=&O11X:,,XXXXX11111",
"1111O=<====&<==&+OX%#%X111111111",
"1111X&;==*======>$XoooX111111111",
"11111XO+$=====*=<=OXXX1111111111",
"11111111X&=*=+$&;&X1111111111111",
"111111111O><<XXXXX11111111111111",
"111111111O=*=O111111111111111111",
"111111111X$$$X111111111111111111",
"1111111111XXX1111111111111111111",
"11111111111111111111111111111111",
"11111111111111111111111111111111",
"11111111111111111111111111111111",
"11111111111111111111111111111111",
"11111111111111111111111111111111"
};
