/* XPM */
static char *result[] = {
/* columns rows colors chars-per-pixel */
"32 32 35 1 ",
"  c #020000",
". c #240000",
"X c #361000",
"o c #301807",
"O c #5D2300",
"+ c #54331A",
"@ c #602908",
"# c #7E3204",
"$ c #783900",
"% c #9B622D",
"& c #8A6431",
"* c #A66D2A",
"= c #A56B37",
"- c #BA7D35",
"; c #845F44",
": c #AE8A5A",
"> c #D29760",
", c #D8A06D",
"< c #CCA777",
"1 c #C4AB7E",
"2 c #A18C91",
"3 c #CCB8BD",
"4 c #CFC9B4",
"5 c #E7CFA3",
"6 c #E3D5B8",
"7 c #F9DDBB",
"8 c #FFE8CD",
"9 c #EAE4D0",
"0 c #FAECD0",
"q c #FCF3DF",
"w c #EFEAED",
"e c #FFFBF3",
"r c #FFFBFD",
"t c white",
"y c None",
/* pixels */
"yyyyyyyyyyyyyyyyyyyyyyyyyyyyyyyy",
"yyyyyyyyyyyyyyyyyyyyyyyyyyyyyyyy",
"yyyyyyyyyyyyyyyyyyyyyyyyyyyyyyyy",
"yyyyyyyyyyyyyyyyyyyyyyyyyyyyyyyy",
"yyyyyyyyyyy;;;;;;;;;;yyyyyyyyyyy",
"yyyyyyyy;;:5eeeeeeee5:;;yyyyyyyy",
"yyyyyy+&5eeeeeeeXXXXeee5;+yyyyyy",
"yyyyy+5eeee85<<X==w=Xeeee5+yyyyy",
"yyyy+5eee5<<<<X===%==XXXee5+yyyy",
"yyy;5ee5<<57qqX=w==w=.==Xee5;yyy",
"yyy:ee5<70q000.$==w4=Ow4X<ee:yyy",
"yyo5e5<@@@@0=01.$%====%=X5<e5oyy",
"yy:ee<@,,r,@e71XX.O%w===.0<ee:yy",
"yo5ee@,,>,,,X@@=w===$4%=$ 5ee5oy",
"yoee5X,r,,r,#,,@w==%=$w=%$.Xeeoy",
"yoee<#-,,r9,*r9X2%========4OXeoy",
"yoee<5#-,,,>,,>XX.O==%==%=w=Xeoy",
"yoee<0XX#*>r>,,#61X$===.O$2$Xeoy",
"yott<@,r,,,-9>,-@e1X4wwXXXXX1toy",
"yott5@,r,,,,-r,,-#@X=%=X1607ttoy",
"yo0ttX-3,,>,,,,,,9*XOOOXe070t0oy",
"yyott5X@#*,,,,,>,r,@XXX1e05ttoyy",
"yyo0t0705X-,>,#*-3-Xe=ee05et0oyy",
"yyy;tt05e5@9rrXXXXX5eeee50tt;yyy",
"yyyo0te050@,>,@50eeeeee50et0oyyy",
"yyyy;0et05X***Xee,eeq750te0;yyyy",
"yyyyyo0eee5XXX5777777tttt0oyyyyy",
"yyyyyyo;0tttttttttttttt0;oyyyyyy",
"yyyyyyyyoo;0tttttttt0;ooyyyyyyyy",
"yyyyyyyyyyyooooooooooyyyyyyyyyyy",
"yyyyyyyyyyyyyyyyyyyyyyyyyyyyyyyy",
"yyyyyyyyyyyyyyyyyyyyyyyyyyyyyyyy"
};
