/* XPM */
static char *result[] = {
/* columns rows colors chars-per-pixel */
"32 32 21 1 ",
"  c #420000",
". c #660000",
"X c #6C1200",
"o c #961715",
"O c #A20000",
"+ c #C43A16",
"@ c #9E4E0F",
"# c #B44521",
"$ c #D6503D",
"% c #D07B21",
"& c #D87C2B",
"* c #B74E4A",
"= c #DD594D",
"- c #E4A039",
"; c #F6B34D",
": c #FFE155",
"> c #E48283",
", c #F6B2B2",
"< c #F4DCC0",
"1 c white",
"2 c None",
/* pixels */
"22222222222222222222222222222222",
"22222222222222222222222222222222",
"22222222222222222222222222222222",
"22222222222222222222222222222222",
"222222222222222222 X  2222222222",
"2222222222222222 X- o+ 222222222",
"222222222222222 -< +;::  2222222",
"22222222222222 -<.;:=$o - 222222",
"22222222222222X<-1:;>$ <% 222222",
"2222222222222 -<.+$>:: -% 222222",
"2222222222222X<-o$$>$;#%% 222222",
"222222222222 -<&:1::; <%@ 222222",
"222222222222X<-:$$=$o#-%X2222222",
"22222222222X-<o+:>$+ <%% 2222222",
"2222222222X-<o+$$;+o#<%% 2222222",
"222222222X-<;:1:;oo <-%@ 2222222",
"22222222X-<;++$,+o -<%%X22222222",
"2222222 -<.+;;;$o -<-%% 22222222",
"2222222 -<o+++$;.-<<%%@222222222",
"222222 %<.*++=+o#<<-%% 222222222",
"222222 %<.=+=++.-<-%%@2222222222",
"222222 @<.>=,=>.<-%%% 2222222222",
"222222 @< =>=,= <%%% 22222222222",
"2222222 - +=>=o -%%@ 22222222222",
"2222222 %- O+o -%%@ 222222222222",
"22222222 %-   -%%@ 2222222222222",
"222222222  --%@@@ 22222222222222",
"22222222222      222222222222222",
"22222222222222222222222222222222",
"22222222222222222222222222222222",
"22222222222222222222222222222222",
"22222222222222222222222222222222"
};
