/* XPM */
static char *result[] = {
/* columns rows colors chars-per-pixel */
"32 32 36 1 ",
"  c #6B121E",
". c #572500",
"X c #51221D",
"o c #751A2A",
"O c #6F3B35",
"+ c #99232C",
"@ c #994F05",
"# c #A5394C",
"$ c #8D534D",
"% c #AB6B65",
"& c #CE4853",
"* c #C9505C",
"= c #D95B67",
"- c #E16673",
"; c #E26975",
": c #EA6C78",
"> c #CF8236",
", c #BD817C",
"< c #E7984A",
"1 c #F3CD54",
"2 c #F9D870",
"3 c #F37C88",
"4 c #BD9588",
"5 c #EA818B",
"6 c #ED828E",
"7 c #F78F9B",
"8 c #EA929A",
"9 c #D5AF9A",
"0 c #DCA89C",
"q c #FF9AA6",
"w c #E7B9A0",
"e c #FFECA0",
"r c #FFB8C0",
"t c #F3D5C4",
"y c #FFF9E2",
"u c None",
/* pixels */
"uuuuuuuuuuuuuuuuuuuuuuuuuuuuuuuu",
"uuuuuuuuuuuuuuuuuuuuuuuuuuuuuuuu",
"uuuuuuuuuuuuuuuuuuuuuuuuuuuuuuuu",
"uuuuuuuuuuuuuuuuuuuuuuuuuuuuuuuu",
"uuuuuuuuuuuuuuuuuuuuuuuuuuuuuuuu",
"uuuuuuuuuuuuuuXXXXXXuuuuuuuuuuuu",
"uuuuuuuuuuuuXX,4494,XXuuuuuuuuuu",
"uuuuuuuuuuuX,444,,94%4Xuuuuuuuuu",
"uuuuuuuuuuX%44w444%4,4,Xuuuuuuuu",
"uuuuuuuuuuX4494,4444444Xuuuuuuuu",
"uuuuuuuuuX,444,44,4944%Xuuuuuuuu",
"uuuuuuuuuX%,4%4t44%4,44$Xuuuuuuu",
"uuuuuuuu.@X$4,49,4444,%4Xuuuuuuu",
"uuuuuu.@ee@4%$,4,444,$,4Xuuuuuuu",
"uuuuu.2eey1%4,4,%$$%4,4,Ouuuuuuu",
"uuuu.ey2ye21O%444,,44%OO,Xuuuuuu",
"uuuu@eyee2e210O%%%,4%O-6&ouuuuuu",
"uuu.eyye2eee210o*O%O*-67=&ouuuuu",
"uuu.2yeyy2y2e2o-::q-q7;=;6-ouuuu",
"uuu@2eyyyeeyyeo=qqq6q3:3766ouuuu",
"uuu.<12ye2yyy0#q6qq3:3qqq76#uuuu",
"uu.<@2ee212ee#&=::5:6q6rq3=- uuu",
"uu.11>e1eyyyy#qqqqq--r:8&q7r uuu",
"uu 1yy><e22e<o:3:=&=-:6qq6qq+uuu",
"uuu y1ee2eeyy<o=qqrq6q-6:qr:+uuu",
"uuuu  @eyyee2  +::q6-6q:rq: uuuu",
"uuuuuuu      uuu   +6qq:+  uuuuu",
"uuuuuuuuuuuuuuuuuuuu    uuuuuuuu",
"uuuuuuuuuuuuuuuuuuuuuuuuuuuuuuuu",
"uuuuuuuuuuuuuuuuuuuuuuuuuuuuuuuu",
"uuuuuuuuuuuuuuuuuuuuuuuuuuuuuuuu",
"uuuuuuuuuuuuuuuuuuuuuuuuuuuuuuuu"
};
