/* XPM */
static char *result[] = {
/* columns rows colors chars-per-pixel */
"32 32 50 1 ",
"  c #2A190E",
". c #6B121E",
"X c #51221D",
"o c #751A2A",
"O c #6F3B35",
"+ c #375122",
"@ c #61422B",
"# c #994F05",
"$ c #B77A2B",
"% c #A5394C",
"& c #8D534D",
"* c #AB6B65",
"= c #CF4853",
"- c #C9505C",
"; c #DA5B67",
": c #E16673",
"> c #E36975",
", c #EA6C78",
"< c #578136",
"1 c #679942",
"2 c #CF8236",
"3 c #95C93B",
"4 c #BD817C",
"5 c #E1B57D",
"6 c #B6E760",
"7 c #F3CD54",
"8 c #F9D870",
"9 c #F37D89",
"0 c #BC9A81",
"q c #BD9588",
"w c #EA828B",
"e c #ED828E",
"r c #F78F9B",
"t c #EA939A",
"y c #D5AF9A",
"u c #DCA89C",
"i c #FF9AA6",
"p c #E7B9A0",
"a c #EDCBA0",
"s c #ECCCA4",
"d c #FFECA0",
"f c #EEE7BE",
"g c #FFB8C0",
"h c #F3D5C4",
"j c #F9E2C4",
"k c #F8F8D8",
"l c #FCF0E0",
"z c #FFF9E2",
"x c white",
"c c None",
/* pixels */
"cccccccccccccccccccccccccccccccc",
"cccccccccccccccccccccccccccccccc",
"cccccccccccccccccccccccccccccccc",
"ccccccccccccccXXXXXXcccccccccccc",
"ccccccccccccXX4qqyq4XXcccccccccc",
"cccccccccccX4qqq44yq*qXccccccccc",
"ccccccccccX*qqpqqq*q4q4Xcccccccc",
"ccccccc$$$Xqqyq4qqqqqqqX$ccccccc",
"ccccc$$fxX4qqq4qq4qyqq*Xf$$ccccc",
"cccc$fxx#X*4q*qhqq*q4qq&Xxf1<+cc",
"ccc$fx#2duX&q4qy4qqqq4*qXa<66+cc",
"cc$fx#8dddXq*&4q4qqq4&4q&+366+cc",
"cc@x#dz8zz7*q4q4*&&*q4q4O336<@cc",
"c$fx2dzddd87O*qqq44qq*OOo<131<+c",
"c$x2dzzd88d87uO***4q*O:e=o3666+c",
"c@x2dddzzddd87uo-O*O-:er;=%36<@c",
"c x28zzd88z8d8o:,,i:ir>;>e:o1x c",
"c x#8dzzzddzzdo;iiiei9,9reeo0x c",
"c k#778zd8zzzu%ieii9,9iiire%5k c",
"c sx#8dd878dd%=;,,w,eiegi9;:xs c",
"cc0f5#d7dzzzz%iiiii::g,t=ir5s@cc",
"cc@0f52dd88dzo,9,;=;:,eiie5x0@cc",
"ccc@sx558ddzz8o;iiiiei:i55fs@ccc",
"ccc fsfx55sd8ue.,,ie:s55xfsf@ccc",
"cccc@fssxxf5555555555fxxssf@cccc",
"ccccc@fxsjlxxxxxxxxxxljsxf@ccccc",
"cccccc@xxxxllllllllllxxxf@cccccc",
"ccccccc @fxxxxxxxxxxxxf@ ccccccc",
"ccccccccc @$fxxxxxxf$@ ccccccccc",
"cccccccccccc@@@@@@@@cccccccccccc",
"cccccccccccccccccccccccccccccccc",
"cccccccccccccccccccccccccccccccc"
};
