/* XPM */
static char *result[] = {
/* columns rows colors chars-per-pixel */
"32 32 13 1 ",
"  c #810000",
". c #A52400",
"X c #D55118",
"o c #EF7910",
"O c #F28C0C",
"+ c #F6A124",
"@ c #F9B135",
"# c #FFDD52",
"$ c #FFD46D",
"% c #FFE67F",
"& c #FFEC91",
"* c white",
"= c None",
/* pixels */
"================================",
"================================",
"================================",
"================================",
"================================",
"============        ============",
"========== .O@%%O@@O. ==========",
"========= @@@$%$$OO#+@ =========",
"======== @@%$OOOOO#OO#@ ========",
"======= @%*O@$$$@@$OOO@@ =======",
"======= %*@$$&&&$$&@OO#@ =======",
"======.@**%$$&&&$$&&@O%*%.======",
"====== *@*%$$&&&$$&&$%O@o ======",
"====== *OO*%$&&&$$**%Ooo@ ======",
"====== %O*O@%&**%**@O@oo% ======",
"===== @OO*OO@*@@O@%OOO#+@% =====",
"===== OO@%OO*@@@@@OO+@#@@@ =====",
"==== @OO%@OO%oOOO%O+@@@#@O@ ====",
"==== #OO*OOOOOOOO*@O@@@#OO@ ====",
"==== @O@%OO%o@@@@*@O+Oo#OO@ ====",
"=====XO%@@O*o@@@@%@oooo@#OX=====",
"===== O%@@@%o@@OO@@Oooo@#@ =====",
"====== #@@@O@@OOO@@@ooo@# ======",
"======= @@#O@OOOO#@@ooo@ =======",
"========  #O@OOOO#@@oo  ========",
"==========   OOOO@@   ==========",
"=============      =============",
"================================",
"================================",
"================================",
"================================",
"================================"
};
