/* XPM */
static char *result[] = {
/* columns rows colors chars-per-pixel */
"32 32 24 1 ",
"  c #301807",
". c #54331A",
"X c #A52400",
"o c #8A6431",
"O c #D55118",
"+ c #EF7910",
"@ c #E1633F",
"# c #845F44",
"$ c #F28C0C",
"% c #F6A124",
"& c #F9B135",
"* c #AE8A5A",
"= c #CCA777",
"- c #FFDD52",
"; c #FFD46D",
": c #FFE67F",
"> c #FFEC91",
", c #E7CFA3",
"< c #F9DDBB",
"1 c #FAECD0",
"2 c #FCF3DF",
"3 c #FFFBF3",
"4 c white",
"5 c None",
/* pixels */
"55555555555555555555555555555555",
"55555555555555555555555555555555",
"55555555555555555555555555555555",
"555555555555XXXXXXXX555555555555",
"5555555555XX$&::$&&$XX5555555555",
"55555555#X&&&;:;;$$-%&X#55555555",
"555555.oX&&:;$$$$$-$$-&X#.555555",
"55555.,X&:4$&;;;&&;$$$&&X,.55555",
"5555.,3O:4&;;>>>;;>&$$-&O3,.5555",
"555#,3X&44:;;>>>;;>>&$:4:X3,#555",
"555*33X4&4:;;>>>;;>>;:$&+X33*555",
"55 ,3,X4$$4:;>>>;;44:$++&X=3, 55",
"55*33=X:$4$&:>44:44&$&++:X=33*55",
"5 ,33O&$$4$$&4&&$&:$$$-%&:X33, 5",
"5 33,X$$&:$$4&&&&&$$%&-&&&X,33 5",
"5 33X&$$:&$$:+$$$:$%&&&-&$&X33 5",
"5 33X4$$4$$$$$$$$4&$&&&-$$&X33 5",
"5 33X&$&:$$:+&&&&4&$%$+-$$&X33 5",
"5 44=O$:&&$4+&&&&:&++++&-$O,44 5",
"5 44,X$:&&&:+&&$$&&$+++&-&X<44 5",
"5 144<@:&&&$&&$$$&&&+++&-X<141 5",
"55 44,1X&&:$&$$$$-&&+++&@1,44 55",
"55 141<1XO:$&$$$$-&&++O@1,341 55",
"555#441,3,XXO$$$$&&OXX,3,144#555",
"555 1431,333,@@XX@@,333,1341 555",
"5555#1341,<2333333332<,1431#5555",
"55555 13334<<<<<<<<<<44441 55555",
"555555 #1444444444444441# 555555",
"55555555  #1444444441#  55555555",
"55555555555          55555555555",
"55555555555555555555555555555555",
"55555555555555555555555555555555"
};
