/* XPM */
static char *result[] = {
/* columns rows colors chars-per-pixel */
"32 32 31 1 ",
"  c #120012",
". c #300A2F",
"X c #780000",
"o c #422228",
"O c #60343C",
"+ c #3C1C48",
"@ c #6C4240",
"# c #840125",
"$ c #910B28",
"% c #A81C2C",
"& c #B42635",
"* c #CC3142",
"= c #AD5D54",
"- c #967270",
"; c #C0404E",
": c #CD5A67",
"> c #C47167",
", c #D86672",
"< c #E46673",
"1 c #E78377",
"2 c #B49282",
"3 c #F6828F",
"4 c #F59090",
"5 c #F59A9B",
"6 c #CCB0A0",
"7 c #F5A3A5",
"8 c #F0CDB8",
"9 c #FFE1DF",
"0 c #FFF0F0",
"q c white",
"w c None",
/* pixels */
"wwwwwwwwwwwwwwwwwwwwwwwwwwwwwwww",
"wwwwwwwwwwwwwwwwwwwwwwwwwwwwwwww",
"wwwwwwwwwwwwwwwwwwwwwwwwwwwwwwww",
"wwwwwwwwwwwoooooooooowwwwwwwwwww",
"wwwwwwwwwwoqq7qq7qq7qowwwwwwwwww",
"wwwwwwwwwo447777777744owwwwwwwww",
"wwwwwwwwwo089489499400owwwwwwwww",
"wwwwwwwwoo@6502500580@oowwwwwwww",
"wwwwwOOO6@9@-@@---@@@4@6oowwwwww",
"wwwwwO86-=9494869492851@6owwwwww",
"wwwwwO6-80500>1=444==oo8@owwwwww",
"wwwwww@508ooo1820502o%Xo8owwwwww",
"wwwwwo506oX%;oo2850o%;%o60owwwww",
"wwwwwooooX%;;;;oooo%;;;%ooowwwww",
"wwwwwww.3%;;:;;XXX;;;;;<.wwwwwww",
"wwwwwww.<3;3;;#%$%;;;;3$.wwwwwww",
"wwwwwww.<%3qq3;$#;q3q3;%.wwwwwww",
"wwwwwww+;%;:;%%%%#;%;;;%+wwwwwww",
"wwwwwww+<#;:;*$$*%;%;;;$+wwwwwww",
"wwwwwww+<#;3;$#$$$;%;;;#+wwwwwww",
"wwwwwww+;%;3;##*$#;#;;;#+wwwwwww",
"wwwwwww+;*;:;$%##%;%;;;$+wwwwwww",
"wwwwwww+;#;:;$$$%#&#;;;%+wwwwwww",
"wwwwwww <#;:;#%%##;$;;&#+wwwwwww",
"wwwwwww <%;:;##$$$;#;;;$ wwwwwww",
"wwwwwww ;;3:;%$%$*;%;,3% wwwwwww",
"wwwwwwww %$33,;;;,3,3%; wwwwwwww",
"wwwwwwwww  ;%;%%;;;;%  wwwwwwwww",
"wwwwwwwwwww          wwwwwwwwwww",
"wwwwwwwwwwwwwwwwwwwwwwwwwwwwwwww",
"wwwwwwwwwwwwwwwwwwwwwwwwwwwwwwww",
"wwwwwwwwwwwwwwwwwwwwwwwwwwwwwwww"
};
