/* XPM */
static char *result[] = {
/* columns rows colors chars-per-pixel */
"32 32 36 1 ",
"  c #301807",
". c #630400",
"X c #6F0B00",
"o c #54331A",
"O c #B80A0C",
"+ c #BA0018",
"@ c #BD0E1E",
"# c #A53A11",
"$ c #DA2536",
"% c #8A6431",
"& c #845F44",
"* c #DF404C",
"= c #DB5E76",
"- c #E95E63",
"; c #AE8A5A",
": c #E19E4D",
"> c #F3AC57",
", c #CF8669",
"< c #ED937F",
"1 c #CCA777",
"2 c #F3B974",
"3 c #E19C80",
"4 c #FF9C91",
"5 c #F3CC8B",
"6 c #E7CFA3",
"7 c #F9DDBB",
"8 c #FFE9B5",
"9 c #FFCCC7",
"0 c #F8EBC8",
"q c #FFE8CD",
"w c #FAECD0",
"e c #FCF3DF",
"r c #FDF5E4",
"t c #FFFBF3",
"y c white",
"u c None",
/* pixels */
"uuuuuuuuuuuuuuuuuuuuuuuuuuuuuuuu",
"uuuuuuuuuuuuuuuuuuuuuuuuuuuuuuuu",
"uuuuuuuuuuuuuuuuuuuuuuuuuuuuuuuu",
"uuuuuuuuuuuuuuuuuuuuuuuuuuuuuuuu",
"uuuuuuuuuuu&&&&&&&&&&uuuuuuuuuuu",
"uuuuuuuu&&;6tttttttt6;&&uuuuuuuu",
"uuuuuuo%6tttttttttttttt6&ouuuuuu",
"uuuuuo6ttttq6111....qtttt6ouuuuu",
"uuuuo6ttt61111..O$$O..16tt6ouuuu",
"uuu&6tt61167e#O$$---$O..6tt6&uuu",
"uuu;tt617wew#5+-4-44--$O#1tt;uuu",
"uu 6t617eww#5=+$++$-$++=0#1t6 uu",
"uu;tt1wwww.$-*-*-+-$--+02#1tt;uu",
"u 6tt6wwr.@$+--494-*4$=2,X6tt6 u",
"u tt6wwr#O$++$*$--*8$=23,Xw6tt u",
"u tt1wr#0O*-$-$++*4$=233#6w1tt u",
"u tt1w#50<O$-+$-9$O02,33Xww1tt u",
"u tt1wX>50<OO$$$$O02,,3X6tw1tt u",
"u yy1wX>>>500<OO=02,3,X6t>w6yy u",
"u yy6wX>>>>>5000233,3X6>ttw7yy u",
"u wyy76X>>>>>>:,,33,X6tttw7wyw u",
"uu yy6w6X#>>>>:,,33X6ttttw6yy uu",
"uu wyw7wt6X#>>:,,#X6t,ttw6tyw uu",
"uuu&yyw6ttw6XXXXX6wttttt6wyy&uuu",
"uuu wytw6tttttttttttttt6wtyw uuu",
"uuuu&wtyw67etttttttte76wytw&uuuu",
"uuuuu wttty7777777777yyyyw uuuuu",
"uuuuuu &wyyyyyyyyyyyyyyw& uuuuuu",
"uuuuuuuu  &wyyyyyyyyw&  uuuuuuuu",
"uuuuuuuuuuu          uuuuuuuuuuu",
"uuuuuuuuuuuuuuuuuuuuuuuuuuuuuuuu",
"uuuuuuuuuuuuuuuuuuuuuuuuuuuuuuuu"
};
