/* XPM */
static char *result[] = {
/* columns rows colors chars-per-pixel */
"32 32 26 1 ",
"  c #480D00",
". c #7E2300",
"X c #6C3B00",
"o c #7E3800",
"O c #C06E15",
"+ c #DD9812",
"@ c #E19F22",
"# c #EEB03A",
"$ c #EA9844",
"% c #F6B944",
"& c #E3DF56",
"* c #F2C164",
"= c #FED375",
"- c #EEEC7A",
"; c #FFEF7F",
": c #E6E58C",
"> c #FAE397",
", c #EADCA0",
"< c #EEE0A9",
"1 c #FFEFBB",
"2 c #FAF7C1",
"3 c #FAF9C1",
"4 c #FAF0CD",
"5 c #FEF9EA",
"6 c white",
"7 c None",
/* pixels */
"77777777777777777777777777777777",
"77777777777777777777777777777777",
"77777777777777777777777777777777",
"77777777777777777777777777777777",
"77777777777777777777777777777777",
"77777777777777777777777777777777",
"7777777777777   7777777777777777",
"777777777777 @%@.  7777777777777",
"777777777777X%%%#%+. 77777777777",
"77777777777X3:@O@%#%+. 777777777",
"77777777777X333:O@#%#%@. 7777777",
"7777777777X$=-&&&4<@@%#%#.777777",
"7777777777X;6226&666<O%%@ 777777",
"777777777X$;2262-6544<@O.7777777",
"777777777X$=;626-44444%O 7777777",
"77777777o*:$=;;=$6665,O@ 7777777",
"77777777o33:$$$$4654,1@.77777777",
"7777777o*466666664,1>*O 77777777",
"7777777o46666664,1>11@.777777777",
"7777777o666664,>111>*@ 777777777",
"7777777o6664,111>1*@. 7777777777",
"7777777o4,,>11>1*@. 777777777777",
"7777777o>111>1*@. 77777777777777",
"7777777o11>1*@. 7777777777777777",
"7777777.>1*@. 777777777777777777",
"7777777 @@. 77777777777777777777",
"77777777  7777777777777777777777",
"77777777777777777777777777777777",
"77777777777777777777777777777777",
"77777777777777777777777777777777",
"77777777777777777777777777777777",
"77777777777777777777777777777777"
};
