/* XPM */
static char *result[] = {
/* columns rows colors chars-per-pixel */
"32 32 40 1 ",
"  c #301807",
". c #480D00",
"X c #54331A",
"o c #7E2300",
"O c #6C3B00",
"+ c #7E3800",
"@ c #AF5A0C",
"# c #8A6431",
"$ c #C06E15",
"% c #845F44",
"& c #DD9812",
"* c #E19F22",
"= c #EEB03A",
"- c #AE8A5A",
"; c #EA9844",
": c #F6B944",
"> c #CCA777",
", c #E3DF56",
"< c #F2C164",
"1 c #FED375",
"2 c #EEEC7A",
"3 c #FFEF7F",
"4 c #E6E58C",
"5 c #FAE397",
"6 c #E7CFA3",
"7 c #EADCA0",
"8 c #F9DDBB",
"9 c #EEE0A9",
"0 c #FFEFBB",
"q c #FFE8CD",
"w c #FAF7C1",
"e c #FAF9C1",
"r c #FAF0CD",
"t c #FAECD0",
"y c #FCF3DF",
"u c #FDF5E4",
"i c #FEF9EA",
"p c #FFFBF3",
"a c white",
"s c None",
/* pixels */
"ssssssssssssssssssssssssssssssss",
"ssssssssssssssssssssssssssssssss",
"ssssssssssssssssssssssssssssssss",
"ssssssssssssss...sssssssssssssss",
"sssssssssss%%.*:*o..%sssssssssss",
"ssssssss%%-6pO:::=:&o.%%ssssssss",
"ssssssX#6pppOe4*$*:=:&o.%Xssssss",
"sssssX6ppppqOeee4$*=:=:*o.Xsssss",
"ssssX6ppp6>O;12,,,r9**:=:=oXssss",
"sss%6pp6>>6O3awwa,aaa9$::*.6%sss",
"sss-pp6>8tO;3wwaw2airr9*$opp-sss",
"ss 6p6>8ytO;13awa2rrrrr:$.>p6 ss",
"ss-pp>ttt+<4;1331;aaai7$*.>pp-ss",
"s 6pp6ttu+ee4;;;;rair70*ot6pp6 s",
"s pp6ttu+<raaaaaaar705<$@tt6pp s",
"s pp>tup+raaaaaar70500*o6ut>pp s",
"s pp>tpp+aaaaar750005<*@tpt>pp s",
"s pp>tpp+aaar700050<*o@6p$t>pp s",
"s aa>tpp+r7750050<*o@66tppt6aa s",
"s aa6tpp+500050<*o@66tppppt8aa s",
"s taa8pp+0050<*o@66t:ppppt8tat s",
"ss aa6tp.50<*o@66tpppp$ppt6aa ss",
"ss tat8to**o@66tppppppppt6pat ss",
"sss%aat6po@66tpp:ppppppp6taa%sss",
"sss tapt6pppppppppppppp6tpat sss",
"ssss%tpat68yppppppppy86tapt%ssss",
"sssss tpppa8888888888aaaat sssss",
"ssssss %taaaaaaaaaaaaaat% ssssss",
"ssssssss  %taaaaaaaat%  ssssssss",
"sssssssssss          sssssssssss",
"ssssssssssssssssssssssssssssssss",
"ssssssssssssssssssssssssssssssss"
};
