/* XPM */
static char *result[] = {
/* columns rows colors chars-per-pixel */
"32 32 14 1 ",
"  c #2D0000",
". c #661700",
"X c #A23F04",
"o c #B04403",
"O c #CA6203",
"+ c #EA8803",
"@ c #F7AA21",
"# c #FFBF34",
"$ c #FFD864",
"% c #F5CE71",
"& c #F9E3AD",
"* c #FAEDCD",
"= c white",
"- c None",
/* pixels */
"--------------------------------",
"--------------------------------",
"--------------------------------",
"------------------      --------",
"---------------- .O++++O. ------",
"--------------- O++@+++++O -----",
"-------------- O++@++++@##@ ----",
"--------------.+++++++@##@+ ----",
"------------- O++++++@##@+O ----",
"------------- O$*&**$##@+Oo ----",
"------------- $***&%&*$+OoO ----",
"------------- ***%=****$oO+ ----",
"------------- $**&***&**O+O ----",
"--------------X&=****%&%++.-----",
"-------------- ***&&***$++ -----",
"--------... -- **%**=&*+O+ -----",
"------..%*** - $***&%%*O+ ------",
"-----.%**&&*$ ...O$***$+ -------",
"----.%****%+O%**%.X.XX. --------",
"----.*&*%O+%*****%.-------------",
"---- $*%O%**%**&**%.------------",
"---- +$.+*******%=*%.-----------",
"----- + +**&**&*****$.----------",
"------  +$*%*****&**+ ----------",
"-------- +$**&=*&**+ -----------",
"--------- .+$*****+ ------------",
"----------- +$**$+ -------------",
"------------ .+++ --------------",
"--------------   ---------------",
"--------------------------------",
"--------------------------------",
"--------------------------------"
};
