/* XPM */
static char *result[] = {
/* columns rows colors chars-per-pixel */
"32 32 27 1 ",
"  c #301807",
". c #661700",
"X c #54331A",
"o c #A23F04",
"O c #B04403",
"+ c #8A6431",
"@ c #CA6203",
"# c #845F44",
"$ c #EA8803",
"% c #F7AA21",
"& c #FFBF34",
"* c #AE8A5A",
"= c #CCA777",
"- c #FFD864",
"; c #F5CE71",
": c #EABD80",
"> c #E7CFA3",
", c #F9DDBB",
"< c #F9E3AD",
"1 c #FFE8CD",
"2 c #FAEDCD",
"3 c #FAECD0",
"4 c #FCF3DF",
"5 c #FDF5E4",
"6 c #FFFBF3",
"7 c white",
"8 c None",
/* pixels */
"88888888888888888888888888888888",
"888888888888888888......88888888",
"8888888888888888..@$$$$@..888888",
"888888888888888.@$$%$$$$$@.88888",
"88888888888###.@$$%$$$$%&&%.8888",
"88888888##*>66.$$$$$$$%&&%$.8888",
"888888X+>6666.@$$$$$$%&&%$@.8888",
"88888X>66661>.@-2<22-&&%$@O.8888",
"8888X>666>===.-222<;<2-$@O@.8888",
"888#>66>==>,4.222;72222-O@$.#888",
"888*66>=,3433.-22<222<22@$@.*888",
"88 >6>=,433333o<72222;<;$$.6> 88",
"88*66=333356;6o222<<222-$$.66*88",
"8 >66>33....66.22;227<2$@$.66> 8",
"8 66>3..;222.>.-222<;;2@$.>>66 8",
"8 66=.;22<<2-....@-222-$.>3=66 8",
"8 66.;2222;$@;22;.o.oo..>33=66 8",
"8 66.2<2;@$;22222;.>>3666;3=66 8",
"8 77.-2;@;22;22<22;.>6%6663>77 8",
"8 77.$-.$2222222;72;.366663,77 8",
"8 377.$.$22<22<22222-.66:3,373 8",
"88 77>..$-2;22222<22$.6663>77 88",
"88 373,>.$-22<72<22$.>663>673 88",
"888#773>6..$-22222$.>366>377#888",
"888 3763>6>.$-22-$.>366>3673 888",
"8888#3673>,4..$$$.>34,>3763#8888",
"88888 36667,,,...>,,,77773 88888",
"888888 #3777777777777773# 888888",
"88888888  #3777777773#  88888888",
"88888888888          88888888888",
"88888888888888888888888888888888",
"88888888888888888888888888888888"
};
