/* XPM */
static char *result[] = {
/* columns rows colors chars-per-pixel */
"32 32 15 1 ",
"  c #2A6F0F",
". c #8D3300",
"X c #C35D03",
"o c #C96100",
"O c #DB7317",
"+ c #E1750C",
"@ c #738D42",
"# c #EDA222",
"$ c #F5B936",
"% c #FFF03A",
"& c #88AB49",
"* c #9EBD65",
"= c #FFD752",
"- c #FEFFA0",
"; c None",
/* pixels */
";;;;;;;;;;;;;;;;;;;;;;;;;;;;;;;;",
";;;;;;;;;;;;;;;;;;;;;;;;;;;;;;;;",
";;;;;;;;;;;;;;;;;;;;;;;;;;;;;;;;",
";;;;;;;;;;;;;;;;;;;;;;;;;;;;;;;;",
";;;;;;;;;;;;;;;;;;;;;;;;;;;;;;;;",
";;;;;;;;;;;;;;;;;;;;;;;;;;;;;;;;",
";;;;;;;;;;;;;;;;XXX;;;;;;;;;;;;;",
";;;;;;;;;;X..;;.$==X;;;;;;;;;;;;",
";;;;;;;;.X==#XX#==%=.;;.X;;;;;;;",
";;;;;;;.===$O$===-==#XX==X;;;;;;",
";;;;;X.#$=$###$=%=$##$==$=.;;;;;",
";;;;X=====$$=*=$====@==#==X;;;;;",
";;;;.=$=*$=%-$@=#$%%%=$####X;;;;",
";;;;;.X==%==$###===$==-$=*=$X;;;",
";;;;.#=#$@=-#=%-=@##$%=%%===.;;;",
";;;.===&==$#=$==$#%%=@$=$==#.;;;",
";;;.=$======-%-%$$#$==$==$#X;;;;",
";;;X==#$=$#$==$==$===$===$=X;;;;",
";;;.==$=%=#=$##@ %-%$==$###.;;;;",
";;;.##===#O=%=$%==@=#=$###X;;;;;",
";;;;.#=#$=$=====$#O#=*$=$#.;;;;;",
";;;;;X#==%=*$$=$==#=%=#==X;;;;;;",
";;;;;.===$##%=$*=$#$$o==$.;;;;;;",
";;;;;;..X##$=$+$##+#..$=.;;;;;;;",
";;;;;;;;;X#==..#$#X.;;..;;;;;;;;",
";;;;;;;;;;...;;...;;;;;;;;;;;;;;",
";;;;;;;;;;;;;;;;;;;;;;;;;;;;;;;;",
";;;;;;;;;;;;;;;;;;;;;;;;;;;;;;;;",
";;;;;;;;;;;;;;;;;;;;;;;;;;;;;;;;",
";;;;;;;;;;;;;;;;;;;;;;;;;;;;;;;;",
";;;;;;;;;;;;;;;;;;;;;;;;;;;;;;;;",
";;;;;;;;;;;;;;;;;;;;;;;;;;;;;;;;"
};
