/* XPM */
static char *result[] = {
/* columns rows colors chars-per-pixel */
"32 32 26 1 ",
"  c #301807",
". c #54331A",
"X c #2A6F0F",
"o c #8D3300",
"O c #8A6431",
"+ c #C35D03",
"@ c #C96100",
"# c #DB7317",
"$ c #E1750C",
"% c #845F44",
"& c #738D42",
"* c #EDA222",
"= c #F5B936",
"- c #FFF03A",
"; c #AE8A5A",
": c #88AB49",
"> c #9EBD65",
", c #CCA777",
"< c #FFD752",
"1 c #E7CFA3",
"2 c #F9DDBB",
"3 c #FEFFA0",
"4 c #FAECD0",
"5 c #FFFBF3",
"6 c white",
"7 c None",
/* pixels */
"77777777777777777777777777777777",
"77777777777777777777777777777777",
"77777777777777777777777777777777",
"77777777777777777777777777777777",
"77777777777%%%%%%%%%%77777777777",
"77777777%%;1555555551;%%77777777",
"777777.O15555551+++15551%.777777",
"77777.1555+oo,,o=<<+155551.77777",
"7777.155o+<<*++*<<-<o,,o+51.7777",
"777%155o<<<=#=<<<3<<*++<<+51%777",
"777;5+o*=<=***=<-<=**=<<=<o5;777",
"77 1+<<<<<==<><=<<<<&<<*<<+51 77",
"77;5o<=<>=<-3=&<*=---<=****+5;77",
"7 151o+<<-<<=***<<<=<<3=<><=+1 7",
"7 51o*<*=&<3*<-3<&**=-<--<<<o5 7",
"7 5o<<<:<<=*<=<<=*--<&=<=<<*o5 7",
"7 5o<=<<<<<<3-3-==*=<<=<<=*+25 7",
"7 5+<<*=<=*=<<=<<=<<<=<<<=<+55 7",
"7 6o<<=<-<*<=**&X-3-=<<=***o66 7",
"7 6o**<<<*#<-<=-<<&<*<=***+266 7",
"7 41o*<*=<=<<<<<=*#*<>=<=*o464 7",
"77 61+*<<-<>==<=<<*<-<*<<+166 77",
"77 46o<<<=**-<=><=*==@<<=o564 77",
"777%61oo+**=<=$=**$*oo=<o466%777",
"777 46541+*<<oo*=*+o11oo4564 777",
"7777%456*1ooo11ooo1**214654%7777",
"77777 45556222222222266664 77777",
"777777 %4666666666666664% 777777",
"77777777  %4666666664%  77777777",
"77777777777          77777777777",
"77777777777777777777777777777777",
"77777777777777777777777777777777"
};
