/* XPM */
static char *result[] = {
/* columns rows colors chars-per-pixel */
"32 32 17 1 ",
"  c #3F0605",
". c #2D1604",
"X c #6F0400",
"o c #7B390C",
"O c #633613",
"+ c #930C00",
"@ c #AB3400",
"# c #8B4A1F",
"$ c #BD4108",
"% c #9F5829",
"& c #C9541F",
"* c #D76D3D",
"= c #C98A27",
"- c #F38654",
"; c #E7B971",
": c #FFF0AC",
"> c None",
/* pixels */
">>>>>>>>>>>>>>>>>>>>>>>>>>>>>>>>",
">>>>>>>>>>>>>>>>>>>>>>>>>>>>>>>>",
">>>>>>>>>>>>>>>>>>>>>>>>>>>>>>>>",
">>>>>>>>>>>>>>>>>>>>>>>>>>>>>>>>",
">>>>>>>>>>>>>>>>>>>>>>>>>OOO>>>>",
">>>>>>>>>>>>>>>>>>>>>>>>O;:O>>>>",
">>>>>>>>>>>>>>>>>>>>>>>.;;;O>>>>",
">>>>>>>>>>>>>>>>>>>>>>.;;;O>>>>>",
">>>>>>>>>>>>>>>>>>>>>>.=;.>>>>>>",
">>>>>>>>>>>>>>>>>>>>>O=..>>>>>>>",
">>>>>>>>>>>>>>>>>>>>O;O>>>>>>>>>",
">>>>>>>>>>>>>>>>>>>O;O>>>>>>>>>>",
">>>>>>>>>>XX X  >>.;O>>>>>>>>>>>",
">>>>>>>> X***&**X =.>>>>>>>>>>>>",
">>>>>>>X&*$&***$ = >>>>>>>>>>>>>",
">>>>>>X*#*&*%**X= + >>>>>>>>>>>>",
">>>>>> &*-**--&$X+$X>>>>>>>>>>>>",
">>>>> $$&*#&***&***&X>>>>>>>>>>>",
">>>>> $**&&#-&$&$*&$X>>>>>>>>>>>",
">>>>> @&#*$*&**&*#*&X>>>>>>>>>>>",
">>>>> @$&$&$*&$*&*&$ >>>>>>>>>>>",
">>>>> @&$&**&$&#$$&* >>>>>>>>>>>",
">>>>>>X@$@$&$@*&$@*X>>>>>>>>>>>>",
">>>>>> $@oo@$$$@o@$ >>>>>>>>>>>>",
">>>>>>> $@@@@@@@@$ >>>>>>>>>>>>>",
">>>>>>>> X@$@$$@X >>>>>>>>>>>>>>",
">>>>>>>>>>      >>>>>>>>>>>>>>>>",
">>>>>>>>>>>>>>>>>>>>>>>>>>>>>>>>",
">>>>>>>>>>>>>>>>>>>>>>>>>>>>>>>>",
">>>>>>>>>>>>>>>>>>>>>>>>>>>>>>>>",
">>>>>>>>>>>>>>>>>>>>>>>>>>>>>>>>",
">>>>>>>>>>>>>>>>>>>>>>>>>>>>>>>>"
};
