/* XPM */
static char *result[] = {
/* columns rows colors chars-per-pixel */
"32 32 29 1 ",
"  c #3F0605",
". c #301807",
"X c #6F0400",
"o c #54331A",
"O c #930C00",
"+ c #841800",
"@ c #813F12",
"# c #AB3400",
"$ c #C12A00",
"% c #D5370A",
"& c #8B4A1F",
"* c #BD4108",
"= c #8A6431",
"- c #C9541F",
"; c #C4602C",
": c #D76D3D",
"> c #FF7A22",
", c #845F44",
"< c #AE8A5A",
"1 c #F38654",
"2 c #CCA777",
"3 c #E7CFA3",
"4 c #F9DDBB",
"5 c #FFE8CD",
"6 c #FAECD0",
"7 c #FCF3DF",
"8 c #FFFBF3",
"9 c white",
"0 c None",
/* pixels */
"00000000000000000000000000000000",
"00000000000000000000000000000000",
"00000000000000000000000000000000",
"00000000000000000000000000000000",
"00000000000,,,,,,,,,,00000000000",
"00000000,,<3888888883<,,00000000",
"000000o=3888888888888883,o000000",
"00000o3888XXXX222223588883o00000",
"0000o3888X:::*X222XXXX23883o0000",
"000,3883X::-:::X>X-::*X23883,000",
"000<8832 *:*-:*  -*:::-X3288<000",
"00.38324 ##;**X X -::-*X>3283.00",
"00<8826X X *#X-::-X*&*# $6288<00",
"0.3883X-::*X -:-**-X*#* $>3883.0",
"0.883X*:-:-:X*-::-* XXX O$6388.0",
"0.882X-**::: *&**## -*-:X$6288.0",
"0.882 *-::-* ##;#*X-:1*:-X6288.0",
"0.882 #&**#X   #** *-::-&X6288.0",
"0.9926X**#X*-:* +X **&*;* 6399.0",
"0.9936$++X-::*::XO #;#**#X6499.0",
"0.6994>$O *-:1-* OO *#*#X>4696.0",
"00.9936$& *;*&** $@$++++$6399.00",
"00.6964>$X**#*##X%$$@$$>63896.00",
"000,9963>$X#***X%>%%>$>83699,000",
"000.698638>++++$$%$>88836896.000",
"0000,6896347888888887436986,0000",
"00000.68889444444444499996.00000",
"000000.,6999999999999996,.000000",
"00000000..,6999999996,..00000000",
"00000000000..........00000000000",
"00000000000000000000000000000000",
"00000000000000000000000000000000"
};
