/* XPM */
static char *result[] = {
/* columns rows colors chars-per-pixel */
"32 32 15 1 ",
"  c #5D1200",
". c #992A00",
"X c #813600",
"o c #CF5729",
"O c #DB9323",
"+ c #EA8A3C",
"@ c #F2AD39",
"# c #F0A049",
"$ c #F8BF4B",
"% c #F6B656",
"& c #FFCF5B",
"* c #FFD15C",
"= c #FFF05C",
"- c #FFF5A3",
"; c None",
/* pixels */
";;;;;;;;;;;;;;;;;;;;;;;;;;;;;;;;",
";;;;;;;;;;;;;;;;;;;;;;;;;;;;;;;;",
";;;;;;;;;;;;;;;;;;;;;;;;;;;;;;;;",
";;;;;;;;;;;;;;;;;;;;;;;;;;;;;;;;",
";;;;;;;;;;;;;;;;;;;;;;;;;;;;;;;;",
";;;;;;;;;;;;;;;;;;;;;;;;;;;;;;;;",
";;;;;;;;;;;;;;;;;;;;;;;;;;;;;;;;",
";;;;;;;;;    ;;;;;;;;;;;;;;;;;;;",
";;;;;;;; +%%+ ;;;;;;;;;;;;;;;;;;",
";;;;;;; #%%%%%  ;;;;;;;;;;;;;;;;",
";;;;;;;.%%%=%#%+ ;;;;;;;;;;;;;;;",
";;;;;; +%#%*%++o ;;;;;;;;;;;;;;;",
";;;;;; +*#%%%+oO@ X;;;;;;;;;;;;;",
";;;;;; +=+%*%oO@&&@XX ;;;;;;;;;;",
";;;;;; +o.+%#o&&@$&O&@X   ;;;;;;",
";;;;;;;  O.oo@$&&&&@&&O&$ ;;;;;;",
";;;;;;;; @$O&&@$&&&&$&@&- ;;;;;;",
";;;;;;;;X&&@&$@O@$&&&&&$@ ;;;;;;",
";;;;;;;; $@&&&&$&&&&O&&-X;;;;;;;",
";;;;;;;; &&$&&&&&&&&$&-@ ;;;;;;;",
";;;;;;;;X&&&&@&&@$&&&-@ ;;;;;;;;",
";;;;;;;;X@&$&$&&$&&&-@ ;;;;;;;;;",
";;;;;;;;XO@O@&&&&&-@X ;;;;;;;;;;",
";;;;;;;;;X&&&$&O-@X ;;;;;;;;;;;;",
";;;;;;;;;X$&&&-@X ;;;;;;;;;;;;;;",
";;;;;;;;; @-@X  ;;;;;;;;;;;;;;;;",
";;;;;;;;;    ;;;;;;;;;;;;;;;;;;;",
";;;;;;;;;;;;;;;;;;;;;;;;;;;;;;;;",
";;;;;;;;;;;;;;;;;;;;;;;;;;;;;;;;",
";;;;;;;;;;;;;;;;;;;;;;;;;;;;;;;;",
";;;;;;;;;;;;;;;;;;;;;;;;;;;;;;;;",
";;;;;;;;;;;;;;;;;;;;;;;;;;;;;;;;"
};
