/* XPM */
static char *result[] = {
/* columns rows colors chars-per-pixel */
"32 32 36 1 ",
"  c #301807",
". c #292739",
"X c #5D1200",
"o c #54331A",
"O c #44405D",
"+ c #813600",
"@ c #AB4D09",
"# c #8A6431",
"$ c #C9641B",
"% c #845F44",
"& c #DB5F48",
"* c #DB9323",
"= c #DB9623",
"- c #EA8A3C",
"; c #F2AD39",
": c #AE8A5A",
"> c #85A846",
", c #F6B656",
"< c #CCA777",
"1 c #FFCF5B",
"2 c #F6C673",
"3 c #82798D",
"4 c #898799",
"5 c #A49FAB",
"6 c #E7CFA3",
"7 c #FFDEA6",
"8 c #F9DDBB",
"9 c #FFF5A3",
"0 c #BFBDC3",
"q c #FFE8CD",
"w c #FAECD0",
"e c #FCF3DF",
"r c #DCDBE1",
"t c #FFFBF3",
"y c white",
"u c None",
/* pixels */
"uuuuuuuuuuuuuuuuuuuuuuuuuuuuuuuu",
"uuuuuuuuuuuuuuuuuuuuuuuuuuuuuuuu",
"uuuuuuuuuuuuuuuuuuuuuuuuuuuuuuuu",
"uuuuuuuuuuuuuuuuuuuuuuuuuuuuuuuu",
"uuuuuuuuuuu%%%%%%%%%%uuuuuuuuuuu",
"uuuuuuuu%%:6tttttttt6:%%uuuuuuuu",
"uuuuuuo#6tttt+++ttttttt6%ouuuuuu",
"uuuuuo6ttttq6+1;++<+++ttt6ouuuuu",
"uuuuo6t++++<+;11*1++;;+++t6ouuuu",
"uuu%6tt+11;@@+;1;1;@$+;1+tt6%uuu",
"uuu:tt6+;91;$OOOOOO$+;111+tt:uuu",
"uu 6t6<+1@@$OrrryrrO;;11;+<t6 uu",
"uu:tt<6+@;+Or445554rO*1111+tt:uu",
"u 6tt+@1;=Or5-,,,,-4rO1;11+tt6 u",
"u t++;1111Or-,27>2,-rO@99@+6tt u",
"u t+119;1;.5r,>,,&,r4.$@@<6<tt u",
"u tt+;@@@$.50ryryyr04.*;1+++tt u",
"u tt<++;;@+O05005500O$111;1+tt u",
"u yy<<+1;*;@+XX05504.@@;119+yy u",
"u yy6w+11;111;X353++@11@9;+8yy u",
"u wyy8+11111;9+..+$1;11+$+8wyw u",
"uu yy6+11;;19+$$+;1;*11;+w6yy uu",
"uu wyw+;19*++$$+;91111;1+6tyw uu",
"uuu%yy+++++;11;@+@$;911*;+yy%uuu",
"uuu wytw68<+1;19@<++++++++yw uuu",
"uuuu%wtyw688+*9+8ttte86wytw%uuuu",
"uuuuu wttty88++888888yyyyw uuuuu",
"uuuuuu %wyyyyyyyyyyyyyyw% uuuuuu",
"uuuuuuuu  %wyyyyyyyyw%  uuuuuuuu",
"uuuuuuuuuuu          uuuuuuuuuuu",
"uuuuuuuuuuuuuuuuuuuuuuuuuuuuuuuu",
"uuuuuuuuuuuuuuuuuuuuuuuuuuuuuuuu"
};
