/* XPM */
static char *result[] = {
/* columns rows colors chars-per-pixel */
"32 32 12 1 ",
"  c #480400",
". c #843800",
"X c #9F4D00",
"o c #CF7200",
"O c #BA9835",
"+ c #ED9931",
"@ c #F0AD27",
"# c #F5B63E",
"$ c #D2AF48",
"% c #FFDD4F",
"& c #FFF9B5",
"* c None",
/* pixels */
"********************************",
"********************************",
"********************************",
"********************************",
"********************************",
"********************************",
"********************************",
"********************************",
"********************************",
"*********************    *******",
"******************  .##+# ******",
"**************** .%#%$#+#% *****",
"************** .#%%#%+O%#% *****",
"************ .#%%%$%#+#%#% *****",
"********** .+%$%%#+$+#%%%% *****",
"******** .++%%%#+%O#%&%#%# *****",
"****** .+++##%$%%%%&%%+%#X *****",
"***** #%%%%%%%%%%%%%#+&#X ******",
"***** +##$#%$%%%$+@%%&#X# ******",
"***** #oX+%%%@O+%%%%#oX# *******",
"****** #%oX#%%&%%#oXX%# ********",
"******* +%%oXXXXoo%%#  *********",
"********  +#%%%%%#   ***********",
"**********        **************",
"********************************",
"********************************",
"********************************",
"********************************",
"********************************",
"********************************",
"********************************",
"********************************"
};
