/* XPM */
static char *result[] = {
/* columns rows colors chars-per-pixel */
"32 32 37 1 ",
"  c #301807",
". c #072D0F",
"X c #480400",
"o c #54331A",
"O c #13451E",
"+ c #991100",
"@ c #843800",
"# c #D11A0D",
"$ c #9F4D00",
"% c #AE5A0B",
"& c #8A6431",
"* c #FE4708",
"= c #CF7200",
"- c #FD7817",
"; c #845F44",
": c #6C873E",
"> c #BA9835",
", c #ED9931",
"< c #FC9439",
"1 c #F0AD27",
"2 c #F5B63E",
"3 c #AE8A5A",
"4 c #87AB4C",
"5 c #D2AF48",
"6 c #CCA777",
"7 c #FEB96E",
"8 c #FFDD4F",
"9 c #FFE297",
"0 c #E7CFA3",
"q c #F9DDBB",
"w c #FFF9B5",
"e c #FFE8CD",
"r c #FAECD0",
"t c #FCF3DF",
"y c #FFFBF3",
"u c white",
"i c None",
/* pixels */
"iiiiiiiiiiiiiiiiiiiiiiiiiiiiiiii",
"iiiiiiiiiiiiiiiiiiiiiiiiiiiiiiii",
"iiiiiiiiiiiiiiiiiiiiiiiiiiiiiiii",
"iiiiiiiiiiiiiiiiiiiiiiiiiiiiiiii",
"iiiiiiiiiii;;;;;;;;;;iiiiiiiiiii",
"iiiiiiii;;30yyyyyyyy03;;iiiiiiii",
"iiiiiio&0yyyyyyyyyyyyyy0;oiiiiii",
"iiiiio0yyyye0666.O6..O.yy0oiiiii",
"iiiio0yyy0666666.:.:4:.0yy0oiiii",
"iii;0yy066+++000.4:..O660yy0;iii",
"iii3yy06q+<<-+6.4.O66@@@@6yy3iii",
"ii 0y0+++-*7*-+4.6X@@22,2@6y0 ii",
"ii3yy+<--+797-+:X@82852,28@yy3ii",
"i 0y+<7*7-+**#X@28828,>828@yy0 i",
"i yy+-*97-+#X@2888582,2828@0yy i",
"i yy+-7*-#X@,85882,5,28888@6yy i",
"i yy6+##X@,,8882,8>28w8282@6yy i",
"i yy60X@,,,22858888w88,82$X6yy i",
"i uu6@288888888888882,w2$X60uu i",
"i uu0@,2252858885,188w2$2@qquu i",
"i ruu@2=$,8881>,88882=$2@6qrur i",
"ii uu0@28=$288w882=$$82@6q0uu ii",
"ii rurq@,88=$$$$==882%@6q0yur ii",
"iii;uurq@%,2888882%%@6qy0ruu;iii",
"iii ruyrq0%%%%%%%%6qyyy0ryur iii",
"iiii;ryur0qtyyyyyyyytq0ruyr;iiii",
"iiiii ryyyuqqqqqqqqqquuuur iiiii",
"iiiiii ;ruuuuuuuuuuuuuur; iiiiii",
"iiiiiiii  ;ruuuuuuuur;  iiiiiiii",
"iiiiiiiiiii          iiiiiiiiiii",
"iiiiiiiiiiiiiiiiiiiiiiiiiiiiiiii",
"iiiiiiiiiiiiiiiiiiiiiiiiiiiiiiii"
};
