/* XPM */
static char *result[] = {
/* columns rows colors chars-per-pixel */
"32 32 16 1 ",
"  c #570B00",
". c #75291D",
"X c #9F4602",
"o c #AD5410",
"O c #B75F1B",
"+ c #C96F29",
"@ c #C9783B",
"# c #D59729",
"$ c #DB9B52",
"% c #EEB34D",
"& c #F7C761",
"* c #FACF6E",
"= c #FCDA80",
"- c #FFF6BB",
"; c white",
": c None",
/* pixels */
"::::::::::::::::::::::::::::::::",
"::::::::::::::::::::::::::::::::",
"::::::::::::::::::::::::::::::::",
"::::::::::::::::::::::::::::::::",
"::::::::::::::::::::::::::::::::",
"::::::::::::::::::::::::::::::::",
"::::::::::::::::::::::::::::::::",
":::::::::::::      :::::::::::::",
":::::::::::  XoO+XX  :::::::::::",
":::::::::: oXXXXXoXXo ::::::::::",
"::::::::: OXXXXXo+OoXO :::::::::",
"::::::::: XXo++++oXXXX :::::::::",
":::::::::.@XXXo+XXXXX@.:::::::::",
":::::::::.%@XXXXOoXX@%.:::::::::",
":::::::::.&&%@X#XX@%&&.:::::::::",
"::::::::.-&&===;=**=&&-.::::::::",
"::::::::.-&&===-=**=&&-.::::::::",
"::::::::.=&*===-=**=*&=.::::::::",
":::::::.-&&====;=**==&&-.:::::::",
":::::::.=&*====-=**==*&=.:::::::",
":::::::.=&=======**===&=.:::::::",
":::::::.$&=======***==&$.:::::::",
"::::::::.$=====-=***==$.::::::::",
":::::::::..&======**&..:::::::::",
":::::::::::..........:::::::::::",
"::::::::::::::::::::::::::::::::",
"::::::::::::::::::::::::::::::::",
"::::::::::::::::::::::::::::::::",
"::::::::::::::::::::::::::::::::",
"::::::::::::::::::::::::::::::::",
"::::::::::::::::::::::::::::::::",
"::::::::::::::::::::::::::::::::"
};
