/* XPM */
static char *result[] = {
/* columns rows colors chars-per-pixel */
"32 32 14 1 ",
"  c #A45E03",
". c #C37C00",
"X c #D58A04",
"o c #E2960E",
"O c #E2A41F",
"+ c #F1AA1F",
"@ c #F4B33B",
"# c #F2B744",
"$ c #F4B646",
"% c #F3C362",
"& c #F7CC71",
"* c #F9D488",
"= c #F5E1A7",
"- c None",
/* pixels */
"--------------------------------",
"--------------------------------",
"--------------------------------",
"--------------------------------",
"--------------------------------",
"--------------------------------",
"-----------   --    ------------",
"-------    ##o o%=== -  --------",
"------ &==&oo %==%+++ == -------",
"------o=&==&    %+++% ##X  -----",
"---   &==&=#o$&= +%o ##X#== ----",
"-- ==o=&===o$&=$  oo  X#==== ---",
"-- &o oX&&# &=+ +=  X%% oo## ---",
"--- =&==X#XX=$X+= XX=% =&%o# ---",
"-- =====&XXX=X %X===X =%%%&.----",
"-- &=&ooo X@=+  =&&&+ =+%%%.----",
"-- @@o===X &=X =+OOo =%%%+O  ---",
"---  =&&=&@    XO    &%+OOoO# --",
"---- =&=&&@&==&  ==== OO%O O* --",
"--- X&&XX X@@@ =@&&&@=.OO.O=O --",
"-- ++ X=&@@ @ =+&@&&&+ ..==O ---",
"-- +++& XX&@ =@&&&&@+XOO*O  ----",
"-- &+++++   X=&&@&+X  #*O ------",
"--- &==X ++ +@&&&+ X&+   -------",
"----   &+&++     X++++& --------",
"------- ==&& --- &&==& ---------",
"--------    -----     ----------",
"--------------------------------",
"--------------------------------",
"--------------------------------",
"--------------------------------",
"--------------------------------"
};
