/* XPM */
static char *result[] = {
/* columns rows colors chars-per-pixel */
"32 32 25 1 ",
"  c #2A190E",
". c #61422B",
"X c #A45E03",
"o c #B77A2B",
"O c #D58A04",
"+ c #E2960E",
"@ c #E2A41F",
"# c #F1AA1F",
"$ c #F4B33B",
"% c #F2B744",
"& c #F4B646",
"* c #E1B57D",
"= c #F3C362",
"- c #F7CC71",
"; c #BC9A81",
": c #E7BD88",
"> c #EDCBA0",
", c #ECCCA4",
"< c #F5E1A7",
"1 c #EEE7BE",
"2 c #F9E2C4",
"3 c #F8F8D8",
"4 c #FCF0E0",
"5 c white",
"6 c None",
/* pixels */
"66666666666666666666666666666666",
"66666666666666666666666666666666",
"66666666666666666666666666666666",
"66666666666666666666666666666666",
"66666666666666666666666666666666",
"66666666666666666666666666666666",
"6666666666oooooooooooo6666666666",
"6666666ooo155555555551ooo6666666",
"66666oo15555XXX55XXXX5551oo66666",
"6666o155XXXX%%+X+=<<<X1XX51o6666",
"666o15>X-<<-++X=<<=###X<<X51o666",
"66o15:,+<-<<-XXXX=###=X%%OXX1o66",
"66.5XXX-<<-<%+&-<X#=+X%%O%<<X.66",
"6o1X<<+<-<<<+&-<&XX++XXO%<<<<Xo6",
"6o5X-+X+O--%X-<#X#<XXO==X++%%Xo6",
"6.5;X<-<<O%OO<&O#<#X<<=X<-=+%X.6",
"6 5X<<<<<-OOO<OX=@X+=<X<===-+5 6",
"6 5X-<-+++XO$<OX<@X##=X<#===+5 6",
"6 3X$$+<<<OX-<X@<@X#+X<===#@X3 6",
"6 ,5XX<----$XXXXO=XXXX-=#@@@5, 6",
"66;1*X<----$-<<-XX<<<<X@@=@X,.66",
"66.;1O<OXXXO$$$X<$---$<X@@X5;.66",
"666.,5OO$$$$X$X<#-$---#X$X1,.666",
"666 1,15OOO$$X<#$---$#O*51,1.666",
"6666.1,,551OOXOOOOOOO155,,1.6666",
"66666.15,24555555555542,51.66666",
"666666.555544444444445551.666666",
"6666666 .15555555555551. 6666666",
"666666666 .o15555551o. 666666666",
"666666666666........666666666666",
"66666666666666666666666666666666",
"66666666666666666666666666666666"
};
