/* XPM */
static char *result[] = {
/* columns rows colors chars-per-pixel */
"32 32 48 1 ",
"  c #180100",
". c #3F1500",
"X c #5F2305",
"o c #532209",
"O c #703400",
"+ c #84360F",
"@ c #8A3A11",
"# c #913E13",
"$ c #974314",
"% c #924A1A",
"& c #9A4B1D",
"* c #BB541E",
"= c #9E5222",
"- c #A35C28",
"; c #C75C1C",
": c #CE6212",
"> c #C5611F",
", c #D8651F",
"< c #CE6725",
"1 c #C17823",
"2 c #DF763F",
"3 c #E57933",
"4 c #E47E39",
"5 c #AD8F38",
"6 c #E68738",
"7 c #E68A3D",
"8 c #DD8446",
"9 c #DF9254",
"0 c #EE8843",
"q c #E09852",
"w c #F1A15C",
"e c #DFA368",
"r c #E4A464",
"t c #F6AE65",
"y c #EEB779",
"u c #E9B47E",
"i c #EEBD7E",
"p c #ECCA8B",
"a c #F4C590",
"s c #F3CA98",
"d c #F9E28E",
"f c #EEE493",
"g c #F1D9A3",
"h c #FFDFB2",
"j c #F6F0CA",
"k c #FDF9DE",
"l c white",
"z c None",
/* pixels */
"zzzzzzzzzzzzzzzzzzzzzzzzzzzzzzzz",
"zzzzzzzzzzzzzzzzzzzzzzzzzzzzzzzz",
"zzzzzzzzzzzzzzzzzzzzzzzzzzzzzzzz",
"zzzzzzzzzzzzzzzzzzzzzzzzzzzzzzzz",
"zzzzzzzzzzzzzzzzzzzzzzzzzzzzzzzz",
"zzzzzzzzzzzzzzzzzzzzzzzzzzzzzzzz",
"zzzzzzzzzzzz .o55o. zzzzzzzzzzzz",
"zzzzzzzzzz. *okkkko*X. zzzzzzzzz",
"zzzzzzzz .*#okkkkkko@#* zzzzzzzz",
"zzzzzzz @##@odklkkdo#@#* zzzzzzz",
"zzzzzz @#@###odffdo##2*#.zzzzzzz",
"zzzzzz +%#*####ooo*2*##@; zzzzzz",
"zzzzzz a7i9#h##########*8 zzzzzz",
"zzzzzz.ja7w>$2*#####$*h+j zzzzzz",
"zzzzzz.gja77=%#$<4tt;+&ep.zzzzzz",
"zzzzzz.agjja#+++777wajjp.zzzzzzz",
"zzzzzzz1ggjje--ejjjjjgpj.zzzzzzz",
"zzzzzzO:wgppgusjppgjjjja:.zzzzzz",
"zzzzzz.::aggpqpgjjjjjja::.zzzzzz",
"zzzzzz.aw77ayrsjjjjja6:::.zzzzzz",
"zzzzzz.gaww03330wwwwww6:a.zzzzzz",
"zzzzzz.pgjjaw,,7ww77w7ajj.zzzzzz",
"zzzzzz.gppgjsuusjjjjjjjj.zzzzzzz",
"zzzzzzz.gjjjjuujjjjjjgpg.zzzzzzz",
"zzzzzzzz..gjjuujjjgppjj.zzzzzzzz",
"zzzzzzzzzz...uusjjjjj..zzzzzzzzz",
"zzzzzzzzzzzzz........zzzzzzzzzzz",
"zzzzzzzzzzzzzzzzzzzzzzzzzzzzzzzz",
"zzzzzzzzzzzzzzzzzzzzzzzzzzzzzzzz",
"zzzzzzzzzzzzzzzzzzzzzzzzzzzzzzzz",
"zzzzzzzzzzzzzzzzzzzzzzzzzzzzzzzz",
"zzzzzzzzzzzzzzzzzzzzzzzzzzzzzzzz"
};
