/* XPM */
static char *result[] = {
/* columns rows colors chars-per-pixel */
"32 32 49 1 ",
"  c #301807",
". c #660400",
"X c #5A2A15",
"o c #51201A",
"O c #54331A",
"+ c #7B4943",
"@ c #963306",
"# c #A82D01",
"$ c #B44D28",
"% c #8A6431",
"& c #A87136",
"* c #F45C19",
"= c #CC4D20",
"- c #C6552E",
"; c #845F44",
": c #AB7051",
"> c #C67548",
", c #EF9C10",
"< c #FFA90A",
"1 c #CC8B2D",
"2 c #C68638",
"3 c #E4852C",
"4 c #FFB222",
"5 c #FBCA30",
"6 c #AE8A5A",
"7 c #BF9857",
"8 c #D89C53",
"9 c #FC9D44",
"0 c #F0B15D",
"q c #D29D63",
"w c #CFA874",
"e c #EDAE8B",
"r c #F0B7AC",
"t c #D8C691",
"y c #EFC692",
"u c #E7CD9D",
"i c #DED5BB",
"p c #E7CFA3",
"a c #FADCAA",
"s c #F0DEB5",
"d c #F0E0AF",
"f c #F9F0C7",
"g c #FAECD0",
"h c #F9EED8",
"j c #FFF6DC",
"k c #FCF4DF",
"l c #FFFBF3",
"z c white",
"x c None",
/* pixels */
"xxxxxxxxxxxxxxxxxxxxxxxxxxxxxxxx",
"xxxxxxxxxxxxxxxxxxxxxxxxxxxxxxxx",
"xxxxxxxxxxxxxxxxxxxxxxxxxxxxxxxx",
"xxxxxxxxxxxxxx6666xxxxxxxxxxxxxx",
"xxxxxxxxxxx;66zzzz66;xxxxxxxxxxx",
"xxxxxxxx;;66zzr@XXzz66;;xxxxxxxx",
"xxxxxxO%pwzzrr@yy8@Xzz6p;Oxxxxxx",
"xxxxxOplwk>>kk@2ysy8@Xk6lpOxxxxx",
"xxxxOplwk>kkkk..@2yshy@X6lpOxxxx",
"xxx;plwkrkkkk@04-.@2ysy8@Xlp;xxx",
"xxx6lwzrkkkk@a5aa0-.@2yyy8Xl6xxx",
"xx pwkrzkkki.**0a4a0-.@2017@p xx",
"xx66k>zzzkz.##=*55aa50-.@77@66xx",
"x 6z>kzzkzi.####9<9*=#30-.@tz6 x",
"xofrkkzzkz.=*===a5=####j0.tzrfox",
"x:fekkzzzi$3**=95aa=**9a.tkzrf:x",
"ofezkkzzz.359a,aa59459..tkkzzefo",
"ofezkkzzi$54aa45jjja$.tzzkkzzefo",
"offrkkzz.3*=#0545a$.tdzzzkkrrefo",
"oo+f>kz$4*=###ja$.tdzzkzzkrzzooo",
"x g&k>$aa###=*.$tdzzzkzzzrk:og x",
"xx z&$5544**.$tdzzzzkzzzrf:zz xx",
"xx gk$ajja$.tdzzzzkkzzzrz:lzg xx",
"xxx;k$aa$.tzzzzzzzzzzzrz:gzz;xxx",
"xxx gk$.k>kkkkkkkkkk>>k:glzg xxx",
"xxxx;glzqk>kkkkkkk>>kkqgzlg;xxxx",
"xxxxx gll&zrzzzzrrzzq&zzzg xxxxx",
"xxxxxx ;gz&u>uu>uuq&zzzg; xxxxxx",
"xxxxxxxx  ;&u>>uq&zzg;  xxxxxxxx",
"xxxxxxxxxxx ouuoo    xxxxxxxxxxx",
"xxxxxxxxxxxxxooxxxxxxxxxxxxxxxxx",
"xxxxxxxxxxxxxxxxxxxxxxxxxxxxxxxx"
};
