/* XPM */
static char *result[] = {
/* columns rows colors chars-per-pixel */
"32 32 10 1 ",
"  c #8C4600",
". c #BD6E00",
"X c #CF8A10",
"o c #E9AB3C",
"O c #F3D54C",
"+ c #FBE470",
"@ c #FDF1B5",
"# c #FFF1E0",
"$ c white",
"% c None",
/* pixels */
"%%%%%%%%%%%%%%%%%%%%%%%%%%%%%%%%",
"%%%%%%%%%%%%%%%%%%%%%%%%%%%%%%%%",
"%%%%%%%%%%%%%%%%%%%%%%%%%%%%%%%%",
"%%%%%%%%%%%%%%%%%%%%%%%%%%%%%%%%",
"%%%%%%%%%%%%%%%%%%%%%%%%%%%%%%%%",
"%%%%%%%%%%%%%%%%%%%%%%%%%%%%%%%%",
"%%%%%%%%%%%%%%  %  %%%%%%%%%%%%%",
"%%%%%%%%%%  % $@.OO  %%%%%%%%%%%",
"%%%%%%%%% @@.@@. o.$o %%%%%%%%%%",
"%%%%%%%  oOOo+.@o @$O@   %%%%%%%",
"%%%%%% @O. +OOoO..o@@O.@@.%%%%%%",
"%%%%% .@.@@o+@@O@##Oo.o++ %%%%%%",
"%%%% +OOo+OOO+o.O##O@+$o   %%%%%",
"%%%%o@$OO@@@ooO@##+@@+@.o@@ %%%%",
"%%%.++@+@+o..oo+@@o+@o+@@@O %%%%",
"%%.@@@+oO@++o+@@@++o. .o@O .%%%%",
"%% +O$@@@@o##@@O@@@$+O$@o O@ %%%",
"%% .o@+@+o.o+##o.o@$$o@@OO@O.%%%",
"%%.+O@@O+O++@oo#o@+o..++O. .%%%%",
"%%o@@OOoOOO+o##.O+o...O@.+@ %%%%",
"%%%o.oO@ooo@@@@o+++##@o@OOO..%%%",
"%%%%o@@@@.@OoO++Oo@##@++@O.@@.%%",
"%%%%..@.o@@ooo@@@@..o+O+@+ OO %%",
"%%%.@$.O@@@O.O@@O@@o@@@.o.%  %%%",
"%%%.OO .oO@@ @@@@O. O@@.%..%%%%%",
"%%%%  %%%.o OOoO@@ X.o.%.@O.%%%%",
"%%%%%%%%%%%%..%.. %%%%%% oo %%%%",
"%%%%%%%%%%%%%%%%%%%%%%%%%  %%%%%",
"%%%%%%%%%%%%%%%%%%%%%%%%%%%%%%%%",
"%%%%%%%%%%%%%%%%%%%%%%%%%%%%%%%%",
"%%%%%%%%%%%%%%%%%%%%%%%%%%%%%%%%",
"%%%%%%%%%%%%%%%%%%%%%%%%%%%%%%%%"
};
