/* XPM */
static char *_4_popcorn_bowl1655581934[] = {
/* columns rows colors chars-per-pixel */
"32 32 20 1 ",
"  c None",
". c #2A190E",
"X c #61422B",
"o c #8C4600",
"O c #BD6E00",
"+ c #B77A2B",
"@ c #CF8A10",
"# c #E9AB3C",
"$ c #E1B57D",
"% c #F3D54C",
"& c #FBE470",
"* c #BC9A81",
"= c #ECCCA4",
"- c #EEE7BE",
"; c #FDF1B5",
": c #F9E2C4",
"> c #F8F8D8",
", c #FCF0E0",
"< c #FFF1E0",
"1 c white",
/* pixels */
"                                ",
"                                ",
"                                ",
"                                ",
"               oo               ",
"           oo o1;o  oo          ",
"          o;;O;;Oo+o11o         ",
"       +oo#%%#&O;#o;11;ooo      ",
"     ++o;%Oo&%%#%OO#;;%O;;O     ",
"    +-oO;O;;#&;;%;<<%#O#&&o+    ",
"   +-o&%%#&%%%&#O%<<%;&1#ooo+   ",
"  +-1#;1%%;;;##%;<<&;;&;O#;;o+  ",
"  X1O&&;&;&#OO##&;;#&;#&;;;%oX  ",
" +-O;;;&#%;&&#&;;;&&#OoO#;%oO-+ ",
" +1o&%1;;;;#<<;;%;;;1&%1;#o%;o+ ",
" X1oO#;&;&#O#&<<#O#;11#;;%%;%OX ",
" .1O&%;;%&%&&;##<#;&#OO&&%OoO1. ",
" .1#;;%%#%%%&#<<O%&#OOO%;O&;o1. ",
" .>$#O#%;###;;;;#&&&<<;#;%%%O>. ",
" .=1=#;;;;O;%#%&&%#;<<;&&;%O1=. ",
"  *-$O%;O#;;###;;;;OO#&%&;&O=X  ",
"  X*-$o#%;;;%O%;;%;;#;;;O#O1*X  ",
"   X=1$$O#%;;o;;;;%Oo%;;O$-=X   ",
"   .-=-1$$O#o%%#%;;o@O#O1-=-X   ",
"    X-==11-$$OO$OOo$$-11==-X    ",
"     X-1=:,1111111111<:=1-X     ",
"   ## X1111<,,,,,,,,,111-X      ",
"  O;1O .X-111111111111-X.       ",
"  O%%o   .X+-111111-+X.         ",
"   oo       XXXXXXXX            ",
"                                ",
"                                "
};
