/* XPM */
static char *result[] = {
/* columns rows colors chars-per-pixel */
"32 32 19 1 ",
"  c black",
". c #2D1510",
"X c #6B1300",
"o c #45231C",
"O c #512A22",
"+ c #852404",
"@ c #8F3302",
"# c #993511",
"$ c #A64417",
"% c #BD5D20",
"& c #C64E0F",
"* c #D07519",
"= c #E17A2A",
"- c #F79B1E",
"; c #DDA326",
": c #FFC94C",
"> c #FFD258",
", c #FFFED0",
"< c None",
/* pixels */
"<<<<<<<<<<<<<<<<<<<<<<<<<<<<<<<<",
"<<<<<<<<<<<<<<<<<<<<<<<<<<<<<<<<",
"<<<<<<<<<<<<<<<<<<<<<<<<<<<<<<<<",
"<<<<<<<<<<<<<<<<<<<<<<<<<<<<<<<<",
"<<<<<<<<<<<<<<<<<<<<<<<<<<<<<<<<",
"<<<<<<<<<<<<<<<<<<<<<<<<<<<<<<<<",
"<<<<<<<<<oo<<<<<<<<<ooo<<<<<<<<<",
"<<<<<<<<o++o<<<<<< o@%=o < o<<<<",
"<<<<<<<o###.<<<<<o@%=%%*;o@@ <<<",
"<<<<<<o%%O...OOOOOO*;:;:o@@@o<<<",
"<<<<<o%OO$%%=%=-=%$OO*oo%@@O%o<<",
"<<<<<..$%%=%%%$$%=%$oo%--%O%@o<<",
"<<<<<.$%=$%=--,>=%$o%--*%@  o<<<",
"<<<<O%%$=--,>=:--=o%->-%% <<<<<<",
"<<<<O$=>>>=-=--=:o%->-*%% <<<<<<",
"<<< $>-->>---:=:=o->--%%*O<<<<<<",
"<<<O>=-=,-:-=---%o->-*%*-@O<<<<<",
"<<<O%--,--=%oo=%X.*--%*--@O<<<<<",
"<<<O=->-%##o*+oX#.%*-%-:*@ <<<<<",
"<<< ->-=###o++.#%#o%%*:-%# <<<<<",
"<<< ->-%##o*##.%%%o%*--*%O<<<<<<",
"<<< =--##%o&&*+.#X*--*%%# <<<<<<",
"<<<<O--#%o+*>--*o.#%%%%# <<<<<<<",
"<<<< =-%=o#-->---*.#### <<<<<<<<",
"<<<<< -==%o#*->-*%%.X  <<<<<<<<<",
"<<<<<<  %=#oXX+*%%#  <<<<<<<<<<<",
"<<<<<<<<     #%%%# <<<<<<<<<<<<<",
"<<<<<<<<<<<<<     <<<<<<<<<<<<<<",
"<<<<<<<<<<<<<<<<<<<<<<<<<<<<<<<<",
"<<<<<<<<<<<<<<<<<<<<<<<<<<<<<<<<",
"<<<<<<<<<<<<<<<<<<<<<<<<<<<<<<<<",
"<<<<<<<<<<<<<<<<<<<<<<<<<<<<<<<<"
};
