/* XPM */
static char *result[] = {
/* columns rows colors chars-per-pixel */
"32 32 46 1 ",
"  c black",
". c #301807",
"X c #2D1510",
"o c #102D1E",
"O c #4B1E00",
"+ c #630300",
"@ c #6B1300",
"# c #45231C",
"$ c #54331A",
"% c #512A22",
"& c #1A4516",
"* c #235D25",
"= c #2E6329",
"- c #852404",
"; c #8F3302",
": c #993511",
"> c #935700",
", c #A64417",
"< c #BD5D20",
"1 c #C64E0F",
"2 c #D07519",
"3 c #CF6527",
"4 c #E17A2A",
"5 c #845F44",
"6 c #47874A",
"7 c #7AA554",
"8 c #F79B1E",
"9 c #DDA326",
"0 c #AE8A5A",
"q c #ED894F",
"w c #C39D66",
"e c #FFC94C",
"r c #F3C65F",
"t c #FFD258",
"y c #E1C07D",
"u c #D5B282",
"i c #E7CC94",
"p c #E7CFA3",
"a c #F9DDBB",
"s c #F9EDA0",
"d c #FAECD0",
"f c #FFFED0",
"g c #FCF3DF",
"h c #FFFBF3",
"j c white",
"k c None",
/* pixels */
"kkkkkkkkkkkkkkkkkkkkkkkkkkkkkkkk",
"kkkkkkkkkkkkkkkkkkkkkkkkkkkkkkkk",
"kkkkkkkkkkkkkkkkkkkkkkkkkkkkkkkk",
"kkkkkkkkk##kkkkkkkkk###kkkkkkkkk",
"kkkkkkkk#--#555555 #;<4# k #kkkk",
"kkkkkkk#:::Xuuuu #;<4<<29#;; kkk",
"kkkkkk#<<%XXX%%%%%%29e9e#;;;#kkk",
"kkkkk#<%%,<<4<484<,%%2##<;;%<#kk",
"kkkk$XX,<<4<<<,,<4<,##<88<%<;#kk",
"kkk5pX,<4,<488ft4<,#<882<;###kkk",
"kkk0%<<,488ft4e884#<8t8<<%ph0kkk",
"kk.p%,4ttt484884e#<8t82<<%php.kk",
"kk0%,t88tt888e4e4#8t88<<2%p&&0kk",
"k.p%t484f8e84888<#8t82<28;&7&p.k",
"k.h%<88f884<##4<@X288<288&67oh.k",
"k.h%48t8<::#2-#@:X<28<8e2o=ooo.k",
"k.h%8t84:::#--X:<:#<<2e8o*677=.k",
"k.h%8t8<::#2::X<<<#<288o**67=h.k",
"k.j%488::<#112-X:@2882< 7OOouj.k",
"k.jj%88:<#-2t882#X:<<<<O>yOujj.k",
"k.dj%48<4#:88t8882X::O>yssOdjd.k",
"kk.jj%844<#:28t82<<O>yssswOjj.kk",
"kk.djd%%<4:#@@-2<<:OssssiOpjd.kk",
"kkk5jjd0%%% #:<<+++++wiiOpjj5kkk",
"kkk.djhdphhdp%%+qr333+OOphjd.kkk",
"kkkk5dhjdpaghdp+qr333+pdjhd5kkkk",
"kkkkk.dhhhjaaaap+++++pjjjd.kkkkk",
"kkkkkk.5djjjjjjjjjjjjjjd5.kkkkkk",
"kkkkkkkk..5djjjjjjjjd5..kkkkkkkk",
"kkkkkkkkkkk..........kkkkkkkkkkk",
"kkkkkkkkkkkkkkkkkkkkkkkkkkkkkkkk",
"kkkkkkkkkkkkkkkkkkkkkkkkkkkkkkkk"
};
