/* XPM */
static char *result[] = {
/* columns rows colors chars-per-pixel */
"32 32 49 1 ",
"  c #2A190E",
". c #7E481E",
"X c #61422B",
"o c #8A3708",
"O c #A04918",
"+ c #B4751F",
"@ c #A8572C",
"# c #A2503A",
"$ c #BC602D",
"% c #B77A2B",
"& c #E46300",
"* c #DE7032",
"= c #E47832",
"- c #BD7159",
"; c #CC7B48",
": c #608400",
"> c #8BB303",
", c #DE931E",
"< c #E4993C",
"1 c #F0A52F",
"2 c #F09D5D",
"3 c #FFB943",
"4 c #FFBC52",
"5 c #CC967F",
"6 c #E69D70",
"7 c #DEAA63",
"8 c #E1B57D",
"9 c #FFC646",
"0 c #BC9A81",
"q c #E1B584",
"w c #E1B883",
"e c #E7BD88",
"r c #EAB491",
"t c #DCBCAF",
"y c #F6DD80",
"u c #F9D694",
"i c #EDCBA0",
"p c #ECCCA4",
"a c #F2CDB2",
"s c #F3D6B2",
"d c #EEE7BE",
"f c #FCE3B5",
"g c #F9F1BE",
"h c #F4E3D1",
"j c #F8F8D8",
"k c #FCF0E0",
"l c #FFF7F3",
"z c white",
"x c None",
/* pixels */
"xxxxxxxxxxxxxxxxxxxxxxxxxxxxxxxx",
"xxxxxxxxxxxxxxxxxxxxxxxxxxxxxxxx",
"xxxxxxxxxxxxxxxxxxxxxxxxxxxxxxxx",
"xxxxxxxxxxxxxxxxxxxxxxxxxxxxxxxx",
"xxxxxxxxxx%%%%%%%%%%%%xxxxxxxxxx",
"xxxxxxx%%%dzzzzzzzzzzd%%%xxxxxxx",
"xxxxx%%dzzzzzzzzzzzzzzzzd%%xxxxx",
"xxxx%dzzzdssssssss+++sdzzzd%xxxx",
"xxx%dziesssssssg+7uuu7+seizd%xxx",
"xx%dzeppszzzzzz+uff,,,u.ppezd%xx",
"xxXzwppzr=$$ooo.ff,4991u+ppwzXxx",
"x%dz0pz$qh6ha6$7ff199947.zp0zd%x",
"x%zwpz$rhrhahaol7ff4947l$$zpwz%x",
"xXz0p=rhaha6hhootl7uu7*y<*=p0zXx",
"x z0zqhhha66ao5$o$tl*22**2*z0z x",
"x z0=;6a666;otO2$oo*>>y>332=0z x",
"x j8tll;6;#olO$&2$2yy&2:$3y@8j x",
"x pdO$OtllltOoo*yy&23yy32$2@zp x",
"xx0z.$&$$Ooo*y2>>32y:>*$y*2.pXxx",
"xxXzd.-$&&Ooo2&232*>:y2*y2.z0Xxx",
"xxxXzd8.o-t&y>2&$o$2y323..zkXxxx",
"xxx dzzd8..o*232y32*&$..zkddXxxx",
"xxxxXdkzzzz8........$dzkdddXxxxx",
"xxxxxXdkkzzzzzzzzzzzzkdddd xxxxx",
"xxxxxxXkkkkzzzzzzzzzkdddd xxxxxx",
"xxxxxxxXdkkzzzzzzzzzdddd xxxxxxx",
"xxxxxxxx 8kzzzzzzzzkdd8 xxxxxxxx",
"xxxxxxxxx X8kkkkkkkd8X xxxxxxxxx",
"xxxxxxxxxxx XXXXXXXX xxxxxxxxxxx",
"xxxxxxxxxxxxxxxxxxxxxxxxxxxxxxxx",
"xxxxxxxxxxxxxxxxxxxxxxxxxxxxxxxx",
"xxxxxxxxxxxxxxxxxxxxxxxxxxxxxxxx"
};
