/* XPM */
static char *result[] = {
/* columns rows colors chars-per-pixel */
"32 32 15 1 ",
"  c #180300",
". c #480000",
"X c #720100",
"o c #783620",
"O c #717858",
"+ c #903100",
"@ c #904932",
"# c #C65A1D",
"$ c #E9793A",
"% c #B07D42",
"& c #C66F40",
"* c #78965E",
"= c #F29D70",
"- c #F8B99A",
"; c None",
/* pixels */
";;;;;;;;;;;;;;;;;;;;;;;;;;;;;;;;",
";;;;;;;;;;;;;;;;;;;;;;;;;;;;;;;;",
";;;;;;;;;;;;;;;;;;;;;;;;;;;;;;;;",
";;;;;;;;;;;;;;;;;;;;;;;;;;;;;;;;",
";;;;;;;;;;;;;;;;;;;;;;;;;;;;;;;;",
";;;;;;;;;;;;;;;;;;;;;;;;;;;;;;;;",
";;;;;;;;;;;;;;;;;;;;;;;;;;;;;;;;",
";;;;;;;;;;;;;;;;;;;;;;;;;;;;;;;;",
";;;;;;;;;;;;;;  .;;;;;;;;;;;;;;;",
";;;;;;;;;;;; .###X.;;;;;;;;;;;;;",
";;;;;;;;;;; +$#$%$$X.;;;;;;;;;;;",
";;;;;;;;;; +##%$$##$$X.;;;;;;;;;",
";;;;;;;;;;.$=$$##%$##%$X;;;;;;;;",
";;;;;;;;  ;X--=$$$#$$##$X;;;;;;;",
";;;;;;; +#XX.&=-=#$$#$$O%.;;;;;;",
";;;;;; +#$$##X.&--=#$%$$#+.;;;;;",
";;;;; +#$##$$##X.&-=$$##$#.;;;;;",
";;;;;.$=#$%*#$$$#X+-=#$$#+ ;;;;;",
";;;;;;.--=$#$$##$%$+-=O#+ ;;;;;;",
";;;;;;;@-=-=$#$$$$##.&=. ;;;;;;;",
";;;;;;;;o=-=-=$%##*$$X.;;;;;;;;;",
";;;;;;;;;X@=--=#$$$### ;;;;;;;;;",
";;;;;;;;;;;X@-==$$#$$+ ;;;;;;;;;",
";;;;;;;;;;;;;X@-=#$#+ ;;;;;;;;;;",
";;;;;;;;;;;;;;;X-=+  ;;;;;;;;;;;",
";;;;;;;;;;;;;;;;X  ;;;;;;;;;;;;;",
";;;;;;;;;;;;;;;;;;;;;;;;;;;;;;;;",
";;;;;;;;;;;;;;;;;;;;;;;;;;;;;;;;",
";;;;;;;;;;;;;;;;;;;;;;;;;;;;;;;;",
";;;;;;;;;;;;;;;;;;;;;;;;;;;;;;;;",
";;;;;;;;;;;;;;;;;;;;;;;;;;;;;;;;",
";;;;;;;;;;;;;;;;;;;;;;;;;;;;;;;;"
};
