/* XPM */
static char *result[] = {
/* columns rows colors chars-per-pixel */
"32 32 38 1 ",
"  c #180300",
". c #041E0C",
"X c #301807",
"o c #163620",
"O c #283C2E",
"+ c #480000",
"@ c #720100",
"# c #54331A",
"$ c #7E3C00",
"% c #783620",
"& c #34543E",
"* c #4C6B49",
"= c #717858",
"- c #903100",
"; c #B47018",
": c #904932",
"> c #8A6431",
", c #C65A1D",
"< c #E9793A",
"1 c #845F44",
"2 c #B07D42",
"3 c #C66F40",
"4 c #78965E",
"5 c #6D906A",
"6 c #AE8A5A",
"7 c #F29D70",
"8 c #CCA777",
"9 c #F0CD4E",
"0 c #F8B99A",
"q c #FFF19D",
"w c #E7CFA3",
"e c #F9DDBB",
"r c #FFE8CD",
"t c #FAECD0",
"y c #FCF3DF",
"u c #FFFBF3",
"i c white",
"p c None",
/* pixels */
"pppppppppppppppppppppppppppppppp",
"pppppppppppppppppppppppppppppppp",
"pppppppppppppppppppppppppppppppp",
"pppppppppppppppppppppppppppppppp",
"ppppppppppp1111111111ppppppppppp",
"pppppppp116wiiiiiiiiw611pppppppp",
"pppppp#>wiiiiiiiiiiiiiiw1#pppppp",
"ppppp#wiiiirw888888..io.iw#ppppp",
"pppp#wiiiw8888888..O5O5oiiw#pppp",
"ppp1wiiw88wey  +yO5O*5O.;$iw1ppp",
"ppp6iiw8ety +,,,@+*&*O*$i;ii6ppp",
"ppXwiw8eyt -<,<2<<@+**$qi9$iwXpp",
"pp6ii8ttt -,,2<<,,<<@+qqiq;ii6pp",
"pXwiiwttw+<7<<,,2<,,2<@iq9;iiwXp",
"pXiiwtt  8@007<<<,<<,,<@9;wwiiXp",
"pXii8t -,@@+3707,<<,<<=2+8t8iiXp",
"pXii8 -,<<,,@+3007,<2<<,-+t8iiXp",
"pXii -,<,,<<,,@+307<<,,<,+t8iiXp",
"pXii+<7,<24,<<<,@-07,<<,- twiiXp",
"pXii8+007<,<<,,<2<-07=,- 8teiiXp",
"pXtiiw:0707<,<<<<,,+37+ wtetitXp",
"ppXiiww%70707<2,,4<<@+wuutwiiXpp",
"ppXtitew@:7007,<<<,,, uutwuitXpp",
"ppp1iitwuw@:077<<,<<- uuwtii1ppp",
"pppXtiutwuuw@:07,<,- wuwtuitXppp",
"pppp1tuitweyuw@07-  wewtiut1pppp",
"pppppXtuuuieee8@  weeiiiitXppppp",
"ppppppX1tiiiiiiiiiiiiiit1Xpppppp",
"ppppppppXX1tiiiiiiiit1XXpppppppp",
"pppppppppppXXXXXXXXXXppppppppppp",
"pppppppppppppppppppppppppppppppp",
"pppppppppppppppppppppppppppppppp"
};
