/* XPM */
static char *_1_strawberrycake_dish1655581886[] = {
/* columns rows colors chars-per-pixel */
"32 32 35 1 ",
"  c None",
". c #301807",
"X c #54331A",
"o c #550336",
"O c #6D1E3B",
"+ c #840000",
"@ c #BE3835",
"# c #CD1910",
"$ c #F1342B",
"% c #A33C61",
"& c #845F44",
"* c #D75553",
"= c #F54942",
"- c #D36867",
"; c #F16962",
": c #F96C66",
"> c #E87371",
", c #F57E7B",
"< c #AE8A5A",
"1 c #CCA777",
"2 c #FFA076",
"3 c #EC839F",
"4 c #EC9BB6",
"5 c #F99BB4",
"6 c #E7CFA3",
"7 c #F9DDBB",
"8 c #FFACC3",
"9 c #FDCDDE",
"0 c #FAECD0",
"q c #FCF3DF",
"w c #FDD9E5",
"e c #FDF5E4",
"r c #FDF0F4",
"t c #FFFBF3",
"y c white",
/* pixels */
"                                ",
"                                ",
"             oooo               ",
"         OOOo#==#oOOO           ",
"       OO9yo#=:==#oy9O          ",
"      O9yyyo$==2==+yy9O&        ",
"     Oyyyyy+$$$==$+yyyO6&X      ",
"     Oyyyyy9+#$$$;+yw9%yy6X     ",
"    XO9ryyw9r9++++4wyy%6yy6X    ",
"   &6yOrrwyyyyyywwyyyy%16yy6&   ",
"   <yyO9wrrryyrwyyyyyr%761yy<   ",
"  .6y6%999rrrwyyyyywry%q661y6.  ",
"  <yy1%99@-9wrrryywyyy%0001yy<  ",
" .6yy60%r58,-9rrrwyyyr%e006yy6. ",
" .yy600%r5838>-9wrrrrrOte006yy. ",
" .yy10e%9@>5835>-9rrr9Otte01yy. ",
" .yy10tO958*>8858>>**>Ottt01yy. ",
" .yy10t6O9*58*>5855853Ottt01yy. ",
" .yy10tt6OO*>38*>8385*Ottt06yy. ",
" .yy60ttt06OO*>88*>>*5Ottt07yy. ",
" .0yy7ttttt06OO*>8583*Ott070y0. ",
"  .yy60tttttt06OO**>*O6tt06yy.  ",
"  .0y070ttttttt06OOOO6tt06ty0.  ",
"   &yy06tttttttttttttttt60yy&   ",
"   .0yt06tttttttttttttt60ty0.   ",
"    &0ty067qttttttttq760yt0&    ",
"     .0ttty7777777777yyyy0.     ",
"      .&0yyyyyyyyyyyyyy0&.      ",
"        ..&0yyyyyyyy0&..        ",
"           ..........           ",
"                                ",
"                                "
};
