/* XPM */
static char *_2_sandwich1655581886[] = {
/* columns rows colors chars-per-pixel */
"32 32 58 1 ",
"  c None",
". c #3F1D02",
"X c gray18",
"o c #1E601E",
"O c #277B22",
"+ c #8F2424",
"@ c #802C23",
"# c #B43232",
"$ c #9B4426",
"% c #A74F2B",
"& c #CC7930",
"* c #D47131",
"= c #D66E57",
"- c #528E35",
"; c #6FC12B",
": c #9CD127",
"> c #D4E926",
", c #DD8D46",
"< c #E08B47",
"1 c #E49954",
"2 c #EA8E79",
"3 c #E8A361",
"4 c #E9A763",
"5 c #EAAC67",
"6 c #F1BE7F",
"7 c #9FEA62",
"8 c #F1BF80",
"9 c #F2C081",
"0 c #F1C182",
"q c #F2C082",
"w c #F2C183",
"e c #F3C285",
"r c #F3C487",
"t c #F3C588",
"y c #F3CA8E",
"u c #F5CB91",
"i c #F6D096",
"p c #F7D29A",
"a c #F7D39B",
"s c #F6D1A4",
"d c #F8D7A0",
"f c #F9D8A2",
"g c #F9DBA6",
"h c #F9DCA6",
"j c #FADEA9",
"k c #FAE0AB",
"l c #FBE1AF",
"z c #FBE3B1",
"x c #FCE6B4",
"c c #FDE9B9",
"v c #FDEABB",
"b c #FDEBBB",
"n c #FDEBBC",
"m c #FDECBC",
"M c #FDECBD",
"N c #FBE4C3",
"B c #FFF5DD",
"V c #FFF6DD",
/* pixels */
"                                ",
"                                ",
"                                ",
"                                ",
"                                ",
"                                ",
"            ...                 ",
"          .@3My@..              ",
"        .@yMqMM6My@..           ",
"       .y6Mcpbk6MM6ky@.         ",
"      .MMqcMrMM6MVqMMqy@.       ",
"      .yMqMlsMMaMMuMxaMMy.      ",
"      .553McqMVfMbtMxgBMM*.     ",
"      +@5,5y6MMqMhNclqbMy*.     ",
"      #=@%55<yjeMbiMM6y,,*.     ",
"     O;#2=@%<541yM6My*,,,@-     ",
"     O:>-#2=@%5<5y,,,*,%@#o     ",
"     @OO;-+#2=@$5y<,,%@=2#      ",
"     .&O>;;-+#==@%%@@==#+-o     ",
"     .5,O>:oo-++#=22=#+->:X     ",
"      .,&OoyMo-;-++++-;;-o      ",
"       .@,55yMo>7;o-;;:>o.      ",
"         .@5<5yooo;;;:oo.       ",
"           .@55,yo>>>o,.        ",
"             .@,5,ooo,.         ",
"               .@,,,5.          ",
"                 ....           ",
"                                ",
"                                ",
"                                ",
"                                ",
"                                "
};
