/* XPM */
static char *_3_sandwich_dish1655581886[] = {
/* columns rows colors chars-per-pixel */
"32 32 81 1 ",
"  c None",
". c #301807",
"X c gray18",
"o c #4E1009",
"O c #54331A",
"+ c #783418",
"@ c #1E601E",
"# c #277B22",
"$ c #403F4E",
"% c #4E4C66",
"& c #64636C",
"* c #8F2424",
"= c #802C23",
"- c #B43232",
"; c #AF581F",
": c #9B4426",
"> c #A74F2B",
", c #CC7930",
"< c #D47131",
"1 c #845F44",
"2 c #D66E57",
"3 c #528E35",
"4 c #6FC12B",
"5 c #9CD127",
"6 c #D4E926",
"7 c #AE8A5A",
"8 c #90867E",
"9 c #CD8340",
"0 c #DD8D46",
"q c #D89953",
"w c #E08B47",
"e c #E49954",
"r c #EA8E79",
"t c #CCA777",
"y c #E8A361",
"u c #E9A763",
"i c #EAAC67",
"p c #E6AF6C",
"a c #E9B775",
"s c #E9BD7D",
"d c #F1BE7F",
"f c #9FEA62",
"g c #BAB0A8",
"h c #F1BF80",
"j c #F2C081",
"k c #F1C182",
"l c #F2C082",
"z c #F2C183",
"x c #F3C285",
"c c #F3C487",
"v c #F3C588",
"b c #F3CA8E",
"n c #F5CB91",
"m c #F6D096",
"M c #F7D29A",
"N c #E7CFA3",
"B c #F6D1A4",
"V c #F8D7A0",
"C c #F9D8A2",
"Z c #F9DBA6",
"A c #F9DCA6",
"S c #FADEA9",
"D c #F9DDBB",
"F c #FAE0AB",
"G c #FBE1AF",
"H c #FBE3B1",
"J c #FCE6B4",
"K c #FDE9B9",
"L c #FDEABB",
"P c #FDEBBB",
"I c #FDEBBC",
"U c #FDECBC",
"Y c #FDECBD",
"T c #FBE4C3",
"R c #FAECD0",
"E c #FCF3DF",
"W c #FFF5DD",
"Q c #FFF6DD",
"! c #F6F2F0",
"~ c #FFFBF3",
"^ c white",
/* pixels */
"                                ",
"                %%              ",
"               %!%              ",
"            ooo%8%              ",
"          o+uYb&g&111           ",
"        o+bYdYY&g&++o711        ",
"      OobdIPMPF$g&dGb+oN1O      ",
"     O>YPlPIcIY;8$lYYdb+oNO     ",
"    ON=bYlYGBYYpa9nIHVYYboNO    ",
"   1N^=iiyYPdYQCYYvIJZQYY<oN1   ",
"   7^^*=iwibdYYlYATPSxYYb<=^7   ",
"  .N^N-2=>iiwbSxYPmIYdb00<=^N.  ",
"  7^^#4-r2=>wiuebYdYb<000=3^^7  ",
" .N^^#563-r2=>iwib000<0>=-@^^N. ",
" .^^N=##43*-r2=:ibw00>=2r-RN^^. ",
" .^^t>,#6443*-22=>>==22-*3@t^^. ",
" .^^t=i0#65@@3**-2rr2-*365Xt^^. ",
" .^^tN=0,#@bY@343****3443@Nt^^. ",
" .^^tRN=>0iibY@6f4@34456@=RN^^. ",
" .^^NR~RN=>iwib@@@4445@@=NRD^^. ",
" .R^^D~~~RN=:ii0b@666@0=NRDR^R. ",
"  .^^NR~~~~RN=>0i0@@@0=N~RN^^.  ",
"  .R^RDR~s~~~RN=>000i=NRRN~^R.  ",
"   1^^RN~~~~~s~RN=>==NR~NR^^1   ",
"   .R^~RN~~~~~~q~~~~~~~NR~^R.   ",
"    1R~^RNDE~~~~~~~~EDNR^~R1    ",
"     .R~~~^DDDDDDDDDD^^^^R.     ",
"      .1R^^^^^^^^^^^^^^R1.      ",
"        ..1R^^^^^^^^R1..        ",
"           ..........           ",
"                                ",
"                                "
};
