/* XPM */
static char *_4_spaghetti1655581886[] = {
/* columns rows colors chars-per-pixel */
"32 32 32 1 ",
"  c None",
". c #301807",
"X c #4E0000",
"o c #660100",
"O c #661600",
"+ c #7E1600",
"@ c #54331A",
"# c #685D0C",
"$ c #8F2308",
"% c #903600",
"& c #A5310A",
"* c #B43B0B",
"= c #9C4D0D",
"- c #8A6431",
"; c #C66314",
": c #C67D19",
"> c #D25B2B",
", c #845F44",
"< c #9C8E1F",
"1 c #968C3D",
"2 c #E49E3F",
"3 c #AE8A5A",
"4 c #F68D4D",
"5 c #CCA777",
"6 c #FFD57F",
"7 c #E7CFA3",
"8 c #F9DDBB",
"9 c #FFE8CD",
"0 c #FAECD0",
"q c #FCF3DF",
"w c #FFFBF3",
"e c white",
/* pixels */
"                                ",
"                                ",
"                                ",
"                                ",
"           ,,,,,,,,,,           ",
"        ,,37eeeeeeee73,,        ",
"      @-7eeeeeeXXXXeeee7,@      ",
"     @7eeee9XX+**&&+Xeeee7@     ",
"    @7eee==+**11$***&XX7ee7@    ",
"   ,7ee7=2+&&*&1#$#1$&*X7ee7,   ",
"   3ee7=2+&*>*&*$#$****&X5ee3   ",
"  .7e7=2X&*<*&$&**#***&$X75e7.  ",
"  3ee5=;*$$&*********#**o=5ee3  ",
" .7ee=2X&&*>**#**>4>**&*+=7ee7. ",
" .ee7=6$*>&*&#**>*&**4*&X6=7ee. ",
" .ee5O2;+&$&*>4&$&**>&$+62=5ee. ",
" .ee5:66o$&#<*&&&*#*&$$o;6:5ee. ",
" .ee5=626;$$&*$&$&$$$$o666=5ee. ",
" .ee57:6;6X$$$$$+$$$+o;22;O7ee. ",
" .ee70=626;o***o;2o+;6;6;O58ee. ",
" .0ee87:%126o++2662626262=80e0. ",
"  .ee707=2626;6;;262#22;=07ee.  ",
"  .0e0807=26#262662666=O07we0.  ",
"   ,ee07w7=:662622O:=:7w70ee,   ",
"   .0ew07w87:==:==78qww70we0.   ",
"    ,0we078qwwwwwwwwq870ew0,    ",
"     .0wwwe8888888888eeee0.     ",
"      .,0eeeeeeeeeeeeee0,.      ",
"        ..,0eeeeeeee0,..        ",
"           ..........           ",
"                                ",
"                                "
};
