/* XPM */
static char *_5_steak1655581887[] = {
/* columns rows colors chars-per-pixel */
"32 32 11 1 ",
"  c None",
". c #240300",
"X c #452308",
"o c #522C0F",
"O c #673917",
"+ c #794925",
"@ c #85532E",
"# c #925C33",
"$ c #9D6031",
"% c #AB6833",
"& c #CE854C",
/* pixels */
"                                ",
"                                ",
"                                ",
"                                ",
"                                ",
"                                ",
"                                ",
"                                ",
"                                ",
"         ............           ",
"       ..@@@O+@@O$@+@X..        ",
"      .@O$@#X$##@O$#%#O@..      ",
"     .@+@O@+@O@@+#X$@@+X@O.     ",
"     .#$#O$#@X$##+@X&%##X%.     ",
"     .++@+O@@@X@@@+#X@+@%o.     ",
"     .#@#$X$#%O&####O&%Ooo.     ",
"     .%@@++X+@@O$@@%@OXOOo.     ",
"     .O%%@@O@@++X%&O@OX@O.      ",
"     .OoOO%&%&&%OoOO@O...       ",
"      .oOoXXo@oOoOOo..          ",
"      .oOXXoO@oOXOO.            ",
"       .oXXOO@oOXo.             ",
"        ..XOO@oX..              ",
"          ......                ",
"                                ",
"                                ",
"                                ",
"                                ",
"                                ",
"                                ",
"                                ",
"                                "
};
