/* XPM */
static char *_7_sushi1655581887[] = {
/* columns rows colors chars-per-pixel */
"32 32 29 1 ",
"  c None",
". c #540000",
"X c #7B0000",
"o c #992700",
"O c #840E20",
"+ c #A8322A",
"@ c #B03E36",
"# c #964D15",
"$ c #C94E1D",
"% c #DB6426",
"& c #BC4840",
"* c #CC5850",
"= c #DE6E66",
"- c #EA893E",
"; c #FF865B",
": c #F69A53",
"> c #F6A765",
", c #FFCF52",
"< c #FF9E85",
"1 c #E4AF83",
"2 c #F5C39D",
"3 c #F9C498",
"4 c #E7CFA3",
"5 c #FFCDA3",
"6 c #FBCCA7",
"7 c #FBD2B1",
"8 c #FFF5AC",
"9 c #F6E0B8",
"0 c white",
/* pixels */
"                                ",
"                                ",
"                                ",
"                                ",
"                                ",
"                                ",
"                                ",
"                                ",
"           OOOOO                ",
"         OO***==OO              ",
"        O**==*****O             ",
"       .**=***OOO+;O            ",
"       .*;*=*O109XXXXoX         ",
"      O=;*=*O109X-:>37>oX       ",
"      .*5=*+.09X373>,:3:>X      ",
"      .&;*&.90o-:>>3::-6%X      ",
"      .+@++.11%:>>8:3%oXX       ",
"      O@+@+.0X77>,>-%o91#       ",
"      .+@+.91X%-37-%o909#       ",
"      O*<&.9#o---%2o091#        ",
"      O*&.##4%22%%o990#         ",
"       O.   X:--2%o10#          ",
"            X>,>%o9##           ",
"            o>>$o##             ",
"             $$                 ",
"                                ",
"                                ",
"                                ",
"                                ",
"                                ",
"                                ",
"                                "
};
