/* XPM */
static char *_8_sushi_dish1655581887[] = {
/* columns rows colors chars-per-pixel */
"32 32 40 1 ",
"  c None",
". c #301807",
"X c #540000",
"o c #7B0000",
"O c #54331A",
"+ c #992700",
"@ c #840E20",
"# c #A8322A",
"$ c #B03E36",
"% c #964D15",
"& c #8A6431",
"* c #C94E1D",
"= c #DB6426",
"- c #845F44",
"; c #BC4840",
": c #CC5850",
"> c #DE6E66",
", c #EA893E",
"< c #AE8A5A",
"1 c #FF865B",
"2 c #F69A53",
"3 c #CCA777",
"4 c #F6A765",
"5 c #FFCF52",
"6 c #FF9E85",
"7 c #E4AF83",
"8 c #F5C39D",
"9 c #F9C498",
"0 c #E7CFA3",
"q c #FFCDA3",
"w c #FBCCA7",
"e c #FBD2B1",
"r c #F9DDBB",
"t c #FFF5AC",
"y c #F6E0B8",
"u c #FFE8CD",
"i c #FAECD0",
"p c #FCF3DF",
"a c #FFFBF3",
"s c white",
/* pixels */
"                                ",
"                                ",
"                                ",
"                                ",
"           ----------           ",
"        --<0ssssssss0<--        ",
"      O&0ssssssssssssss0-O      ",
"     O0ssssu@@@@@330ussss0O     ",
"    O0sss0@@:::>>@@33330ss0O    ",
"   -0ss03@::>>:::::@r0330ss0-   ",
"   <ss03X::>:::@@@#1@pir03ss<   ",
"  .0s03X#:1:>:@7syoooo+o003s0.  ",
"  <ss3iX>1:>:@7syo,249e4+o3ss<  ",
" .0ss0X;:q>:#Xsyo9e9452924oss0. ",
" .ss0iX#;1:;Xys+,244922,w=o0ss. ",
" .ss3iX##$##X77=244t29=+oo33ss. ",
" .ss3iX#$#$#Xsoee454,=+y7%03ss. ",
" .ss3iaX#$#Xy7o=,9e,=+ysy%i3ss. ",
" .ss3ia@:6;Xy%+,,,=8+sy7%0i0ss. ",
" .ss0ia@:;X%%0=88==+yys%0airss. ",
" .issraa@X000o2,,8=+7s%0airisi. ",
"  .ss0iaaaai0o454=+y%%0aai0ss.  ",
"  .isiriaaaai+44*+%%0aaai0asi.  ",
"   -ssi0aaaaa0**00iaaaaa0iss-   ",
"   .isai0aaaaaaaaaaaaaa0iasi.   ",
"    -iasi0rpaaaaaaaapr0isai-    ",
"     .iaaasrrrrrrrrrrssssi.     ",
"      .-issssssssssssssi-.      ",
"        ..-issssssssi-..        ",
"           ..........           ",
"                                ",
"                                "
};
