/* XPM */
static char *_9_taco1655581887[] = {
/* columns rows colors chars-per-pixel */
"32 32 28 1 ",
"  c None",
". c #7D1308",
"X c #5F2B0A",
"o c #722408",
"O c #9F1908",
"+ c #943308",
"@ c #8F381B",
"# c #B13908",
"$ c #D03219",
"% c #AE4B0D",
"& c #A4461C",
"* c #B66408",
"= c #D57A16",
"- c #E7463E",
"; c #D16B2A",
": c #F6615A",
"> c #EE8F19",
", c #E39A3D",
"< c #EDAD30",
"1 c #F4C13E",
"2 c #FEA940",
"3 c #88D856",
"4 c #BCE774",
"5 c #FFE577",
"6 c #FFBE94",
"7 c #DAF680",
"8 c #FFE580",
"9 c #F6FFD8",
/* pixels */
"                                ",
"                                ",
"                                ",
"                                ",
"                                ",
"                                ",
"                                ",
"                                ",
"             oooooo             ",
"           o*888888*o           ",
"          o81>OO$$-18o          ",
"         o1>O$:6:74:$8o         ",
"       o...O-:2-9422318o        ",
"      o=<18=.472499473>8o       ",
"     o1<11118=.95777493>*       ",
"     o=11<11118.39947X938o      ",
"      o=11111<18.%7X47%X1*      ",
"       o=1<1111<#%+;7;+%@*      ",
"        o&111<118.;+%+,;X*      ",
"          o&11111#%;,+%%X*      ",
"            o&11<8.%;%;X8o      ",
"              o&118.XXX8o       ",
"                oo&>>18o        ",
"                   oooo         ",
"                                ",
"                                ",
"                                ",
"                                ",
"                                ",
"                                ",
"                                ",
"                                "
};
