/* XPM */
static char *dbe1c44a77b540c1a5ea6ff38b4ba0aa29YSoNIOT0UwnSqr[] = {
/* columns rows colors chars-per-pixel */
"50 47 242 2 ",
"   c None",
".  c #080000",
"X  c #2A0000",
"o  c #2F1404",
"O  c #3D2614",
"+  c #470D00",
"@  c #631E00",
"#  c #482C06",
"$  c #572A00",
"%  c #4A3205",
"&  c #5B3200",
"*  c #5E3C01",
"=  c #553607",
"-  c #462C14",
";  c #4D3818",
":  c #563B14",
">  c #652B00",
",  c #633D00",
"<  c #673902",
"1  c #763B00",
"2  c #4E3924",
"3  c #594207",
"4  c #5D411B",
"5  c #5E4411",
"6  c #6C4400",
"7  c #6B4A0E",
"8  c #664606",
"9  c #724300",
"0  c #764C05",
"q  c #755300",
"w  c #7B5506",
"e  c #6E4B16",
"r  c #6C4B1A",
"t  c #664617",
"y  c #734D14",
"u  c #734C1B",
"i  c #714716",
"p  c #755515",
"a  c #76531C",
"s  c #7B541C",
"d  c #7B5B1C",
"f  c #795916",
"g  c #7E6300",
"h  c #574936",
"j  c #564126",
"k  c #6C4C24",
"l  c #684C2A",
"z  c #744C23",
"x  c #755224",
"c  c #7A5522",
"v  c #7D5A23",
"b  c #7C5A2C",
"n  c #755429",
"m  c #6B5335",
"M  c #735533",
"N  c #7A5B35",
"B  c #755B3C",
"V  c #7A5D3A",
"C  c #745736",
"Z  c #664E2F",
"A  c #7D613E",
"S  c #7F6120",
"D  c #6A5B47",
"F  c #785F42",
"G  c #7A6347",
"H  c #736556",
"J  c #832400",
"K  c #8E3200",
"L  c #A53C00",
"P  c #C53D00",
"I  c #825C15",
"U  c #83591E",
"Y  c #85581B",
"T  c #935A1D",
"R  c #8A5307",
"E  c #AA5200",
"W  c #B85900",
"Q  c #B4500B",
"!  c #8B6901",
"~  c #936A02",
"^  c #987501",
"/  c #89641B",
"(  c #97631B",
")  c #937317",
"_  c #A66902",
"`  c #B57805",
"'  c #A9681A",
"]  c #A57817",
"[  c #B07510",
"{  c #835B23",
"}  c #8B5D23",
"|  c #825D2C",
" . c #855928",
".. c #8B5C2B",
"X. c #86622C",
"o. c #8C6329",
"O. c #866626",
"+. c #92662A",
"@. c #976727",
"#. c #8E722B",
"$. c #977628",
"%. c #83653B",
"&. c #8B6737",
"*. c #946C32",
"=. c #9A6D33",
"-. c #916D3B",
";. c #946635",
":. c #9C733B",
">. c #9B7739",
",. c #8E7239",
"<. c #A66C27",
"1. c #AA7527",
"2. c #A77837",
"3. c #BA7736",
"4. c #B66F29",
"5. c #B95C26",
"6. c #C95800",
"7. c #CF590B",
"8. c #D46301",
"9. c #C66817",
"0. c #D56913",
"q. c #C87212",
"w. c #E37E19",
"e. c #D27324",
"r. c #E37F31",
"t. c #805F40",
"y. c #82694A",
"u. c #856945",
"i. c #987849",
"p. c #826D53",
"a. c #8C765D",
"s. c #957958",
"d. c #8F7146",
"f. c #A57E44",
"g. c #AB7E43",
"h. c #A37C4D",
"j. c #A67B55",
"k. c #B37B45",
"l. c #877865",
"z. c #D17D40",
"x. c #A78100",
"c. c #AD861B",
"v. c #9E8238",
"b. c #B5862A",
"n. c #A7873A",
"m. c #B8853A",
"M. c #AE882A",
"N. c #E78E0A",
"B. c #D08A35",
"V. c #E38A36",
"C. c #F0982E",
"Z. c #EFB032",
"A. c #9D8759",
"S. c #AB8243",
"D. c #AC854C",
"F. c #A78748",
"G. c #B38C4D",
"H. c #B78845",
"J. c #B8964A",
"K. c #AA875A",
"L. c #B48D53",
"P. c #B68E58",
"I. c #AF9559",
"U. c #BC955B",
"Y. c #B69656",
"T. c #AE9142",
"R. c #BCA058",
"E. c #B9986A",
"W. c #B4956A",
"Q. c #BDA569",
"!. c #BDA776",
"~. c #C68945",
"^. c #C8944B",
"/. c #C28E53",
"(. c #C59C5A",
"). c #C69955",
"_. c #DA9644",
"`. c #E99B4D",
"'. c #C9A55B",
"]. c #D6A159",
"[. c #C49C62",
"{. c #C7987D",
"}. c #CCA364",
"|. c #C6A46C",
" X c #C9A868",
".X c #D6A965",
"XX c #DBB36C",
"oX c #CBAB73",
"OX c #C8AB77",
"+X c #D3AE74",
"@X c #CBB579",
"#X c #D5B47B",
"$X c #DBBB7C",
"%X c #D6B775",
"&X c #CFB669",
"*X c #E6AF63",
"=X c #E9B568",
"-X c #E8BD73",
";X c #F6BB6B",
":X c #DDC37D",
">X c #EAC47A",
",X c #F5C774",
"<X c #BAA98B",
"1X c #CBB788",
"2X c #DBBC84",
"3X c #D8BD86",
"4X c #D0B390",
"5X c #E0BE83",
"6X c #C7BAA3",
"7X c #DAC689",
"8X c #D8C695",
"9X c #CEC18F",
"0X c #E3CC8C",
"qX c #E5C687",
"wX c #F2CE87",
"eX c #F6D78D",
"rX c #E1CD93",
"tX c #E4CA94",
"yX c #E7D499",
"uX c #F4D897",
"iX c #E9D08D",
"pX c #F8E19C",
"aX c #DCCBA7",
"sX c #D8CEB1",
"dX c #E3D3A9",
"fX c #ECDBAC",
"gX c #E8D8A6",
"hX c #E7D8B7",
"jX c #F5E4A9",
"kX c #EEE1B8",
"lX c #FBEEBB",
"zX c #F5E8B8",
"xX c #E8DEC6",
"cX c #EDE6C7",
"vX c #F5EAC4",
"bX c #F5ECCB",
"nX c #F7EAC3",
"mX c #FDF3C6",
"MX c #F4EED5",
"NX c #F1EFDC",
"BX c #FBF2D4",
"VX c #EDE9D3",
/* pixels */
"                        9XxXxXhXcXcXvX                                                              ",
"                  w <XBXBXhXyX7X#X7XyXfXzXbXcX                                                      ",
"                #.hXNX4XR.M.m.m.^ R q ! J.yXjXzXzXcX                                                ",
"            H f 4XNXH.6.8.8.e.`.0.V.~.3.[ c.` c.'.:XyXhX                                            ",
"          l.G I.cX{.P 5.4.L ^.XX9.*XeX;X8.0.' ~ ! ^ x.'.8XzX                                        ",
"        l.a.,.aXhXQ z i ~.oX2.+X-Xm.G.+.K _.;X`._.c.S v.J.@XaX                                      ",
"        a.A F.dX4X5.-./.].}.*X].(.*.f S.}.}.qX.X8.N.q.R S I.J.@XzX                                  ",
"      a.G n I.dXE.3.]./.H.2.H.o.{ x p XX*X,XeXqXW.E =X,X` S #.! I.aX                                ",
"    j.}.A % T.gXE.h.i.h.;.2.d.,.X.} <.m.m.^.*XwXwX5X:XL.6.C.] S g ^ 8XBX                            ",
"    K.U.Z X I.fXW.H G G G B %.&.=.2.=.x s b.] o./.uXwX7XW.L N.[ p $.^ rXBX                          ",
"  u.K.u.; . I.lX4X              V V N ..s Y <.<.).L.(.eXeXqX3.6.q.) I.M.&XmX                        ",
"  G s.u.- X &.lXaX                    C | T T @.( ( 4..X}.pXiX{.W N.M.A ~ '.zX                      ",
"  G i.V 5 o 6 yXkX                        C n Y @.<.1.9 - U.eXuX7X9.Z.c.v ^ :XnX                    ",
"D F -.i.r - $ @XbX                            B b T T <.m.~.-X>XpX0X*XZ.1.3 Q.jXbX                  ",
"D m f.G.r r o v.lXkX                              N +.@.3.m.m.G.XXqXpXwXC._ % @XlXBX                ",
"h m H.y % e - , @XnX                                  n f y e $ v $X:XyXB.V.] ; Q.lXbX              ",
"h Z g.&.=.O.: : v.zXkX                                  N } T =.=.m.-XuXqX.X,X' X Y.lXVX            ",
"m t 2.L.k.O.7 , { 7XzX                                    V } ( 1.g...[.qXqXR w.' # 7XlX            ",
"m g.#X2XU.n.o.a $ Q.jXkX                                      x 7 8 y y +X-X0X~.C.@.a rXfX          ",
"2 l ..#XOX& o.S e v yXjX                                        c Y y 2.%XX.$X@X/.eX0 u.pXvX        ",
"2 2 & S.5X-.* p O.& I.jXfX                                        n f s m.].'.oXL.B.9.& F.mX        ",
"  2 k x +XoXT >.d v 8 @XlXdX                                        b s U H.&.S.>X+Xr.<.+ 4XBX      ",
"  2 k 7 f.oXU.).a O.r q 7XlXaX                                        v a y $ i.uXOX5.0.6 A.mXMX    ",
"  j z | < oX#Xx q d O.* v.gXzXaX                                      B x s c < i.k > 9.[ 6 &XbX    ",
"    l +.G.$X2XOXu d d d & Q.fXkX                                        B s c r X g.L.~.V.R / mX    ",
"    M c &.&.G.qXW.< v d t 3 :XgXgX                                        b T o.i.qX-X^.V.q.l dXNX  ",
"    D  .} Y D.$X7Xj.6 O.d # 3 oX$XyX                                         .2.(. XwX|.@ e.@.n.hX  ",
"      B T 2./.|.2XtXY f / p o 6 1.J.yXsX                                    m = $ 1 =X-X> 8.[ $.fX  ",
"        N { =.S.U.#X2X| w d = t / ~ M.yXaX                                    2 : i (.>Xf.V.9.F.8XNX",
"        B n x y f L.2X[.X.8 & 8 t d #.T.7XdX                                  Z : 4 =.-XP.e.8.n.3XxX",
"          C v b U u U.tX!.-.i.s + 6 #.I.n.I.9X                                  z n D.-XQ.J 8.2.<XcX",
"            b v c s { D.tX5X2.|.+Xz 0 $.T.~ $.1XfX                              l 2.J..X|.> 7._ <XxX",
"            B c c x u 0 U.2X1Xh.uXA., p 0 / $.g Y.8X                            u...i.=X'.T 7._ sXsX",
"              B c { } U +.[.5X2X..6 S v a 8 8 #.#.$.#XgX                          -.D.XXD.3.9.=.cX<X",
"                M U { +.2.S. X}.2XK.6 v d p ; 5 / v.I.R.9XfX                      h B /.N 5.E sXcX  ",
"                  M s y a f < U.oX#X!.> a O.q t 3 3 ,.W.T.'.rXkXvX                a.P.k.E W 6XbXA.  ",
"                    N { { } X.R n.).$X#X:.2X|.< 3 % $ 8 #.T.^ R.yXzXbXhX          K.k.j.4XhXhXW.2   ",
"                      N c U +.=.2.=.K.}.2X|.>.0 -.+.0 i 7 w / ) x.Y.iXlXBXbXxXhXdXsXhXhXdX8Xv.j     ",
"                        N b a a a y y D.+XH.|.$Xg.+XqX2.9 1 0 f $.^ ^ b.%X0X:X@X@XOXQ.J.I.i.G D     ",
"                          A b c { { 9 D.oX< U.#XP.g.XX( 2.I.+.0 = 5 : , R ] x.w q q q e r G l.      ",
"                              N  .s s w =.2.'.G.D.%X|.+X(..XtX-X9 t 7 : t 7 s : r : O - B l.        ",
"                                V | v s s } @.R S.}.G.%X(.@.P.D., q 2.2.*.2.*.U u o : d.s.          ",
"                                    N X.o.Y T =.@.@.o.( m.B.] Y *.f.H.(.f.,.| 3.-.| j.P.            ",
"                                        N b c y i i e r ( m.b.(.'.^.]..X}.J.J./.J.[.P.              ",
"                                            V M N b x x k x } =.:.X.=.f.f.U.L.K.s.                  ",
"                                                G %.%.%.-.-.-.%.N u.d.i.j.s.p.                      ",
"                                                        G G y.y.y.y.y.p.                            "
};
