/* XPM */
static char *_001c865fa0149c4f9d75730438b6a990NpZFmdGMzdb0lMm[] = {
/* columns rows colors chars-per-pixel */
"384 48 4 1 ",
"  c None",
". c #281B10",
"X c #46301E",
"o c #734F31",
/* pixels */
"                                                                                                                                                                                                                                                                                                                                                                                                ",
"                                                                                                                                                                                                                                                                                                                       ..                                                           o           ",
"                                                                                                                                                                                                                                                                                                                       ...       ooo                                                 o          ",
"                                                                                                                                                                                                                                                                                                                       .            o                                                           ",
"                                                                                                                                                                                                                                                                                                                                                         .                                      ",
"                                                                                                                                                                                                                                                                       ..                                 .                          o                                                          ",
"                                                                                                                                                                                                                                                                       ...      oo                        ..                                                                                    ",
"                                                                                                                                                                                                                                                                       ...      ooo                       .                                                                                     ",
"                                                                                                                                                                                                                                                            .          ..        XXo                                            .                                                               ",
"                                                                                                                                                                                                                              oo                            ..                    XX                                                                                                            ",
"                                                                                                                                                                                                                       ..    oooo                           ...                    X                                                                          .                                 ",
"                                                                                                                                                                                                               .       ...   XXXXo                          ..                ..                              ....                                            .                                 ",
"                                                                                                                                                                                                               ..      ...     XXX                          .                  .                               ..                     .                                                         ",
"                                                                                                                                                                       .                                       ....    ....     XX                              ...                                                      ..            .                                                        ",
"                                                                                                                                                                 .    ..                                       ....    ....      X                             ...                  .                                                    .                                                      ",
"                                                                                                                                                                 ..   ...                                      ...     ...      .                              ...       ..      .  ..                                                    .                                                .    ",
"                       ooooo                                      ooooooo                                               oooooo                                   .... ...ooo .                               o  .      .     .  ..                             .         ...    .   ...                                                   .                                                .    ",
"                    oooooooooo                                    ooooooooo                                           oooooooXX                                  .........oo..                             oooX             .  ....                    oo                . ..   .    ...                                                                                                        ",
"                  oooooXXXXXXXo                                  oooo XXXXXoooo                                      ooooooooXXX                                 .........X....                            ooXX            ..  .....                   oo                  ..        .            o                                                                                             ",
"                 ooooXXXXXXXXXXX                                 oo    XXXoooooo                                XX  ooooooooXXXX                                 o................                        ooXX             .   ...                    ooX                                         o                                                                                             ",
"                oooo    XXXXXXXX                                        Xooooooo                                 XXooooooooXXXXX                                oo...............                         ooX .                                       ooX                                        ..                                                                                             ",
"                oo      XXXXXXXX                                        oooooooo                                  XoooooooXXXXXX                             ...................                        X.......    ..                              X....                                         .   .                                          .                                              ",
"                o        XXXXXXX                                        oooooooo                                  ooooooooXXXXXX                              ................XX                        X ......    ..             XX               X ....                                        ..                                             .                                              ",
"                          oooooX                                       ooooooooo                                 ooooooo   XXX                                 ..................                          .....     .          .....                  ...       .                                  .          ..                                                                               ",
"                X         oooooo                                       ooooooooo                                 oooooooXX                                      X.................                              X    ...        ......                                                XX                                                 XX                                                     ",
"                XX       ooooooo                                X     oooooooooX                                 ooooooXXXX                                     X.............oo                                      ..        ...o                                                 ...                                                 ..                                                     ",
"                 X      oooooooo                                XX    ooooooooXX                                 oooooXXXXXX ooo                                 ............ooo                                   .                                                         ..     .....                                                ...                                                .   ",
"                 XX     oooooooo                                oXXooooooooooXXX                                ooooo XXXXXXXooo                              ...............ooo                                 ...     .                                       .           ..     ..o                        ..                        o                                                      ",
"                  XX   oooooooo                                 ooooooooooooXXX                                 ooo    XXXXXoooo                             .................o                                .....   .  .   .                                  ..          ..                                ...             .                                                                ",
"                  XXXXoooooooo                                   ooooooooooXXXX                                 oo      oXXooooo                                .........oo...                                .......  .     ..o                                 ...                                           ...            ..                                                                ",
"                   oooooooooo                                     oooooooXXXX                                   o        ooooooo                               .........oooo..                              ............   .....                                  ...                                          ....                                                                             ",
"                    ooooooo                                         ooo                                                   ooooo                                ..   oo..ooo                                 ........ o..     ...                                                                                 ...                                                                            ",
"                                                                                                                                                                                                             .......oooX      .                                                .o                                                                                                               ",
"                                                                                                                                                                                                              ....  oooXXX                                ..                  ...                                                                                                               ",
"                                                                                                                                                                                                                    oooooXX                              ....                 ...                                                .                                                              ",
"                                                                                                                                                                                                                    oooooo                             .......                 .                                                 .                                                              ",
"                                                                                                                                                                                                                      ooo                              .......     oo                                                          ...                                                .             ",
"                                                                                                                                                                                                                                                        ......     ooo                              ..                          .                                                 .             ",
"                                                                                                                                                                                                                                                         ....      ooooo                            ..                                                                          .               ",
"                                                                                                                                                                                                                                                                   oooooo                            ..                                                                                         ",
"                                                                                                                                                                                                                                                                     ooo                              .           ooo                                                                           ",
"                                                                                                                                                                                                                                                                                                      .           oooo                               .                                          ",
"                                                                                                                                                                                                                                                                                                                  oooo                               .            o                             ",
"                                                                                                                                                                                                                                                                                                                    oo                                                                          ",
"                                                                                                                                                                                                                                                                                                                                                                    oo                          ",
"                                                                                                                                                                                                                                                                                                                                                                                                ",
"                                                                                                                                                                                                                                                                                                                                                                                                ",
"                                                                                                                                                                                                                                                                                                                                                                                                "
};
