<svg class="default-file" x="0px" y="0px" viewBox="0 0 58.707 58.707" style="enable-background:new 0 0 58.707 58.707;" xml:space="preserve">
<g>
	<g>
		<polygon style="fill:#EFEBDE;" points="46.072,14 32.072,0 1.072,0 1.072,58 46.072,58 		"/>
		<g>
			<path style="fill:#D5D0BB;" d="M11.072,23h25c0.552,0,1-0.447,1-1s-0.448-1-1-1h-25c-0.552,0-1,0.447-1,1S10.52,23,11.072,23z"/>
			<path style="fill:#D5D0BB;" d="M11.072,15h10c0.552,0,1-0.447,1-1s-0.448-1-1-1h-10c-0.552,0-1,0.447-1,1S10.52,15,11.072,15z"/>
			<path style="fill:#D5D0BB;" d="M36.072,29h-25c-0.552,0-1,0.447-1,1s0.448,1,1,1h25c0.552,0,1-0.447,1-1S36.624,29,36.072,29z"/>
			<path style="fill:#D5D0BB;" d="M36.072,37h-25c-0.552,0-1,0.447-1,1s0.448,1,1,1h25c0.552,0,1-0.447,1-1S36.624,37,36.072,37z"/>
			<path style="fill:#D5D0BB;" d="M36.072,45h-25c-0.552,0-1,0.447-1,1s0.448,1,1,1h25c0.552,0,1-0.447,1-1S36.624,45,36.072,45z"/>
		</g>
		<polygon style="fill:#D5D0BB;" points="32.072,0 32.072,14 46.072,14 		"/>
	</g>
	<g class="pencil">
		<polygon style="fill:#EDDCC7;" points="36.201,49.214 36.194,49.222 34.205,56.511 38.852,51.865 		"/>
		<path style="fill:#D75A4A;" d="M55.451,35.266l-1.247-1.247c-0.775-0.775-2.032-0.775-2.807,0L47.815,37.6l2.651,2.651
			L55.451,35.266z"/>
		
			<rect x="41.459" y="36.521" transform="matrix(0.7071 0.7071 -0.7071 0.7071 44.3228 -17.5395)" style="fill:#F29C21;" width="3.749" height="16.424"/>
		<polygon style="fill:#D6C4B1;" points="41.85,54.879 41.858,54.871 38.852,51.865 34.205,56.511 34.072,57 		"/>
		<path style="fill:#A34740;" d="M53.472,43.257l3.582-3.582c0.775-0.775,0.775-2.032,0-2.807l-1.602-1.602l-4.985,4.985
			L53.472,43.257z"/>
		
			<rect x="44.036" y="39.349" transform="matrix(-0.7071 -0.7071 0.7071 -0.7071 45.1717 113.8333)" style="fill:#E18C25;" width="4.251" height="16.424"/>
		<path style="fill:#5E5E5E;" d="M33.365,58.707c-0.256,0-0.512-0.098-0.707-0.293c-0.391-0.391-0.391-1.023,0-1.414l2.207-2.207
			c0.391-0.391,1.023-0.391,1.414,0s0.391,1.023,0,1.414l-2.207,2.207C33.877,58.609,33.621,58.707,33.365,58.707z"/>
	</g>
</g>
</svg>